<svg xmlns="http://www.w3.org/2000/svg" width="88.234" height="5.623" viewBox="0 0 88.234 5.623"><defs><style>.a{fill:#a72126;}</style></defs><path class="a" d="M144.11,314.852c-.233-.056-.609-.042-.662-.192-.11.065-.317.037-.348.109a.2.2,0,0,0,.11-.021c.05.046-.014.03-.09.057a.31.31,0,0,0-.213-.053c-.077-.03-.044-.057.039-.081-.071-.009-.138,0-.142.032a1.855,1.855,0,0,0-.833.028,1.689,1.689,0,0,0-.956.12l-.052-.025a2.915,2.915,0,0,1,.61-.21c-.051-.035-.11,0-.159-.051-.483.127-.772.078-1.237.161-.015-.012,0-.023-.023-.035a1.449,1.449,0,0,0,.515-.131c-.068-.037-.148,0-.221-.028.029.049-.046.062-.142.032a.068.068,0,0,1-.013.094c-.159-.03-.522.012-.458.108-.071.037-.023-.074-.132-.039-.015-.025.11-.023.065-.069-.11-.009-.221.081-.182.115-.076.016-.055-.063-.126-.086-.15.032-.058.069-.152.1-.074.027-.092-.039-.049-.048-.11-.023-.093.051-.12.069s-.143-.037-.156-.074a.958.958,0,0,1,.2-.055c-.16-.044-.241.041-.234.09a.982.982,0,0,0-.512.106c-.139-.035.023-.062-.042-.1.11-.018.221-.025.337-.041q-.151-.074.02-.141c-.068-.025-.137,0-.142.032-.009-.057-.131,0-.156-.074a1.312,1.312,0,0,1-.505.06c-.036-.035.152-.06.194,0,.03,0,.017-.016,0-.023l.057-.023a.61.61,0,0,0-.331.016c-.05-.048.015-.093-.035-.143-.063.049-.064.026-.175.067-.1-.03-.065-.057-.126-.085-.072.018-.058.039-.09.056-.075-.025,0-.048-.1-.072a2.91,2.91,0,0,1-.5.012c-.067-.053.068-.028.149-.079-.078-.034-.171.037-.246-.018,0,.019-.064.037-.035.058-.4-.049-.819.058-1.214.019-.03.016.022.032.049.048a.522.522,0,0,1-.2.055c-.089-.189-.544.044-.772,0,.086-.168.378-.116.606-.187-.11-.039-.264.044-.3-.042l-.175.067c-.066-.021-.049-.041-.074-.06a.624.624,0,0,1,.221-.018c-.035-.053.072-.028.094-.081-.11-.094-.274.115-.388.016-.13.063-.266.127-.385.192-.11-.034-.046-.064.013-.094a.5.5,0,0,0-.273-.03c.015.032-.013.063-.124.092.053.014.11-.025.162.026a.446.446,0,0,1-.276,0l-.263.1c-.038-.071.057-.055-.129-.062-.128-.034.068-.062-.042-.1-.05.115-.2.078-.383.176-.163-.021-.331-.025-.489-.058a1.392,1.392,0,0,1-.5.19c-.121-.034.1-.062.068-.093a1.337,1.337,0,0,0-.641.245c.256.03.348-.125.518-.154.046.021.046.041.02.06.07.023.185-.049.12-.069.221.1.7-.176,1-.049a1.734,1.734,0,0,1-.9.122,1.713,1.713,0,0,1-.932.157.393.393,0,0,0,.194-.208c-.081.049-.15.025-.231.065-.235-.131-.346.065-.573-.048a3.765,3.765,0,0,1-.424.072c.073.021-.019.039.02.06a.741.741,0,0,0-.227.042c-.121-.046.035-.072.119-.069a.382.382,0,0,0-.34.063.564.564,0,0,1-.331-.032,2.637,2.637,0,0,1-.479.072c-.095-.069.076-.132.166-.2a2.946,2.946,0,0,1-.564.083c-.094-.048-.04-.057-.159-.051-.095.042.17.018.075.06a.806.806,0,0,0,.248,0c.035.062.011.055.159.051.025.016-.032.03-.062.046-.076.019-.138-.065-.214-.051,0,.019-.065.037-.035.058a1.6,1.6,0,0,1-.275,0c-.039-.032-.01-.044.061-.046.054-.011.022.019.077.037.018-.035.061-.069-.013-.106a4.966,4.966,0,0,1-1.139.258c-.04-.016-.078-.034-.049-.048a1.41,1.41,0,0,1-.511.108c-.019-.062.281-.088.265-.123.073.053.145.025.03-.011a4.794,4.794,0,0,1-.839.076c-.084-.081.294-.049.295-.136-.11,0-.14-.023-.2.032a7.611,7.611,0,0,0-1.4.134c-.078-.034.221-.058.068-.094a.538.538,0,0,1-.318.1.691.691,0,0,0,.246.018c.015.012,0,.023.022.035a1.991,1.991,0,0,0-.5.035c-.05-.021-.019-.041-.074-.06a1.855,1.855,0,0,1-.392.039c-.045-.021-.045-.041-.02-.06-.062-.019-.132.034-.191-.016-.058.014-.035.03-.007.048a13.323,13.323,0,0,0-1.356.03c-.039-.025-.009-.048.065-.069a1.075,1.075,0,0,1-.249,0c-.136.028.052.063-.067.094a.542.542,0,0,0-.388.016c-.075-.025,0-.048-.1-.072-.052.026.013.055-.039.081-.148-.069-.127,0-.331.016-.074-.025,0-.048-.1-.072-.024.019-.026.039.02.06-.177.032-.552-.051-.535-.131-.263.042.2.072.036.143-.095,0-.063-.033-.184-.063-.132.044-.282,0-.343.086-.12,0-.258,0-.3-.065l-.146.057c.1.063.04-.049.136.014a3.794,3.794,0,0,1-.728.078c.043-.048.022-.086.151-.1-.185-.067-.231.088-.427.1a.5.5,0,0,0-.388.016.867.867,0,0,0-.466-.023c-.035-.051.146-.016.2-.055-.052-.037.083-.069.042-.106-.157.069-.376.078-.518.154-.043-.023-.11,0-.221-.028-.055-.071.331-.009.122-.092.088-.046.163.016.253-.03-.077-.056-.316.037-.3-.042-.093.041-.191.021-.34.064.014-.1-.159,0-.295-.065a3.128,3.128,0,0,1-.508.083c-.007.048.129.085.214.053-.021.081-.26.032-.362.028-.023-.037.054-.074.094-.081-.017-.039-.1-.041-.1-.1-.017.106-.164.026-.317.1.056.064.13,0,.188.039a.459.459,0,0,1-.276,0c-.025-.023.047-.009.087-.034-.038-.023-.117-.014-.078-.037-.1-.037-.043.076-.139,0,.025.041.076.081-.015.118-.132,0,0-.041-.1-.072-.077.027-.051.055-.039.081a.294.294,0,0,0-.139,0c-.14-.055.093-.1-.008-.153-.033.032-.084.062-.067.094-.1.051-.177-.055-.278.018-.1-.03-.065-.056-.127-.085a.779.779,0,0,1-.36,0,.645.645,0,0,1-.42.049c-.074-.025.147-.044.01-.071a.948.948,0,0,1-.441.037c-.116.025.046.056-.037.081-.162.011-.023-.071-.153-.1-.073,0-.1.014-.116.044-.258-.136-.561.062-.827-.018a.774.774,0,0,1-.345.111.644.644,0,0,0-.189-.039c-.025-.06.167-.03.23-.065a.7.7,0,0,0-.42.049c-.136-.023-.071-.049-.153-.1-.11.016-.172-.019-.226.042l-.1-.049c.043.064-.252.086-.36,0-.093.085-.169.048-.308.028-.11.041.011.014.05.048a.586.586,0,0,1-.194,0c-.1-.058-.029-.056.012-.093a.62.62,0,0,1-.348-.09.115.115,0,0,1,.084-.011,1.025,1.025,0,0,0-.383-.032c.287.039.229.115.506.141-.267.1-.29-.074-.49-.058,0,.051.205.108.173.157a2.073,2.073,0,0,1-.318-.1c-.081.049-.086.1-.158.15.038-.085-.1-.081-.205-.124-.052-.034.122-.06.012-.094-.051.037-.077.037-.067.094-.073,0-.172-.044-.11.021a.8.8,0,0,1-.239-.064c0-.037.252,0,.2-.078-.151.041-.821.132-.69,0a.56.56,0,0,1-.249,0c-.126.111-.413.018-.625.129-.043-.079-.221-.03-.152-.1-.093-.019-.076.06-.2.078a1.792,1.792,0,0,0-.638.021c-.019-.065-.2-.049-.221,0-.075-.064-.162-.025-.241-.064.022.039.064.041.1.1a.454.454,0,0,1-.267-.076c-.145-.014-.081.069-.275,0-.013.019.03.041-.035.058a.841.841,0,0,1,.353.042c-.2,0-.4-.016-.606-.012-.015-.012,0-.023-.023-.035.095-.021.265.03.281-.041a2.122,2.122,0,0,1-.466-.021.163.163,0,0,1-.11.021c-.024.02-.026.039.02.06-.125.039-.238,0-.362.028-.1-.026-.026-.048-.1-.072-.11.028.054.06-.09.056-.1-.034.068-.056-.075-.06-.078.018.009.039-.035.058a8.012,8.012,0,0,0-1.287-.086c-.044-.025.082-.046.064-.069-.153-.026-.322.079-.467-.021-.024.019-.026.039.02.06-.061.042-.11.012-.171.044-.07-.021-.008-.039.035-.058a1.528,1.528,0,0,0-.247-.018c-.03.016.023.032.05.048-.06.039-.11,0-.168.019-.008-.019.04-.039-.02-.06l-.116.044c-.075-.025,0-.048-.1-.072-.268.014-.537.028-.8.018l.077.037a.615.615,0,0,1-.221.019c-.07-.021-.009-.039.034-.058a1.565,1.565,0,0,0-.531.048c-.04-.049-.1-.062-.221-.028.138.048.011.048-.064.069.254-.019.356.051.632.025.031-.021-.025-.009-.052-.025.062-.051.11.032.169-.019a.775.775,0,0,0,.209.1c-.318-.055-.763.037-.993-.044-.019.011,0,.023-.032.035-.11.023.029-.044-.075-.06a.757.757,0,0,1-.5.012.312.312,0,0,1-.28.041c.044-.046.146-.092.073-.139.083-.014.221,0,.226-.042-.11,0-.11,0-.16-.051-.05.053-.121.039-.148.079a.864.864,0,0,0-.279.018.831.831,0,0,0-.552-.012c0-.072-.1-.067-.247-.018-.019-.019-.017-.041.035-.058-.18-.037-.373.041-.552.012-.052.023.066.049-.009.071s-.1-.062-.166,0c-.046-.021-.046-.041-.02-.06-.087-.012,0,.065-.142.032-.067-.025-.092-.049-.046-.072-.142.032-.387-.035-.441.037-.075-.025,0-.048-.1-.072-.007.072-.146.009-.139,0a.932.932,0,0,1-.472.025c-.042.069-.268.032-.392.039-.008-.019.04-.039-.021-.06-.092.076-.221,0-.369.074-.047.049.137.065.189.039.049.011-.131.051-.171.044-.056.055.124.016.162.026s-.051.039-.089.056a.375.375,0,0,0-.275,0c-.068-.028-.132-.058-.073-.085-.1-.044-.2.018-.3-.042-.028.03,0,.072-.118.069a1.02,1.02,0,0,1,.492-.19c-.09-.009-.179-.037-.269-.053-.043.023-.058.071-.142.032-.03.019,0,.039-.034.058-.126.03-.068-.03-.185-.064.014.1-.475.1-.525,0,0,.058-.117,0-.2.055.086.044.185-.014.273.03-.007.044-.237,0-.331,0-.012.023-.043.046-.119.069s-.061-.039.006-.048c-.095-.019-.11.06-.038.081a.454.454,0,0,0,.2-.032c.024.025.024.048.047.072-.132.032-.253-.042-.385,0-.025-.046.2-.129.017-.141.028.063-.042.032-.145.056-.011-.071.1-.03-.1-.072-.014.046-.026.062-.147.079-.039-.09-.209.028-.324-.055a4.565,4.565,0,0,1,.968-.014c-.13-.083.256-.032.209-.125-.043-.023-.09-.012-.132-.039a.316.316,0,0,1-.331-.03c.074.069-.134.06-.043.129a.518.518,0,0,1-.221,0c-.053-.039.221,0,.035-.058.061-.051.11.032.168-.019-.051-.021-.02-.041-.075-.06-.167.076-.209.014-.244-.041-.012.1-.358.028-.531.048-.062.044.007.032.076.06-.19.076-.489,0-.588.071-.11-.03.021-.055-.018-.083a2.838,2.838,0,0,1,.441.009c.053-.03.056-.062.011-.094a.113.113,0,0,1-.11,0c-.014.016-.029.032-.007.048a1.073,1.073,0,0,0-.67.057c.078-.118-.2-.062-.258-.148a.219.219,0,0,1-.139.009c-.057.064.124.014.16.051s-.119.079-.266.148c-.121-.067.122-.065.124-.115-.135-.048-.11,0-.253.03.044.028.012.055.018.083-.067.016-.125-.039-.194,0,.11.049.245-.046.354.042a1.107,1.107,0,0,1,.423-.074c.046.03-.127.018-.168.019-.046.035.083.042.11.019-.023.2-.8.009-1.224.076.04.016.078.034.05.048.061.035.134-.034.192.016.012.034-.21.072-.278.018.053.057-.188.127-.284.065a.32.32,0,0,1,.221-.019c-.032-.071.065-.067.1-.129-.118-.03-.081-.046-.213-.076a1.829,1.829,0,0,0,.559-.06c-.11-.058.014-.057-.154-.1,0,.039.1.081-.068.116-.184,0-.365-.03-.552-.012.067.025.092.049.046.072a1.94,1.94,0,0,0,.246.018c-.009.034-.117.053-.173.067-.054-.018-.026-.032,0-.048-.156-.035-.046.067-.221.042-.008-.035.063-.069.041-.106-.2.085-.568-.009-.783.078-.038-.028.035-.055-.073-.085a.969.969,0,0,0-.31.053c.071.025.1.049.1.072a3.729,3.729,0,0,0-.392.039c-.06-.048.1-.134.228-.065-.06-.037.047-.071-.015-.106a1.462,1.462,0,0,1-.481.1c.058.049.131-.019.192.016-.01.058-.163,0-.255.053-.051-.021-.02-.041-.076-.06-.072.127-.322-.009-.476.049-.071-.088.221-.058.234-.113a.141.141,0,0,0-.084.011c-.12-.026.073-.046-.047-.072-.1.034-.247,0-.2.055-.1.049-.181-.026-.276,0-.019-.032.034-.076.11-.044-.014-.081-.36.06-.381-.055l-.173.067c.067.021.05.041.076.06-.11.026-.11-.018-.16-.051a1.038,1.038,0,0,1-.63-.048c-.168.064-.52-.039-.772,0-.009.056.11.016.189.039a.912.912,0,0,1-.441.039c-.042-.06.173,0,.145-.057-.084-.028-.15-.048-.158-.074-.068.023-.2.092-.291.136-.127.016-.092-.064-.183-.086-.066-.009-.28.058-.246-.018a1.791,1.791,0,0,1-.638.021c-.124-.039.11-.069-.017-.106-.162.032.04.072-.095.1s-.129-.062-.211-.1a1.174,1.174,0,0,1-.221,0c.024-.032,0-.063-.1-.1a.066.066,0,0,1-.087.034c-.068.032.085,0,.11.049a.361.361,0,0,1-.221,0c-.061.03.1.044.135.039.007.028-.025.055-.036.081-.11,0-.11-.042-.168.019-.11-.056.033-.041.036-.081-.11-.034-.1.026-.145.057-.13.018-.257-.014-.386,0,0-.035.087-.069.095-.1a.814.814,0,0,0-.379-.078.481.481,0,0,0-.373-.125c.071.025.166.03.158.074a.544.544,0,0,1-.25,0c-.056.023.035.048-.063.069.11,0,.3.065.331,0,.013.028.04.056-.036.081-.1,0-.061-.067-.194,0-.12-.026.073-.046-.047-.072.015.072-.135.067-.253.03-.072.044.031.057.11.049-.049.021-.093,0-.141.034-.03-.028-.19-.058-.129-.085-.049,0-.242.062-.192-.016-.088-.023-.149.1-.284.065-.026-.021.051-.039.088-.056-.137-.011-.384-.079-.441-.009-.041.009-.235-.016-.11-.049a.943.943,0,0,0-.662.212.778.778,0,0,0-.194,0c-.11-.041.1-.076-.042-.118a.266.266,0,0,1,.221,0c.132-.037.162-.076.068-.116-.028.011.01.023.024.035a.352.352,0,0,1-.25,0c-.061-.035.086,0,.11-.044-.068-.051-.151.03-.221-.028-.06.113-.358.028-.552-.035-.094.041-.174.12.013.131-.04-.062.072-.039.169-.019.026.021-.049.021-.084.011a1.828,1.828,0,0,0,.465.044c-.451.074-1.123,0-1.663.037-.026-.016.03-.032.06-.046a.263.263,0,0,0-.221.019c-.039-.076-.11-.012-.221-.051-.079-.028.186-.051.036-.081-.11.076-.16.03-.36,0a.292.292,0,0,1-.331.018c-.1.053-.185.012-.284.065A5.6,5.6,0,0,0,75,314.519c.009.053-.121.094-.169.021-.11.025-.086.053-.092.081a.257.257,0,0,1-.11,0c.017-.035-.014-.07.094-.1-.156-.049-.049.1-.221.019-.051.083-.1.053-.255.055-.054-.028.015-.055.09-.081a2.876,2.876,0,0,0-.871.136.389.389,0,0,1-.221-.028c-.073-.037.076-.069-.018-.106-.1.03-.084.062-.064.094-.135-.016-.1.023-.221.042-.076-.064.11-.141.235-.138-.055-.019-.028-.035,0-.023a.96.96,0,0,0-.745-.026c-.1-.034.134-.06.009-.094a1.74,1.74,0,0,1-.552-.011c-.055.018-.028.039-.088.056-.008-.019.039-.039-.021-.06-.1,0-.035.016-.11.046-.022-.016.04-.03,0-.048-.11-.051-.239-.012-.221.042a.106.106,0,0,0-.082-.014c-.026-.016.03-.032.06-.046a2.514,2.514,0,0,0-.829-.016c-.246-.069-.188.018-.331-.03a1.264,1.264,0,0,1-.427.122.915.915,0,0,0,.191.039c-.087.041-.164-.025-.249,0-.026-.016.03-.032.058-.046-.174,0-.345-.06-.52-.069-.026-.016.03-.032.061-.046a.551.551,0,0,0-.25,0c-.1.127-.639-.062-.917.018.321.025.644.041.964.078a1.064,1.064,0,0,1-.331,0c-.047.055.143.016.191.039l-.172.067c-.051-.021-.021-.039-.077-.06-.234.026-.232.136-.508.085-.021-.042.187-.046.257-.078-.007-.028-.072-.056-.02-.083a.552.552,0,0,1-.425.1c-.04-.025-.011-.048.062-.071-.11-.044-.221.1-.394.064-.11-.034.083-.062-.047-.1-.03,0-.017.016,0,.023s-.149,0-.118.069c-.049-.011-.233-.03-.2.032a.571.571,0,0,1-.193-.016c0-.044.193-.083.15-.127-.07.012-.169.03-.255.055-.076-.025-.006-.048-.1-.072a3.62,3.62,0,0,1-.5-.009c-.055-.028.11-.012.143-.056-.211-.041-.268.122-.473.026-.056.011-.117.072-.171.044-.067.032.085,0,.11.049l-.086.034c-.162-.048-.331,0-.494-.056,0-.06.221-.064.306,0a.585.585,0,0,1,.221-.042.843.843,0,0,0-.441,0c-.11-.037.036-.071-.074-.108a1.685,1.685,0,0,1-.7.069c-.061-.044.086-.012.11-.046-.118,0-.062-.041-.16-.074-.151.032-.3,0-.447.039-.2-.076-.2.012-.507.085a1.439,1.439,0,0,1,.361,0c.058-.014.033-.03,0-.048a.472.472,0,0,1,.221,0c.063.021-.088.03-.11.021a.534.534,0,0,0,.441.079,1.077,1.077,0,0,0,.579.046c.063.035.029.063.137.014a2.184,2.184,0,0,0,.854.076c0,.081.3.023.213.1a1.052,1.052,0,0,1,.253-.03c-.044-.023-.092-.012-.136-.037.056-.011.11-.011.168-.021.02.019.019.041-.032.058.071.039.147.012.221.051.054-.014.024-.032.06-.046a.162.162,0,0,0,.193.016.209.209,0,0,0,.136.037c.075.025-.146.044-.007.071a1.059,1.059,0,0,1,.692.025c.1.03.035-.035.11-.046a.522.522,0,0,0,.084-.011c.1.03.029.057.131.085a2.238,2.238,0,0,1,.8.026.9.9,0,0,1,.2-.055c-.135-.055-.11.041-.25,0,.07-.035.05-.026-.02-.083a.351.351,0,0,1,.384.032c-.077.042-.142-.057-.221,0,.124,0,.177.072.073.108.175,0,.348.041.521.046-.055.064-.029.039.1.072a.434.434,0,0,1-.271-.053c-.051.023.067.048-.007.071a2.852,2.852,0,0,1,.3.018c.071-.03-.032-.064-.1-.1a1.976,1.976,0,0,0,.472-.027c.024-.032-.03-.064.009-.094.166-.014,0,.062.13.085.028.023-.046.009-.086.034.156.085.524.039.707.132a1.93,1.93,0,0,1,.662-.011c.071.062-.156.049-.177.115.164.049.214-.074.246.041.053-.039.057-.078.011-.118a1.957,1.957,0,0,1,.578.023c.067-.09.255-.051.392-.041.026.016-.03.032-.06.046a.239.239,0,0,1-.135-.039c-.038.011-.045.023-.032.035l-.057.023c.1.032.206-.035.3.041a.576.576,0,0,1-.194,0c-.04.064.16.034.221.051-.189.1.212.023.353.065-.008-.037.033-.1.148-.1-.079.058.066.062.071.131a.114.114,0,0,1,.084-.011c-.046-.067.139-.055.178-.115a.957.957,0,0,0,.468.021c.1.033,0,.063-.01.1a2.86,2.86,0,0,1,.38.078l.11-.044-.11-.049c-.11.065-.2-.014-.3-.018.134-.048.255.028.388-.016-.015.143.3.067.511.139a1.411,1.411,0,0,1-.247-.016c-.013.058.221.041.3.041.028-.032.021-.062.065-.093.151-.014.071.063.129.085a.115.115,0,0,1,.11,0c.01-.074.141-.071.276,0-.077-.079.043-.025.175-.092.152.069-.2.053-.012.118.055-.086.157-.06.233-.113.13.058-.162.053-.12.092a.34.34,0,0,0,.255-.053c.121.053-.094.026-.063.069a.929.929,0,0,0,.552-.035c.062.028.028.055.129.085a2,2,0,0,1,.362-.028c.033.032-.028.062-.01.094a.551.551,0,0,1-.11.021c-.09-.025.009-.048.008-.071a1.745,1.745,0,0,1-.417.026.965.965,0,0,0,.355.042c.09.035-.15,0-.061.046-.126-.025-.256-.016-.383-.032-.025.016.033.032,0,.048-.11.023-.029-.046-.132-.062a.218.218,0,0,1-.139.009c-.023.146-.266-.039-.419.051-.1-.034.03-.071-.1-.072-.084.046.018.1-.07.141.07.037.148,0,.221.028.029-.014-.024-.032-.051-.048a.51.51,0,0,1,.276,0c.013.044-.089.018-.117.069a1.418,1.418,0,0,0-.331.018c-.1-.034.03-.071-.1-.072a2.511,2.511,0,0,1-1.137.037c-.015-.032.11-.06.064-.093.331.025.655.072.993.067.054-.041-.12-.044-.166,0-.082-.042-.2-.034-.075-.085-.093,0-.185.018-.278.018-.021-.032.083-.062-.045-.1-.093.065-.119.044-.252.03-.1-.03.029-.055-.074-.085a1.4,1.4,0,0,0-.559.06c0-.019-.055-.041-.022-.06.081-.032,0,.06.11,0-.161-.049-.331-.011-.492-.056l-.2.079a.42.42,0,0,0-.157-.1c-.119.078.065.079.1.12-.11.041-.194-.085-.3-.018-.126-.049.118-.092-.041-.143-.028.011.01.025.024.035a2.343,2.343,0,0,1-.633-.025c-.116.049.057.1.157.1-.1.019-.221.131-.312.076-.045-.046.11-.012.088-.057-.05-.053-.11.026-.163-.026-.066.044.006.062-.146.079-.063-.025-.061-.048.007-.071-.148-.051-.143.092-.281.042-.039-.035.157-.067.039-.106-.11.025-.077.053-.146.079a.254.254,0,0,1-.11,0c0-.039.151-.035.119-.092-.14,0-.11-.034-.241-.086a3.372,3.372,0,0,0-.719.009c.163-.083-.441-.057-.628-.1.017-.062.256.014.364-.051-.221-.062-.426.057-.579-.023-.029.016.024.032.051.048-.079.055-.148,0-.221.042-.2-.12-.48-.016-.6-.106-.257.049-.4-.018-.615.058.1,0,.031.016.11.049-.311.071-.388-.063-.4-.161-.073.046-.019.094-.068.141a3,3,0,0,1-.356-.042c-.036-.03.119-.026.183-.049-.074,0-.413-.053-.481-.039-.064-.012-.058-.076,0-.048,0-.056-.11,0-.167,0-.03.016.024.032.051.048a3.8,3.8,0,0,0-.883-.086l-.134-.062c-.057.023-.11-.019-.168.021-.23-.129-.48-.009-.71-.13a1.391,1.391,0,0,1-.743-.072c.154-.035.164-.06.285-.088a2.093,2.093,0,0,1-.693,0c0,.1-.2.143-.131.258-.138-.016-.274-.049-.411-.067.007.106.5.048.484.176-.057.026-.11-.039-.162-.049-.025.074-.221,0-.338.064.02-.039.036-.078-.1-.12.008.058-.081.069-.2.1-.083-.048-.237-.109-.246-.041-.1-.034-.042-.072-.16-.074-.053-.046.012-.03.088-.058a1.021,1.021,0,0,0-.362,0c-.093-.041.11-.076.009-.118-.051.018-.095.111-.2.055-.019.027-.089.053.022.083-.159.025-.134.014-.2.079s-.11-.065-.166-.026c-.13.042.067.048.11.072a1.212,1.212,0,0,0-.221,0c-.054-.032.12-.06.007-.094-.036.051-.2.019-.138-.014a.958.958,0,0,1-.692-.048c-.01.026-.079.053-.089.081a.4.4,0,0,1,.161.074c.074-.018.017-.039-.023-.06a3.365,3.365,0,0,1,.689.1c-.2.039-.386-.06-.583-.021a1.922,1.922,0,0,1,.3.064c-.11.026-.221-.039-.337.041-.055-.032.049-.062-.049-.1-.047.021-.094,0-.141.034-.071-.021-.01-.039.032-.058-.054-.025-.11.016-.164-.026-.032.067-.211.023-.23.09-.148-.042.009-.078-.1-.12a.578.578,0,0,1-.386-.055c-.174.041-.17-.034-.331,0-.063-.044.087-.012.11-.046-.154-.053-.316,0-.47-.044-.062.035-.075.048-.09.1-.093-.012-.27,0-.282.065-.122-.026.072-.046-.051-.072a.779.779,0,0,1-.251-.016c-.11.028-.038.058-.142.056-.089-.041.134-.076.118-.116.067-.034.125.079.193.016a.466.466,0,0,0-.361-.018c-.1-.025-.03-.048-.11-.072a.855.855,0,0,1-.475.027c-.049-.012-.053.019-.03.035a.474.474,0,0,1-.3-.041c-.068.044-.131.012-.2.055.122-.037.236.085.361.018.079.06-.039.081.16.12a.22.22,0,0,1-.249-.016c-.11.057.11.044.11.1a.136.136,0,0,1,.167,0c.075-.044.139-.012.142-.057-.09-.028-.169,0-.136-.062.065-.019.127.051.193.016.046.046-.078.06.079.085-.054-.081.124,0,.221,0,.013.011,0,.056-.047.062a.975.975,0,0,0,.346.049c.1.1.275.039.353.136a1.127,1.127,0,0,1,.281-.065c.028.019-.049.039-.086.058a.98.98,0,0,0,.358.065c.044-.03.018-.042-.053-.048.081-.057.2,0,.2-.055.026.053.071.073.11.049.053.046-.012.03-.087.058a1.535,1.535,0,0,1,.441.078c.057-.124.2.06.331-.041-.032.072.116.032.134.085a.469.469,0,0,1-.3-.041c-.1.1-.353.012-.525-.044-.012.035-.024.071-.146.1.274-.108.786.176,1.056-.028a3.139,3.139,0,0,1,.525.044c.043-.03.018-.044-.053-.048l.171-.067a.335.335,0,0,1,.164.027c-.086.037-.167,0-.254.055.081.034.164.03.245.064l.11-.046a.613.613,0,0,1,.138.014c.054.028-.014.055-.089.081.205.025.117-.113.338-.065.023-.019.024-.039-.023-.06a.353.353,0,0,1,.169-.021c-.11.1.312.138.457.185-.164.026-.566-.053-.552.037-.167,0-.331-.046-.5-.032-.021.067.2.023.274.053a.438.438,0,0,0-.227.067c-.062-.1-.161-.014-.213-.122-.141.041-.081.085-.038.129-.11.019-.11-.055-.161-.074a.906.906,0,0,0-.2.055c-.1-.025-.03-.048-.11-.072-.127.056-.072,0-.193-.016-.131.034-.259,0-.391.041-.11-.03.019-.055-.022-.083.137-.018.383.042.364-.053a1.04,1.04,0,0,0-.221.044.076.076,0,0,0-.052-.048.237.237,0,0,1-.25,0c-.16.041.013.086-.147.127a.543.543,0,0,0-.084.011c-.1-.034,0-.063.007-.094-.071-.058-.148,0-.221-.051-.058.014-.032.032,0,.048-.168.026-.331-.088-.5.014a4.275,4.275,0,0,1-.772-.085.527.527,0,0,1-.279.019c-.035.056,0,.069-.089.1a.842.842,0,0,1,.221.1c.063-.056.012-.042.116-.092a.991.991,0,0,0,.362-.03c.068.044-.122.085-.147.127.065.032.275,0,.246.064a1.423,1.423,0,0,1,.552.034c-.11.035-.221.01-.331.04a.44.44,0,0,1,.221.051c.033-.049.058-.049.11,0a2.544,2.544,0,0,1,.636.023c.11.026-.015.048-.06.071.071.044.147,0,.221.028a.306.306,0,0,0-.185-.132.085.085,0,0,1,.031-.058c.065,0,.129.011.193.016.03.025-.066.046.051.071.071-.018.057-.039.087-.056s.073.016.11,0c.065.051-.061.026-.061.071-.085.03-.163-.044-.249,0,.854.067,1.713.078,2.561.176a.326.326,0,0,1,.384.032c.061-.049-.024-.1.04-.152.16-.021.14.074.3.041.026.016-.03.032-.058.046a2.96,2.96,0,0,1,.415,0c-.173.125.324.076.539.176.11-.021-.009-.048-.05-.072a1.358,1.358,0,0,1,.331.053c.035-.019-.07-.041-.022-.06a.325.325,0,0,1,.163.027c.011-.023.042-.046.116-.069.125-.035.081.064.221,0,.04.025.011.048-.061.071a2.129,2.129,0,0,0,.686.048c.02.019.019.039-.032.058a6.714,6.714,0,0,1,.772-.034c.011.016.023.032,0,.048a.739.739,0,0,0,.311-.078q.129.037-.007.071a3.36,3.36,0,0,0,.993,0c.1.03-.028.055.075.085-.057.023-.11-.019-.168.021a3.652,3.652,0,0,1,.913-.018c.046-.051-.214-.041-.046-.1a.806.806,0,0,0,.379.078c.088-.074-.11,0-.19-.039a.83.83,0,0,1,.307-.03.19.19,0,0,1-.067.116,3.283,3.283,0,0,1,.8-.042c.022.016-.039.03,0,.048s.09.012.135.039a.45.45,0,0,1,.172-.067c.007.025.033.048.1.072a2.421,2.421,0,0,1,.414,0c.062.032-.089.041-.11.021a.454.454,0,0,0,.422-.074c.14.034.011.064-.064.094A2.96,2.96,0,0,1,72,316.37c.054.016-.054.057-.1.035a.405.405,0,0,0,.253.062c-.042,0-.167.012-.06.046-.056.012-.11-.03-.167.021a1.332,1.332,0,0,0,.273.028c-.033-.032.046-.09.143-.056.031-.021-.045-.011-.079-.037a.979.979,0,0,0,.34-.088c.128.034-.066.062.045.1.084-.037.221-.034.23-.09a4.12,4.12,0,0,0,.662.037c0-.028-.023-.057.09-.081.083.069-.077.1.153.122a.444.444,0,0,1-.221.019c0,.062.256,0,.356.019.012-.019-.031-.041.033-.058a.4.4,0,0,1,.213.076c.11-.026.039-.055.147-.079.082,0,.151.108.3.018.076.025,0,.048.1.072a.335.335,0,0,1-.194,0,9.392,9.392,0,0,0,1.566.065c0,.032-.05.062-.12.092a1.5,1.5,0,0,1,.3.018c.076-.027.05-.055.035-.081a1.945,1.945,0,0,0,.941-.028c.076.055-.1.041-.09.081a1.963,1.963,0,0,1,.356.019c.029-.019,0-.039.034-.058.182-.019.476.122.577.023.063.028.028.056.129.085a.3.3,0,0,1,.249,0c.138-.122.469.037.694-.044-.024.023.1.049.047.072a.548.548,0,0,1,.412.019.4.4,0,0,1,.17-.044c.006.016.012.032.05.048.029-.037.179-.034.11,0a.817.817,0,0,1,.385,0c-.03-.051.044-.055.145-.056.026.016-.031.03-.06.046.136.021.276,0,.412.019-.11.055-.141-.014-.2.055a.682.682,0,0,0,.246.016c.026.021-.051.039-.089.056-.1,0-.193-.081-.3-.018.122-.012.062.081.186.063.03.053-.076.057-.172.067-.046-.028.024-.055.036-.083a.2.2,0,0,0-.2.055.589.589,0,0,1-.273-.028c.2.016.159-.072.309-.053.055-.042-.173-.025.008-.071.11-.035-.03.072.078.037.149-.048.021-.028-.047-.072a.261.261,0,0,1,.11,0c-.11-.046-.479.016-.687-.026.051.069-.11.012-.118.069a1.572,1.572,0,0,0,.391-.039c.051.159-.4.1-.54.143-.2-.064,0-.118-.119-.176-.015.078-.181-.025-.279.042.086-.011.331.021.238.086-.147-.081-.147.039-.356-.019-.11-.037.038-.071-.071-.108l-.145.056c.04.016.079.034.051.048-.264.053-.518.027-.778.055.076.058.164.016.244.041-.159.037-.441.063-.492-.034a.348.348,0,0,0,.221-.042c.035-.044-.131-.018-.076-.06-.174,0-.331.1-.441-.009a.238.238,0,0,1-.194,0c0,.019-.063.039-.034.058a2.478,2.478,0,0,1-.655-.06c-.12,0-.241.021-.362.028a.086.086,0,0,1,.034-.058c-.1-.027-.076.044-.143.056-.11-.042-.039-.079.012-.118-.124-.023-.281,0-.323-.078-.041.046.061.1-.068.141.169.039.073-.1.279-.042.032.048-.013.074-.119.092-.213.018-.413-.1-.627-.071-.073-.067.095-.037.172-.067a.508.508,0,0,0-.278.018.077.077,0,0,0,.051.048c-.074.012-.1-.028-.11.021-.151-.051-.32.071-.465-.044-.022.053-.255.056-.275,0a.662.662,0,0,1-.529.049c-.054.014-.024.032-.061.046-.139-.042-.3-.011-.295-.088l-.2.079c-.184-.042.063-.078-.043-.12a.581.581,0,0,1-.359,0c-.021.039-.139.076-.177.115-.072-.049.141-.092.014-.141-.011.115-.364.1-.529.049-.143.019-.131.092-.281.065.01-.042.118-.088-.049-.072-.025-.035.053-.071.148-.1a.057.057,0,0,0-.055,0l-.053-.025c-.09.03-.029.062-.119.092-.145.032-.117-.062-.266-.1-.11.044-.2-.025-.3,0a.406.406,0,0,0,.331.03c0,.028.061.057.129.085-.118-.014-.11.039-.246-.018-.126.021.063.048-.062.069a2.18,2.18,0,0,0-.573-.071c-.036.03.159.041.221.028.03.092-.241.076-.364.051-.077-.058.193,0,.11-.044-.135-.063-.11.041-.249,0,.171-.109-.423,0-.6-.106a3.353,3.353,0,0,1-.425.122c.023-.1-.43-.021-.5.014-.04-.016-.081-.033-.051-.048-.047.035-.159,0-.279.042-.082-.088-.192,0-.387.016-.039-.028.034-.055-.075-.085-.348.057-.527,0-.883.03-.038-.032.034-.058-.077-.06-.013.1-.194.035-.273-.028.052.072-.132.122-.284.088-.043-.06.173,0,.143-.056-.044-.023-.092-.012-.135-.039-.043.03.023.06-.087.058-.032-.019.076-.037.032-.058-.173-.034-.232,0-.221.042-.139.018.007-.074-.132-.062.014.058-.11.076-.228.09-.044-.071-.085,0-.188-.062,0,.051-.143.044-.221.019-.008-.028.058-.012.032-.058-.049.072-.473-.016-.422.1-.1-.035-.207.069-.306.03-.075-.053.094-.035.173-.092-.1-.021-.2,0-.3-.018-.056.148-.426.071-.532.1.012-.044.147-.06.2-.079.055.016.028.032,0,.048.119.03.088-.034.221-.042a.612.612,0,0,1-.378-.1c-.11.025.01.055-.034.081a6.249,6.249,0,0,0-1.045-.044c-.036,0-.231.042-.143.079-.147.049-.269-.055-.279.042-.079-.034.013-.064.008-.094a.247.247,0,0,1,.136.039c.089-.046-.061-.076.117-.092a1.23,1.23,0,0,0-.331.064.079.079,0,0,0-.052-.048c-.094.039.056.03.022.083a.646.646,0,0,0-.251.032,10.79,10.79,0,0,0,1.262.094c.12.027-.072.046.05.072.1,0,.074-.026.142-.057.11.049-.074.094-.177.138a2.623,2.623,0,0,0-.8-.051c-.083,0-.162-.049-.245-.041.074.055.052.046-.11.021-.1.021,0,.048-.061.071a.761.761,0,0,0-.441-.032c-.076-.025-.007-.048-.11-.072.009.051-.081.085-.2.055-.075-.025.143-.044,0-.071a.115.115,0,0,1-.11,0c0,.019-.035.039-.087.057a2.715,2.715,0,0,1-.544-.1c-.053.1-.181-.028-.3.03-.055-.046.11-.012.141-.057a1.05,1.05,0,0,1-.3-.018c-.056.011-.11.072-.169.044.032.062,0,.055-.145.1a2.086,2.086,0,0,0,.468.019c.1.055-.07.041.022.083.11-.033.124-.069.089-.1a.991.991,0,0,0,.2-.032c0,.078.181.042.274.028.067.053-.12.042-.146.1a.181.181,0,0,0,.169-.044.536.536,0,0,0,.27.076c0-.032.1-.062.172-.092.032.041-.011.079.1.12a.519.519,0,0,1,.221,0c-.032.026.033.057.021.083a5.308,5.308,0,0,1,.883.039c.171-.072.331.035.5-.014.281.127.711-.06.9.1.058-.042.11-.012.169-.044a.842.842,0,0,0,.214.074c-.11.026-.2-.023-.253.055.052-.062-.065-.032-.161-.049-.072.049.034.037.11.049a.887.887,0,0,1-.386.016c-.049-.025.127-.037.167-.021a1.474,1.474,0,0,0-.467-.021c.061.046.129,0,.19.039a3.57,3.57,0,0,0-.583.048c-.079-.028.184-.051.034-.081l-.11.046a1.7,1.7,0,0,0-.691.023c.162-.063-.1-.048-.243-.063-.019.03-.089.056.023.06-.2.086-.221-.051-.386.016-.076-.037-.034-.071-.02-.106a.232.232,0,0,0-.2.079c-.11.026-.324-.083-.358,0-.05,0-.232-.037-.189-.062a1.335,1.335,0,0,1-.662.012.528.528,0,0,0,.253-.078c-.089-.028-.181-.048-.27-.076-.082.012.079.085-.031.058-.053.06.125,0,.166,0,.019.078-.306.125-.441.039-.183,0-.376.143-.552.062l-.11.044c-.092-.025.007-.048,0-.071-.11-.021-.221.069-.331.018-.055-.046.11-.028.141-.056a1.707,1.707,0,0,1-.8-.026.543.543,0,0,0-.277.042c.063.021.078.041.024.06-.11-.06-.408.012-.6-.058a.249.249,0,0,1,.194-.032,1.859,1.859,0,0,0-.492-.056c-.129.056.095,0,.135.062-.094.037-.184,0-.277.042.021.019.019.039-.031.058.071.035.1,0,.11.049a.326.326,0,0,0-.11.021.792.792,0,0,0-.351-.111c.094-.056.181.037.276-.019-.062-.046-.127-.016-.189-.062.055.048-.2.083-.306.078-.026-.016.029-.032.057-.046-.071-.058-.146,0-.221-.051-.047.023.074.048.052.072-.193.039-.383-.025-.577,0,0,.062.14,0,.221.027.017.012,0,.023.025.035a.825.825,0,0,0-.331.042c.006.067.139.048.192-.009.126.034-.124.071.052.072-.085.035-.276.044-.141.1.079,0,.11-.026.03-.058a.18.18,0,0,1,.11.025c.1-.026.074-.055.14-.081a1.731,1.731,0,0,0,.494-.016,1.433,1.433,0,0,0,.6.056c-.015.094-.309.03-.331.113a4.323,4.323,0,0,0,.824-.034.216.216,0,0,0,.274.028c.072.053.032.111-.089.129.044.034.093,0,.137.014-.052-.041.126-.076.007-.118a2.408,2.408,0,0,0,.577,0c-.254.046-.416.094-.472.1.078.086.4-.028.579-.049.01.062.2.048.3.041.024-.016-.034-.032,0-.048a.5.5,0,0,0,.084-.011c.009.019-.038.039.024.06.228,0,.46-.039.69-.046.017.012,0,.023.025.035-.246.021-.331.06-.552.085a4.827,4.827,0,0,0,.574.046c.067-.042-.084-.016-.11-.049a.412.412,0,0,1,.139-.034c.125.037.032.1.159.1.054-.019.026-.039.086-.058a.136.136,0,0,0-.083.011c-.062-.028-.043-.122-.11-.049-.159-.067.036-.092.142-.079-.139.034.156.044.049.1.072.023.15-.06.221-.042.078.046-.12.074-.2.079s.064.063-.007.093c.1.032.2-.021.3.018-.008.051-.11.035-.171.092.1.069.2-.019.3.041.052-.042-.122-.023-.16-.074a1.13,1.13,0,0,1,.246.016c-.12-.049-.053-.076-.019-.13a.223.223,0,0,0,.083-.011c.121.026-.071.046.05.072.124-.076.763,0,.707.083.076-.042.168-.018.17-.069.142.039.044.072.129.108a3.216,3.216,0,0,1-.412,0,1.37,1.37,0,0,0,.573.046c.052.025-.043.046.05.072a.564.564,0,0,1,.412,0c.019-.06.135-.049.064-.117.078.053.185-.023.331.03-.075-.086.227-.032.227-.09.2.039-.12.069.019.106a.351.351,0,0,1,.249-.03c.009.028-.022.055-.033.081a5.753,5.753,0,0,0-.772.034c.061.046.13-.025.19.039.367-.129.707.088,1.073-.014.34.125.987.011,1.143.139.11.011.221.014.331.03.064-.088.248-.021.387-.041.009.019-.038.039.023.06.014-.062.211-.06.193,0,.308-.065.6.042.906,0-.084-.035.07-.053.11-.069.047.028-.118.053-.089.081a3.143,3.143,0,0,0,.772-.009c-.013.088.295.1.354.042.051.044.11.016.16.049.147-.127.7.067,1.02-.039.232.136.694-.071.874.065a1.056,1.056,0,0,0-.248,0,2.582,2.582,0,0,0,.552.011c.086.012.393.09.41.019.057-.026.11.039.16.051.2-.042.385,0,.582-.048a8.563,8.563,0,0,0,1.067.056c9.231.448,18.522.386,27.825.318.077.028.007.055-.038.081-.687-.087-1.4.053-2.1-.021a.3.3,0,0,1-.2.055c-.025-.023.047-.009.087-.033-.11-.03-.228.056-.331,0-.086.03.011.063-.066.093a2.5,2.5,0,0,0-1.2.047,3.489,3.489,0,0,0-.937,0c-.035-.012-.04-.025-.023-.035-.492.065-1.171-.028-1.494.063-.074-.034,0-.044-.1-.049-.03.016.023.032.05.048-.616-.083-1.121.064-1.758-.037-.063.078-.372,0-.524,0a1.672,1.672,0,0,1-.552.012,1.306,1.306,0,0,1-.662-.014c-.126.021.062.048-.063.069-.029.026-.17-.041-.1-.049a2.667,2.667,0,0,1-.441.039c-.055-.018-.026-.032.006-.048a4.1,4.1,0,0,1-.584.048c-.013-.088-.014-.009-.159-.051,0,.03-.073.057-.143.057,0-.019-.029-.041-.076-.06-.137.088-.4-.037-.662.056-.046-.021-.046-.041-.021-.06-.324.025-1.077,0-1.162.046a1.169,1.169,0,0,0-.5.014.738.738,0,0,0-.492-.033c-1.031-.053-1.981,0-3.05-.051-.054.014-.024.03-.06.046-.082-.035-.11-.023-.241-.064-.577.069-1.366-.078-2.039.03-.051-.021-.02-.039-.076-.06a5.123,5.123,0,0,1-.772,0c.009.034.064.136-.182.162-.07-.048,0-.076-.154-.1-.038-.037.152-.081.2-.032.11-.055-.178-.085-.162-.026-.339-.1-.7.03-1.038-.069a.506.506,0,0,1-.466-.021c-.058.014-.033.03,0,.048-.307-.044-.621-.018-.928-.065-.029.019,0,.039-.034.058a8.682,8.682,0,0,1-1.394-.086c-.026.011.01.023.023.035-.491-.03-.993,0-1.476-.076a10.435,10.435,0,0,1-1.372-.026c-.11.025.018.055-.089.081a.253.253,0,0,1-.11,0c.11-.129-.331-.065-.484-.1-.056.064.122.014.16.051s-.128.034-.169.044a2.2,2.2,0,0,0-.812-.134c-.11.025.018.055-.09.081-.038.009-.072-.016-.11,0-.028-.019.05-.039.087-.058a.3.3,0,0,0-.248,0c-.006.023.088.049-.007.071.053.025.11-.014.162.026-.1.046-.181-.021-.279.042a.448.448,0,0,0-.269-.053c-.019-.058.18.016.249-.03-.171-.081.078-.028.143-.056-.258-.09-.241,0-.489-.057-.049.023.072.048.047.072a.132.132,0,0,1-.081-.014c-.044.03-.019.042.051.048-.143.064-.279.035-.422.1-.083-.025-.13-.028-.1-.072a1.127,1.127,0,0,1-.362.051c-.062-.025.089-.046.116-.069-.088-.034-.169.025-.142.057-.086.035-.16-.051-.246-.016-.03-.025.067-.046-.049-.072-.132.088-.552.1-.552.012a.711.711,0,0,0-.36.028c-.142-.1-.371.011-.433-.079-.154.139-.5-.083-.743.021-.221-.035-.457,0-.682-.048-.074-.035.14,0,0-.048-.375.1-.727-.055-1.1,0,.043.023.09.012.134.037.022.016-.039.032,0,.048-.163-.014-.323-.074-.488-.079-.031.028.044.025.079.037.046.044-.122-.012-.168.044-.007-.032-.033-.044-.11-.049-.151.132-.433-.053-.662.035-.1-.034-.094-.065.007-.094-.07-.044-.146,0-.221-.028-.03.019.043.041.078.06a.459.459,0,0,1-.221.042c-.04-.025-.012-.048.06-.071a2.874,2.874,0,0,1-.576,0c-.03-.025.066-.046-.05-.072a3.547,3.547,0,0,1-.883.078c-.058-.058-.277-.048-.1-.1-.117-.014-.128.018-.141.056-.11,0-.137-.115-.3-.064.052.041.11,0,.162.026-.036.011-.044.023-.03.035a2.288,2.288,0,0,0-.821.009c.011-.065-.012-.058-.1-.12-.086.034.023.071.075.108-.152.094-.288-.062-.441.016-.164-.046.074-.085-.019-.131-.1.041-.051.085-.09.127-.11.041-.11-.048-.162-.026-.028-.019.049-.039.086-.058-.095-.018-.246.014-.2.055-.188-.083-.188-.011-.322-.1a.664.664,0,0,1-.383,0c-.025.032.073.064-.061.094l.134.062c.1,0,.051-.062.164,0,.057-.014.032-.032,0-.048.169,0,.7-.011.595.1.053.028.11-.035.167-.044.092.049.014.088-.088.1.056.016.331.014.221-.042a.864.864,0,0,0,.358-.028c.049.028-.116.053-.087.081.093.049.376-.037.3.064.068.028.1-.035.058-.046a.819.819,0,0,1,.3.041c.028-.019,0-.039.031-.058.065-.019.127.011.192,0a.082.082,0,0,1-.032.058,2.481,2.481,0,0,1,.712-.01c.061.035-.085,0-.11.046.079.035.164-.016.243.041.18-.062.173.1.353.042-.054-.012-.11-.014-.162-.026.078-.06.145.018.221-.042.07.021.01.039-.032.058a.285.285,0,0,1,.137.014,1.7,1.7,0,0,1,.74,0c.007.009.008.014.006.016a8.132,8.132,0,0,1,.95.037c.028.019-.049.039-.086.057.11.062.205-.019.2-.055.164-.011,0,.069.157.1.153-.025-.1-.056-.021-.083a2.04,2.04,0,0,1,.683.025c.088-.081.188-.041.331-.064.1.025.028.048.1.072a1.734,1.734,0,0,1,.523-.025c.038.046-.146.026-.2.032a.789.789,0,0,0,.468-.026c.1.03-.026.055.075.085-.078.037-.194,0-.2.055a3.567,3.567,0,0,0,.883-.078c.151.039-.1.069.018.106a3.367,3.367,0,0,1,.872.063.4.4,0,0,1,.331,0c.056-.023-.035-.048.062-.071.206.083.713-.037.735.074a6.074,6.074,0,0,0,1.07.009c.168.071.348,0,.513.094.126-.065.238,0,.364-.076.1.025.028.048.1.072a17.278,17.278,0,0,1,1.913.085c.015-.025.063-.046.023-.055a8.913,8.913,0,0,0,1.545.051,2.372,2.372,0,0,1,.378.055c.024-.016-.033-.032,0-.048a1.574,1.574,0,0,0,.6.012l.158.074a9.675,9.675,0,0,1,1.673.046c.018-.012,0-.023.031-.035.964.069,1.94.034,2.906.083a6.689,6.689,0,0,1,1.236.014,1.776,1.776,0,0,1,.574.023l.11-.046c.1.088.36-.026.543.058.467-.076,1.127.037,1.681-.025l.11.049c.714-.071,1.408.041,2.123-.039.3.078.628-.034.93.042.191-.065.364.021.552-.035a9.38,9.38,0,0,0,1.545,0c1.133.039,2.28-.035,3.413,0l.11-.044c.05-.011.049.021.023.035.607-.034,1.045-.021,1.655-.058l.1.049c.11,0,.051-.086.221-.042.026.023-.046.009-.086.034.074.016.194,0,.2-.032,4.471.028,8.817-.176,13.277-.245l.087-.034c.6.037,1.222-.078,1.82,0,.11-.014.205-.094.221-.019a1.038,1.038,0,0,1,.5-.012l.11-.044a2.668,2.668,0,0,0,.637-.021c1.011.062,2.05-.09,3.054.032l.116-.044a.917.917,0,0,0,.552-.012c.05.021.019.041.075.06.079-.088.169-.032.248,0a3.783,3.783,0,0,1,.942-.049c.046.021.045.041.02.06.083.012.1-.083.252-.03.028-.011-.009-.025-.023-.035a.664.664,0,0,0,.252-.03c.055.018.025.032-.007.048a1.572,1.572,0,0,1,.449-.062c.072.06-.095.03-.174.067.338-.055.672-.079,1.008-.12l.13.062c-.031.053.079-.028-.049-.048a3.33,3.33,0,0,1,.507-.083c.034.051.232.034.1.072.092.019.1-.069.275,0,.132-.048-.065-.039-.1-.049.2-.06.386,0,.588-.069.025.016-.031.03-.061.046.053.014.11-.025.162.026-.045-.065.1-.025.2-.078.471.094,1.025-.15,1.435-.016a1.136,1.136,0,0,1,.566-.106c-.012.076-.239.018-.34.063.043.023.09.012.132.039-.16.03-.331.1-.484.118.023-.122-.412,0-.5.012a2.67,2.67,0,0,0,1.141-.081c.027.021-.051.039-.09.057.172-.014.525-.012.54-.118.11-.023.066.048.13.062.32-.074.52-.072.875-.157a4.687,4.687,0,0,0,1.283-.113,2.158,2.158,0,0,0,.814-.111,12.2,12.2,0,0,1,2.16-.07c-.162-.15.417-.081.387-.215.146.012.311-.125.441-.037a4.159,4.159,0,0,1,1.74-.021c.077-.037.162-.076.126-.115a.424.424,0,0,1,.268.053.437.437,0,0,1,.253-.03c.042-.063.118-.055.181-.115-.051-.032-.11.019-.164,0a3.319,3.319,0,0,1,1.4.042.438.438,0,0,1,.4-.085,4.258,4.258,0,0,1,1.259-.326l.156.074c-.041-.076.248-.057.372-.1.01.016.021.032-.007.048q1.211-.167,2.42-.353a5.016,5.016,0,0,0,1.045-.177,6.734,6.734,0,0,0,1.033-.284c-.11,0-.1-.042-.156-.074.079-.035.148,0,.227-.042-.134-.025-.2.019-.271-.03-.141.081-.366-.035-.42.049-.067.023-.121-.048-.183-.064-.178.016-.353.023-.527.023a4.494,4.494,0,0,0,.463-.155,15.793,15.793,0,0,0-2.317.2.416.416,0,0,1-.221-.028c-.009.019,0,.039.019.06a1.8,1.8,0,0,0-.253.03c-.11-.108-.441.064-.6.139-.076-.041.045-.078.127-.115-.078.014-.193-.021-.184-.064.14-.049.162,0,.258-.078-.06-.037-.139.074-.194,0-.1.021-.04.046-.12.069a.257.257,0,0,1-.11,0c0-.039.126-.076.127-.115a.229.229,0,0,0,.084-.011c-.07.071.17.018.275,0,.051.021.02.041.075.06.245-.034.3-.155.521-.176.019.044-.193.083-.265.123.1,0,.31-.021.258-.076a2.379,2.379,0,0,0,.815-.111,1.337,1.337,0,0,0-.508.083.732.732,0,0,1,.618-.081,1.359,1.359,0,0,1,.644-.069c.674-.155,1.324-.1,1.986-.227a2.4,2.4,0,0,1-.427-.1.863.863,0,0,1-.463-.046c-.054.014-.025.03-.062.046-.11-.081-.238,0-.352-.044-.053-.028.018-.055.094-.081a1.928,1.928,0,0,0-.441-.011c-.11-.03.061-.055-.015-.083a2.349,2.349,0,0,0-.589.069c-.065-.065.221-.113.324-.146a.328.328,0,0,1-.132-.039c-.028.011.009.023.023.035-.11.028-.172-.023-.227.042-.05-.021-.019-.041-.074-.06a1.971,1.971,0,0,1-.552.011c-.071.03-.075.062-.013.094a.416.416,0,0,1-.172.044.348.348,0,0,1-.09-.145,1.16,1.16,0,0,0,.634-.2,5.242,5.242,0,0,1,1.023-.012c-.078-.1.173-.062.311-.053.035.051-.143,0-.2.032a1.072,1.072,0,0,0,.45-.062c.1.033-.07.056.074.06a1.079,1.079,0,0,1,.665-.012,2.493,2.493,0,0,1,.589-.069c.028-.079-.2-.019-.271-.03a2.479,2.479,0,0,1,1-.048c.238-.1,1.025,0,1.1-.2.2.03.285-.074.447-.037,0,.041-.11.026-.094.081.449-.078.895-.2.936-.353C144.238,314.949,144.056,314.912,144.11,314.852Zm-79.38-.568c-.124-.014-.1.019-.277,0a.253.253,0,0,1,.172-.067c-.055.049.11.025.084-.011.071.025.039.051.02.079Zm1.577.065c.1,0,.351-.016.358.042a1.011,1.011,0,0,1-.359-.042Zm.772.109c-.056-.019-.253-.028-.221-.076.055-.018.253.037.215.076Zm1.675.176a.416.416,0,0,1,.31-.053.608.608,0,0,1-.316.062Zm.509-.108c-.04-.06-.11-.035-.215-.076.191,0,.349-.134.441-.039a.347.347,0,0,0-.231.122Zm.289-.136c.11.034.06.064.158.1a.682.682,0,0,1-.221.019c.049-.03-.015-.071.058-.109Zm0,.272c.043-.023.221-.021.172-.067s-.256.012-.221-.051a.568.568,0,0,1,.3.041c-.055.018-.041.039.022.06a.6.6,0,0,1-.276.025Zm.181-.162c.073-.062.271.021.246.041a.616.616,0,0,1-.248-.032Zm1.228.176c-.116-.012-.117-.083-.274-.028-.015.041.162.032.075.085a.249.249,0,0,1-.215-.076.629.629,0,0,1,.5-.014c-.057-.007-.032.026-.087.042Zm.825-.231a2.216,2.216,0,0,1-.414-.019.766.766,0,0,1,.412.028Zm-.385.265a.36.36,0,0,1-.161-.051.3.3,0,0,1,.221,0,.1.1,0,0,0-.062.06Zm.214.074a.337.337,0,0,1,.221.028.192.192,0,0,1-.223-.019Zm.822.086a.13.13,0,0,1,.143-.056c-.014.041-.03.1-.15.065Zm-.282-.229c.041-.051.19-.025.259-.1.15.03-.11.053-.035.081s.152-.046.221,0a1.075,1.075,0,0,1-.447.028Zm.926.161c-.126-.044-.063-.125.041-.129.055.053.049.1-.043.138Zm.447.233a.525.525,0,0,1-.11-.027l.143-.057c.084.039.009.065-.035.092Zm-.055-.273c-.038-.074-.135-.016-.243-.063.124-.042.237.018.362-.028a.331.331,0,0,0,.135.039c-.139.034-.163-.014-.256.064Zm.653.108a.376.376,0,0,1-.135-.039c.124-.014.077-.055.2-.032-.058.034.033.058-.064.079Zm.227-.067c-.167-.085-.5.018-.574-.071.159.018.6-.046.572.081Zm.772.039c.035-.019.006-.039.034-.058.06.046.13,0,.19.039a.449.449,0,0,1-.227.03Zm1.207.1.172-.067c.076.069.168-.018.245.041a1.523,1.523,0,0,1-.42.039Zm-17.122-.088c.03-.019.017-.039.087-.058.044.026.092.014.137.037a.234.234,0,0,1-.227.032Zm.722.035c-.041-.083-.11,0-.221-.028-.018-.065.4-.025.217.039Zm.715.13c-.087-.034.013-.083-.134-.085.2-.081.221.064.384.078-.092.062-.164-.048-.254.018Zm.93.2c0-.062-.11-.025-.169.021-.095-.069.189-.148.313-.1-.006.055-.086.086-.148.09Zm-1.379.27c.045.069.086.016.192.039-.046.019.058.041.024.06-.135-.009-.1-.051-.221,0l-.082-.037c.026-.012.012-.032.083-.049Zm-.36-.018c.075.012.248-.018.163.049-.041-.025-.22.025-.166-.042Zm.15.263a4.428,4.428,0,0,1,.552.011.979.979,0,0,1-.555,0Zm.449-.086a.273.273,0,0,1,.277,0,.464.464,0,0,1-.28.007Zm1.024.03-.084-.023a.241.241,0,0,1,.194,0Zm4.02-.741c.055,0,.164.053.076.085-.074-.018-.138-.048-.079-.072Zm-.84-.24c-.051.023.068.048-.006.071-.136.023-.128-.081,0-.06Zm-.318.856c-.047.058-.1.09-.254.055.182.016.066-.056.25-.044Zm-.206-.529c.138,0,0,.049.131.085l-.143.056c-.03-.028-.194-.018-.134-.062a1.44,1.44,0,0,1,.193.016c.035-.025-.18-.062-.051-.09Zm-1.822.261c-.028-.016-.081-.034-.053-.048.055.018.065-.055.167,0Zm.5-.039c-.11-.037-.371.037-.385-.053l.054.025c.056-.034.036-.071.035-.106.054.025.11-.016.164.026-.233.085.194.049.127.113Zm.138.014c.029-.016-.011-.032-.052-.048.14-.026.274.051.414.019a.752.752,0,0,1-.366.035Zm.343-.136a.889.889,0,0,1,.191.039c-.089.048-.283.019-.2-.037Zm-1.045.617c.083,0,.172-.076.252-.03a.273.273,0,0,1-.256.037Zm.441,0L62.6,315.7l.086-.034c.052-.023-.068-.049.006-.071.051.053.11-.026.164.027-.09.053-.07.092-.179.131Zm.646-.118a2.412,2.412,0,0,1-.244-.063,3.232,3.232,0,0,0,.363-.053c-.054.019-.04.039.023.06Zm.163-.316c-.082-.028-.167,0-.246-.041.066-.025.271.005.243.056Zm-.062-.272c.047.021.046.041.023.06-.166,0-.212-.025-.135-.062a1.061,1.061,0,0,1-.632-.071c.134.035.1-.009.221,0-.015-.028.053-.055.089-.081a.8.8,0,0,1,.221,0c.028.035-.019.071-.035.106a.764.764,0,0,1,.393-.064.938.938,0,0,0,.407.113,1.343,1.343,0,0,1-.555.014Zm.487.15a.193.193,0,0,1-.192-.016l.11-.044c.056.035.026.055.077.076Zm.017.5c-.04-.086-.183,0-.3-.041.074-.09.382-.034.3.056Zm-.11-.392c0-.032.1-.071.171-.067.121.026-.072.046.05.072a.3.3,0,0,1-.222.007Zm.542.494a.255.255,0,0,1-.2.032c.032-.016.06-.03,0-.048-.1.021-.036.046-.116.069-.124-.046.063-.085.094-.129.1.012.026.076.11.049.051-.026-.017-.055.034-.083l.11.049c-.049.037-.109.055-.039.076Zm-.071-.5c.038-.016-.021-.032,0-.048.143.048.3-.014.441.032a1.589,1.589,0,0,1-.443.032Zm.246.723a.631.631,0,0,1,.358.019.417.417,0,0,1-.359,0Zm.59-.46c-.061-.046-.129,0-.19-.039l.11-.046c.033.046.1.076.078.1Zm.1-.565c-.116.069-.221-.016-.331.018a.382.382,0,0,0-.27-.076c-.046.019.058.041.023.06-.241-.069-.1-.116.017-.212.061.021.014.039.023.06.047-.018.09.028.137.014-.049-.021-.077-.041-.078-.06.1-.035.174,0,.143-.056a.281.281,0,0,1,.191.039c-.04.025-.11.011-.086.034a1.639,1.639,0,0,1,.275.028c-.11.04.011.014.052.048-.068.048-.127-.025-.194,0a.813.813,0,0,0,.271.076c.022.021.119.1-.034.081.055-.018-.106.01-.139-.035Zm.147.58a.468.468,0,0,1,.3,0,1.281,1.281,0,0,1-.309.018Zm.564.529c.1-.053.182.014.279-.042.049.021.076.041.078.06a.638.638,0,0,1-.359,0Zm.248-.326c.088-.044.311,0,.3.041a1.131,1.131,0,0,1-.3-.021Zm.161-.268a.545.545,0,0,1-.11-.026c-.022-.053.21-.1.338-.065Zm.017-.189c-.221.065-.171.2-.4.157.162-.039.362-.176.1-.222,0-.042.095-.028.17-.044.043.071.2.025.331.053-.131.067.119,0,.16.074-.128.044-.243-.011-.363,0Zm1.666.87c.068-.044.13-.012.2-.055.143.076-.117.108-.2.074Zm.508-1.041c.134.062.279-.023.412.044-.014.07-.5.049-.413-.025Zm.764.132c-.053-.034-.11,0-.161-.051a.656.656,0,0,0,.2-.079,1.248,1.248,0,0,0,.269.076c-.106.062-.2-.007-.31.074Zm.441.894a.1.1,0,1,1,0,.017Zm.5-.923a.806.806,0,0,1,.3,0,.391.391,0,0,1-.3.019Zm.205,1.058c.05-.032-.076,0-.051-.048.125-.048.387-.025.409.044a.646.646,0,0,0-.361.018Zm1.144-.991c-.072-.026-.15.016-.221-.028.067-.023.257.007.221.042Zm-.3-.088c.119.023.068.1-.035.083.083-.014-.081-.044.035-.069Zm-.156.469a.1.1,0,1,1,0,.014Zm.071-.164c-.03.018-.018.042-.084.011.011-.023.042-.046.117-.069a2.3,2.3,0,0,0,.441,0,.842.842,0,0,1-.475.072Zm.931.09c-.045-.046-.081-.065-.192-.016-.047-.021-.076-.041-.076-.06a.731.731,0,0,1,.221-.042.426.426,0,0,0,.221.051.459.459,0,0,0-.173.079Zm.552-.214a.358.358,0,0,1,.16.051c-.085.065-.249,0-.166-.039Zm2.012.051c-.14.053-.1-.012-.221-.051.086-.041.22.028.215.063Zm-.851-.051c-.035-.012-.11,0-.079-.037a.577.577,0,0,1,.353.065c-.031.019-.018.039-.088.056-.11-.03-.036-.056-.075-.085-.148.048-.209.049-.233.113-.1,0-.064-.041-.1-.072a.719.719,0,0,1,.22-.028Zm-.231.09a.443.443,0,0,1-.221.019c0-.035.139-.051.215-.007Zm-.641-.016a.444.444,0,0,1,.252-.03C73.154,315.454,73.065,315.528,72.983,315.478Zm.13.923a.968.968,0,0,1,.417-.026,1.011,1.011,0,0,1-.415.03Zm.7-.683c-.049-.021-.076-.041-.077-.06-.1.065-.331.03-.331-.03.11.051.221-.042.331.03a.3.3,0,0,1,.276,0c-.11.064-.14,0-.2.064Zm-.012-.154c.035-.111.369-.055.552-.012a1.64,1.64,0,0,1-.55.016Zm.662.037c-.026-.016-.081-.034-.051-.048.061.037.137-.074.194,0Zm.1.1c.186-.069.37.042.292.111a.47.47,0,0,0-.292-.108Zm.243.882c-.068-.025-.092-.049-.047-.072a.9.9,0,0,1,.356.02,2.123,2.123,0,0,1-.309.051Zm5.428.323c.125.035-.036.1-.117.069.079-.023.013-.049.117-.071Zm-16.476-.176c-.049-.032.13-.074.169-.044a.122.122,0,0,1-.169.03Zm-6.743.766c-.079-.076-.167.037-.245-.039a.351.351,0,0,1,.331,0c-.058-.019-.033.014-.086.032Zm3.718.325a.226.226,0,0,1,.221,0,.357.357,0,0,1-.222-.007Zm3.27-.342c.078-.034.3-.055.275,0a.727.727,0,0,1-.275-.007Zm.434.787a.382.382,0,0,1,.274,0c-.006.039-.185.039-.274-.007Zm2.207-1.445c-.084,0-.311,0-.3-.041.088-.007.317-.025.3.034Zm-2.475-.094.11.049a.209.209,0,0,1-.167.021c.125-.03-.07-.056.061-.081Zm-.077.28c-.044-.056.159-.053.063-.094a.342.342,0,0,1,.167-.021c-.121.032-.047.145-.225.108Zm.988.065c-.1-.1-.1.009-.159-.074a.981.981,0,0,1-.469,0c.023,0,.174,0,.11-.021a.571.571,0,0,1-.274-.028.219.219,0,0,1,.221.028c.088-.034.246-.014.255-.078.175.053.4-.055.491.056.02-.07.21-.065.306-.03-.263.007-.222.092-.477.143Zm.1,1.17a1.138,1.138,0,0,1,.331.053c-.1.023-.33,0-.328-.058Zm1.109-1.1c-.073,0-.1-.018-.11-.049-.2.053-.383-.034-.58.025-.086-.03.017-.1-.135-.039-.093-.037-.09-.13.063-.093-.032.016-.06.03,0,.048.03-.134.349-.086.534-.12l.132.062a.654.654,0,0,1,.331-.018.661.661,0,0,1-.441.062c.026.018-.015.019-.057.023.092,0,.18.057.271.053a.5.5,0,0,1,.418-.051c-.221,0-.168.048-.255.078,0-.067-.108-.03-.168.016Zm.279,1.256a.515.515,0,0,1,.3.018.471.471,0,0,1-.3-.023Zm.472-1.348a.181.181,0,0,0-.221,0l-.079-.037a1.223,1.223,0,0,1,.414,0Zm.577.023a.312.312,0,0,1-.273-.028.63.63,0,0,1,.276.023Zm-.2,1.33c.008-.048.167-.058.25-.03,0,.051-.161.034-.246.023Zm.772-1.307a.569.569,0,0,0-.331,0c.041.041.049.079-.065.116a1.037,1.037,0,0,1-.243-.063c.086-.037.166,0,.253-.055-.043-.048-.254-.027-.269-.076a.218.218,0,0,0,.139-.009l.132.062a4.17,4.17,0,0,1,.441-.039c-.046.009.046.035-.051.057Zm.359,0c-.117-.028-.11.048-.248,0,.077-.051.286-.076.255-.012Zm.564,1.367a.6.6,0,0,1,.246.016c-.064.069-.349-.042-.238-.026Zm.041-1.357a3.482,3.482,0,0,1,.383.032c-.113.037-.441.046-.375-.042Zm.409.044a1.549,1.549,0,0,1,.252-.03.265.265,0,0,1-.244.018Zm.3-.3c.079-.039.3-.055.276,0-.081-.048-.18.042-.268-.01Zm.243.353c-.053-.025-.11.016-.163-.026l.086-.034c.082.025.145.013.082.055Zm-.046-.1a.265.265,0,0,1,.141-.032c-.015,0-.03.016,0,.023a.22.22,0,0,1,.139-.009.425.425,0,0,1-.273.012Zm.221,1.455c.057-.076.3-.021.441,0a3.953,3.953,0,0,1-.433,0Zm1.095-1.678a1.39,1.39,0,0,1,.577.023c-.243,0-.354-.016-.568-.026Zm.785.441c.081-.03.013-.044.11-.046.138.035-.022.1-.1.04Zm1.025-.333a.642.642,0,0,0-.242-.063c.079-.055.148,0,.221-.042.115.032.155.067.03.1Zm2.017-.042a.313.313,0,1,0,.009-.005Zm.694.5-.047-.027a.057.057,0,0,1-.055,0,.345.345,0,0,1,.309-.053c-.078.053-.2.021-.2.074Zm6.692-1.706c-.078.012-.278.032-.189-.039.051.051.247-.034.2.034Zm-.014-.882c-.011.023-.042.046-.118.069-.067-.058-.147,0-.221-.051l.057-.023c.093.051.153-.005.288.009Zm-.643-.176a1.342,1.342,0,0,1,.441.032c-.146,0-.11.086-.231.09-.147-.028.014-.108-.1-.1-.044.026.023.055-.092.081-.07-.035-.031-.069-.011-.1Zm.258.176a.408.408,0,0,1-.278.018.657.657,0,0,1,.286-.023Zm-.083.753a.8.8,0,0,1-.252.03c.053-.018-.221-.012-.1-.072.125.019.244.023.362.039Zm-.237-.353c-.11.016-.221,0-.331.018.018-.044.337-.086.339-.028Zm-.2-.441c-.047.018.057.041.021.06-.071-.026-.149.016-.221-.028a.261.261,0,0,1,.209-.041Zm-.633-.025c.135.034.276.011.41.044a3.1,3.1,0,0,1-.5-.011Zm-.139.009a.091.091,0,0,0-.061.046c-.064-.025-.271-.016-.242-.064.111.026.215-.044.311.007Zm-.126.139c0,.032-.127.088-.2.055.075-.023.147-.09.209-.065Zm-.972-.208a.6.6,0,0,0,.339-.064c.11.064-.058.051-.122.115-.05-.048-.11,0-.169.019-.061-.03-.083-.058-.04-.081Zm-.574.72a.977.977,0,0,1,.247.018c-.061,0-.271.037-.239-.028Zm-.238-.353a.113.113,0,1,1,.008-.016Zm-.505.332c.081.021.167,0,.247.016-.062.016-.27.032-.238-.032Zm-.274-.03c-.054-.014-.11.025-.163-.026.056-.072.225-.018.172.011Zm-1.365-.416a.5.5,0,0,1,.28-.042.356.356,0,0,1-.271.026Zm.278-.018a1.606,1.606,0,0,1,.413.019c-.125.005-.369.032-.4-.037Zm.455.411-.11.044-.079-.037a.243.243,0,0,1,.2-.023Zm-.148.1c-.028.03.039.063.044.1a.244.244,0,0,1-.192-.016c.085-.037.084-.116.156-.1Zm-.178.115c.078.053.312-.009.3.041-.088-.012-.374.035-.291-.058Zm.221-.042c0-.028-.023-.055.092-.081.149.018.018.1-.079.063Zm.085-.552a.332.332,0,0,1,.221-.019c.012.016-.131.04-.209,0Zm.441.552c-.1-.034-.022-.064.065-.094a1.739,1.739,0,0,0,.381.055c-.077.046.015.088-.149.1-.128-.034-.024-.064-.045-.1a.984.984,0,0,0-.241.011Zm.047.072c.148-.057.119.042.27.053-.084,0-.257-.025-.257-.072Zm.236.111a.09.09,0,0,0,.11-.044l.11.049c-.051.021-.248.032-.21-.025Zm.692.25-.079-.037a.2.2,0,0,1,.194,0Zm.983-.333a.213.213,0,0,1,.137.014c-.2.058-.3-.094-.4-.115l-.143.057a1.445,1.445,0,0,0-.63-.048.274.274,0,0,1-.178.115c-.006-.092-.11.03-.221-.028a1.742,1.742,0,0,0,.433-.177,1.521,1.521,0,0,0,.719-.009c-.028.023-.18.044-.118.069.1-.032.2-.016.31-.053-.035-.012-.11,0-.079-.037.1.042.351-.03.354.042-.132-.034-.348.051-.233.113.022-.085.38-.03.385,0C80.191,315.612,79.9,315.572,79.957,315.655Zm.122-.116c0-.027.124-.056.2-.055-.054.037.124.012.16.051a.866.866,0,0,1-.36.007Zm.441-.736c-.083-.016-.311,0-.3-.065a.749.749,0,0,1,.42-.051c-.07.042-.13.012-.2.055.066.032.135.023.074.065Zm.071.882c.052-.023-.067-.048.008-.071h.221a.3.3,0,0,1-.231.067Zm-.04-.143a1.61,1.61,0,0,0,.307-.028c.034.019.11.041.076.06a1.02,1.02,0,0,1-.385-.034Zm.615.189a.326.326,0,0,0,.135.039l-.057.023c.014,0,.028.016,0,.023-.147-.056-.043.049-.118.069a.418.418,0,0,1-.189-.039,1.241,1.241,0,0,0,.227-.116Zm.587,1.193c.07.03.137.018.076.06-.121,0-.065-.051-.183-.086-.126.056-.235-.035-.362.028a.421.421,0,0,1,.221.051c-.058.032-.11,0-.17.044-.1-.019.032-.092-.1-.072-.083.026.079.056-.036.083a.325.325,0,0,1-.162-.026c.01-.035.126-.069.094-.1a.569.569,0,0,1-.189-.039,6.532,6.532,0,0,1,1.153.048c-.127.079-.223-.051-.341.012Zm.32-1.163c-.19-.018-.2-.051-.278.018-.11,0-.126-.042-.1-.072a.871.871,0,0,1-.627-.072,1.481,1.481,0,0,0,.662-.011c-.039.032-.007.064.045.1.015-.051.025-.055.145-.057.06.021.013.039.021.06.063-.062.063-.019.169-.019-.075-.051.1-.058.168-.019,0,.039-.121.025-.2.076Zm.166,1.267c-.135-.035.066-.116.147-.079-.029.051-.168,0-.149.078Zm.221,0-.078-.037a.469.469,0,0,1,.309-.053c-.008.055-.147.037-.234.094Zm.466-1.217c-.024-.1-.11-.027-.268-.076.11-.044.188-.044.152-.127a2.232,2.232,0,0,0,.764.086,5.482,5.482,0,0,1-.662.034c.031.03.1.058.011.085Zm1.165-.046c-.053.018-.084.037-.089.056l-.052-.025c.057-.057-.019-.078-.154-.1a.28.28,0,0,1,.292.067Zm-.341.086c.141.055.292.012.436.057a.971.971,0,0,1-.522-.023.065.065,0,0,0,.083-.032Zm-.131.185c.11.032.37-.028.381.055-.115,0-.372.014-.384-.051Zm.331,1c.086-.046.148-.085-.015-.106a.409.409,0,0,1,.273.03c-.094.042-.109.132-.262.079Zm.339-1.3c.141.053.3-.049.441.009-.135,0-.5.1-.446-.005Zm1.027-.781c.07.032.151-.035.221.028-.07.039-.265.023-.226-.028Zm0,1.016c0-.035.147-.06.221-.019a.446.446,0,0,1-.23.021Zm-.307-.219c.168.064.5,0,.572.071-.175-.027-.6.055-.58-.069Zm.3-.706a.651.651,0,0,1,.278-.018.412.412,0,0,1-.286.023Zm1.09.861c.156.067.186-.085.362-.028-.153.037-.079.028-.147.079-.089.009-.312.019-.223-.046Zm-.788-.843c.215-.053.072-.254.331-.194-.014.019-.126.056-.095.1a.236.236,0,0,1,.19.039.817.817,0,0,1-.435.058Zm.373.125a.2.2,0,0,1-.194,0c.09-.019,0-.1.147-.079-.058.037.062.063.039.086Zm-.277,1.882c.168-.046.159-.049.178-.115a.135.135,0,0,0,.166,0C86.15,317.038,85.856,317.117,85.706,317.066Zm.42-2.009a.1.1,0,1,1,0,.007Zm.152,1.089c0-.037.146-.046.221-.019a.332.332,0,0,1-.221.026Zm-.067-.131c.081-.021.014-.048.118-.069.145.1.31.025.462.069a1.467,1.467,0,0,1-.58.007Zm.86-.041a.206.206,0,0,1,.253-.03.358.358,0,0,1-.253.037Zm1.056.176c.062.019.132-.034.191.016-.054.056-.237.034-.191-.011Zm.289-.111c-.11-.026-.019-.048-.046-.072l-.145.056c-.129-.071.011-.1-.206-.122a.674.674,0,0,1,.409.044c.1-.037.286.032.309-.053l.1.049c-.076.042-.138.012-.145.056-.156-.028-.237-.032-.281.046Zm.3.018c.035-.019.006-.039.034-.058.18,0,.118.088.249,0,.146.072-.2.116-.284.063Zm.5-.012c-.044-.018-.094.019-.137-.014.11-.076.159-.028.235-.113.13.049-.013.09-.1.132Zm.505.164a.3.3,0,0,1,.249,0,.352.352,0,0,1-.249,0Zm2.471-1.293a1.377,1.377,0,0,1-.417.026.811.811,0,0,1,.417-.023Zm-.683.176a.45.45,0,0,1-.276,0,.332.332,0,0,1,.276,0Zm-.285,1.009c.11.034.11-.048.255-.053.152.074-.279.154-.255.055Zm1.337-1.034c-.153-.044-.757.162-.606-.012-.11,0-.372.046-.383-.032a.634.634,0,0,1,.441.009c.082-.09.132,0,.221,0-.065-.064.076-.1.127-.139.129.055-.174.1-.046.152.031-.019.018-.039.089-.057.04.007.209.051.157.081Zm.209-.125a.216.216,0,0,0-.253.03c-.078-.069.074-.071.177-.09.034.021.106.042.075.067Zm.243-.176c.067.025.092.049.046.072a.173.173,0,0,0-.11-.026.142.142,0,0,1-.084.011Zm.19.265c.058.046.131-.023.189.039-.082.018-.277,0-.19-.046Zm1.233.085a3.393,3.393,0,0,1-.441-.034,1.419,1.419,0,0,1,.2-.055c-.02.023.119.028.134.039.035-.019.007-.039.034-.058.149-.014.19.051.073.1Zm.47,0c.015,0,.03-.016,0-.023a.354.354,0,0,1,.246.018.36.36,0,0,1-.247,0Zm1-.074c.043.027.089.014.134.039-.078.019-.2.034-.2.078a.291.291,0,0,1-.09-.168c.118.026.387-.014.409.044a1.227,1.227,0,0,0-.253,0Zm.64-.046c-.017.011-.011.023.023.035a.115.115,0,0,1,.11,0,1.436,1.436,0,0,1-.441-.009,2.8,2.8,0,0,1,.307-.033Zm-.164.221a.306.306,0,0,0-.11-.026c.066-.042-.1-.088.043-.129.13.048.113.1.065.148Zm.063-.069c.092-.03.03-.062.122-.092.11.023.221,0,.331.03-.034.019.024.041.02.06a.947.947,0,0,1-.474-.005Zm.728-.079a.175.175,0,0,0-.11-.026c.025.016-.018.032-.061.046l-.078-.037c.153-.049.127-.034.177-.09.055.021.025.041.076.06.03-.011.013-.023.032-.035.117.025.049.049-.038.076Zm.3.065a.933.933,0,0,1,.276,0c-.1.055-.278.064-.277-.007Zm.643-.069c.014.012.051.025.023.035-.038-.016-.043-.032-.049-.048a.6.6,0,0,1,.249,0,.377.377,0,0,1-.225.005Zm.324.055c.079-.03.3-.028.273.03a1.352,1.352,0,0,1-.274-.039Zm.345.113c-.044-.016-.092,0-.136-.016.038-.014-.02-.032,0-.048a.113.113,0,0,0,.084-.011c.072.019.095.044.051.067Zm.058-.023a2.267,2.267,0,0,1,.441-.014.783.783,0,0,1-.444.007Zm.177-.09a.571.571,0,0,1,.365-.051.444.444,0,0,1-.367.044Zm.75.176a.437.437,0,0,0,.285-.065c.025.021.009.039.075.06a.452.452,0,0,1-.362,0Zm-32.222,3.848a.339.339,0,0,1,.3,0c-.017.041-.205.041-.3,0Zm2.869.162c.065-.016.136-.085.2-.032.038.034-.152.086-.2.028Zm1.245-.376a.326.326,0,0,1,.221-.019.274.274,0,0,1-.224.016Zm1.2.071c0-.046.122-.062.193,0a.249.249,0,0,1-.194,0Zm1.086.139a1.176,1.176,0,0,0-.427-.127A1.2,1.2,0,0,1,74,318.94c.021.028-.146.053-.035.081.151-.032.083-.069.147-.1.043.026.09.014.134.039-.093.085-.2.1-.295.18Zm.832-.078a1.208,1.208,0,0,1-.465-.021c.081-.048.095-.016.174-.092a.238.238,0,0,0,.134.039c.038-.016-.019-.032,0-.048.1.023.205-.037.3.041-.088.049-.275,0-.145.078Zm.854-.018a.2.2,0,0,1,.221,0,.358.358,0,0,1-.226,0Zm1.257.072c.117-.028.331-.046.355.019a.727.727,0,0,1-.358-.023Zm2.614,0c.07.019.138-.009.134.039-.079.037-.214-.014-.136-.047Zm9.115.189a.3.3,0,0,0-.11-.026c0-.032.1-.071.173-.067.1.025.022.055-.065.083Zm1.575-.083c.077-.018.3-.049.275,0C90.383,319.208,90.284,319.276,90.2,319.222Zm7.633-.039c-.07-.03-.169.012-.171.044-.047-.021-.074-.041-.075-.06C97.654,319.142,97.862,319.123,97.83,319.183Zm.512.093c-.1-.046-.055-.088-.066-.131-.093.055-.253.074-.248,0,.15-.019.441-.056.491.034C98.324,319.146,98.429,319.243,98.342,319.276Zm.539-.118a1.13,1.13,0,0,1-.221,0c-.009-.079.327-.056.22,0Zm1.836-.15c.116.034.393-.067.411.021-.129-.011-.381.069-.412-.023Zm.9-3.913c.056.021.033-.025.084-.011-.068.032.085,0,.1.049-.053.037-.234-.009-.189-.039Zm.388,3.976c-.058-.049-.126-.021-.189-.039a.368.368,0,0,1,.278-.018c-.031.018-.019.039-.088.056Zm.573.048-.1-.049c.091-.053.235.016.1.049Zm1.331-.065c.06-.03,0-.06-.078-.037a.044.044,0,0,1-.009.071c-.052-.025-.11.014-.162-.026.141-.032.009-.071.151-.1A.889.889,0,0,1,104,319c-.043.009.018.083-.091.056Zm.359,0c-.061-.034-.035-.118.093-.081-.045.023-.018.051-.094.076Zm.139-.009a.1.1,0,1,0,0-.005Zm.74.028c-.078-.032-.166,0-.245-.018.164-.074-.074-.048.012-.094a2.035,2.035,0,0,0,.385,0c-.107.044-.184.071-.154.106Zm.028-3.932c.072.012.151-.03.221.028-.067.03-.262.016-.223-.034Zm6.555.118c-.043-.042-.231-.034-.182-.086.068.051.271.011.18.083Zm1.214.026-.078-.037c.159-.023.132-.014.2-.078a.658.658,0,0,1,.214.051.929.929,0,0,1-.343.06Zm1.026-.037c-.11-.06-.285.037-.241-.065.059.026.269,0,.236.062Zm2.759.012c-.093-.025,0-.048-.046-.072a.543.543,0,0,1,.249,0c-.008.032-.125.018-.207.069Zm.526-.025c-.132-.025-.11.055-.221.019-.03-.03.262-.1.216-.021Zm2.853-.067a.433.433,0,0,1,.3,0,1.54,1.54,0,0,1-.308,0ZM124.089,319a.171.171,0,0,0-.11-.026c-.042.025.006.109-.122.092-.019-.028.053-.055-.017-.083.149,0,.143-.108.29-.111.026.041.078.086-.045.134Zm.275,0a.235.235,0,0,0-.184-.064.166.166,0,0,1,.2-.078c-.269.083.262.032-.024.146Zm.471-.025c-.07-.025-.152.046-.221,0,.084-.058.1-.051.181-.115.071.041.017.078.035.118Zm.09-.056c.03-.016-.01-.032-.049-.048a.173.173,0,0,1,.164,0,.145.145,0,0,1-.12.051Zm.137-3.87c.093-.062.32-.065.3,0-.1-.042-.211.032-.308,0Zm.331-.041a.533.533,0,0,1,.411.021,1.69,1.69,0,0,1-.4-.018Zm.5.011-.077-.037a.24.24,0,0,1,.194,0Zm4.82-.129a.862.862,0,0,1,.341-.064.47.47,0,0,1-.34.067Zm2.244-.258c.18,0,.238-.074.074-.141a.384.384,0,0,1,.142-.032c.135.058-.1.108.087.168a.5.5,0,0,1-.3.009Zm1.645,2.47c-.134.028-.331.021-.534.071-.026-.016-.078-.034-.049-.048a3.912,3.912,0,0,1,.654-.139c.085.046.017.079-.071.12Zm.861-.039c-.185,0-.374.046-.552.035.171-.044.34-.063.511-.106.041.026.064.051.042.072Zm2.827-.1c.077.034-.018.062-.013.094-.062-.019-.13.009-.188-.039a.946.946,0,0,0,.2-.051Zm-2.608.108-.1-.049a1.64,1.64,0,0,1,.68-.127,1.665,1.665,0,0,0-.575.173Zm.641-2.23c-.06-.035-.134.034-.191-.016.059-.051.241-.026.194.019Zm.353.044a1.339,1.339,0,0,1,.418-.027.8.8,0,0,1-.417.028Zm.942-.228c.067.039.1.041.11,0,.12.041-.131.085-.172.044a.093.093,0,0,0,.064-.04Zm.022.236a.241.241,0,0,1-.221,0,.294.294,0,0,1,.223,0Zm-.246,1.164c-.067,0-.11-.042-.1-.072a.265.265,0,0,0,.178-.09c.11.027.018.048.045.072a.105.105,0,0,1,.081.014c-.136.011-.253,0-.2.078Zm.359,0c0,.035-.127.071-.2.032.1-.035.083-.081.205-.034Zm.525-1.182c-.181-.09-.4.067-.584.023-.093-.053.11-.025.065-.069-.09.026-.249.028-.246-.018a.857.857,0,0,0,.347-.111.164.164,0,0,0,.194,0,.367.367,0,0,1,.149.122c.149-.044.055-.094.02-.141.226.021.2.134.057.194Zm3.978.372a.231.231,0,0,1,.231-.065c0,.044-.148.069-.228.065Z" transform="translate(-56.104 -314.143)"/></svg>