<svg xmlns="http://www.w3.org/2000/svg" width="94.404" height="84.204" viewBox="0 0 94.404 84.204"><defs><style>.a{fill:#f3fffb;}.b{fill:#555e65;}.c{fill:#ffb5b5;}.d,.f{fill:none;}.e{fill:#161616;opacity:0.25;}.f{stroke:#707070;stroke-linecap:round;}</style></defs><g transform="translate(0 0)"><path class="a" d="M124.91,91.312,75.43,97.606,36.8,91.312V22.3l38.63,6.511L124.91,22.3Z" transform="translate(-31.374 -14.487)"/><path class="b" d="M75.915,99.393h0L36.2,92.666V21.7l39.715,6.728,50.566-6.511V92.883ZM38.587,90.929l37.544,6.294,48.4-6.294V24.3L75.915,30.6h0L38.587,24.3Z" transform="translate(-32.077 -15.189)"/><path class="c" d="M123.127,88.312l-45.14,6.511L34.8,88.312V19.3l43.838,6.511L123.127,19.3Z" transform="translate(-33.715 -17.998)"/><path class="b" d="M78.572,96.393h0L34.3,89.883V18.917l44.923,6.511L124.8,18.7V89.666Zm-42.1-8.247,42.1,6.294,44.055-6.294V21.3L79.223,27.6h-.217L36.47,21.3V88.146Z" transform="translate(-34.3 -18.7)"/><line class="d" y2="21.485" transform="translate(44.055 23.004)"/><line class="d" y2="4.123" transform="translate(44.055 51)"/><path class="e" d="M54.6,25.311V94.323l45.14-5.208,1.3-70.314Z" transform="translate(-10.545 -18.583)"/><line class="f" y2="12.662" transform="translate(44.064 20.893)"/><line class="f" y2="13.928" transform="translate(44.064 44.951)"/></g></svg>