<svg xmlns="http://www.w3.org/2000/svg" width="35.78" height="36" viewBox="0 0 35.78 36"><defs><style>.a{fill:#fdc333;}</style></defs><g transform="translate(-42.769)"><g transform="translate(42.769)"><path class="a" d="M104.189,82.5h9a.844.844,0,0,0,0-1.688h-9a.844.844,0,1,0,0,1.688Z" transform="translate(-98.232 -73.991)"/><path class="a" d="M104.189,131.834h12.268a.844.844,0,1,0,0-1.688H104.189a.844.844,0,1,0,0,1.688Z" transform="translate(-98.232 -119.16)"/><path class="a" d="M45.3,2.532H71.872V15.766a4.03,4.03,0,0,1,.853.372,3.262,3.262,0,0,1,1.612-.482l.068,0V2.532A2.532,2.532,0,0,0,71.872,0H45.3a2.532,2.532,0,0,0-2.532,2.532V30.751A2.532,2.532,0,0,0,45.3,33.283H68.089V30.751H45.3Z" transform="translate(-42.769)"/><path class="a" d="M252.359,210.15a1.673,1.673,0,0,1-.449-.5,1.691,1.691,0,0,1,.066-.7,1.158,1.158,0,0,0-1.247-1.707.866.866,0,0,1-1.028-.745c-.175-.4-.373-.851-.8-.99a.807.807,0,0,0-.25-.039,2,2,0,0,0-.949.36.914.914,0,0,1-1.325,0,2,2,0,0,0-.949-.36.808.808,0,0,0-.25.039c-.429.139-.628.591-.8.99a.865.865,0,0,1-1.028.745,1.158,1.158,0,0,0-1.247,1.707.863.863,0,0,1-.383,1.206,1.185,1.185,0,0,0,0,2.162.863.863,0,0,1,.383,1.206,1.158,1.158,0,0,0,1.247,1.707.865.865,0,0,1,1.028.745c.175.4.373.851.8.99a.807.807,0,0,0,.25.039,2.005,2.005,0,0,0,.949-.36.914.914,0,0,1,1.325,0,2.005,2.005,0,0,0,.949.36.811.811,0,0,0,.25-.039c.429-.139.628-.591.8-.99a.866.866,0,0,1,1.028-.745,1.158,1.158,0,0,0,1.247-1.707.864.864,0,0,1,.383-1.206,1.185,1.185,0,0,0,0-2.162Zm-5.323,3.273a2.192,2.192,0,1,1,2.192-2.192A2.192,2.192,0,0,1,247.036,213.423Z" transform="translate(-217.279 -188.119)"/><path class="a" d="M282.447,340.881a1.447,1.447,0,0,1-.448.07,2.557,2.557,0,0,1-1.272-.447c-.1-.057-.249-.144-.34-.184-.091.04-.242.128-.34.184a2.558,2.558,0,0,1-1.272.447h0a1.452,1.452,0,0,1-.449-.07,1.634,1.634,0,0,1-.888-.737v6.938a.347.347,0,0,0,.582.255l2.367-2.176,2.366,2.176a.347.347,0,0,0,.581-.255v-6.941A1.654,1.654,0,0,1,282.447,340.881Z" transform="translate(-250.63 -311.429)"/></g></g></svg>