<?xml version="1.0" encoding="utf-8"?>
<!-- Generator: Adobe Illustrator 23.0.0, SVG Export Plug-In . SVG Version: 6.00 Build 0)  -->
<svg version="1.1" id="Layer_9" xmlns="http://www.w3.org/2000/svg" xmlns:xlink="http://www.w3.org/1999/xlink" x="0px" y="0px"
	 viewBox="0 0 182.9 41.2" style="enable-background:new 0 0 182.9 41.2;" xml:space="preserve">
<style type="text/css">
	.st0{fill:#061922;}
	.st1{fill-rule:evenodd;clip-rule:evenodd;fill:#FFFFFF;}
</style>
<g>
	<rect x="0" class="st0" width="182.9" height="41.2"/>
	<path class="st1" d="M33.9,8.8h-0.2l0-0.2l0.2,0L33.9,8.8z M33.7,7l-0.2,0V6.9h0.2L33.7,7z M33.3,10.8l0,0.2h-0.1L33.3,10.8
		L33.3,10.8z M32.7,11.9h-0.2l0-0.1L32.7,11.9L32.7,11.9z M32.4,13.8h-0.2v-0.2h0.2V13.8z M32.4,16.5H32v-0.1l0.1-0.1h0.3V16.5z
		 M32.1,18L32,18.1v0.1l-0.2,0l0-0.1l-0.1,0v0.1h-0.2l0-0.3h0.1l0-0.2l0.1,0l0-0.1c0.1,0,0.3,0,0.2-0.1H32C32,17.6,32,17.8,32.1,18
		L32.1,18L32.1,18z M32,20.5L32,20.5l0.1,0.1l0,0.1L32,20.8v0.1h-0.3l0-0.1h-0.1l0-0.1l0.1-0.1H32z M31.9,21.7l-0.1,0v0.1l-0.1,0
		l0-0.1l-0.1,0v-0.2l0.1,0l0-0.2h0.1l0,0.1h0.1V21.7z M31.5,5.5l0-0.3h0.2l0,0.3H31.5z M31.7,6.1c0.2,0,0.1-0.2,0.3-0.1v0.2
		l-0.1,0.1v0.1l-0.3,0L31.7,6.1L31.7,6.1L31.7,6.1z M32,16c0.2,0.1,0-0.2,0.2-0.1l0,0.1l0.1,0v0.1l-0.1,0v0H32L32,16z M31.3,18.2
		h-0.2l0-0.2h0.2V18.2z M31.3,21.4H31v-0.2h0.3L31.3,21.4z M31.5,25.1l0,0.3h-0.4l0-0.3H31.5z M31.3,23l0.1-0.1h0.2l0,0.1h0.1v0.1
		l-0.1,0v0.1h-0.1l0,0.3l-0.2,0L31.3,23z M31.1,26.5L31.1,26.5L31.1,26.5l0.1,0.2l-0.1,0v0.1h-0.3l0-0.1h-0.1l-0.1-0.2l-0.1,0l0,0.2
		h-0.1l0-0.1l-0.1,0l0-0.3c0.2,0.1,0-0.1,0.2-0.1v0.1l0.2,0l0-0.1h0.1l0,0.2l0.1,0L31.1,26.5L31.1,26.5z M30.8,27.6v-0.2h0.1
		L30.8,27.6L30.8,27.6z M30.9,28.7c0.2,0.1,0-0.2,0.2-0.1l0,0.1h0.1l0,0.1h-0.1l0,0.2l0.2,0v0.4h-0.2v0.2l0.1,0l0,0.1l-0.1,0v0.1H31
		l0-0.1l-0.1,0c0-0.1,0.1-0.3-0.1-0.2h-0.1v-0.2l0.1,0l0-0.1l-0.1,0v-0.1h0.1l0-0.2h0.1L30.9,28.7z M30.9,28.2
		c0.2,0.1,0-0.2,0.2-0.1v0.3h-0.2V28.2z M30.6,30.6h-0.4l0-0.2l0.2,0l0-0.2v0l0.1,0l0.1,0L30.6,30.6z M30.3,31.1h-0.2v-0.3h0.2V31.1
		z M30,30L30,30l-0.1-0.2l-0.1,0v0.1h-0.1l0,0.2h-0.1c0-0.1,0-0.2-0.1-0.1l-0.1,0l0,0.2h-0.2l0-1h0.3l0.1,0.1h0.1l0,0.1l0.1,0l0,0.1
		l0.2,0l0,0.1H30l0,0.1h0.1V30l0.2,0l0,0.2l-0.2,0C30.1,30.1,30.2,29.9,30,30 M29.2,28.2l0.2,0v0.2h-0.2L29.2,28.2z M29.4,22.6
		L29.4,22.6L29.4,22.6l-0.1-0.2c0.2,0.1,0-0.1,0.2-0.1l0.1,0.1h0.1v0.2H29.4z M29.2,22L29.2,22L29.2,22l-0.1,0.1H29l0-0.3h0.1l0-0.2
		l-0.1,0l0-0.1H29v-0.1l0.1-0.1h0.2l0,0.1l0.1,0l0,0.1h0.1v0.3l-0.1,0.1L29.2,22L29.2,22z M29.6,28.2L29.6,28.2l0.1,0.3h-0.1V28.2z
		 M29.6,19.1l0.2,0v0.2h-0.2V19.1z M30,14.9L30,14.9l0.1-0.2l0.1-0.1l0.2,0v0.3h-0.1l0,0.3l-0.2,0l0-0.1H30V14.9z M30.1,13.4v-0.2
		h0.2l0,0.2H30.1z M30.5,25.4v0.2h-0.2v-0.2L30.5,25.4z M30.7,25.4c0.2,0.1,0-0.2,0.2-0.1l0,0.3h0.1v0.2l-0.2,0l0-0.1h-0.1
		L30.7,25.4z M30.9,8.5L30.9,8.5L30.9,8.5L30.9,8.5L30.9,8.5z M31.3,28.2h0.2v0.2h-0.2L31.3,28.2z M29,24.2L29,24.2l-0.1,0.1h-0.1
		l0-0.3h0.1L29,24.2L29,24.2L29,24.2z M31.3,5.2L31.3,5.2L31.3,5.2v0.1v0.3h0.1l0.2,0.1l0.1,0l0,0.2h-0.3c0,0.1,0,0.2,0,0.3l-0.2,0
		v0.6h0.1l0,0.1l0,0.1l0.1,0V7l0.1-0.1L31.5,7l-0.1,0.1v0.1h0.1c0.1,0.1,0.1,0.3,0,0.5h-0.1v0.1l-0.3,0L31,8l-0.4,0v0.2h0.1l0,0.4
		h-0.1l0,0.2l0.3,0l0,0.2l-0.3,0l0,0.2l0.1,0l0,0.3h-0.1l0,0.1h0.1v0.2h-0.2l0,0.3h0.1l0-0.1l0.2,0l0,0.3h-0.1v0.1l-0.2,0.1
		c0,0.2,0,0.4,0,0.6h-0.2l0,0.2h-0.2v0.2h0.1c0.3,0,0.1,0.3,0.1,0.4l0.1,0l0-0.1l0.1,0l0-0.4l0.3,0c0,0.2,0,0.4,0,0.5h-0.1l0,0.1
		c0,0.1-0.2,0-0.2,0.1l0,0.2h0.1l0,0.1h0.1l0,0.1l0.1,0c0,0.1,0,0.3,0,0.5h-0.2v0.1c-0.1,0.1-0.3,0-0.5,0l0-0.2h-0.1l0,0.1l-0.2,0
		v0.5H30l0,0.1l0.1,0l0,0.1h0.1v0.2h-0.1v0.1l-0.1,0l0,0.1h0.1l0,0.1l0.1,0v0.4h-0.1L30,14.3h-0.1l0,0.2l0.1,0v0.2h-0.3l0,0.2h0.1
		l0,0.1l-0.2,0v0.1l-0.1,0.1v0.1l0.1,0l0,0.2h-0.1v0.1h0.1l0,0.1h0.1l0.1,0.1l0.1,0l0,0.2h-0.3l0,0.2h-0.2v0.4c0.1,0,0.2,0,0.3,0
		l0,0.3l-0.1,0l0,0.2h-0.4l0,0.7l0.2,0l0-0.5l0.2,0c0,0.2,0,0.4,0,0.5h-0.1v0.1l-0.2,0v0.1l0.2,0l0,0.2l-0.3,0l0,0.7h-0.2l0,0.8
		h-0.2l0,0.6h0.2v-0.1l0.1,0l0-0.2l-0.1,0V20l0.2,0l0-0.2h0.1l0-0.1l0.2,0l0,0.4h-0.1l0,0.7h-0.1v0.1l-0.2,0l0,0L29,20.9l0,0.1
		l-0.1,0V21l-0.1,0.1v0.2h0.1l0.1,0.1l-0.1,0.1v0.1h0.1l0.1,0.1l0.1,0l0,0.1l-0.1,0v0.1l-0.1,0V22h0.1l0,0.1l-0.1,0v0.2l0.2,0l0,0.2
		l-0.2,0v0.2l0.1,0l0,0.1h0.1v-0.1l0.1,0l0.2,0.1l-0.1,0V23L29,23.1v0.1l0.2,0l0,0.2l-0.2,0v0.2h0.2l0-0.2h0.1l0,0.1
		c0.2,0,0.1,0.3,0.1,0.4h0.1l0,0.1l-0.1,0v0.1l-0.1,0.1c-0.2,0-0.1-0.2-0.1-0.3l-0.2,0l0-0.1l-0.1,0l0,0.2h-0.2V24l-0.1,0v0.2h0.1
		l0,0.1l-0.1,0v0.1h0.1l0,0.2h0.1l0,0.3l0.2,0v-0.2h-0.1l0-0.2h0.1c0.1,0,0.1,0,0.1,0.1h0.1l0,0.1h0.1V25l-0.1,0v0.1l-0.1,0v0.1
		L29,25.3v0.1c-0.1,0.1-0.4,0-0.5,0.1l0,0l-0.1,0l0,0.1l0.1,0l0,0.2l-0.1,0v0.1l0.1,0l0.1,0.1h0.3l0-0.2l0.1,0l0.2,0.1l0.1,0l0,0.1
		L29,26l0,0.8l-0.2,0v-0.1l-0.1,0l0-0.1h-0.2v0.1l-0.1,0.1v0.1l0.3,0v0.4h0.1l0-0.1l0.2,0l0,0.2h-0.1l0,0.1l-0.1,0l-0.1-0.1h-0.1
		l0,0.2l-0.2,0l0,0.4l0.2,0c0,0.2,0,0.4,0,0.5h-0.1l0,0.2h0.1l0.1,0.1l0.1,0l0,0.2h-0.1l0,0.3l0.2,0l0,0.3h-0.2l0,0.2h0.1
		c0.3,0,0.1,0.3,0.2,0.5H29c0.3-0.1,0.1,0.2,0.1,0.3h0.1l0,0.1l0.1,0l0,0.1h0.1l0,0.1h0.1l0,0.1h0.1l0,0.1l0.1,0l0,0.1l0.6,0v0.2
		h0.5l0-0.1l0.1,0v0l0.1-0.1l0-0.1l0.1-0.1l0-0.1h-0.1c-0.1-0.4-0.1-0.8,0-1.1h0.1V30l0.1-0.1l0-0.2l0.1,0c0.2-0.1,0.1,0.1,0.2,0.2
		l0.3,0v0.1h0.1l0,0.1H32l0,0.2h0.2l0-0.5h-0.1l0-0.1h-0.1v-0.3h0.1v-0.1l-0.4,0l0-0.1h-0.1l0-0.1l0.1,0V29h-0.1l0-0.1l0.1,0l0-0.1
		l0.2,0l0,0.2h-0.1v0.2H32l0-0.1l0.1,0V29l0.1,0l0-0.5h-0.1l0-0.1h-0.1l0-0.1H32l0-0.1h-0.1l0-0.1l-0.7,0l0-0.2h0.1v-0.1h-0.1l0-0.2
		l-0.2,0l0-0.2h0.2v-0.1l0.1-0.1V27l0.4,0v0.4h0.4l0-0.2l-0.2,0v-0.4l-0.2,0l0-0.6l-0.3,0l0-0.1h-0.1v-0.2l0.3,0l0,0.1h0.1l0-0.5
		h0.1v-0.1l0.1,0v-0.2h-0.1l0-0.1l0.3,0v-0.2l-0.2,0l0-0.1l-0.1,0l0-0.1l0.1-0.1l0-1.2h0.1l0.1,0.1H32v-0.1l0.1,0v-0.1h-0.1l0-0.1
		h-0.1l-0.1-0.1l0.1,0v-0.2l-0.2,0l0-0.2h-0.1c-0.2,0.1-0.1-0.1-0.1-0.2l-0.2,0l0-0.4l0.3,0V22h0.1l0,0.2l0.1,0l0-0.1l0.1-0.1l0-0.2
		h0.2v-0.3h-0.1v-0.3l0.2,0c0-0.2,0-0.4,0-0.5h0.2v-0.2h-0.1l0-0.1h-0.1c0-0.3,0-0.7,0-1l-0.1,0v0l-0.1,0l0,0.2h-0.1l0-0.1l-0.1,0
		l0-0.3l0.1,0v-0.1h-0.1V19H32c0-0.1,0-0.2,0-0.3l0.1,0c0.3,0,0.1,0.3,0.2,0.5l0.2,0l0-0.4h0.2v-1.3l-0.2,0l0-0.2h0.1l0-0.1l0.1-0.1
		c0-0.2,0-0.4,0-0.6h0.2l0-0.5h-0.1l0-0.2H33l0-0.1l0.1-0.1v-0.2H33l0-0.1h-0.1l0-0.1h-0.1l0-0.1l-0.1,0c-0.1-0.2,0-0.4,0-0.5h-0.1
		v-0.2h0.1v-0.2h-0.1l0-0.1l0.1,0l0-0.1l0.2,0l0,0.3l-0.1,0v0.1H33v-0.1l0.1-0.1v-0.1l0.1,0l0,0.1l0.2,0v-0.3l-0.2,0
		c0-0.2,0-0.4,0-0.5h0.1v-0.1l-0.1,0l0-0.1l-0.5,0c0-0.2,0-0.4,0-0.5h0.2l0-0.2h0.3l0-0.2h0.2l0-0.2l0.1,0v0l0.1-0.1l0-0.4h0.1
		l0-0.1l0.1,0v-0.3h-0.1V11L33.6,11v0.1l-0.1,0c0,0.2,0,0.4,0,0.6l-0.1,0v0.1l-0.1,0l0-0.1l-0.2,0l0-0.3h0.2l0-0.2h0.1l0-0.3l0.2,0
		v-0.1l0.1,0l0.1,0.1h0.1l0-0.3h0.1v-0.3h-0.1l0,0.2l-0.4,0l0-0.2l0.2,0l0-0.2h0.1l0-0.3h0.1V9.4l-0.4,0V9.3l-0.1,0l0-0.2l0.3,0
		l0,0.1h0.1V9.1l0.1,0V9l0.1-0.1V8.8l0.1,0l0-0.2h0.1V8.5l0.1,0V8.4h-0.1c0-0.3,0-0.7,0-1h-0.1L34,7.3h-0.1l0-0.1l0.1,0l0-0.1l0.1,0
		c0-0.2,0-0.4,0-0.5l0.1,0V6.4l-0.1,0l0-0.1l-0.2,0l0-0.3H34V5.7l-0.1,0l0-0.1l0.1,0V5.5l0.2,0l-0.1-0.2l-0.3,0L33.7,5l-0.1,0
		L33.2,5l0-0.1L33,4.7l-0.2,0.1l-0.2-0.1l-0.3,0l-0.1,0.2l-0.4-0.1l-0.4,0l0,0.2l-0.2,0L31.3,5.2z"/>
	<polygon class="st1" points="31,7.2 31.1,7.2 31.1,7.1 31.1,7.1 30.9,7.1 30.9,7.1 30.8,7.2 30.8,7.3 31,7.3 	"/>
	<path class="st1" d="M150.3,26.6L150.3,26.6l-0.1,0.1l-0.2,0v0.1h-0.1v-0.2l0.1-0.1L150.3,26.6L150.3,26.6z M150.2,27.7h0.2v0.2
		h-0.2L150.2,27.7z M149.8,25.9L149.8,25.9l-0.1-0.2h0.1V25.9z M147.3,29.2l-0.1,0v0.1H147v-0.2c0.2,0,0-0.2,0.2-0.1l0.1,0.1h0.1
		V29.2z M147.1,29.9l-0.1,0.1l0,0.1h-0.1l-0.1-0.1h-0.1l0-0.1c0.3,0.1,0-0.2,0.3-0.1L147.1,29.9z M146.8,29.5L146.8,29.5L146.8,29.5
		L146.8,29.5l-0.2,0v-0.1c0.2,0.1,0-0.2,0.2-0.1l0.1,0.1h0.1l0,0.1L146.8,29.5z M146,26.5l-0.2,0v0.1l-0.1,0.1v0.1h-0.2l0-0.1l0.1,0
		v-0.1l0.1,0l0-0.2h0.3L146,26.5z M145.7,30.3h-0.5l0-0.4l0.2,0v-0.1h0.1l0-0.3h0.1l0.1,0.1h0.1L145.7,30.3z M145,26.9l-0.1,0V27
		l-0.1,0l0-0.1l-0.1,0v-0.2h0.3L145,26.9z M143.2,31.1H143v-0.2h0.2V31.1z M142.9,27.5L142.9,27.5l-0.1,0.1h-0.1v-0.2L142.9,27.5
		L142.9,27.5z M140.1,30.9l-0.7,0v-0.2l0.2,0v-0.2h-0.1v-0.1l0.3,0v0.1h-0.1v0.3h0.1l0,0.1l0.1,0v0l0.2,0V30.9z M139,30.1l-0.1,0
		l0,0.1l-0.1,0.1v0.1h-0.1l0-0.2l0.1,0V30l-0.4,0l-0.1-0.1h-0.1v-0.1c0.2,0.1,0-0.2,0.2-0.1v0.1l0.2,0l0,0.1l0.4,0V30.1z
		 M137.2,17.6l-0.1,0.1l0,0.1l-0.4,0l0,0.4h-0.3l0-0.1h-0.1l0-0.2l-0.1,0l0,0.1H136l0-0.4c0.2,0,0.4,0,0.5-0.1v-0.1l0.1-0.1l0.3,0
		l0,0.1h0.1l0,0.2l0.1,0v-0.1L137.2,17.6L137.2,17.6z M135.8,14.3L135.8,14.3l0.1-0.2l0.2,0v0.2H135.8z M135.9,18.4l-0.1,0.1l0,0.1
		h-0.3v-0.4l0.1-0.1h0.2l0,0.1h0.1V18.4z M136.9,22.6l-0.2,0l0,0.3h-0.1l0-0.1h-0.1v-0.2C136.8,22.8,136.6,22.4,136.9,22.6
		L136.9,22.6z M134.8,18.2L134.8,18.2l-0.1,0.1h-0.1l-0.1-0.1l-0.1,0.1l0,0.1h-0.1l-0.1-0.1h-0.1v-0.1l0.1-0.1V18
		c0.1,0,0.4,0.1,0.3-0.1l0.2,0V18.2z M133.7,17.7h-0.2l0-0.1h0.2V17.7z M133.7,18.5L133.7,18.5l-0.1-0.2h0.1V18.5z M133.5,18.4h-0.2
		l0-0.1L133.5,18.4L133.5,18.4z M133.1,18.4l-0.1,0l0,0.1l-0.1,0.1v0.1h-0.3l-0.1-0.1l-0.1,0.1v0.1h-0.2l-0.1-0.2h-0.1l0-0.2h-0.1
		v-0.1l0.1-0.1l0.2,0l0,0.4l0.2,0l0.1-0.1l0.2-0.1v-0.1l0.1,0v-0.1h0.1l0.1,0.1h0.1V18.4z M138.4,21.8c0.2,0,0-0.2,0.2-0.1v0.5h-0.2
		L138.4,21.8z M138.6,20.4c0.2,0.1,0-0.2,0.2-0.1l0,0.2h0.1v0.1h-0.3V20.4z M138.6,18.8L138.6,18.8l0.1,0.1h0.1v0.2h-0.2V18.8z
		 M138.9,21.2h-0.2V21h0.1L138.9,21.2L138.9,21.2L138.9,21.2z M138.9,17.7h0.2v0.2l-0.1,0.1V18h-0.1V17.7z M139.3,8.1V7.8l0.2,0v0.1
		l0.2,0V8l-0.1,0l0,0.1H139.3z M139.4,8.4h-0.2l0-0.1L139.4,8.4L139.4,8.4z M141.2,6.1h0.2l0,0.1l-0.1,0v0h-0.1V6.1z M141.4,8.3h0.1
		l0-0.2l0.2,0V8l0.1-0.1V7.9l0.1,0V7.8c0.2,0.1,0.1-0.1,0.3-0.1v0.2l-0.1,0.1V8L142,8l0,0.1l-0.2,0l0,0.2l0.1,0l0,0.1h-0.1l0-0.1
		l-0.3,0l0,0.2l-0.1,0V8.3z M140.7,16.7h0.1v0.2h-0.1V16.7z M141.2,16.5L141.2,16.5L141.2,16.5L141.2,16.5L141.2,16.5z M141.4,16.5
		L141.4,16.5l0.1,0.1L141.4,16.5L141.4,16.5z M141.6,13.3L141.6,13.3l0.1-0.2h0.7v0.2c-0.1,0-0.3,0-0.4,0.1l0,0.1l0.1,0v0.2l-0.1,0
		l0,0.1l-0.1,0l-0.2-0.1l-0.1,0v0.1l-0.1,0V13.3z M143.6,15.7c0.2,0.1,0-0.2,0.2-0.1l0,0.1h0.1l0,0.1l-0.1,0l0,0.1h-0.2L143.6,15.7z
		 M146,14.3c0.2,0.1,0-0.1,0.2-0.1v0.3l-0.2,0V14.3z M141.8,26.8L141.8,26.8l0.1,0.2h-0.1V26.8z M151.5,26.2l-0.2,0l0-0.2h-0.1
		l0,0.1l-0.2,0l0-0.1l-0.2,0l0,0.4h-0.2V26h-0.2l0,0.2l-0.1,0l0-0.1h-0.1l0-0.1l0.1-0.1l0-0.2h0.1l0-0.4l0.1,0
		c0.2-0.1,0.1,0.2,0.2,0.2h0.2l0-0.6l-0.2,0v-0.2h-0.1l0,0.1l-0.2,0v-0.1h-0.1v-0.1l0.2,0l0-0.1l0.1-0.1l0-0.1h-0.6v0.2l-0.4,0
		l0-0.1h-0.1v0.1l-0.1,0l0,0.2h0.1l0.2,0.1h0.1l0,0.1h0.2l0-0.1l0.1,0l0-0.3h0.1c0.3-0.1,0.1,0.2,0.1,0.3l0.3,0v0.1h0.1l0,0.1
		l-0.1,0.1l0,0.1l-0.1,0l0-0.1h-0.4l0,0.2h-0.4l0,0.2l-0.2,0v-0.1h0v0l-0.4,0l0-0.2h0.1v-0.2h-0.2c0,0.1,0,0.2,0,0.3h-0.1l0-0.1
		h-0.1c-0.1-0.1,0-0.2,0-0.3h-0.2c0,0.1,0,0.2,0,0.3l-0.1,0l0-0.1l-0.2,0v-0.1h-0.1l0,0.1l-0.1,0l0,0.2l-0.2,0v-0.1l-0.2,0l0,0.7
		c-0.2,0-0.1-0.3-0.1-0.5l-0.1,0l0-0.1h-0.1v0.1l-0.1,0v0.2h0.1l0.1,0.1l-0.2,0l0,0.1l-0.1,0.1l0-0.2h-0.1l0-0.1h-0.1
		c0,0.1,0,0.2,0,0.3l-0.1,0c-0.2,0-0.1-0.2-0.1-0.3h-0.1v0.1c-0.2,0.1-0.5,0-0.7,0l0-0.1h-0.1v0.1l-0.1,0l0,0.2h-0.1l-0.1-0.1H145
		l0,0.1l-0.1,0.1l0-0.1h-0.1v0.1l-0.1,0.1l0,0.1h0.1l0,0.2l-0.2,0v0.2l-0.5,0v-0.1h-0.1l0-0.1h-0.1l0,0.1l-0.1,0v0.1h0.1l0,0.2
		l0.7,0V27c-0.2,0.1-0.4,0-0.6,0v0.1c-0.1,0.1-0.4,0-0.5,0.1l0,0.1l-0.2,0c0-0.1,0-0.2,0-0.3h0.1l0.2,0.1h0.2l0-0.5l-0.2,0l0,0.2
		h-0.4l0,0.2l0.1,0l0,0.2l-0.4,0l0,0.1l-0.3,0v0.1l-0.1,0l-0.1-0.1l-0.5,0v-0.1c0.1-0.1,0.4,0,0.5-0.1l0-0.2h0.1l0-0.2l0.1,0
		l0.1,0.1l0.3,0l0-0.1h-0.1l0-0.1l0.1-0.1v-0.2h-0.1l0-0.1h-0.5l0,0.2h-0.9l0,0.2l-0.2,0l0,0.2l0.1,0l0,0.2H141l0-0.1h-0.1l0,0.1
		l-0.2,0v0.1l-0.2,0l0,0.1l-0.2,0l0-0.3l-0.1,0l0-0.1l-0.3,0l0,0.1l-0.2,0l0-0.2h0.8l0-0.1l0.2,0v-0.2h-0.4l0,0.2l-0.4,0v-0.2
		l-0.3,0v-0.1h-0.1l0-0.1h-0.3l0,0.2H139c-0.2,0-0.1-0.3-0.1-0.4l-0.2,0v-0.3l-0.2,0l0.1-0.2l0.2,0v-0.9h-0.1c0-0.1,0-0.3,0-0.5h0.1
		l0-0.2h0.1v-0.1h-0.1l0-0.1h-0.1l0-0.3h-0.1v-0.3h0.1l0,0.2l0.1,0l0,0.2h0.1v-0.1l0.1,0v-0.5h-0.1l-0.1-0.1h-0.1l0-0.1l0.2-0.1
		c0-0.4,0-0.9,0-1.3l0.2,0l0-0.8h0.1l0-0.4h0.1V20l-0.2,0l0,0.2l-0.1,0v0.1l-0.1,0l0-0.3h0.1v-0.1l0.2-0.1l0-0.4h0.1l0-0.9h0.1v-0.1
		l-0.2,0l0-0.2h0.1v-0.1l0.2,0V18l0.1,0V18l0.1-0.1l0.1,0.1v0l0.1,0v0c0-0.1,0.2,0,0.3-0.1l0-0.2h-0.1l0-0.1H140l0-0.1
		c0.1-0.1,0.3,0,0.5,0v-0.1l0.1,0v-0.1c0.1-0.1,0.4,0,0.6,0l0-0.2h-0.1v-0.2l0.3,0l0,0.1l0.1,0v-0.1l0.1-0.1l0-0.3h0.2v-0.2h-0.1
		l0-0.1l0.1,0l0.2,0.1l0.3,0v0.1h0.1l0,0.1h0.1l0,0.1h0.1l0,0.1l-0.1,0v0.1l0.1,0l0,0.1h0.1v-0.1l0.1-0.1v-0.3l-0.2,0l0-0.3h0.1
		l0.1,0.1h0.2c0-0.1,0-0.2,0-0.3l0.7,0V16l-0.1,0.1v0l-0.1,0.1l0,0.1l0.1,0l0.1,0.1h0.1l0,0.1h0.1l0-0.1l0.1,0v-0.1l0.1-0.1v-0.1
		l0.1-0.1v-0.1l0.1,0v-0.3h-0.1l0-0.1l-0.1,0l-0.1-0.1l0.3,0v-0.2h-0.1V15l0.3,0v0.2l0.3,0l0-0.2h-0.1l0-0.2h0.1v-0.1h-0.1l-0.1-0.1
		l-0.3,0l0-0.4h0.1c0.2-0.1,0.1,0.1,0.1,0.2h0.1v-0.1l0.1,0l0.1,0.1h0.2l0-0.2l0.1,0v-0.1l0.1,0l0,0.2h0.1l0-0.2h0.1l0-0.7h0.1
		c0,0.2,0,0.4,0,0.6l0.1,0v0.3h-0.1v0.1l-0.1,0v0.1l-0.1,0.1v0.1l-0.1,0v0c-0.1,0.1-0.3,0-0.4,0V15h0.1l0,0.1l0.1,0l0-0.1h0.2l0,0.2
		h-0.2v0.2h0.4l0-0.2h0.1l0,0l0.1-0.1l0-0.1c0.1-0.1,0.2,0,0.3,0c0-0.1,0-0.2,0-0.3h0.1v-0.1l0.1,0l0-0.4h0.2l0-0.4l-0.2,0v-0.3
		l-0.2,0l0-0.2l0.4,0l0-0.4l-0.2,0l0,0.2l-0.2,0l0-0.5h-0.1v-0.1H146l-0.1-0.2h-0.1v0l-0.1,0.1v0.3l0.1,0l0,0.1h0.1
		c0.1,0.2,0.1,0.5,0,0.8h-0.1c-0.2,0.1-0.1-0.1-0.1-0.2h-0.1c0-0.2,0-0.4,0-0.6h-0.1l-0.1-0.1h-0.1l0-0.1h-0.1l0-0.1h-0.1l0-0.1
		h-0.4c0,0.2,0,0.4,0,0.6l-0.5,0l0-0.2h0.1v-0.1h-0.1l0-0.2h-0.1l0-0.1h-0.1l-0.1-0.2H144l0,0.1l-0.1,0v0.3l0.1,0l0,0.2h-0.1v0.1
		l-0.1,0.1v0.1l-0.2,0l0,0.2l-0.3,0V13l-0.1,0l0,0.1l-0.2,0l0-0.1h-0.1l0,0.1l-0.4,0l0-0.1l0.1,0l0-0.1l0.1-0.1v-0.1l0.1,0v-0.1
		l0.1-0.1l0,0.1h0.2v-0.3h-0.4v0.1l-0.4,0v-0.1h-0.2l0,0.2l-0.1,0l0,0.1l-0.1,0.1l0,0.1l-0.2,0l0-0.2l-0.2,0v0.1l-0.1,0.1l-0.1-0.2
		h-0.1l0-0.1h-0.1l0,0.1l-0.2,0v-0.2h-0.1l0-0.1h-0.1l0-0.1h-0.1l-0.1-0.1h-0.1v-0.4l0.1,0l0-0.1h-0.1v-0.2h0.1l0-0.1l0.1-0.1l0,0.1
		h0.4v-0.2h-0.1l0-0.1H141l0,0.1l-0.2,0l0-0.4l0.7,0l0-0.1l0.1,0v-0.1l0.2,0v-0.1l-0.1,0l0-0.1h-0.1c-0.2,0-0.1-0.2-0.1-0.2l-0.1,0
		l-0.1-0.1h-0.1c0-0.1,0-0.3,0-0.4h0.1V9.5l0.1,0l0.1,0.1h0l0,0.1l0.2,0V9.4h-0.1c0-0.2,0-0.4,0-0.6h0.1V8.8l0.1,0l0-0.2h0.1V8.5
		l0.1-0.1l0-0.2l0.1,0l0.2,0.1h0.1l0-0.1l0.1,0V7.7l-0.1,0c-0.2,0-0.1-0.3-0.1-0.4l-0.4,0V7l-0.2,0V6.8h-0.1l-0.1-0.1
		c0.1-0.1,0.3,0,0.4-0.1V6.2h-0.1l-0.1-0.1l-0.1,0l0-0.1l-0.1,0l0-0.1h-0.1l0-0.1l-0.2,0V5.7l0.1,0V5.5l-1,0l0-0.2h0.2V5.2l0.1,0
		V5.1l0.1-0.1v0l0.1,0V4.8h-0.1l0-0.1h-0.1l-0.1-0.2h-0.1l0-0.1h-0.1l0,0.2h-0.1v0.1l-0.1,0l-0.1-0.1H140l0,0.4h-0.2l0,0.4h-0.2v0.3
		h0.1l0,0.3l-0.3,0l0,0.2l0.3,0l0,0.2h-0.3v0.1h0.1l0,0.1h0.2V6.6l0.1,0c0,0.1,0,0.3,0,0.5l-0.1,0l0,0.2h-0.1v0l-0.1,0.1l0-0.1h-0.1
		V7h0.2V6.8h-0.1l0,0l-0.1,0V7l-0.3,0l0,1h-0.1v0.1l-0.1,0v0.1l-0.1,0.1v0.1l-0.1,0v0.1l-0.2,0l0,0.2h0.1c0.2,0,0.1,0.2,0.1,0.3h0.1
		l0,0.1h0.1c0.1,0.1,0,0.2,0.1,0.3l0.2,0V8.9l-0.2,0l0-0.5l0.4,0l0,0.2l0.2,0c0,0.1,0,0.2,0,0.3h-0.1V9l-0.1,0.1l0,0.8l-0.2,0V9.7
		h-0.2l0,0.2l-0.2,0l0,0.2h-0.2l0,0.2h-0.1l0-0.1h-0.2v0.2h-0.2l0,0.2l0.4,0l0,0.5l-0.1,0c-0.2,0-0.1-0.2-0.1-0.2l-0.2,0l0,0.2h-0.1
		l-0.1,1h-0.4v0.2l0.1,0l0.1,0.1h0.1l0,0.1h0.1l0,0.1h0.1l0,0.1h0.1l0,0.1l-0.2,0l0,0.2l0.2,0l0,0.2h-0.2v0.1c-0.1,0.1-0.3,0-0.4,0
		v-0.1l0.3,0l0-0.2h-0.1l0-0.2l-0.3,0l0,0L137,13l0,0.1h0.1l0,0.3h-0.2l0,0.3h0.1l0.1,0.1l-0.1,0.1v0.1l-0.1,0l0-0.1h-0.3v0.1
		l-0.1,0l0,0.2h-0.1l0-0.1h-0.1l0-0.2h-0.7l0,0.2H135v0.2h-0.2l0,0.2h0.1c0.2-0.1,0.1,0.1,0.1,0.2h0.1l0,0.1l-0.1,0v0.1l-0.1,0.1
		l0,0.1l-0.3,0l0,0.2l-0.2,0v-0.2l-0.2,0v0.1l-0.1,0.1l0-0.1h-0.1l0-0.1l0.2,0v-0.1l0.1-0.1v-0.1h-0.1l0-0.1l-0.1,0v0.1
		c-0.1,0.1-0.3,0-0.5,0v-0.3h-0.1v0.1l-0.1,0l0,0.2h-0.2l0,0.2l-0.1,0l0-0.1h-0.1v0.1l-0.1,0.1l0-0.2h-0.1l0-0.1h-0.1v0.1
		c-0.2,0.1-0.5,0-0.7,0v-0.1h-0.1l0,0.2h-0.2v0.1l-0.1,0.1v0.1l0.1,0l0,0.2h0.1l0.1,0.1h0.1l0.1,0.1c0,0.1-0.3,0-0.4,0.1l0,0.1h0.1
		V16l-0.1,0l0,1.1h-0.2v0.2h0.1l0,0.1l0.1,0l0,0.2h0.1c0.2-0.1,0.1,0.1,0.1,0.2h0.1l0,0.1l-0.1,0v0.5h0.1l0,0.1h0.1l0,0.1l-0.1,0.1
		v0.4h0.6v-0.1l0.1-0.1l0,0.2h0.1l0.1,0.1h0.1l0.1,0.1l-0.2,0.1v0.1l-0.1,0v0.1l0.4,0l0-0.3h0.1v-0.1l0.1,0l0-0.3h0.4l0-0.2h0.1
		c0.2-0.1,0.1,0.2,0.1,0.2l0.3,0v0.2h0.2l0-0.2l0.1,0v-0.1l0.1,0v-0.1l0.1,0l0,0.1l0.1,0v-0.1l0.2,0l0-0.1l0.1,0l0.1,0.1h0.1l0,0.1
		l-0.1,0v0.3h0.2l0-0.2h0.1c0.2-0.1,0.1,0.1,0.2,0.2h0.2v-0.1L136,19l0,0.1h0.1l0.1,0.1l-0.1,0v0.1l-0.2,0v0.1h0.1l0.1,0.1h0.1
		l0.1,0.1h0.3l0-0.1l0.1,0v-0.1l0.1,0l0,0.2l0.2,0l0,0.2l-0.2,0l0-0.1h-0.1l0,0.2l-0.1,0v0.1l-0.1,0l-0.1-0.1h-0.1l0-0.1l-0.2,0
		l0,0.2l0.1,0l0,0.2h-0.1l0,0.1h0.1c0.1,0,0.2,0,0.2,0.1h0.1l0,0.1l-0.1,0l0,0.2l0.4,0l0,0.2l-0.5,0v-0.4l-0.2,0v0.1l-0.1,0.1v0.1
		h0.1c0,0.2,0.1,0.5,0,0.7l-0.1,0v0.1l0.3,0l0,0.2H136v0.1l-0.1,0.1l0,0.1l0.4,0l0,0.1h0.1l0,0.4l-0.1,0c-0.2,0-0.1-0.1-0.1-0.2H136
		l0,0.1l-0.1,0v0.1l-0.1,0.1v1.2l0.2,0c0,0.2,0,0.4,0,0.6l-0.2,0v0.2h0.4l0-0.5l0.2,0V24h-0.1v-0.2h0.1l0-0.1l0.1,0l0.1,0.1h0.1
		v-0.1l0.1,0l0,0.2h0.1l0,0.1l0.1,0l0-0.1l0.1,0l0,0.1l0.2,0c0,0.1,0,0.2,0,0.3h-0.5l0,0.2l0.4,0l0,0.2h-0.4l0,0.2l0.4,0v0.4l0.1,0
		l0.1,0.1h0.1l0,0.1l-0.1,0.1l0,0.1l-0.1,0l0-0.2h-0.2l0,0.2l-0.2,0l0-0.2h-0.1c-0.2,0-0.1-0.3-0.1-0.4l-0.3,0v0.1l-0.1,0v0.1h0.1
		l0,0.3h-0.1l0,0.2h0.1l0,0.1h0.1l0-0.2h0.1v-0.1l0.1,0l0.1,0.2l0.1,0l0,0.1c0.2,0,0,0.3,0.1,0.4h0.2v-0.2c0.1,0,0.3,0,0.3,0l0,0.3
		h-0.5v0.1l0,0l0,0.1l0.1,0c0.1,0.3,0.1,0.6,0,0.9c0.1,0,0.3,0,0.3,0l0,0.2h-0.2l0,0.2h-0.1l0-0.1l-0.2,0v-0.4h-0.2l0,0.2h-0.2v0.3
		l0.1,0l0,0.1h0.1l0.1,0.1l0.1,0l0,0.1h0.1l0,0.1h0.1l0,0.1h0.1l0,0.3h0.1l0.1,0.1l0.2,0l0-0.1l0.1,0l0,0.2h0.2v-0.1l0.1,0l0.1,0.1
		l0.2,0l0,0.7c-0.1,0-0.3,0-0.3,0v-0.1h-0.3v0.4l0.8,0v0.2H138v0.1l0.1,0l0,0.1l0.2,0v0l0.1-0.1l0.1,0.1l0.3,0l0,0.2l-0.3,0l0,0.3
		l0.4,0l0-0.2l0.4,0l0,0.4h0v0.1l0,0l0,0.1h0.2l0-0.1l0.1,0l0.1,0.2h0.1l0,0.1h0.3l0-0.2l0.1,0v-0.1l0.1,0l0-0.2l0.1,0l0.1,0.1h0.1
		v0.2l0.2,0l0-0.2h-0.1v-0.2h0.3l0-0.2c0.1,0,0.3,0,0.3,0v0.2l0.2,0v0.2h-0.3l0,0.1l0.1,0l0,0.1h0.2v-0.2h0.1
		c0.2-0.1,0.1,0.1,0.1,0.2h0.1l0-0.2l0.1,0l0-0.1l0.1,0c0.1,0.1,0,0.2,0,0.3h0.2v-0.6l-0.2,0l0-0.2l0.7,0l0,0.2h-0.3v0.2l0.1,0
		l0,0.1h0.1l0,0.1l1,0v-0.1l0.1,0v0l0.2,0l0-0.2h-0.1v-0.3h0.1v-0.1l0.1-0.1l0,0.1h0.2l0-0.1l0.1-0.1l0,0.1l0.1,0l0,0.1h0.1l0.1,0.1
		h0.1l0,0.2l0.1,0l0-0.2h0.1v-0.1l0.1,0l0,0.2l0.1,0l0,0.1l0.1,0l0-0.3l0.6,0v0.2h0.1l0,0.1h0.1v-0.1l0.1,0v-0.2h-0.1l0-0.1l0.1-0.1
		v-0.2l-0.2,0l0-0.2l0.5,0v0.4l0.3,0v-0.1l0.1-0.1l0-0.2h0.1l0,0.1h0.2l0-0.2h0.2l0-0.2h0.5l0-0.1l0.1,0v-0.1l0.1-0.1l0,0.2h0.1
		l0,0.1l0.1,0v-0.5l-0.4,0l0-0.3h0.2l0-0.2l0.1,0c0.2-0.1,0.1,0.1,0.1,0.2h0.2V29l0.1,0l0,0.1l0.1,0l0,0.2l-0.2,0v0.5h0.2l0-0.2h0.2
		v-0.1l0.1,0v-0.1l0.1,0l0-0.1l-0.2,0l0-0.7l0.1,0v-0.1l0.1-0.1v0l0.1,0l0,0.3l0.1,0l0,0.1h0.1l0-0.4l0.1,0l0-0.1l0.1-0.1v-0.1
		l0.1,0l0-0.1L150,28l0-0.1l-0.1,0l0-0.2h0.1c0.2-0.1,0.1,0.1,0.1,0.2h0.1l0,0.2h0.2v-0.1l0.1-0.1l0,0.2h0.1l0,0.1l0.1,0l0-0.7h0.4
		v-0.2l-0.9,0v-0.1h-0.1l0,0.1l-0.2,0l0-0.2h0.3l0-0.1l0.1-0.1l0-0.2h0.3l0-0.2l0.3,0v0.1h0.1l0.1,0.1h0.1v-0.2h-0.1v-0.2l0.3,0
		v-0.1h-0.1L151.5,26.2z"/>
	<polygon class="st1" points="139.7,18.1 139.8,18.1 139.8,18 139.8,18 139.7,18 	"/>
	<rect x="30.3" y="10.2" class="st1" width="0.1" height="0.2"/>
	<polygon class="st1" points="30.2,11.9 30.1,11.9 30.1,12.1 30.2,12.1 	"/>
	<polygon class="st1" points="30.3,12.7 30.5,12.7 30.5,12.6 30.6,12.5 30.6,12.5 30.5,12.5 30.5,12.3 30.1,12.4 30.1,12.5 
		30.2,12.6 	"/>
	<polygon class="st1" points="144.7,12.5 144.5,12.5 144.5,12.6 144.7,12.6 	"/>
	<path class="st1" d="M53.1,25.5H53v-0.2h0.2V25.5z M53.1,25.9l-0.2,0l0,0.2l0.2,0v0.1L53,26.3l0,0H53v-0.1l-0.4,0v-0.2l0.1,0l0-0.1
		h-0.1v-0.1l0.1-0.1l0.5,0L53.1,25.9z M52.5,24.5h0.2l0,0.1h0.1l0,0.2h-0.3V24.5z M51.7,24.5h-0.2v-0.2l0.2,0V24.5z M51.4,24.8
		l-0.1,0.1V25l-0.5,0v-0.1l0.1,0v-0.1c0.1,0,0.4,0.1,0.3-0.1h0.2V24.8z M51,27.4l-0.2,0v-0.3h0.1l0,0.1l0.1,0V27.4z M51,28.9h-0.2
		l0,0.2h-0.2l0,0.2l-0.3,0l0-0.1h-0.1V29l0.1,0l0-0.1h0.2v-0.3l-0.1,0l0-0.1h0.1v-0.3h-0.1l0-0.6l0.1-0.1l0.3,0l0,0.2h-0.2l0,0.7
		l0.2,0c0.1,0.1-0.1,0.4,0.1,0.3H51V28.9z M50.5,29.8h-0.2v-0.2l0.2,0V29.8z M50.2,28.6h-0.4v-0.2l0.2,0v-0.1l0.1,0l0-0.2h0.2v0.3
		h-0.1L50.2,28.6z M49.7,25L49.7,25l-0.1-0.1h0.1V25z M50.3,26.4h0.1v0.1L50.3,26.4L50.3,26.4z M49.6,24.7h-0.2v-0.1
		c-0.1,0-0.2,0-0.3,0L49,24.5h-0.1v-0.2h0.2v0.1l0.5,0l0,0.1l0.1,0V24.7z M49.6,28.3L49.6,28.3L49.6,28.3L49.6,28.3L49.6,28.3z
		 M49.4,25.3h-0.2v-0.2h0.2L49.4,25.3z M49.4,29.5L49.4,29.5l-0.1-0.1h-0.1l-0.1-0.1l-0.1,0V29l0.1,0l0.1,0.1h0.1L49.4,29.5z
		 M48.6,24.7h-0.2v-0.4l0.2,0L48.6,24.7z M48.2,24.6L48.2,24.6l-0.1-0.1H48v-0.2h0.2L48.2,24.6z M48.1,28.3L48.1,28.3L48,28.4h-0.1
		l0-0.2L48.1,28.3L48.1,28.3z M47.9,24.8h-0.2v-0.1L47.9,24.8L47.9,24.8z M47.7,24.3L47.7,24.3l0.1,0.3l-0.1,0L47.7,24.3z
		 M46.9,27.7l-0.1,0l0,0.1h-0.1l0-0.3h0.2L46.9,27.7z M46.5,20.6l-0.2-0.1l-0.1,0v0.1h-0.2V20l0.1,0l0-0.1l0.2-0.1l0-0.1
		c0.2,0.1,0-0.1,0.2-0.1l0,0.1l0.1,0v0.3l-0.1,0.1l0,0.1h0.1v0.1l0.2,0v0.2H46.5z M46.1,18.9L46.1,18.9L46.1,18.9L46.1,18.9
		L46.1,18.9z M45.6,24.1l-0.2,0l0,0.1l-0.1,0l0,0.1h0.1l0,0.2h-0.3v0.3h0.1l0,0.1l-0.1,0.1V25h-0.2c0-0.1,0-0.3-0.1-0.3h-0.1l0,0.2
		l-0.1,0.1l0,0.1l-0.1,0v0l-0.1,0.1v0l-0.2,0l0,0.1h-0.2l0-0.2l-0.1,0l0-0.2l-0.1,0.1V25h-0.7l0-0.1H43l0-0.2l-0.1,0l0,0.1h-0.1
		l0,0.2l-0.1,0l0,0.1l-0.1,0.1v0l-0.2,0v0.1l-0.1,0v0.1h-0.1l0-0.1H42c0-0.1,0.1-0.3-0.1-0.2l-0.1,0.1v0h-0.1l0-0.1l-0.1,0l0-0.1
		h0.1l0-0.2l-0.2,0l0-0.1l-0.1,0l0-0.1h-0.1v-0.1l0.1-0.1v-0.1l0.1,0v-0.1h0.1l0-0.2l0.2,0v-0.1l0.1-0.1v-0.1l-0.4,0l0-0.1h-0.1
		v-0.1c0.1,0,0.4,0.1,0.4-0.1v-0.1l0.1,0v0l0.1,0l0-0.5l-0.2,0l0,0.1h-0.1l0-0.2l0.1-0.1l0-0.1l0.1,0l-0.1-0.1h-0.1l0-0.2
		c0.3,0,0.7,0,1,0l0-0.1l0.1-0.1l0-0.1h-0.1l0-0.1h0.1l0-0.2l-0.4,0l0-0.1h-0.1v-0.1l0.1-0.1v-0.1h0.1v0.1l0.2,0l0-0.1l0.1,0l0-0.1
		h-0.1V21l0.1-0.1l0-0.1H43l0-1.5l0.2,0v0.1l0.2,0v0.2l-0.2,0l0,0.2l0.5,0l0,0.1l0.1,0v0.1l0.3,0v0.8l0.2,0v0.2l0.5,0l0,0.1H45v0.2
		l-0.1,0.1l0,0.1l-0.1,0c0-0.1,0.1-0.3-0.1-0.2l-0.1,0l0,0.1l-0.1,0.1l0.1,0.1l0.1,0v0.2l0.4,0v0.1h-0.1l0,0.2l0.2,0l0,0.1h0.1
		l0,0.1h-0.3v0.3l0.1,0l0,0.1h0.1l0,0.2l0.2,0l0-0.2h0.2v0.5h-0.6l0,0.4l0.6,0l0,0.2h0.1V24.1z M43.5,27.9L43.5,27.9L43.5,27.9
		L43.5,27.9L43.5,27.9z M42.3,27.8L42.3,27.8L42.3,27.8L42.3,27.8L42.3,27.8z M41.6,27.8L41.6,27.8L41.5,28L41.4,28v0.1h-0.2l0-0.3
		l0.1-0.1v-0.1l0.1-0.1h0.2V27.8z M41.1,24.2l-0.1-0.1l-0.1,0l0-0.1l0.1-0.1h0.4l0,0.2l-0.1,0l0,0.1L41.1,24.2z M42.2,20.9
		L42.2,20.9l0.1,0.2h-0.1L42.2,20.9z M42.4,20.7L42.4,20.7L42.4,20.7l0.1-0.1v-0.1l0.1-0.1l-0.1-0.1h-0.1v-0.2l0.2,0l0,0.7h-0.3
		L42.4,20.7z M42.2,16h0.3l0.1,0.1h0.1l0,0.1h0.1l0,0.3l-0.1,0.1v0.1l-0.1,0l0,0.1h-0.1v-0.5l-0.2,0V16z M44.7,16.7L44.7,16.7
		L44.7,16.7v0.1V16.7z M40.7,24.2h-0.1v-0.1L40.7,24.2L40.7,24.2z M39.6,28.7h-0.3l0-0.2h0.2L39.6,28.7L39.6,28.7L39.6,28.7z
		 M39.7,29.2l-0.2,0l0-0.2h0.2V29.2z M39.3,29.4H39v-0.2h0.3V29.4z M38.9,24h-0.2v-0.2h0.2L38.9,24z M38.9,24.3h-0.2v-0.1L38.9,24.3
		L38.9,24.3z M37.5,29h-0.2l0-0.1h-0.1l0,0.2H37l0,0.3l-0.1,0.1l0,0.1h-0.1v-0.9H37l0.1,0.1h0.1l0-0.2h0.1c0,0.1-0.1,0.3,0.1,0.2
		h0.1V29z M37.5,26.8L37.5,26.8l-0.1-0.4h0.1V26.8z M38.5,24.5L38.5,24.5l-0.1-0.2h0.1V24.5z M40.5,20.5l-0.1,0v0.1h-0.1l0-0.4
		l0.2,0V20.5z M54.7,25.7l-0.5,0v-0.5h-0.2l0,0.2h-0.1l0-0.1h-0.3v0l-0.1,0l0-0.1h-0.1l0-0.1l0.1,0v-0.1c0-0.1,0.2,0,0.2-0.1l0-0.2
		h0.1l0,0.1h0.1v-0.1l0.1-0.1l0,0.1l0.4,0v-0.2h-0.2l0-0.4h-0.6v0.1l-0.1,0.1l0-0.2l-0.1,0l0-0.1h-0.1l0-0.1l-0.1,0l0-0.1H53
		l-0.1-0.2h-0.1v0.1l-0.1,0l0,0.2h-0.2v0.2h0.1l0.1,0.1l-0.1,0v0.1l-0.1,0.1l0-0.1h-0.2v0.1h0.1l0.1,0.1l-0.3,0l0-0.7l-0.6,0v-0.1
		h-0.1l0,0.2h-0.1v0.1L51,24l0,0.1l-0.1,0.1v0l-0.1,0l0-0.1h-0.2l0,0.3h-0.1l0-0.1l-0.1,0l0,0.1l-0.1,0.1l0-0.2h-0.1l0-0.1
		c-0.6,0-1.2,0-1.7,0V24l-0.1,0l0-0.1h-0.1l0-0.1l-0.3,0l0-0.2h-0.2v0.1l-0.1,0l0,0.1l-0.1,0l0-0.1h-0.2l0,0.2h-0.1l-0.1-0.1H47
		l0-0.1h-0.1l0-0.1h-0.1l0-0.1l0.1-0.1l0-0.1l0.1,0l0.1,0.1h0.1l0-0.6l0.1,0l0-0.1l0.1-0.1l0,0.1h0.2v-0.4l-0.5,0l0-0.1H47l0-0.1
		h-0.1l0-0.2h-0.1v-0.2h0.1v-0.1l-0.2,0l0-0.2H47v0l0.1-0.1v-0.1l0.1,0l0-0.8l-0.2,0l0-0.3h0.1v-0.2H47l0-0.1l-0.2,0l0-0.2h0.1
		l0-0.9h-0.1l0-0.1h-0.1l0-0.1h-0.1l0-0.1h-0.1l0-0.2l-0.1,0v0.1l-0.1,0l0,0.2l-0.2,0l0,0.2H46l0-0.1h-0.1l0-0.2l-0.1,0l0-0.3
		l-0.1,0l-0.1-0.1h-0.1l0-0.1h-0.1l0-0.1h-0.1l0-0.1l-0.2,0l0-0.2h0.2l0-0.4l0.1,0c0.2-0.1,0.1,0.1,0.1,0.2h0.1l0,0.2h0.1
		c0.1,0.1,0,0.3,0,0.4h0.1l0.1,0.1h0.1l0-0.1l0.1,0l0-0.1h-0.1l0-0.1l-0.2,0l0-0.2h0.1l0-0.1h-0.1c0-0.2,0-0.4,0-0.6h0.1v-0.2
		l-0.1,0l0-0.1h-0.1l0-0.1h-0.1l0,0.2h-0.1v0l-0.3,0v-0.2h-0.1c0-0.2,0-0.4,0-0.6l0.1,0l0.2,0.1h0.1l0,0.1l-0.1,0l0,0.2h0.2l0-0.4
		l-0.1,0c-0.2,0-0.1-0.2-0.1-0.2l-0.3,0v-0.1l-0.1,0l0-0.1l0.1,0v-0.1h-0.1l0-0.2l0.1,0l0-0.1l0.1,0l0,0.1h0.2l0-0.4l-0.2,0v-0.2
		l-0.5,0V14h-0.1l-0.1-0.1h-0.1l0-0.1h-0.1l0-0.1h-0.1v0.1L44,13.8l0-0.1h-0.1l0-0.1l-0.5,0v-0.2h-0.5l-0.1,0.1v0.1l-0.2,0.1v0.3
		h0.1l0.1,0.1h0.1v-0.1l0.1,0L43,14h0.2v-0.1l0.1,0l0,0.1h0.1l0,0.4h-0.2v0.1l-0.1,0v0.1l-0.1,0v0.1l-0.1,0v0.1l-0.1,0l0,0.2h-0.2
		l0,0.1h0.1l0.1,0.1h0.1l0,0.1l-0.1,0l0,0.1l-0.1,0l0,0.1l-0.2,0l0-0.2h-0.2l0,0.2l-0.2,0l0,0.2l0.2,0l0,0.2H42l0,0.2l-0.2,0v0.5
		h0.1l0.1,0.1l-0.1,0.1l0,0.1l-0.1,0v0l-0.1,0.1v0.1l-0.2,0l0,0.2h0.1l0,0.2h0.1l0,0.1h0.1l0,0.2h-0.3l0,0.2h0.1l0,0.1l-0.1,0.1v0.1
		l-0.1,0l0,0.1h0.1l0,0.3l-0.1,0l-0.1-0.1h-0.1l0-0.1h-0.2l0,0.2h-0.2l0,0.2h0.1c0.3-0.1,0.1,0.2,0.1,0.3h0.1l0,0.1H41l0.1,0.1
		l-0.1,0v0.1l-0.1,0l0-0.1h-0.1v0.1l-0.1,0l0,0.2h-0.1l0-0.1l-0.2,0l0,0.4l-0.2,0v0.7l0.2,0l0-0.1l0.1-0.1l0,0.1h0.1l0,0.1l-0.1,0
		v0.2h0.1l0.1,0.1h0.1l0.1,0.1l-0.1,0.1l0,0.2h-0.1v0.1l-0.2,0c0,0.2,0,0.4,0,0.6h-0.1l0,0.2H40l0,0.1l-0.1,0l0,0.2l-0.2,0l0-0.5
		l0.2,0l0-0.2h0.2l0-0.7l-0.2,0l0,0.4l-0.6,0l0-0.1l-0.1,0v0.4l0.2,0l0,0.2h-0.2l0,0.2l-0.2,0v0.1l-0.1,0v0.1l-0.1,0.1V23h0.2v-0.1
		l0.1,0l0,0.1h0.1c0.1,0.1,0.1,0.4,0,0.6h-0.7v0.1l-0.1,0v0.1l-0.1,0v0.1l-0.1,0.1l0,0l-0.1,0l0,0.3H38l0.1,0.1h0.1l0,0.1h0.1
		c0.3-0.1,0.1,0.2,0.1,0.3h0.1l0,0.1L38.4,25l0,0.1h0.1l0,0.1h0.1l0,0.1l-0.2,0.1l0,0l-0.1,0l0,0.1l-0.3,0v-0.4h-0.2l0,0.2h-0.1l0,0
		l-0.1,0v0.1l-0.2,0l0,0.3l0.1,0v0.2h-0.1v0.1l-0.2,0l0,0.2h0.1l0,0.1l-0.1,0l0,0.2l0.3,0V27h0.1l0,0.3h-0.1v0l-0.1,0v0.1l-0.1,0.1
		v0.1l-0.1,0.1v0.1l-0.1,0c0,0.2,0,0.4,0,0.5l-0.2,0v-0.1h-0.1l0,0.1l-0.1,0l0,0.2h-0.2l0,0.2l-0.2,0V29l0.4,0l0,0.4h-0.2v0.5l0.2,0
		l0,0.7h-0.2v0.2h0.4l0-0.5l0.6,0c0,0.1,0,0.2,0,0.3h-0.1l0,0.2h-0.1l0,0.2h0.1l0.2,0.1h0.1l0,0.1h0.1l0,0.1h0.1l0,0.1h0.1l0,0.2
		l0.3,0l0-0.1l0.1,0l0-0.1l0.3,0v0.1h0.1l0,0.1h0.1l0,0.2l0.2,0v-0.4l-0.2,0l0-0.2l-0.4,0l0-0.2h0.1l0-0.1h-0.1l0-0.1h-0.1v-0.3h0.1
		l0,0.1h0.2v-0.1l0.1-0.1v-0.1l0.1,0l0-0.1l0.2,0l0,0.7h0.4l0-0.1l0.1,0V31l0.1,0v-0.1l-0.1,0l-0.1-0.1h-0.1l0-0.1l-0.2,0l0-0.2h0.1
		l0-0.1l0.1,0v-0.1c0.1-0.1,0.4,0,0.5-0.1l0-0.2l0.2,0v-0.3l-0.2,0l0-0.9h0.2l0-0.3h0.2l0-0.3h0.1V28l0.1-0.1v-0.2l-0.1,0l-0.1-0.1
		l0.1-0.1v0l0.1,0l0-0.2h-0.1l0-0.1l0.1,0l0-0.1l0.1-0.1l0,0.1l0.1,0l0,0.2h-0.1l0,0.2h0.1l0,0.1l-0.1,0.1V28h0.1l0,0.1h0.1l0,0.3
		h0.1c0.2-0.1,0.1,0.1,0.1,0.2h0.2l0-0.2h0.1v-0.1l0.1-0.1l0-0.2h0.3l0-0.1l0.1-0.1l0.1,0.1h0.1l0,0.1l0.1,0v-0.1
		c0.1-0.1,0.3,0,0.5,0v0.1l0.1,0c0.1,0.1,0,0.2,0,0.3h0.1l0,0.1H43v-0.1l0.1,0l0,0.1l0.3,0c0-0.2,0-0.4,0-0.5h0.1l0,0.1h0.1l0,0.2
		l0.3,0v0.2h0.2l0-0.2h0.4l0-0.2l-0.9,0l0-0.2h0.1l0-0.2h0.1l0,0.2h0.2c0-0.1,0-0.2,0-0.3h0.1v-0.1l0.1,0l0,0.1h0.2l0-0.2l0.2,0
		l0,0.4h-0.1v0.2h0.1l0,0.1l0.6,0l0,0.2h0.2l0-0.7l0.1,0l0-0.1l0.1-0.1l0,0.1l0.3,0v0.2l0.4,0v0.2h0.1c0.2,0,0.1,0.1,0.1,0.2l0.1,0
		c0.2-0.1,0.1,0.2,0.1,0.2H47l0,0.1l0.4,0l0,0.2h-0.4v0.2h0.6l0-0.2l0.3,0V29h0.1l0,0.1l0.1,0l0,0.1h0.1l0,0.1h0.1
		c0.2-0.1,0.1,0.1,0.1,0.2h0.1l0,0.1l-0.1,0.1v0.1l-0.1,0l0,0.1h0.1l0,0.1h0.1c0.1,0.2,0,0.4,0,0.5l0.2,0l0-0.2H49
		c0.2,0,0.1,0.2,0.1,0.3h0.1v0c0.1-0.1,0.3-0.1,0.4,0v0.1h0.1l0.1,0.1h0.3v-0.1l0.1-0.1v0c0.1-0.1,0.4-0.1,0.5-0.1l0-0.2H51l0-0.2
		l-0.2,0l0,0.2c-0.2,0-0.4,0-0.6,0l0-0.2h0.2l0-0.1l0.1,0V30c0.1-0.1,0.3,0,0.5-0.1l0-0.2h0.2v-0.2h-0.1l0-0.1
		c0-0.1,0.3-0.1,0.4-0.1l0-0.2H52v-0.8l-0.2,0v-0.4l-0.4,0l0-0.2h0.1v-0.1l-0.1,0l-0.1-0.1l-0.2,0l0-0.2h0.1l0-0.2h0.1l0,0.1h0.4
		l0-0.7l0.1,0c0.2-0.1,0.1,0.1,0.2,0.2l0.3,0v-0.1l0.1,0v-0.1c0.1-0.1,0.4-0.1,0.6,0v0.1l0.1,0v-0.1l0.1-0.1l0,0.1h0.1l0-0.1l0.1,0
		v-0.1l0.1,0l0-0.2h0.1v-0.1l0.1,0l0,0.1h0.5v-0.1l0.1-0.1l0-0.1c0.1-0.1,0.4,0,0.5-0.1v-0.6l-0.2,0L54.7,25.7z"/>
	<path class="st1" d="M112.8,29.5L112.8,29.5L112.8,29.5L112.8,29.5l-0.2-0.1l0-0.2l0,0h-0.1v-0.1l0.1,0l0,0.1h0v0l0,0l0.1,0l0-0.1
		h0.2l0,0.3L112.8,29.5z M112.7,30.6L112.7,30.6l-0.1-0.1h-0.1v-0.1h0.2L112.7,30.6z M113.2,30L113.2,30l0.1,0.2h-0.1V30z
		 M112.2,30.3l-0.2,0l0-0.1L112.2,30.3L112.2,30.3z M111.5,27.7L111.5,27.7l-0.1-0.2l-0.1,0v-0.2h0.2L111.5,27.7z M111.5,30.6h-0.1
		l0-0.1h-0.1v-0.1h0.2V30.6z M111.2,27.1H111v-0.5l0.2,0V27.1z M111.2,30.5L111.2,30.5l-0.1-0.1H111l0-0.2l0.1,0l0,0.1h0.1V30.5z
		 M110.4,23.8h0.2v0.1h-0.2V23.8z M110.1,28.9l-0.1,0.1l0,0.1l-0.1,0v-0.3h0.2L110.1,28.9z M109.9,18.2L109.9,18.2L109.9,18.2
		l0.1-0.1v0.2L109.9,18.2L109.9,18.2z M110.1,21.6h0.3v0.2l-0.1,0v0.1h-0.1l0-0.1l-0.1,0V21.6z M110.1,19.4h0.2v0.1h-0.2V19.4z
		 M109.7,17.3L109.7,17.3L109.7,17.3L109.7,17.3L109.7,17.3z M109.5,27.4h-0.2v-0.3h0.1l0,0.1h0.1V27.4z M109.1,25.8l-0.2,0l0-0.2
		h0.2V25.8z M108.9,21.9h-0.2c0-0.1,0.1-0.4-0.1-0.3l-0.1,0v-0.2c0.2,0.1,0-0.2,0.2-0.1v0.1l0.2,0V21.9z M108.5,16.2h0.2v0.1
		L108.5,16.2L108.5,16.2z M108.3,17.5L108.3,17.5l-0.1-0.1h0.1V17.5z M107.2,20.3l-0.1,0L107.2,20.3L107.2,20.3L107.2,20.3z
		 M107.2,20.7L107.2,20.7l-0.1-0.2h0.1V20.7z M106.9,20.7h-0.2l0-0.1L106.9,20.7L106.9,20.7z M106.8,21.2L106.8,21.2l-0.1-0.1h-0.1
		V21h0.2L106.8,21.2z M105.5,22.2l-0.2,0V22h0.1L105.5,22.2L105.5,22.2L105.5,22.2z M104.6,20.2l-0.5,0l0-0.1h-0.1V20l0.3,0l0-0.2
		l-0.1,0l0-0.1l0.2,0l0,0.2h0.1l0,0.1h0.1V20.2z M104.6,22.8l-0.2,0v-0.2h0.2L104.6,22.8z M104.2,20.5l-0.1,0.1v0.1l-0.1,0l0-0.1
		h-0.1v-0.1L104.2,20.5L104.2,20.5z M103.4,20.4h-0.2v-0.2l0.2,0L103.4,20.4z M103.2,21.2h-0.2l0-0.2h0.1L103.2,21.2v-0.1V21.2z
		 M103.1,24.6l-0.5,0v-0.2h0.1l0-0.3h0.2v0.1h-0.1l0,0.2c0.1,0,0.2,0,0.3,0V24.6z M101.5,24.1l-0.1,0.1v0.1l-0.3,0v-0.1l0.1-0.1
		L101.5,24.1L101.5,24.1z M100.9,24.7l-0.2,0l0-0.2h0.2V24.7z M99.7,27.1L99.7,27.1L99.7,27.1l-0.2,0.1l0-0.2c0.2,0.1,0-0.2,0.2-0.1
		V27.1z M99.4,24L99.4,24l-0.1-0.1h0.1V24z M99.3,17L99.3,17l-0.1-0.1l-0.1,0l0-0.1l-0.1,0l0-0.1h-0.1l0-0.2l0.2,0l0,0.1h0.1l0,0.1
		h0.1V17z M99.2,24.7H99v-0.1L99.2,24.7L99.2,24.7z M98.9,25.7h-0.2l0-0.1L98.9,25.7L98.9,25.7z M98.9,26.5L98.9,26.5l-0.1-0.1h0.1
		V26.5z M98.6,24.5l0-0.2h-0.1l0-0.1h0.1l0-0.4l0.2,0l0,0.7H98.6z M98.6,23.2L98.6,23.2l0.1,0.1h0.1v0.1h-0.2V23.2z M98.6,16
		L98.6,16l0.1,0.1h0.1l0,0.1l-0.1,0v0.1h-0.1V16z M98.3,24.1l-0.1,0v0.1l-0.1,0c0-0.1,0.1-0.3-0.2-0.2l-0.1,0v0.1h-0.1l0-0.1h-0.1
		v-0.5l0.2,0l0.1,0.1H98l0,0.1h0.1l0,0.1h0.1l0,0.1h0.1V24.1z M98.1,24.9l-0.2,0v-0.3h0.2L98.1,24.9z M97.8,24.6L97.8,24.6l-0.1,0.2
		h0l-0.1-0.1h-0.1v-0.3h0.2L97.8,24.6L97.8,24.6L97.8,24.6z M97.5,22.6v-0.2l0.1,0l0-0.1h0.1l0-0.6l0.1,0l0,0.1h0.1l0,0.2H98v0.3
		l-0.2,0v0.1l-0.1,0.1v0.1H97.5z M97.2,21.2V21l-0.4,0v-0.2l0.4,0c0.1-0.2,0-0.4,0-0.5l-0.2,0l0-0.2h0.2l0-0.2h0.2V20l-0.1,0l0,0.1
		h0.1v0.1l0.3,0l0,0.1h0l0,0.9h0.1l0-0.2H98l0,0.1h0.1v0.2h-0.1l0,0.2l-0.3,0v0.1h-0.1l-0.1-0.1h-0.1v-0.1h0.1l0-0.2L97.2,21.2z
		 M97.4,22l-0.1,0l0,0.1l-0.1,0V22l-0.4,0v-0.5c0.2,0.1,0.1-0.2,0.2-0.1v0.4l0.4,0V22z M97.2,15.1l0.1,0v0.1L97.2,15.1L97.2,15.1z
		 M97.4,14.2h0.2v0.2h-0.1L97.4,14.2L97.4,14.2L97.4,14.2z M97.8,20.7L97.8,20.7L97.8,20.7L97.8,20.7L97.8,20.7z M97.9,17.3H98v0.1
		L97.9,17.3L97.9,17.3z M96.4,18h-0.2v-0.3h0.1l0-0.3l0.1,0V18z M96.2,21.6l-0.2,0v-0.3l0.2,0V21.6z M96,18.9L96,18.9L95.9,19h-0.1
		v-0.3h0.1l0-0.2l0.1,0V18.9z M95.8,23.2l-0.3,0V23h0.1l0-0.2c0.2,0.1,0-0.2,0.2-0.1V23.2z M95.5,21.9h0.2v0.2h-0.2L95.5,21.9z
		 M95.3,19h-0.2l0-0.2l0.1,0l0,0.1h0.1L95.3,19z M94.9,24.3l-0.2,0.1v0.1h-0.1l0-0.1l-0.1,0l0-0.1h-0.1l0-0.2h0.2l0.1,0.1h0.1
		L94.9,24.3L94.9,24.3L94.9,24.3z M94.5,24.9L94.5,24.9L94.5,24.9L94.5,24.9L94.5,24.9z M94.3,18.5l-0.1,0.1v0.1h-0.1l0-0.2
		L94.3,18.5L94.3,18.5z M94.1,25.3L94.1,25.3L94.1,25.3L94.1,25.3L94.1,25.3z M92.9,29.8L92.9,29.8l-0.1,0.1h-0.1l-0.2-0.1h-0.1
		l0-0.1l-0.1,0v-0.3h0.1l0,0.1l0.1,0v-0.1c0.2,0.1,0-0.2,0.3-0.1V29.8z M92.3,21.5L92.3,21.5L92.3,21.5L92.3,21.5L92.3,21.5z
		 M92.1,22.2h-0.2V22H92L92.1,22.2L92.1,22.2L92.1,22.2z M91.9,24.3l-0.3,0l0-0.1h-0.1l0-0.3h0.2l0,0.3L91.9,24.3L91.9,24.3z
		 M91.3,26.3L91.3,26.3l-0.1-0.2l0.1,0V26.3z M91.1,27.5H91l0,0.2l0.1,0l0,0.3H91l0,0.3l-0.1,0c0-0.1,0.1-0.4-0.1-0.4v0.2h-0.3v-0.1
		l0.1-0.1V28l0.2-0.1v-0.1h0.1l0-0.5l0.1,0L91.1,27.5L91.1,27.5L91.1,27.5z M90.8,28.9L90.6,29V29l-0.2,0l0,0.1h-0.1v-0.1l0.1-0.1
		v-0.1l0.1-0.1L90.8,28.9L90.8,28.9z M90.6,29.8h-0.2l0-0.1L90.6,29.8L90.6,29.8z M113,29.7h0.2l0-0.3l-0.1,0l0-0.2l-0.1,0l0-0.2
		h-0.1l-0.1-0.1h-0.1l0-0.1l0.1,0v-0.1l-0.2,0l0,0.2l-0.3,0l0-0.2h0.2v-0.1h-0.1l0-0.1l-0.2,0l0-0.1H112c0-0.1,0-0.3,0-0.5h0.2v-0.2
		H112v0.1l-0.1,0l0-0.1h-0.1c-0.1-0.1,0-0.4-0.1-0.6l-0.3,0l0-0.1l-0.1,0v-0.3h0.1l0-0.1l0.2,0v-0.2h-0.1l0-0.1l0.1,0V26l-0.2,0
		v-0.1h-0.1l0-0.1l0.1-0.1v-0.2l-0.6,0v-0.1l-0.2,0v-0.1h-0.1v-0.3l0.5,0v0.2h0.2l0-0.2l-0.1,0l0-0.1l0.3,0v-0.2h-0.1l-0.1-0.1
		l-0.1,0l0-0.1l0.1,0l0-0.2l-0.2,0v-0.6l-0.1,0l0,0.1l-0.2,0l0-0.1h-0.1l0-0.1h-0.1l-0.1-0.1l-0.1,0l0-0.1c0.2-0.1,0.5,0,0.7,0v-0.2
		h-0.4v0.1l-0.1,0l0-0.1h-0.1v-0.3h0.1v-0.2l-0.2,0v-0.1h-0.1l0-0.1c0.1-0.1,0.2,0,0.3,0l0-0.2h-0.1l0-0.2h0.1
		c0.1,0,0.1,0.1,0.1,0.1h0.1l0,0.1l-0.1,0v0.2h0.4v-1l-0.5,0l0-0.1h-0.1l0-0.1l0.1,0l0-0.3h0.1l0-0.7h0.2l0-0.2h0.2v-0.2l-0.2,0V19
		h-0.1l-0.1-0.1h-0.1l0-0.1h-0.2l0,0.2l-0.1,0c-0.1-0.1,0-0.3,0-0.5h0.1l0-0.2h0.1V18l-0.2,0l0-0.2h0.1l0-0.2l-0.3,0v-0.1l0.1,0
		v-0.1l0.1,0v-0.1h-0.1c-0.1,0-0.2-0.1-0.1-0.1l-0.1,0l0-0.1l-0.2,0v-0.1l-0.3,0l0-0.2h0.1l0.2,0.1h0l0-0.3h0.1v-0.3h-0.1l0,0.2
		c-0.2,0,0-0.3-0.1-0.4h-0.1c0,0.1,0,0.2,0,0.3l-0.1,0v0.1l-0.1,0l0,0.1c-0.1,0.1-0.3,0.1-0.4,0v-0.1l0.1,0l0-0.4h0.1l0-0.1l0.2-0.1
		v0l0.1,0v-0.1h-0.5l0,0.3h-0.1V16l-0.1,0l0,0.1l-0.1,0.1l0,0l-0.1,0.1l0-0.1h-0.1l0,0.2h-0.1l0,0.2h0.1l0,0.1l-0.1,0.1V17h0.1
		l0,0.1l-0.1,0v0.1l-0.1,0.1l0-0.1H108l0-0.1c-0.1,0-0.2,0-0.3,0l0-0.3l-0.1,0v0.1c-0.1,0.1-0.3,0-0.5,0l0,0.4l0.1,0l0,0.1l-0.1,0
		v0.1l-0.1,0l0,0.2h0.1l0,0.1l-0.3,0.1l0,0.2h-0.1l-0.1-0.1h-0.1l0,0.1l-0.1,0l0,0.2h-0.1v-0.1l-0.1,0l0-0.2h-0.1V18
		c-0.1,0.1-0.3,0-0.4,0l0,0.3h-0.1l0,0.1l-0.1,0.1l0,0.2h-0.1l-0.1-0.1h-0.6l0,0.2l-0.2,0c0,0.2,0,0.4,0,0.5l-0.2,0v-0.2H104v0.1
		l-0.1,0.1l0-0.1h-0.1l0,0.2h-0.1l0,0.1l-0.1,0l0-0.1h-0.2l0,0.2h-0.1v0.1l-0.1,0v0.1l-0.2,0.1V20l0.1,0l0.1,0.1h0.1v0.1l-0.1,0v0.1
		l-0.2,0v-0.1l-0.1,0l0-0.1h-0.1l0,0.2h-0.1l0,0.1l-0.1,0l0,0.3h-0.1v0.1l-0.1,0l0-0.1h-0.5v0.1l-0.1,0v0.2h0.1l0,0.1h0.1l0.1,0.1
		l-0.1,0v0.1l-0.1,0.1l0-0.1h-0.2l0,0.3l-0.2,0l0-0.1H101v0.2h0.1l0,0.1h0.1l0.1,0.1l-0.1,0l0,0.4l-0.3,0v-0.1h-0.1
		c-0.1,0-0.1,0-0.1-0.1h-0.1l0-0.1l0.1,0V22l0.2,0v-0.2h-0.1l0-0.2h-0.1l0,0.1c-0.1,0.1-0.3,0-0.5,0l0-0.1h-0.1v0.1l-0.1,0l0,0.2
		H100l0-0.1h-0.1l0-0.1h-0.1l0-0.1h-0.1v-0.1l0.1,0l0-0.2h-0.1l-0.1-0.1h-0.1l0-0.1l0.1,0l0-0.2h0.1v-0.1l0.1,0l0-0.2h-0.1v-0.2
		l0.1,0V20h-0.1l0-0.1l0.1,0l0-0.1l0.2,0v-0.1l-0.1,0l-0.1-0.1l-0.2,0l0-0.2h0.1v-0.8h-0.1l0-0.2h-0.1l0-0.1l0.1,0v-0.1l0.1,0
		c0.1,0.1,0,0.2,0,0.3l0.1,0v-0.1l0.1-0.1v-0.1h-0.1c-0.1-0.2,0-0.4,0-0.6h-0.1l0,0.1l-0.1,0l0-0.3h0.1v-0.1h-0.1l0-0.1h-0.1l0-0.1
		l0.1,0v-0.3l-0.2,0l0-0.3h-0.1l0-0.3l-0.1,0l0-0.1h-0.1l0-0.2H99l0-0.1l-0.1,0l0-0.1h-0.1v-0.2l0.1,0l0,0.1H99l0,0.1h0.1v-0.3H99
		c-0.2,0.1-0.1-0.1-0.1-0.2l-0.2,0v-0.2h-0.1v0.1l-0.1,0l0-0.1h-0.1c-0.1-0.1,0-0.4,0-0.5h-0.1v0.1l-0.1,0l0,0.3l-0.2,0v0.1
		l-0.2,0.1l0,0.1l-0.2,0v-0.1l0.1,0l0-0.1l0.2-0.1v-0.1l0.1,0l0-0.1l0.1-0.1l0-0.1l-0.2,0l0-0.2h0.3v-0.1l-0.3,0l0-0.1h-0.1v-0.2
		h0.1v-0.2h-0.1l-0.1-0.1h-0.1l-0.1-0.1c-0.2,0,0,0.2-0.2,0.1v0.1l-0.1,0.1v0.1l-0.1,0v0.1L97,13.6l0,0.3l-0.1,0l0,0.1l-0.1,0l0,0.2
		h-0.1v0l-0.1,0l0,0.3l-0.1,0v0.1l-0.1,0v0.1h0.1l0,0.2h-0.2v0.1l-0.1,0v0.1l0.1,0l0,0.1l-0.1,0v0L96,15.6l0,0.7l-0.1,0l0,0.1
		l-0.1,0l0,0.4h-0.1l0,0.2h-0.1l0,0.1h0.1l0,0.1l0.1,0l0.1,0.1l-0.1,0v0.1l-0.1,0l0-0.1l-0.3,0v0.2h0.1l0,0.1l-0.1,0.1v0.2h0.1
		l0,0.1l-0.1,0V18l-0.2,0v0.1h0.1v0.2H95v0.1L95,18.5c0,0.2,0,0.4,0,0.5c-0.1,0-0.2,0-0.3,0c0-0.1,0-0.2,0-0.3h0.1v-0.1l0.1-0.1
		v-0.4h-0.1c-0.2,0-0.1-0.2-0.1-0.3h-0.1c0,0.1,0,0.2,0,0.3l-0.2,0l0-0.3l0.1,0l0-0.2h0.1v-0.2l-0.1,0l0-0.1l0.2,0v-0.1l0.1-0.1
		v-0.1l-0.1,0l0-0.1l-0.2,0v-0.1l0.1,0v-0.2h-0.1l0-0.1h-0.1l0-0.1l-0.1,0l0-0.1h-0.1L94,16.1L94,16l0-0.2l-0.2,0v-0.1h-0.1
		l-0.1-0.1h-0.6v0.1l-0.1,0l0,0.2h-0.1V16l-0.2,0l0,0.3h-0.1l0,0.1l-0.1,0.1l0,0.1l0.1,0l0,0.3l-0.1,0V17L92,17.1v0.2h0.1l0,0.1
		l-0.1,0v0.2l0.1,0l0.1,0.1h0.1l0,0.1l-0.1,0.1v0.3h0.1l0,0.2h-0.2v0.1L92,18.5l0,0.2l0.1,0V19h-0.3l0,0.1l0.1,0l0,0.1l0.2,0l0,0.2
		H92v0.1h0.1v0.2H92V20h0.2v-0.1l0.1,0v-0.1l0.1-0.1c0.1,0.2,0.1,0.4,0,0.6h-0.1l0,0.1l-0.1,0v0.1l-0.1,0v0.1L92,20.7v0.1h0.1V21
		h-0.2v0.1l-0.1,0l0,0.1l-0.1,0.1l-0.1,1h-0.2l0,0.5l-0.2,0l0,0.3h0.1c0.3,0,0.1,0.3,0.1,0.5l0.2,0v0.2h-0.6V24l0.2,0l0,0.2h-0.2
		l0,0.2l0.3,0l0,0.2h-0.3v0.2l0.1,0l0,0.1l-0.1,0V25c0,0.1-0.2,0-0.2,0.1l0,0.3c0.1,0,0.3,0,0.3,0l0,0.2H91v0l-0.1,0.1v0.1H91l0,0.1
		L90.9,26v0.2H91l0,0.1l0.2,0l0,0.3l-0.2,0l0,0.1l-0.1,0v0.1l0.1,0v0.3h-0.1v0.1l-0.1,0l0,0.1l-0.1,0.1v0.1l-0.1,0l0,0.3h-0.1l0,1
		h-0.1l0,0.3h-0.1v0.1l-0.2,0l0,0.2H90l0.1,0.3l0.1,0l0,0.3h0.1l0,0.1l0.1,0l0.1,0.2l0.1,0l0.1,0.1l0.1,0l0,0.1h0.1l0.1,0.1l-0.1,0
		V31h0.1l0.2,0.1H91l0,0.1h0.1l0.2,0.1l0.3,0v0.1h0.1l0,0.1l0.2,0v-0.1c0-0.1,0.2,0,0.3,0l0-0.2h-0.1l0-0.1l0.1-0.1v-0.1l0.2,0
		c0-0.1,0-0.2,0-0.3h0.5l0-0.4h0.2l0-0.7h0.1v0c0-0.1,0.1-0.1,0.2-0.1v-0.1l0.1,0l0-0.2h-0.1l0-0.1L93,29v-0.2h0.2v-0.1l0.1,0l0-0.1
		l0.1-0.1c0.1,0,0.2,0,0.2,0.1l0,0l0.1-0.9h0.4l0-0.2l0.2,0l0-0.5l-0.1,0v-0.3h0.4v-0.6h-0.2v0.1l-0.1,0.1l0-0.1l-0.1,0l0-0.1
		c0.1-0.1,0.3,0,0.5,0V26l0.1,0v-0.1l0.1-0.1v-0.1l0.1,0l0-0.1c0.2-0.1,0-0.4,0.1-0.6h0.2V25l0.1-0.1v-0.1l-0.2,0l0-0.1h-0.1l0-0.1
		c0.1-0.1,0.3,0,0.4,0v-0.1l0.1,0l0,0l0.1-0.1l0-0.8l0.2,0l0-0.2l0.2,0l0-1l0.1,0l0-0.1l0.1,0l0-0.1l0.7,0v0.5l0.3,0l0,0.2h-0.1V23
		l-0.1,0l0-0.1H97v0.2l0.2,0l0,0.2l-0.2,0l0,0.2l0.2,0l0,0.2h-0.1V24h0.1l0,0.1h0.1V24l0.1,0l0-0.2l0.1,0l0,0.1h0.1l0,0.3h-0.2v0.1
		l-0.1,0.1l0,0.4h0.1c0,0.2,0,0.3,0,0.5l-0.1,0v0.2h0.1l0.1,0.1l0.1,0l0,0.2h-0.1V26l0.1,0l0,0.2h-0.2l0,0.1l-0.1,0.1v0.1l0.1,0
		l0,0.1h0.1v-0.1l0.1-0.1c0.2-0.1,0.1,0.2,0.1,0.2l0.4,0c0,0.2,0,0.4,0,0.6h-0.1v0.2l0.1,0l0,0.1h0.1l0,0.1h0.1l0.1,0.1h0.1l0,0.1
		h0.1c0.2-0.1,0.1,0.1,0.1,0.2l0.4,0v0.1l0.1,0l0.1,0.1l0.4,0v0l0.1-0.1v0l0.1-0.1v0l0.1,0l0-0.2h0.1v-0.1l0.1,0v-0.1l0.1-0.1l0-0.3
		h0.1l0,0.1h0.2v0l0.1-0.1v-0.1l-0.1,0l0-0.2l0.1,0v-0.2l-0.1,0l-0.1-0.1l0.1,0v-0.1l0.1-0.1l0-0.3h0.9l0-0.2l-0.2,0v-0.1h-0.1
		l0-0.1l0.1-0.1v-0.2l-0.2,0l0-0.2l0.4,0v0.1h0.1l0-0.2h0.1l0-0.1l0.1-0.1c0,0.1,0,0.2,0,0.3h0.2v-0.4l0.1,0c0.3,0,0.1,0.3,0.2,0.4
		h0.1l0-0.1l0.1,0l0-0.2h0.1l0,0.1l0.2,0l0-0.2h0.2l0-1.1h0.1c0.2,0,0.1,0.2,0.1,0.2l0.1,0l0,0.1l0.1,0l0.1,0.2h0.1v-0.1l0.1-0.1
		l0,0.1h0.1l0-0.2h0.1l0-0.2l-0.2,0v-0.1h-0.1l0-0.1l0.1-0.1l0-0.2l-0.2,0l0-0.2h0.1l0.1,0.1h0.1l0,0.1h0.6l0-0.2l-0.6,0l0-0.2
		l0.9,0l0,0.1h0.1l0-0.2l0.1,0v-0.1l0.1-0.1l0,0.1l0.2,0v-0.2l-0.2,0l0-0.2h0.1v0l0.1,0v-0.1l0.2-0.1l0-0.4l-0.1,0l0-0.3h0.2v-0.1
		l0.1-0.1l0-0.1l0.1,0l0.1,0.1l0.1,0l0-0.1l0.1,0v-0.1l0.1-0.1c0.1,0.1,0,0.3,0,0.5h0.1l0,0.1h0.1c0,0.1,0,0.2,0,0.3l0.4,0l0-0.2
		h0.2v-0.1l-0.1,0l0-0.2h0.2v-0.1l0.1-0.1v-0.1l0,0V21h0.2l0-0.2l-0.2,0l0-0.2l0.3,0v0.1h0.1v-0.1l0.1-0.1l0.1,0.1l0.3,0l0,0.3h-0.2
		l0,0.1l-0.1,0l0,0l-0.1,0.1v0.4l0.2,0l0,0.2H108l0,0.1h0.1l0,0.1h0.1l0-0.2h0.1v0l0.1-0.1l0.1,0.1h0.1l0,0.1l-0.1,0v0.2l0.2,0v0.3
		l-0.1,0v0.3h0.1v0.1l-0.1,0v0.2c0.2,0,0.1,0.3,0.1,0.4h0.1l0,0.1c0,0.1-0.1,0-0.2,0.1v0l-0.1,0v0.1l-0.1,0.1v0l-0.1,0l0,0.3l0.1,0
		l0.2,0.1h0.1l0,0.1l-0.1,0v1l0.2,0v1.2h0.1c0.2-0.1,0.1,0.1,0.1,0.2l0.2,0l0,0.3h-0.4l0,0.2l0.1,0l0,0.1l0.3,0V28h0.1l0.1,0.1
		l-0.1,0.1v0.1l-0.1,0l0,0.1h0.1l0,0.1h0.1l0.2,0.1h0.1l0,0.1h0.1v0.2h-0.1v0.4l0.1,0l0,0.1h0.1v-0.1l0.1,0l0,0.1h0.1v0.3h-0.2V30
		l0.8,0v0.1h0.1l0,0.1l0.3,0l0,0.4h0.1c0.2,0,0.1,0.2,0.1,0.3c0.1,0,0.2,0,0.3,0v0.1l0.1,0l0,0.2h0.1l0-0.2h0.1V31
		c0.2-0.1,0.5,0,0.8,0v0.1h0.1l0-0.2h0.1v-0.1l0.3,0l0,0.1l0.2,0l0-0.4h0.2v-0.6h-0.4L113,29.7z"/>
	<polygon class="st1" points="99.7,17.4 99.7,17.3 99.7,17.4 	"/>
	<polygon class="st1" points="99.7,17.4 99.8,17.4 99.8,17.4 99.7,17.4 	"/>
	<path class="st1" d="M131.4,26.2l-0.2,0v-0.1l-0.4,0v-0.2l0.1,0l0-0.2l0.1,0v0.1l0.2,0l0,0.1l0.1,0l0,0.1h0.1V26.2z M130.8,25.4
		h0.2v0.1L130.8,25.4L130.8,25.4z M130.5,25.9L130.5,25.9l-0.1-0.1h0.1L130.5,25.9z M130.2,26.1h-0.3v-0.2h0.2L130.2,26.1
		L130.2,26.1L130.2,26.1z M129.4,25.7l-0.3,0v-0.1L129.4,25.7L129.4,25.7z M129,26.5h-0.2l0-0.1L129,26.5L129,26.5z M129,27.1h-0.2
		l0-0.1L129,27.1L129,27.1z M128.8,27.3l-0.2,0v0.1l-0.1,0.1v0.1h-0.1l0-0.1l-0.1,0l0-0.1h-0.1v-0.1h0.6L128.8,27.3z M128.8,28
		l0.2,0v0.2h-0.2L128.8,28z M129.1,29.3v0.3l-0.2,0v-0.2C129.1,29.4,128.9,29.2,129.1,29.3 M129.1,28.4l0.2,0v0.1l-0.1,0.1l0,0.1
		l-0.1,0V28.4z M129.1,28h0.1v0.1L129.1,28L129.1,28z M129.3,29.2h0.2v0.2h-0.2L129.3,29.2z M128.1,24.8l-0.3,0l0,0.1l-0.2,0.1V25
		h-0.1l0-0.1l-0.1,0.1V25h-0.1l-0.1-0.1h-0.1v-0.5h0.5l0,0.1h0.1v0.1l0.3,0V24.8z M126.1,29l-0.4,0l0-0.1h-0.1v-0.1l0.1,0l0-0.1
		h-0.1l-0.1-0.2h-0.1c0-0.1,0.1-0.3-0.2-0.2h0v-0.3h0.1l0,0.1h0.1c0,0.1-0.1,0.3,0.2,0.2h0.1l0.1,0.1h0.1l0,0.1h0.1v0.2l0.2,0V29z
		 M125.9,28.2L125.9,28.2L125.9,28.2L125.9,28.2L125.9,28.2z M124.8,19.4h-0.3l0-0.1h-0.1v-0.1c0.1,0,0.1-0.1,0.1-0.1h0.2l0,0.1h0.1
		L124.8,19.4z M124.5,21.5l-0.1,0v0h-0.3v-0.3h0.3L124.5,21.5L124.5,21.5L124.5,21.5z M124.3,25H124l0-0.1h-0.1l-0.1-0.1h-0.1l0-0.1
		h-0.1v-0.1c-0.1,0-0.3,0-0.4,0l0,0.1l0.1,0v0.1l0.2,0v0.1l-0.1,0.1v0l-0.2,0.1l0,0.1h0.1l0.1,0.1l0.1,0v0.2h-0.1v-0.1l-0.3,0l0-0.1
		h-0.1l0-0.2h-0.1l0-0.1h-0.1l0-0.1l0.1-0.1v0h0.1v0.1l0.2,0l0-0.2l-0.2,0l0-0.2l-0.3,0l0,0.1l-0.1,0v0.1h-0.2l0,0.2l0.2,0V25h-0.2
		l-0.1-0.1h-0.1l0,0.2l-0.1,0v0.1H122c0-0.1,0.1-0.4-0.2-0.3l-0.1,0.1V25h-0.3v-0.2c-0.1,0-0.2,0-0.3,0l0-0.1l-0.1,0v0.2l-0.1,0.1
		V25h-0.2l0,0.2l-0.1,0.1v0.1h-0.2v-0.1h0.1V25l-0.2,0l0-0.1h-0.1l0-0.2l-0.1,0.1v0.1c-0.1,0-0.4,0-0.4,0l0,0.1l-0.1,0.1V25h-0.1
		c0,0.1,0,0.2,0,0.3h-0.1l-0.1-0.1l-0.1,0V25l0.1-0.1l0-0.1l0.1,0l0-0.2l0.1,0l0-0.1h-0.1v-0.3l0.1-0.1v-0.1h0.1l0,0.1l0.1-0.1v-0.1
		l0.1,0V24l0.1,0v-0.1l0.1-0.1v-0.1l0.1,0v-0.1h0.1v-0.2h-0.1v-0.3c0.1,0,0.3,0,0.3-0.1l0-0.1h-0.1l0-0.2l0.1-0.1l0-0.1h0.1
		c0-0.2,0-0.4,0-0.6l-0.1,0v-0.2h0.5v-0.2h-0.1l0-0.1l0.2,0v-0.1h0.1l0-0.3l-0.2,0c0-0.1,0.1-0.4-0.1-0.4h-0.1l0-0.6h0.1l0.1,0.1
		h0.1l0,0.1h0.1l0,0.1l0.1,0l0-0.1l0.1-0.1l0-0.1h-0.1l0-0.2h0.2l0-0.2h0.6v0.4l-0.1,0l0,0.1h0.1v0.1c0.2,0,0.4,0,0.6,0v-0.1h0.1
		l0,0.1l0.1,0v0.2h-0.2l0-0.1l-0.1,0.1l0,0.1h-0.1c0,0.2,0,0.4,0,0.5l0.2,0l0,0.1h0.1l0,0.1l0.1,0v0.1l-0.1,0v0.1h-0.1l0,0.2l0.2,0
		l0-0.1l0.2,0v0.5l-0.1,0l0.1,0.1h0.1v0.1l-0.1,0l0,0.2l0.1,0l0.1,0.1l0.1,0v0.1l-0.2,0l0,0.1l-0.2,0.1l0.1,0.1h0.1v0.2l-0.1,0
		l0.1,0.1h0.1l0.1,0.1l0.1,0v0.3h-0.1l0,0.2h0.1l0.1,0.1l0.1-0.1v-0.1h0.4c0.1,0.1-0.1,0.3,0.1,0.2h0.1v0.4l0.2,0L124.3,25z
		 M123.8,26.8L123.8,26.8L123.8,26.8L123.8,26.8L123.8,26.8z M123.4,25.6h-0.1l0-0.1L123.4,25.6L123.4,25.6z M120.5,21.3L120.5,21.3
		l0.1,0.1h0.1v0.2h-0.2L120.5,21.3z M120.8,19.8L120.8,19.8L120.8,19.8L120.8,19.8L120.8,19.8z M121.3,17.7h0.2
		c0,0.1-0.1,0.3,0.1,0.2h0.1l0-0.2h0.2l0,0.1h0.1l0,0.1h0.1l0,0.5h-0.6v-0.2l0.1,0l-0.2-0.1h-0.1l0-0.1h-0.1V17.7z M122.4,16.2
		L122.4,16.2L122.4,16.2L122.4,16.2L122.4,16.2z M122.7,16.1l0.2,0v0.2l-0.2,0V16.1z M122.9,15.7l0.2,0v0.1l-0.1,0V16h-0.1V15.7z
		 M123.1,14.7L123.1,14.7l0.1,0.2h-0.1V14.7z M123.2,15c0.2,0.1,0-0.2,0.2-0.1v0.6l-0.1,0l0-0.1h-0.1L123.2,15z M124.4,18.8
		c0.2,0.1,0-0.2,0.2-0.1v0.2h-0.2V18.8z M119,27.5L119,27.5l-0.1,0.1h-0.1l0-0.3l0.1,0L119,27.5L119,27.5L119,27.5z M118.6,21
		L118.6,21l-0.1-0.2h0.1L118.6,21z M118.4,28l-0.1,0.1l0,0l-0.1,0.1v0l-0.2,0v0.1l-0.2,0.1l0,0.1h-0.3v-0.1h0.1v-0.2l-0.1,0v-0.2
		h0.1l0.1,0.1h0.1l0.1,0.1l0.1-0.1l0-0.1h0.2l0-0.2h0.3V28z M118.1,28.7h-0.2v-0.1h0.2V28.7z M117.9,24.4v0.2h-0.1v-0.2H117.9z
		 M117.4,22.9L117.4,22.9L117.4,22.9l-0.1,0h-0.1l0-0.1h0.2l0-0.4h0.3l0,0.1h0.1v0.1h-0.1l0,0.3L117.4,22.9z M117.3,29.1l-0.1,0v0.1
		h-0.1l0-0.2L117.3,29.1L117.3,29.1z M117,28.8h0.2l0,0.1L117,28.8L117,28.8z M118.1,27.2L118.1,27.2l0.1,0.1h-0.1V27.2z
		 M116.9,30.8L116.9,30.8l-0.2,0.1v-0.2h0.1L116.9,30.8L116.9,30.8z M116.9,31.5l-0.3,0l0,0.1h-0.1l0-0.2l0.1-0.1h0.3V31.5z
		 M116.2,25.4H116l0-0.1c0.2,0.1,0-0.2,0.2-0.1V25.4z M115.5,29.3h-0.2l0,0.4l-0.1,0.1v0.1h-0.1c0-0.1,0-0.2,0-0.3H115v-0.2l0.1-0.1
		l0-0.1H115l-0.1-0.1l-0.1,0l-0.1-0.1h-0.1l0-0.2l0.1,0v-0.1l0.1-0.1h0.2l0,0.3l-0.1,0.1V29l0.5,0V29.3z M115.5,30.1l-0.2,0v-0.2
		h0.2V30.1z M115,28.3l0.2,0v0.1L115,28.3L115,28.3z M115.3,28.4h0.1l0,0.2h-0.1V28.4z M132.2,25.3h-0.4v0.1l-0.1,0v-0.4h0.2V25
		h-0.1l-0.1-0.1h-0.1l0,0.2h-0.2l0,0.3h-0.1l0-0.1h-0.1l-0.1-0.2l-0.4,0l0-0.2l0.1,0v-0.1h-0.1c-0.1,0-0.1,0-0.1-0.1l-0.1,0
		l-0.1-0.1c0.2-0.1,0.4,0,0.7,0v-0.6H131v0l-0.1,0l0-0.1h-0.1l0-0.2h-0.1l0,0.1l-0.2,0l0-0.1h-0.2v0.2h0.1l0,0.1h0.1l0,0.1l-0.1,0v0
		l-0.1,0.1l-0.1-0.1l-0.1,0c-0.2,0-0.1-0.3-0.2-0.4h0v0.1l-0.4,0v-0.1h-0.1l0,0.2l-0.1,0l0,0l-0.1,0l0,0.1l-0.2,0l0,0.2l-0.3,0
		l0-0.3l-0.6,0v0.2l0.1,0l0,0.1c-0.1,0.1-0.3,0-0.4,0l0-0.3h0.1v-0.1h-0.2v0l-0.1,0v0.1c-0.1,0.1-0.4,0-0.6,0l0-0.3h-0.1l-0.1-0.1
		l-0.1,0v0.1l-0.1,0v0.1l-0.1,0.1v0l-0.1,0v0.1l0.1,0l0.1,0.1h0.1l0,0.1c-0.1,0.1-0.3,0-0.5,0l0-0.1h-0.1l0-0.2h0.1v-0.2h-0.1
		c-0.2,0.1-0.1-0.1-0.1-0.2l-1,0v-0.1h-0.1l0-0.1l0.1,0v-0.2l-0.2,0l0-0.2l0.2,0l0-0.3l0.2,0l0-0.2h0.1l0,0.1h0.2l0-0.3h-0.1
		c-0.1-0.1-0.1-0.3-0.1-0.4h-0.1l0-0.1l0.2-0.1v0l0.1,0l0-0.1h-0.1l0-0.1h-0.1v0.1l-0.1,0.1l0-0.1l-0.1,0v0.1l-0.1,0.1v0.2l0.1,0
		l0,0.1c0,0.1-0.2,0-0.2,0.1v-0.9h0.1v-0.2l0.2,0v0l0.1-0.1l0-0.1h-0.1l-0.2-0.1l-0.1,0l0-0.1c-0.1,0-0.3,0-0.3,0l0-0.2h0.2v-1h-0.1
		c-0.3,0-0.1-0.3-0.1-0.4l-0.2,0v-0.2h-0.1c-0.2,0.1-0.1-0.1-0.1-0.2h-0.1l0-0.2h-0.1v-0.2l0.1,0v-0.2h-0.1l0-0.1h-0.1l-0.1-0.1
		l0.1,0V17l-0.2,0l0-0.6h-0.2l0,0.5l-0.2,0c0-0.2,0-0.4,0-0.5h0.1v-0.1l0.1,0l0-0.3h0.2v-0.2l-0.4,0l0-0.2h0.4v-0.2l-0.4,0v-0.2
		l-0.2,0l0-0.3h0.1v-0.2l-0.2,0v-0.1h-0.1l0-0.1h-0.1c0-0.1,0-0.2,0-0.3H123l0-0.1h-0.1l0,0.1l-0.1,0l0-0.1h-0.3v0.1l-0.1,0l0-0.1
		h-0.1l0-0.1l0.1,0v-0.2l-0.2,0v-0.1H122l0-0.1h-0.3l-0.1,0.1v0.1l-0.1,0.1l0,0.1c-0.1,0.1-0.3,0-0.5,0v0.1l-0.1,0.1v0.1l-0.1,0
		l0,0.2l-0.1,0l0,0.4h-0.1l0,0.1l-0.1,0.1v0.1l0.2,0v-0.1l0.1,0v0.2l-0.2,0v0.1l-0.1,0v0.1h0.1l0,0.1h0.1l0.1,0.1
		c-0.1,0.1-0.3,0-0.4,0v0.2h0.1l0,0.1l-0.1,0l0,0.1l-0.2,0.1v0.2c0.1,0,0.3,0,0.3,0v0.1l-0.1,0v0.1l-0.2,0v0.1h0.1v0.2H120l0,0.1
		l-0.1,0.1l0,0.1l-0.1,0l0,0.5h-0.2c0,0.2,0,0.4,0,0.6h-0.2v0.2l0.4,0l0,0.2h-0.4v0.3l0.1,0l0,0.1h0.1l0.1,0.1l-0.1,0v0.1l-0.1,0.1
		v0.1h0.2l0-0.1l0.2,0l0,0.2l-0.1,0v0.1l-0.1,0.1l0-0.1l-0.6,0l0-0.1h-0.2l0,0.2h0.1l0,0.3h-0.1l0-0.1l-0.2,0v0.4h0.2l0-0.1l0.1,0
		l0,0.1h0.1l0,0.1l-0.2,0.1v0.1l-0.1,0l0,0c-0.1,0.1-0.4,0-0.5,0v0.2l0.1,0l0.1,0.1l-0.1,0l0,0.1l-0.1,0v0.1h0.1l0,0.1l0.1,0
		l0.1,0.1l-0.3,0v0.7h0.1l0,0.1l-0.1,0v0.1l-0.3,0v-0.2l-0.1,0l0-0.1l-0.1,0v0.1l-0.2,0.1l0,0.2l-0.2,0v-0.1l-0.1,0v0.1l-0.1,0v0
		c0,0.1-0.1,0-0.2,0.1v0.2l0.4,0l0,0.5h-0.1c-0.2,0.1-0.1-0.1-0.1-0.2h-0.3l0,0.3h-0.1v0.1l-0.2,0.1v0.1h0.1l0.1,0.1h0.1v-0.1
		l0.1-0.1l0.1,0.1l0.1,0l0,0.1l-0.1,0V23l-0.1,0.1l0-0.1h-0.2l0,0.2H116v0.2h0.1c0.3,0,0.1,0.3,0.1,0.4h0.2l0-0.4h0.1
		c0.2,0,0.1,0.3,0.1,0.4h0.2v-0.1l0.1,0l0,0.3l-0.4,0V24l-0.3,0l0-0.1h-0.1l0,0.1l-0.1,0v0.1l-0.1,0v0l-0.1,0.1v0.4h0.1l0,0.1l0.5,0
		l0,0.2l-0.5,0l0-0.1h-0.1V25l-0.1,0.1v0l-0.1,0.1l0,0l-0.1,0v0.1h0.1l0,0.2h-0.3l0,0.1h0l0,0.1h0.2l0-0.2l0.4,0l0,0.2H116l0,0.1
		l-0.1,0l0,0.1c-0.1,0.1-0.3,0-0.4,0l0,0.1h0.1l0,0.1h0.1l0.1,0.1l0.1,0l0,0.1l0.1,0v0.2h-0.1v0.1c0,0.1-0.2,0-0.3,0.1v0.4l0.2,0
		l0,0.2h-0.1l0,0.2h-0.1l0,0.2l-0.4,0v-0.3H115l0,0.1l-0.1,0v0.1h0.1l0,0.1l-0.1,0.1V28l-0.2,0v0.1h0.1v0.2l-0.2,0l0,0.7h-0.1l0,0.1
		l0.1,0l0,0.1h0.1l0.2,0.1l-0.1,0.1l0,0.1l-0.1,0v0.1h0.1l0,0.1l0.1,0l0,0.3h0.1l0-0.1l0.1,0c0.2-0.1,0.1,0.1,0.1,0.2h0.1l0,0.2h0.1
		l0,0.1l0.3,0v0.2l0.3,0v0.1h0.1c0.1,0.2,0,0.4,0.1,0.7l0.1,0l0.2,0.1h0l0,0.1h0.1l0,0.2l0.5,0l0-0.2l0.2,0V31l-0.1,0l-0.1-0.1
		l0.1-0.1v-0.1l0.1,0l0-0.3l0.2,0l0-0.5h0.4v-0.3h-0.1l0-0.1h-0.3l0,0.4l-0.4,0v-0.1h-0.1c0-0.1,0-0.3,0-0.5h0.3l0-0.2h0.2l0-0.2
		h0.2l0-0.2h0.1l0,0.1h0.1l0,0.1h0.3l0-0.3h0.1v-0.1l0.2-0.1v-0.1l-0.2,0v-0.1h-0.1l0-0.1c0.1-0.1,0.3,0,0.4,0l0-0.2l0.1,0l0.1,0.1
		h0.1v0L119,28c0.1,0,0.2,0.1,0.1,0.1l0.1,0l0.1,0.1h0.5l0-0.2h-0.1l0-0.1h-0.1l0,0.1l-0.2,0l0-0.2l0.8,0l0,0.2h-0.1v0.1h0.1l0,0.1
		c0.1,0,0.2,0,0.3,0v0.2h0.2c0-0.1,0-0.2,0-0.3l0.1,0l0,0.1h0.3V28l-0.2,0v-0.1h-0.1l0-0.1c0-0.1,0.3,0,0.4-0.1l0-0.2h0.1
		c0.2-0.1,0.1,0.1,0.1,0.2l0.6,0l0,0.2h-0.1l0,0.1h0.1l0,0.1h1.3l0-0.4l0.1,0c0.2,0,0.1,0.3,0.1,0.4h0.2l0-0.2h0.4v-0.2l-0.4,0v-0.2
		l-0.4,0l0-0.2l-0.6,0v-0.2h-0.2l0,0.3h0.1l0.1,0.1c0,0.1-0.1,0-0.2,0.1v0.2l0.2,0l0,0.2l-0.4,0v-0.4h-0.1l0-0.1h-0.1l0-0.1l-0.2,0
		v-0.1l0.1-0.1l0-0.2h0.1l0.1,0.1l0.2,0V27l0.1,0l0-0.1l0.1-0.1l0-0.2h0.1c0.1,0,0.1,0.1,0.1,0.1h0.1l0,0.1h0.1l0,0.1h0.1v0l0.1-0.1
		l0-0.1c0.1-0.1,0.3,0,0.4,0l0,0.2h-0.1v0.3h0.3v-0.1l0.1-0.1l0.2,0.1l-0.1,0.1v0.1l-0.1,0.1v0.1h0.1l0,0.1h0.1v-0.1
		c0.1-0.1,0.3,0,0.5,0v0.1h0.1l0,0.1h0.1l0-0.1l0.2,0v0.5l0.2,0l0,0.5h0.1l0.1,0.1h0.1c0,0.1,0,0.3,0,0.5h-0.1v0.2h0.1
		c0.2-0.1,0.1,0.1,0.1,0.2h0.1l0,0.1l0.1,0l0-0.2h0.1v-0.1l0.1,0l0,0.1h0.2l0-0.1l0.1,0l0,0.1h0.1l0,0.1l-0.1,0v0.2l0.1,0
		c0.2-0.1,0.1,0.2,0.2,0.2c0.1,0,0.2,0,0.3,0v0.1l-0.1,0v0.1l-0.1,0l-0.1-0.1h-0.1l0,0.2l-0.1,0v0.2h0.1l0.1,0.1h0.1l0,0.2l0.1,0V31
		l0.1,0c0.3,0,0.1,0.3,0.1,0.4l0.4,0l0-0.2h0.2V31l-0.2,0l0-0.2l0.8,0v0.6h0.5v-0.1l-0.2,0l0-0.3h0.1v0.2h0.1l0-0.3h0.1v-0.1l0.2,0
		v-0.1h-0.1l0-0.1h-0.1l0-0.1l0.3,0l0-0.5l0.2,0l0-0.4h0.1l0,0.1h0.1l0,0.2h0.1l0-0.1l0.1-0.1l0-0.2l-0.1,0l0-0.1
		c0-0.1,0.2,0,0.3-0.1v-0.2l-0.4,0V29h-0.2l0,0.2l-0.2,0l0-0.2l0.1,0l0-0.1l0.1-0.1v-0.1l0.1,0l0.1,0.1l0.1,0l0-0.2h0.1v-0.1
		l0.1-0.1v0.2h0.1l0.1,0.1h0.1l0-0.1l0.1,0v-0.1h-0.1v-0.2h0.2v-0.3l-0.2,0v0.1l-0.1,0l0-0.1l-0.1,0l0-0.2h-0.1l0,0.2l-0.1,0v0.1
		l-0.1,0l-0.1-0.1l-0.1,0l0-0.1l0.1-0.1v-0.2h-0.1l-0.1-0.1l-0.5,0l0-0.2h0.1l0.1,0.1h0.3v-0.1h-0.1l0-0.1l-0.1,0l0-0.2h0.1V27
		l-0.1,0l0-0.2h0.1c0.3-0.1,0.1,0.2,0.1,0.3h0.1V27l0.2,0v-0.1l0.1-0.1l0-0.1l0.1,0v-0.1l0.1-0.1l0-0.1l0.3,0v0.2h0.4v-0.2h-0.1
		l-0.1-0.1l0.1,0v-0.1l0.1-0.1l0.1,0.1h0.1l0-0.1l0.1-0.1l0.2,0.1h0.1v-0.1l0.1-0.1l0,0.1h0.1v-0.1l0.1-0.1l0-0.2l0.1,0l0.1,0.1h0.1
		l0-0.2h0.2v-0.1l0.1,0v-0.1c-0.1,0-0.2,0-0.3,0l0-0.2h0.3v-0.1l-0.1,0L132.2,25.3z"/>
	<polygon class="st1" points="141.9,13.4 141.8,13.4 141.8,13.5 141.9,13.5 	"/>
	<path class="st1" d="M71.1,27L71,27.1v0.1h-0.3v-0.2l0.1-0.1h0.3L71.1,27z M70.9,26.2L70.9,26.2L70.9,26.2L70.9,26.2L70.9,26.2z
		 M70.5,29.3l-0.1,0.1l0,0.1h-0.1v-0.3l0.2,0V29.3z M69.8,29.7l-0.1,0v0.1h-0.1l0-0.1h-0.1l0-0.1h0.3V29.7z M68,31.3h-0.5l0-0.3
		l0.1,0l0-0.2h0.3v0.1h-0.2v0.2l0.3,0V31.3z M67.2,31.4l-0.2,0v0.1l-0.7,0l0,0.1H66v-0.3c0.1,0,0.4,0.1,0.4-0.1v-0.1l0.2,0v-0.1h0.1
		v-0.2h-0.1v-0.1h0.2c0,0.1-0.1,0.4,0.1,0.4h0.1L67.2,31.4L67.2,31.4L67.2,31.4z M64.6,28.9l-0.2,0v-0.3c0.2,0.1,0-0.2,0.2-0.1V28.9
		z M64.2,29.1l-0.1,0v0.1h-0.7v-0.3h0.2V29c0.2,0,0.4,0.1,0.5,0l0,0l0.1,0l0,0.1h0.1L64.2,29.1z M64.1,31.9L64.1,31.9L64,32h-0.1
		l0-0.1l-0.3,0l0-0.1l0.1-0.1h0.2l0.1,0.1h0.1L64.1,31.9z M62.4,28.9L62.4,28.9L62.4,28.9L62.4,28.9L62.4,28.9z M62.1,31.4
		L62.1,31.4L62.1,31.4L62.1,31.4L62.1,31.4z M61.7,31.5L61.7,31.5l-0.1-0.1h-0.1l0-0.1c0.2,0.1,0-0.2,0.2-0.1V31.5z M61.5,30.7
		L61.5,30.7l-0.2,0v-0.2h0.3L61.5,30.7L61.5,30.7z M60.8,30.6l-0.1,0.1v0h-0.5l0-0.3c0.2,0.1,0-0.2,0.2-0.1l0.1,0.1l0.1,0l0-0.1h0.2
		L60.8,30.6z M58.4,29.3H58V29h0.4V29.3z M66.3,23l-0.2,0V23L66.3,23L66.3,23z M66.1,25.8h-0.2l-0.1-0.1h-0.1v-0.1h0.4L66.1,25.8z
		 M65.6,22.7L65.6,22.7l-0.1-0.1h-0.1v-0.1l0.2,0L65.6,22.7z M65.3,25.8l-0.1,0v0.1l-0.1,0l0-0.2h-0.1l0-0.3l-0.6,0l0-0.3h0.2v0.1
		l0.7,0V25.8z M64.2,25.3l-0.1,0v0.1h-0.2l0-0.2c0.2,0.1,0-0.2,0.2-0.1L64.2,25.3L64.2,25.3L64.2,25.3z M62.9,21.2
		c-0.1,0-0.2-0.1-0.2,0.1v0.1h-0.2v-0.2c0.3,0.1,0.1-0.2,0.4-0.1L62.9,21.2z M61.3,21.1l-0.2,0l0,0.1H61V21c0.2,0.1,0-0.2,0.3-0.1
		L61.3,21.1z M59.8,23.8l-0.2,0v-0.1L59.8,23.8L59.8,23.8z M59.3,20.2l-0.1,0v0.1l-0.1,0l-0.1-0.1H59v-0.1h0.3L59.3,20.2z M58.9,20
		L58.9,20L58.9,20L58.9,20L58.9,20z M56.4,20.1H56v-0.2l0.4,0L56.4,20.1z M56.3,22.1h-0.2v-0.2h0.2V22.1z M60,18.7L60,18.7L60,18.7
		L60,18.7L60,18.7z M61.5,18.1h0.2v0.2h-0.2V18.1z M62.6,17.9l0.6,0l0,0.2h-0.5L62.6,17.9L62.6,17.9L62.6,17.9z M63.1,15.1
		L63.1,15.1L63.1,15.1L63.1,15.1L63.1,15.1z M65,17.3L65,17.3L65,17.3L65,17.3L65,17.3z M65,14.9h0.3V15L65,14.9L65,14.9z M65,14.5
		h0.5l0,0.2H65V14.5z M66.1,17L66.1,17l0.1,0.1h-0.1V17z M71.3,26.7c-0.2,0-0.1-0.3-0.1-0.4h-0.1l0-0.2h-0.1c-0.1-0.2,0-0.5,0-0.8
		h-0.1c-0.2,0-0.1-0.1-0.1-0.2h-0.1l0,0.1l-0.2,0l0-0.1l-0.2,0l0,0.2h-0.1l0,0.1l-0.1,0l0-0.1h-0.2l0,0l-0.1,0l0-0.1h-0.1l0-0.2
		h-0.1l0-0.1l-0.2,0l0-0.2h-0.1l0-0.1l0.1,0l0-0.1l0.6,0v-0.1h-0.1l-0.1-0.1h-0.1l0-0.1h-0.1l0-0.1h-0.1v0l-0.1,0v0.1
		c-0.1,0.1-0.4,0-0.6,0v-0.4l-0.3,0v-0.1l-0.3,0v-0.1l-0.1,0l0-0.1l-0.1,0l0-0.1H68l-0.1-0.1l-0.4,0l0-0.2h0.1l0-0.1h-0.1l0-0.1
		h-0.1l0,0.1l-0.2,0l0-0.2l-0.1,0c-0.2,0-0.1-0.2-0.1-0.2h-0.5v0.1l-0.1,0v0.1l-0.2,0.1l0,0.2H66l0,0.1l-0.1,0l0-0.1h-0.1l0-0.2
		l0.1,0v-0.1l-0.1,0l0-0.1l-0.2,0l0-0.2l-0.5,0v-0.1l-0.2,0v-0.1l-0.3,0l0,0.1l0.1,0l0.1,0.1h0.1l0,0.1l0.1,0l0,0.2h-0.1l-0.1-0.1
		l-0.1,0l-0.1-0.1l-0.2,0l0-0.1h-0.1l-0.1-0.1h-0.1L64,22.1H64l0,0.1l-0.3,0l0-0.3H64l0-0.1H64l0-0.1h-0.1l0-0.1h-0.1l0-0.1h-0.1
		l-0.1-0.1l-0.3,0v-0.1h-0.1l0-0.1h-0.1l0-0.1H63l0-0.1h-0.5v0.1L62.4,21l0-0.1h-0.1l0-0.2l-0.1,0v0L62,20.8l0,0.2h-0.2V21l-0.4,0
		v-0.4h-0.2l0,0l-0.1,0.1l0-0.1h-0.1l0-0.2H61v0.1l-0.1,0c-0.2,0.1-0.1-0.1-0.1-0.2l-0.4,0l0,0.2c-0.1,0-0.2,0-0.3,0v-0.1h-0.1
		l0-0.1h-0.1L59.8,20h-0.1l0-0.1l-0.4,0l0-0.1l-0.2,0l0-0.2c0.1,0,0.3,0,0.3,0l0,0.1h0.2l0-0.1l-0.1,0l0-0.2h0.2v-0.1l0.1-0.1l0-0.1
		l-0.1,0v-0.2h0.1v-0.1l0.1,0l0.2,0.1l-0.1,0.1V19H60l0,0.1c0.1,0,0.2,0,0.3,0v0.2h0.2l0-0.2h0.5V19l0.1-0.1l0-0.1
		c-0.2-0.1-0.1-0.3-0.1-0.5l-0.2,0v-0.1l0.1,0v-0.1l0.4,0l0,0.6h0.5v-0.1l0.1,0v-0.1l0.1-0.1v0l0.1,0v-0.1l0.2-0.1l0-0.1h-0.1v-0.2
		h0.1V18l0.1,0c0,0.1,0,0.2,0,0.3l0.2,0l0-0.1l0.1,0l0,0.1l0.1,0l0,0.2H63v-0.1l0.1-0.1l0-0.2h0.1l0,0.2h0.1l0,0.1l0.1,0v-0.1
		l0.1-0.1c0.1,0,0.2,0.1,0.1,0.1h0.1v-0.1l0.1-0.1v-0.2h-0.1l0-0.1c0-0.1,0.1,0,0.2-0.1l0-0.1l0.1,0l0-0.2h0.1l0,0.1h0.1l0,0.1
		l-0.1,0v0.1l-0.1,0v0.2h0.2v-0.1l0.1,0l0,0.1h0.2l0-0.2h-0.1L64.5,18h-0.1l0-0.3l1,0v0.1l0.1,0l0,0.1h0.7v-0.2l-0.1,0l0-0.3h0.1
		v-0.1l0.1,0l0-0.1c0.1,0,0.2,0,0.3,0l0,0.1h0.3v-0.1l0.1-0.1l0-0.1H67L66.8,17h-0.1l-0.1-0.1l0.3,0v-0.1l0.1,0v-0.1l0.1-0.1l0,0.1
		h0.1l0,0.1h0.5l0-0.2H68l0,0l0.1,0l0-0.2h0.1v-0.1l0.1,0v-0.1l0.1-0.1l0,0l0.1,0l0-0.2l-0.1,0l0-0.1l0.2,0l0-0.3h-0.1l0-0.1h-0.1
		l0-0.1h-0.1c0-0.3,0-0.6,0-0.9h-0.1l-0.1-0.1h-0.1l0-0.1H68l0-0.1h-0.1l0-0.1h-0.1l-0.1-0.1h-0.3l-0.1,0.1v0.1l-0.2,0V14h0.1l0,0.1
		l-0.1,0L66.9,14h-0.2l0,0.2l-0.1,0l-0.1-0.1h-0.1L66.4,14l-0.2,0l0,0.3l-0.2,0v-0.1h-0.4l0-0.2h-0.7l0,0.2h-0.2v0.2h0.1
		c0.2-0.1,0.1,0.1,0.1,0.2l0.1,0l0.1,0.1c-0.1,0.1-0.4,0-0.5,0.1v0.1l-0.1,0l0-0.1h-0.1l0-0.1H64v0.1l-0.1,0.1c-0.1-0.1,0-0.2,0-0.4
		h-0.4l0,0.2h-0.6v0.1c0.2,0.1,0.1,0.4,0.1,0.6l-0.2,0v-0.5h-0.2l0,0.4h-0.3l0,0.1l-0.1,0l0,0.1h0.1l0,0.1l-0.1,0l0,0
		c-0.1,0.1-0.4,0.1-0.5,0l0-0.2l0.4,0v-0.5h-0.1l0-0.1l-0.1,0l0,0.1l-0.1,0V15l0.1,0v0.2l-1.1,0l0,0.2l-0.2,0c0,0.2,0,0.4,0,0.5
		h-0.1v0.1l-0.1,0l0-0.1L60,16l0,0.1l-0.1,0v0.1l-0.1,0.1c-0.1-0.1,0-0.4,0-0.5h-0.4l0,0.2l-0.2,0v0.2l0.1,0l0,0.1l-0.1,0.1v0.1
		l-0.1,0l0-0.1h-0.1l0-0.2h-0.1l0,0.1l-0.2,0V16h-0.2l0,0.2l-0.2,0v0.2l0.1,0l0,0.1h0.1l0.1,0.1l0.1,0l0,0.3h-0.3l0,0.1l-0.1,0
		L58,16.9l0.1-0.1v-0.2h-0.3l0,0.6h0.1l0,0.1l-0.1,0l-0.1-0.1l-0.1,0l-0.1-0.1h-0.1l0,0.1l-0.1,0.1l0-0.1h-0.1c0-0.2,0-0.4,0-0.5H57
		l0,0.8h-0.7v1.2h0.2v-0.2h-0.1l0-0.1l0.1,0c0.2-0.1,0.1,0.2,0.1,0.2h0.1l0.1,0.1h0.1l0,0.1l0.2,0l0,0.3H57l0,0.2l-0.2,0v-0.1
		l-0.1,0l0,0.1l-0.3,0l0-0.1h-0.1l0,0.4h-0.5l0,0.1l-0.1,0l0,0.1l-0.1,0.1l0,0.1l-0.1,0v0.1l0.1,0v0.2h-0.2l0,0.3h-0.1l0,0l-0.1,0.1
		v0.3l0.2,0l0,0.2h-0.1l0,0.1h0.1l0.1,0.1h0.2V21h-0.1l0-0.1l0.1-0.1l0-0.4h0.1l0,0.1h0.1l0.2,0.1l-0.1,0.1v0.7l0.2,0l0,0.2h-0.1
		l0,0.2h-0.2l0,0.7h0l0.1,0.1l0.3,0V23h0.2v-0.1l0.1-0.1l0,0.1l0.2,0v-0.1l0.1-0.1v-0.1h-0.1l0-0.1l-0.3,0v-0.1l-0.1,0l0-0.2l0.6,0
		v0.1h0.1l0.1,0.1l0.4,0l0,0.3l0.1,0l0,0.1l0.1,0l0.2,0.1l0.3,0v0.1h0.1v0.4H58v0.3h0.1l0,0.1h0.1l0,0.2l0.2,0l0-0.3h0.1l0,0.1
		l0.6,0v-0.1l0.1,0l0,0.1h0.1l0,0.2l0.5,0v-0.1l0.1,0c0.2-0.1,0.1,0.1,0.1,0.2h0.1c0.2-0.1,0.1,0.1,0.2,0.2l0.7,0v-0.1l0.1,0v-0.2
		h-0.1c0-0.1,0-0.3,0-0.5l0.2,0l0,0.5h0.1c0.2-0.1,0.1,0.1,0.2,0.2l0.8,0v0.4h0.2v-0.1l0.1-0.1v-0.1h-0.1v-0.2l0.1,0l0.2,0.1h0.2
		l0-0.1l0.1-0.1l0,0.3h-0.3v0.5h0.1v-0.1c0.2-0.1,0.5,0,0.7,0v0.2l0.7,0l0,0.1h0.1l0,0.1l0.1,0v-0.1l0.1,0c0.3-0.1,0.1,0.2,0.2,0.3
		l0.4,0v0.2h0.2v-0.1l0.1,0l0.1,0.2l0.1,0l0,0.1h0.1v-0.1l0.1-0.1l0,0.1l0.4,0v-0.1l0.1-0.1l0,0.1h0.1l0-0.2h0.1v-0.1l0.1,0l0.1,0.2
		h0.1l0,0.1l0.1,0l0,0.1h0.1l0.1,0.1l0.1,0l0,0.1h0.4l0-0.2h0.1l0,0.2l0.1,0l0.1,0.1h0.1l0,0.1h0.1l0,0.1h0.1l0,0.2l0.1,0l0,0.1h0.1
		l0,0.1l-0.1,0l0,0.1l-0.1,0v0.1l-0.2,0.1l0,0.2h0.1l0,0.1l0.2,0l0,0.2h-0.2l0,0.1l-0.3,0l0-0.2h0.1V28h-0.1l-0.1-0.1l-0.5,0l0,0.2
		l0.2,0l0,0.2l-0.4,0v-0.2c-0.1,0-0.2,0-0.3,0V28h-0.1l0-0.1h-0.5l0,0.2h-0.2v0.3l0.1,0l0,0.1h0.1l0,0.1l-0.1,0l0,0.1l-0.1,0l0-0.1
		h-0.5v0.1l-0.1,0l0-0.1h-0.1l-0.1-0.3l-0.4,0v-0.1h-0.1v0.1l-0.1,0l0,0.4h-0.1l0-0.1H64v-0.2h0.1l0-0.3h-0.6l0,0.2l-0.2,0V28
		l-0.1,0l-0.1,0.2H63l0,0.1l-0.2,0v0.1h0.1l0,0.1l0.3,0v-0.1c0.1-0.1,0.4-0.1,0.6,0v0.1h0.1l0,0.1c-0.2,0.1-0.4,0-0.7,0v0.1
		c-0.1,0.1-0.3,0.1-0.5,0v-0.1l-0.3,0l0-0.2h-0.1l0-0.1h-0.1v0.1l-0.1,0.1l-0.1-0.1h-0.1c-0.2,0-0.1-0.1-0.1-0.2h-0.7v0
		c0,0.1-0.2,0-0.2,0.1v0.1l-0.1,0c-0.2,0-0.1-0.3-0.1-0.4l-0.4,0v-0.2h-0.2v0.1L60,27.8l0-0.2h-0.1l0-0.1h-0.1l0,0.1l-0.2,0v-0.6
		l-0.7,0l0-0.1h-0.1l0-0.1h-0.3c0.2-0.4-0.5-0.1-0.7-0.2v-0.1l0.1,0v-0.2h-0.1l0-0.1h-0.1v0.1l-0.1,0l-0.1-0.1l-0.1,0l0,0.2h-0.1v0
		l-0.1,0.1v0.1l-0.1,0l0,0.1L57,26.6v0l-0.2,0v1h0.1l0,0.1l0.1,0l0-0.2h0.1l0-0.1l0.1,0c0.1,0.2,0,0.4,0.1,0.6l0.5,0l0,0.2l0.2,0
		l0,0.3l-0.2,0v-0.1l-0.1,0v0.1l-0.3,0v0.1l-0.1,0c0-0.1,0-0.2,0-0.3l-0.3,0v0.1l-0.1,0.1v0.3h0.1c0.3,0,0.1,0.3,0.1,0.4h0.1
		c0.2-0.1,0.1,0.1,0.1,0.2h0.6v-0.1l0.1,0l0.1,0.1h0.1l0,0.1l-0.2,0.1v0.1l-0.1,0l0,0.1h0.1l0,0.1H58v-0.1l0.1-0.1
		c0.2,0,0.1,0.1,0.1,0.2h0.1c0.2-0.1,0.1,0.1,0.2,0.2h0.2l0-0.2h0.3l0-0.2H59l0-0.2l-0.1,0l0-0.1l0.2,0l0,0.5h0.1
		c0.2,0,0.1,0.3,0.1,0.5h0.1c0.2-0.1,0.1,0.1,0.2,0.2h0.2v-0.1l0.1-0.1l0.1,0.1H60l0,0.1l-0.1,0l0,0.1l-0.1,0l0,0.1
		c-0.1,0.1-0.3,0.1-0.4,0v-0.3l-0.1,0l0-0.1h-0.1v0.1l-0.1,0.1L59,30.7H59l0-0.2h-0.1v0.1l-0.1,0.1v0.3h0.1c0.2-0.1,0.1,0.2,0.1,0.2
		H59l0,0.1h0.1v-0.1l0.1,0c0.2,0,0.1,0.2,0.1,0.2c0.1,0,0.2,0,0.3,0v0.1h0.1l0,0.1l0.3,0l0-0.2l0.4,0v0.4l0.2,0l0-0.4h0.1l0-0.1
		l0.1-0.1v-0.1l0.4,0l0,0.4h-0.2l0,0.2h0.1c0.1-0.1,0.1,0,0.2,0.1h0.1l0,0.1l0.1,0v0l0.1,0l0,0.1H62v0l0.1,0l0,0.2l0.1,0l0,0.1h0.1
		l0-0.2l0.1,0l0-0.2l0.3,0V32h0.1l0,0.1h0.1V32l0.1,0l0.2,0.1h0.1V32l0.1,0l0.2,0.1h0.1l0,0.1h0.1v-0.1l0.1-0.1l0.1,0.1h0.1l0,0.1
		h0.5v-0.1l0.1,0v0l0.1-0.1V32l0.1,0v-0.1l0.1,0l0,0.1h0.3l0-0.2h0.1l0-0.1l0.1,0l0.1,0.3h0.2v-0.1l0.1,0c0.3-0.1,0.1,0.2,0.1,0.3
		H66l0-0.3h0.1l0.1,0.1h0.3l0-0.1l0.1,0l0.1,0.2h0.1l0,0.1h0.1v-0.1c0-0.1,0.1,0,0.2-0.1c0-0.2,0-0.4,0-0.6l0.4,0v0.1l0.1,0l0-0.1
		l0.1,0c0.2-0.1,0.1,0.1,0.1,0.2l0.2,0c0-0.1,0-0.2,0-0.3H68v-0.1l0.3,0c0-0.2,0-0.4,0-0.6h0.4v-0.1h-0.1l-0.1-0.1h-0.1
		c0-0.1,0-0.3,0-0.5H69l0-0.2h0.1l0.2,0.1h0.5v-0.1l0.1-0.1l0,0.1H70l0-0.1l0.1-0.1l0-0.2l0.2,0v0.6h0.2l0-0.5h0.1l0.2,0.1h0.1
		l0-0.2h0.1v-0.1l0.1,0v-0.5l-0.2,0l0-0.2H71l0-0.2h0.1l0-0.1l0.1,0l0-0.1l0.1-0.1v-0.1l-0.2,0l0,0.2h-0.1l0,0.1l-0.2,0l0,0.2
		l-0.2,0l0-0.2h0.1v-0.1l0.1,0l0-0.2h0.1v-0.1l0.2-0.1l0-0.1l0.1-0.1V28l0.1,0v-0.1h-0.4l0-0.2h0.5V27h-0.1
		C71.3,26.9,71.3,26.8,71.3,26.7"/>
	<polygon class="st1" points="29.7,14 29.8,14 29.7,14 29.7,14.1 29.7,14.1 	"/>
	<path class="st1" d="M29.9,14L29.9,14c-0.2-0.2-0.1,0-0.1,0L29.9,14z"/>
	<path class="st1" d="M88.5,29.3L88.5,29.3L88.5,29.3L88.5,29.3c-0.1,0.1-0.3,0.1-0.4,0.1v0.1l-0.2,0v0.2l0.1,0v-0.1
		c0.1-0.1,0.3,0,0.5,0v0.1l0.1,0l0-0.1l0.1,0L88.5,29.3L88.5,29.3L88.5,29.3z"/>
	<path class="st1" d="M86.2,28H86l0-0.1H86l0-0.1l0.1,0l-0.1-0.1l-0.1,0v-0.1H86v0.1l0.2,0V28z M86.3,30.3h-0.4l0-0.1
		c0.1,0,0.4,0.1,0.3-0.1h0.1L86.3,30.3z M85.6,30.6h-0.5v-0.1L85.6,30.6L85.6,30.6z M85.2,28.1l0.2,0l0,0.1l0.1,0v0.1l-0.1,0v0.1
		h-0.2V28.1z M82.3,28.6h-0.1l0-0.1L82.3,28.6L82.3,28.6z M82,31.6L82,31.6l-0.1-0.1H82V31.6z M81.7,31.5L81.7,31.5L81.7,31.5
		L81.7,31.5L81.7,31.5z M81.5,31.7L81.5,31.7L81.5,31.7L81.5,31.7L81.5,31.7z M78.4,28.6h-0.2l0-0.3c0.2,0.1,0-0.2,0.2-0.1V28.6z
		 M78.1,28.4L78.1,28.4L78,28.5h-0.1c0-0.1,0.1-0.3-0.1-0.2h-0.1v-0.2h0.4V28.4z M77.5,31.1l-0.2,0v-0.5c0.2,0.1,0-0.2,0.2-0.1
		L77.5,31.1z M76.9,27.6h-0.2l0,0.4h-0.4v-0.2l0.1-0.1l0-0.1h-0.1l0-0.1h-0.1l-0.1-0.1H76v-0.2c0.2,0.1,0.1-0.2,0.3-0.1l0,0.2h0.1
		l0,0.1l0.1,0v-0.1h0.3L76.9,27.6L76.9,27.6L76.9,27.6z M76.5,29.6h-0.1l0-0.4h-0.1v-0.1c0.2,0.1,0-0.2,0.2-0.1V29.6z M86.2,26.6
		l-0.2,0v-0.1L86.2,26.6L86.2,26.6z M85.5,24h-0.2v-0.1h0.2V24z M83.6,25.1h-0.2l0-0.1h-0.1v-0.1c0.2,0.1,0-0.2,0.2-0.1l0,0.1l0.1,0
		V25.1z M82.4,25.2L82.4,25.2l-0.1,0.1h-0.1l-0.1-0.1H82v0.2h-0.2c-0.1-0.1,0.1-0.3-0.1-0.2l-0.1,0l0-0.3l0.2,0v-0.1
		c0.2,0.1,0-0.2,0.3-0.1l0,0.1l0.1,0l0,0.1h0.1l0,0.1h0.1L82.4,25.2z M80.5,21.5h-0.2v-0.2h0.2V21.5z M79.1,24L79.1,24L79,24.1
		l-0.1,0v-0.3l0.2,0V24z M79,24.4h-0.2l0-0.2h0.2L79,24.4z M78.6,24l-0.2,0l0,0.1h-0.1l0-0.1h-0.1c0-0.1,0.1-0.4-0.1-0.3H78v-0.2
		h0.1l0,0.1h0.1l0,0.1l0.1,0v-0.1h0.1c0,0.1-0.1,0.3,0.1,0.2l0.1,0L78.6,24z M77.8,20.8l-0.2-0.1l-0.1,0v-0.1l0.1-0.1l0.3,0l0,0.2
		l0.1,0v0.1H77.8z M78.2,20.8l0.2,0V21h-0.2V20.8z M77.5,20.7l-0.3,0l0-0.2h0.3L77.5,20.7z M77.3,23.6L77.3,23.6L77.3,23.6
		L77.3,23.6L77.3,23.6z M76.5,22.7h-0.2v-0.2l0.2,0V22.7z M76.3,19.5h-0.2v-0.2h0.2V19.5z M75.5,22.6l-0.3,0.1v0.1h-0.4v-0.1l0.1,0
		v-0.1c0.1,0,0.3,0,0.2-0.1l0.4,0V22.6z M74.9,20.3L74.9,20.3l0.1,0.2h-0.1V20.3z M74.8,22.2h-0.2V22h0.2V22.2z M74.4,22.7
		L74.4,22.7l-0.1-0.1h0.1V22.7z M74.1,21.4L74,21.4l0,0.1l-0.1,0l0,0.1H74v0.2l-0.1,0.1v0l-0.1,0l-0.1-0.1h-0.1v-0.2h0.2l0-0.2
		l0.1-0.1L74.1,21.4L74.1,21.4z M73.5,20.4L73.5,20.4l-0.1-0.2l0.1,0V20.4z M77.7,18.6L77.7,18.6L77.7,18.6L77.7,18.6L77.7,18.6z
		 M77.9,18.5l0.1,0v0.1L77.9,18.5L77.9,18.5z M78.6,18.4H79v0.2h-0.4V18.4z M81.5,17.6L81.5,17.6l0.1,0.1h0.1v0.1h-0.2L81.5,17.6z
		 M84.8,15.7L84.8,15.7L84.8,15.7L84.8,15.7L84.8,15.7z M84.8,14.1h0.3v0.1l-0.3,0L84.8,14.1z M85.3,15.4l0.2,0v0.2h-0.2L85.3,15.4z
		 M85.7,15.2L85.7,15.2L85.7,15.2L85.7,15.2L85.7,15.2z M85.9,15.3h0.2v0.3l-0.2,0V15.3z M87.7,25.3c0.2,0,0.1-0.2,0.3-0.1l0.1,0.1
		h0.1l0,0.1l-0.1,0v0.1h-0.3L87.7,25.3z M88.9,26L88.9,26L88.9,26l-0.2,0.1l0-0.1h-0.1l0,0.2h-0.1v0.1l-0.1,0.1l0,0.1l-0.2,0V26
		c-0.1,0-0.2,0-0.3,0v-0.1l-0.1,0l0-0.1l-0.1,0l0-0.1h0.7V25h-0.2V25c-0.1,0.1-0.4,0.1-0.5,0l0-0.1h-0.1l0-0.1l0.1,0l0-0.1l0.1-0.1
		l0,0.1h0.2v-0.1l0.1-0.1v-0.1l-0.2,0l0-0.1h-0.1l0-0.1l0.1-0.1l0-0.1l-0.1,0l0-0.1c-0.1,0-0.2,0-0.3,0V24l-0.5,0l0,0l-0.1,0l0,0.2
		l-0.1,0l0-0.1l-0.4,0V24h-0.1l0-0.1l0.1-0.1v-0.3l-0.2,0v-0.1h-0.2v0.1l-0.1,0l0-0.3h-0.2l0,0.1l-0.1,0v0.1h0.1l0,0.1h0.1l0,0.1
		l-0.3,0v0l-0.1,0.1l0-0.1l-0.3,0l0-0.7H85v-0.1l-0.2,0l0-0.1h-0.1l0-0.2h-0.1v0.1c0,0.1-0.3,0-0.4,0.1v0.1l-0.1,0v0.1l-0.1,0.1
		l0-0.1l-0.2,0v-0.1l0.1,0l0-0.2h-0.1l-0.1-0.1h-0.1l0,0.1l-0.2,0v-0.2l-0.3,0v-0.1l-0.1,0L82.9,22h-0.1c-0.2,0.1-0.1-0.1-0.1-0.2
		h-0.2v0.1l-0.1,0.1l0-0.2h-0.1l0-0.1l-0.1,0l0,0.2h-0.1l0,0.1l-0.1,0c0-0.2-0.5-0.1-0.7-0.1v-0.1l-0.3,0v-0.1l-0.1,0l0-0.1
		c-0.2,0-0.1-0.3-0.1-0.4L80,21v-0.1l-0.1,0l0-0.1h-0.1l0-0.2h-0.7v0.1L79,20.7c-0.2,0.1-0.1-0.1-0.1-0.2h-0.1l0-0.1h-0.1l0,0.1
		c-0.1,0.1-0.3,0-0.5,0v-0.1l-0.5,0v-0.3l-0.2,0l0-0.4l-0.1,0l0-0.1l0.1,0v-0.1l0.1,0l0-0.2h0.2v0c0.3-0.1,0.7,0,1.1,0l0-0.2h0.3
		l0-0.1l0.1,0v-0.1c0-0.1,0.2,0,0.3-0.1l0-0.2h0.1c0.2,0,0.1,0.2,0.1,0.4h0.1l0-0.1l0.1-0.1l0-0.2h0.2v-0.3h-0.1l0-0.1H80l0-0.1
		l0.1,0l0.1,0.1h0.2v0l0.1,0v0.2h-0.1v0.1h0.1l0,0.1h0.2l0-0.1l0.1,0l0-0.1L81,18l0-0.1l0.1,0l0-0.1l0.3,0l0,0.1l-0.1,0V18l-0.2,0
		l0,0.1h0.1l0,0.1h0.5l0-0.2l0.2,0l0-0.4l0.5,0l0,0.1h0.1l0.1,0.1h0.3l0-0.2l0.2,0l0-0.3h0.3l0-0.1h0.3l0,0.1h0.1l0,0.1H84
		c0.2,0,0.1,0.3,0.1,0.5h0.2l0-0.2h0.2v-0.2l-0.2,0l0-0.3l0.4,0l0,0.1l-0.2,0l0,0.1h0.1v0.1h0.2l0-0.3l0.4,0v0.1l-0.1,0v0.2l0.3,0
		l0,0.1h0.1v-0.1l0.1,0v-0.2h-0.1l0-0.1l0.2,0l0-0.1l0.1-0.1l0-0.1l-0.3,0l0-0.1l-0.1,0v-0.2c0.1,0,0.2,0,0.3,0v0.1H86l0-0.3h0.2
		l0-1.5h-0.1c-0.1-0.1,0-0.2,0-0.4H86L86,14.3h-0.1l0-0.2h-0.1l0-0.1l-0.3,0l0-0.1h-0.1l0-0.1H85l-0.1,0.1l0,0.2l-0.1,0v0.1
		l-0.2,0.1l0,0.1l-0.3,0v-0.1h-0.1L84.1,14l-0.4,0l0,0.2h-0.1l-0.1-0.1h-0.1v0.2l-0.1,0c-0.2,0-0.1-0.2-0.1-0.3h-0.2l0,0.3h-0.1
		l0-0.1l-0.1,0l0-0.2h-0.1V14l-0.1,0v0.1l-0.1,0v0.1l-0.1,0l0,0.1h0.1l0,0.1l-0.1,0.1v0.1l-0.1,0l0,0.1l-0.1,0.1v0.1l-0.1,0l0-0.2
		h-0.8v-0.2l-0.2,0l0,0.2l-0.2,0l0,0.5h-0.1v0.1c-0.1,0.1-0.3,0-0.5,0v0.1l-0.1,0.1v0L80,15.4l0-0.1h-0.2v0l-0.1,0.1l0-0.1h-0.1
		v-0.2h0.1V15l0.1-0.1v-0.2h-0.2l0,0.1l-0.2,0l0-0.1h-0.1l0,0.2l-0.2,0l0,0.1L79,15.1v0.1H79c0,0.1,0,0.3,0,0.5l-0.1,0
		c-0.2,0-0.1-0.2-0.1-0.2h-0.2v0.1l-0.1,0v0.1h0.1l0,0.1l-0.1,0v0.1l-0.1,0l0-0.1h-0.3l0,0.1l-0.2,0l0-0.2h-0.6l0,0.2l-0.2,0v0.2
		c0.1,0,0.2,0,0.3,0l0,0.1l-0.6,0l0,0l-0.1,0.1l0-0.1l-0.1,0l0-0.2h-0.3v0.1l-0.1,0v0.5h0.1l0,0.1l-0.1,0.1l0,0.1
		c-0.1,0.1-0.4,0-0.6,0l0-0.2h-0.2l0,0.2h-0.4v0.2H75l0,0.1l-0.1,0v0.1l-0.1,0.1l0-0.2h-0.1l0-0.1l-0.1,0l0,0.2h-0.2v0.2h0.7l0-0.3
		h0.1c0.3-0.1,0.1,0.2,0.1,0.3h0.1l0,0.1h0.1l0-0.1l0.2,0l0,0.2h-0.1l0,0.1l-0.1,0l0,0.2h-0.1l0-0.1l-0.2,0v-0.1l-0.1,0l0-0.1h-0.9
		v0.2h0.1l0,0.1l-0.1,0l0,0.1l-0.2,0.1v0.5H74l0.2,0.1l0.1,0l0,0.1c-0.1,0.1-0.4,0.1-0.6,0l0-0.2l0.1,0v-0.1h-0.1l-0.1-0.1l-0.1,0
		c0,0.1,0,0.3-0.2,0.2l0,1.4l-0.1,0l0,0.1l-0.1,0.1v0.1h0.1v0.2h-0.1l0,0.3H73V21H73c0.3,0,0.1,0.3,0.2,0.4l0.2,0l0,0.9h0.2l0-0.4
		h0.1l0,0.1h0.1l0,0.2l0.1,0v-0.1l0.1-0.1l0-0.2h0.1c0.1,0.1,0,0.3,0.1,0.4l0.1,0l0,0.1l-0.1,0l0,0.1l-0.2,0.1l0,0.2H74l0,0.1
		l-0.3,0v0.2h0.4l0-0.2h0.1c0.2,0,0.1,0.1,0.1,0.2c0.1,0,0.2,0,0.3,0v0.1h0.1l0,0.1H75l0-0.2l-0.1,0l0-0.2H75V23
		c0.1-0.1,0.3,0,0.5,0V23l0.1,0v0l0.1-0.1l0,0.1l0.1,0l0,0.1l0.1,0v-0.1l0.1,0l0-0.2h-0.1l0-0.1l0.1,0v-0.2l-0.2,0l0-0.2l0.3,0v0.5
		h0.1l0,0.1h0.1v-0.1l0.1-0.1l0,0.1h0.1l0,0.2h0.2l0-0.3h0.1l0,0.1l0.1,0l0,0.2h-0.1v0.1h0.1v-0.1l0.1-0.1l0,0.2h0.1v0.2h-0.1v0.1
		l-0.2,0l0,0.3h0.1l0.1,0.1H77l0-0.1l0.1,0l0-0.3l0.5,0V24h0.1l0,0.1h0.1l0,0.3h0.5l0-0.2l0.1,0c0.2,0,0.1,0.3,0.1,0.5h0.7v-0.1
		l0.1,0l0-0.1c0.1-0.1,0.4,0,0.5-0.1v-0.2l-0.2,0l0-0.2l0.1,0l0.2,0.1l0.3,0v0.1l0.2,0l0,0.2h-0.2v0.3l0.1,0l0,0.1l0.3,0l0-0.5
		l0.4,0l0,0.2H81l0,0.2h0.1l0.2,0.1l-0.1,0l0,0.1c0,0.1-0.2,0-0.2,0.1v0.1H81l0.2,0.1l0.1,0l0,0.1l0.5,0v0.4l0.6,0l0-0.2h-0.1l0-0.1
		l0.1,0v-0.1c0.1-0.1,0.4,0,0.5,0l0-0.2H83c0.3,0,0.1,0.3,0.1,0.4l1,0v0.1l0.1,0l0-0.1c0-0.1,0.1,0,0.2-0.1l0-0.1l0.1,0l0-0.1l0.2,0
		l0,0.2h-0.1v0.2h0.1l0.1,0.1h0.1l0.1,0.1h0.1l0,0.1l0.1,0l0,0.1h0.1l0,0.1l-0.2,0v0.2l0.1,0c0.2-0.1,0.1,0.1,0.1,0.2l0.3,0v0.1h0.1
		l0.1,0.1H86V27l0.1-0.1l0.1,0.1l0.1,0l0,0.1l-0.1,0l0,0.1l-0.2,0l0-0.1H86v0.1l-0.3,0l0,0.1l0.1,0l0,0.2h-0.2v0.1h0.1l0,0.1h0.1
		l0.1,0.1l0.2,0l0,0.2h-0.1l0,0.1l-0.1,0l0-0.1l-0.3,0v-0.1l-0.1,0l0-0.3h-0.3v0.1l-0.2,0v0.1L84.8,28l0,0.2l-0.1,0l0,0.1l-0.3,0
		l0-0.2l-0.2,0v-0.2l-0.4,0l0,0.7l-0.1,0l0,0.1l-0.2,0v-0.1h-0.1l0-0.1l-0.1,0l0-0.3l-0.2,0l0,0.2h-0.2l0,0.4l-0.2,0v-0.2h-0.1
		l0-0.2l-0.1,0l0-0.1h-0.1v0.1l-0.2,0l0,0.3h-0.1l0-0.1h-0.1l0-0.1l-0.2,0l0,0.1l-0.1,0l-0.1-0.1l-0.2,0l0,0.1l-0.2,0v-0.3h-0.2
		l0,0.3l-0.2,0v-0.3l-0.1,0v0.1l-0.1,0v0.2h0.1l0,0.1l-0.1,0v0.1l-0.1,0l0-0.1h-0.1v-0.3h0.1v-0.2l-0.8,0l0,0.2h-0.2l0,0.2h-0.1
		l-0.1-0.1H79l0-0.1h-0.1l0,0.3h-0.1v0.1l-0.1,0c-0.1-0.2,0-0.4,0-0.7h-0.1c-0.2,0-0.1-0.1-0.1-0.2l-0.4,0l0-0.2h0.1l0-0.1H78l0-0.1
		h-0.7v0.1l-0.1,0l0-0.1h-0.1l0-0.2H77l0,0.1l-0.2,0v-0.1h-0.1l0-0.1l0.3,0l0-0.2l-0.4,0l0-0.2H76l0,0.7l-0.1,0l-0.1-0.1h-0.1
		l-0.1-0.1l0.1,0v-0.4l-0.9,0v-0.1l0.1,0v-0.1l0.3,0v-0.5l-0.3,0V26L74.9,26l0,0.1l-0.2,0l0,0.1l0.1,0v0.3h-0.1v0.2l0.1,0l0.1,0.1
		H75l0.1,0.1l0.1,0l0,0.1h0.1l0,0.1h0.1c0.1,0.2,0,0.4,0,0.6H75v0.1l-0.1,0v0.1l-0.1,0v0.1L74.7,28v0.1h0.1v0.3h-0.2v0.1l-0.1,0v0.1
		l-0.1,0v0.5h0.1c0.2-0.1,0.1,0.1,0.1,0.2l0.2,0l0-0.2l0.5,0V29l0.1-0.1l0-0.2h0.1l0,0.1h0.2v-0.2h-0.1l-0.1-0.1l0.1,0
		c0.3-0.1,0.1,0.2,0.2,0.3H76l0,0.1h0.1l0,0.1l-0.3,0.1v0.4h0.1v-0.1l0.1,0l0-0.2h0.1l0,0.2h0.1v0.3h-0.1l0,0.1l-0.2,0l0-0.1h-0.4
		v0.1l-0.1,0.1v0.1h0.1l0,0.1h0.1l0-0.1l0.1-0.1l0,0.1l0.1,0l0-0.1l0.1-0.1l0,0.1H76l0,0.1h0.1l0.1,0.1h0.1l0,0.1l-0.1,0.1v0.2h0.1
		c0.2,0,0.1,0.2,0.1,0.3h0.1c0.2-0.1,0.1,0.2,0.1,0.2l0.3,0v0.1l0.1,0l0.1,0.1h0.8v0.1l0.1,0l0,0.1l0.2,0v-0.3H78l0-0.1
		c-0.1,0-0.2,0-0.3,0l0-0.2h0.2l0-0.2H78l0,0.1h0.4l0-0.2H79l0,0.3l0.4,0l0-0.1l0.1-0.1l0-0.1l0.2-0.1v-0.1l0.3,0v0.1l-0.2,0v0.2
		l0.1,0l0.1,0.1H80l0,0.1L80,31.1v0.1l-0.1,0l-0.1-0.1h-0.9l0,0.2l-0.2,0v0.4h0.1c0.2-0.1,0.1,0.1,0.1,0.2h0.4l0-0.1l0.1,0
		c0-0.2,0-0.4,0-0.6h0.1l0.2,0.1l0.1,0v0l0.1,0l0,0.1l0.2,0v-0.1l0.4,0l0,0.1l-0.1,0v0.1h0.3v-0.1h-0.1l0-0.1c0.2-0.1,0.6,0,0.8,0
		l0-0.1l0.1-0.1l0,0.1l0.1,0l0.2,0.1l-0.3,0v0.3h0.1l0,0.1l-0.1,0v0.1L81.3,32l0-0.3h-0.1l0-0.1l0.1-0.1v-0.1h-0.1l0,0.1l-0.2,0
		l0,0.1h-0.7l0,0.2h-0.1v0.3h0.1v-0.1l0.1-0.1l0-0.2h0.1l0,0.1h0.4l0-0.1l0.1,0l0,0.1H81l0,0.2h0.1l0-0.1l0.8,0l0-0.2l-0.2,0l0-0.1
		l0.2-0.1v-0.1l0.1,0l0.1,0.1h0.1l0-0.1l0.1,0l0-0.1l-0.2,0l0-0.1c0.1-0.1,0.4,0,0.6,0l0,0.2h-0.1l0,0.2h-0.2l0,0.1l-0.1,0V32l0.1,0
		l0,0.1h0.1l0-0.1l0.3,0l0,0.1h0.1l0-0.3H83l0.1,0.1h0.1v0l0.1,0l0-0.2l0.1,0l0,0.1h0.1l0,0.2h0.3l0-0.5l-0.9,0v-0.1
		c0.2-0.1,0.6,0,0.8,0l0-0.1l0.1-0.1l0-0.1l0.4,0v0.2h0.2v-0.1l0.1-0.1l0,0.1c0.1,0,0.3,0,0.3,0l0,0.1l-0.1,0v0l-0.3,0v0.1l-0.1,0.1
		l0,0.1l-0.1,0l0-0.1h-0.2l0,0.3h0.2l0-0.1l0.1,0l0,0.1h0.1l0,0.2h0.1v-0.1l0.1-0.1l0-0.1h-0.1v-0.2h0.6l0-0.2h0.2v-0.3h-0.1l0-0.1
		h-0.1v0.1l-0.1,0l0-0.1h-0.1v-0.2H86v0l0.1-0.1v-0.1l0.1-0.1l0.1,0.1h0.1l0.1,0.2h0.2l0-0.1l0.1,0l0.2,0.1H87l0-0.1l0.1,0v-0.1H87
		l0-0.2l0.8,0v-0.2l-0.9,0v-0.2h-0.1l0,0.1l-0.2,0v-0.1h-0.1L86.5,30l0.1,0l0-0.2h0.1l0,0.1l0.1,0l0.2,0.1h0.2v-0.1l0.1-0.1l0-0.2
		h0.1l0.1,0.1h0.1v-0.1l0.2,0v-0.1l-0.1,0l0-0.1l-0.1,0l-0.1-0.1l0.1-0.1v-0.1l0.2,0l0-0.3h0.2l0,0l0.1,0l0,0.1h0.1l0,0.1h0.1
		l0.2,0.1h0.1l0,0.1l-0.1,0v0.1v0l0.2,0l0-0.3h0.1v-0.3h-0.1l-0.1-0.1l0.2,0l0-0.1l0.1-0.1v-0.1h-0.1l0-0.1h-0.1c0-0.1,0-0.3,0-0.5
		h0.1v-0.1l0.1,0v-0.2h-0.1v-0.3H89l0-0.2h-0.1l-0.1-0.1l-0.1,0l0-0.2h0.1l0-0.1l0.2-0.1l0-0.3h-0.1L88.9,26z"/>
	<path class="st1" d="M27.1,30.3h-0.2v-0.2h0.2V30.3z M26.7,29.9L26.7,29.9l-0.1,0.2h0.1v0.2h-0.3l0-0.1h-0.1v-0.1
		c-0.1,0-0.2,0-0.3,0l0-0.1l0.1,0l0-0.1l-0.1,0v-0.3h0.3l0,0.2l0.1-0.1v-0.1h0.3L26.7,29.9z M26.3,29.2L26.3,29.2L26.3,29.2
		L26.3,29.2L26.3,29.2z M25.9,30.4h-0.3l0-0.1h-0.1l0-0.1h0.4V30.4z M25.4,30.5h-0.2l0-0.2l0.2,0L25.4,30.5z M24.6,30.8l-0.1,0.1
		v0.1h-0.1l0-0.1h-0.1v-0.1c0.2,0.1,0-0.2,0.2-0.1L24.6,30.8L24.6,30.8L24.6,30.8z M23.9,30.4l0,0.2h-0.3v-0.2L23.9,30.4l0-0.4
		l0.2,0c0,0.1-0.1,0.3,0.1,0.2l0.1,0l0,0.2H23.9z M23.9,29.3l0.4,0v0.2l-0.1,0.1l0,0.1h0.1v0.2l-0.1,0v0.1h-0.1L24,29.8h-0.1
		L23.9,29.3z M23.3,28.2h-0.5l0-0.2l0.5,0V28.2z M20.6,31h-0.4v-0.1c0.1,0,0.2,0.1,0.2-0.1l0-0.1c0.2,0.1,0-0.2,0.2-0.1V31z
		 M20.1,28.5L20.1,28.5L20,28.8h-0.2l0-0.1l-0.1,0l0-0.1l-0.1,0v-0.1l0.1,0v-0.1l0.1-0.1v-0.1h0.3l0-0.2h0.2v0.4L20.1,28.5
		L20.1,28.5z M18.7,31h-0.2v-0.3h0.1l0,0.1h0.1V31z M17.5,28.4L17.5,28.4l-0.1,0.1h-0.2l0-0.1h-0.1l0-0.1H17l0-0.1h-0.1V28l0.6,0
		V28.4z M16.9,31h-0.2l0-0.2h-0.1l0-0.1h0.3V31z M16.4,28.2V28l0.3,0v0.2H16.4z M15.5,27.6h-0.2l0-0.1L15.5,27.6L15.5,27.6z
		 M15.2,30h-0.5v-0.1l0.1-0.1H15L15.2,30L15.2,30L15.2,30z M13.2,29.1H13v-0.2h0.2V29.1z M12.9,24.7L12.9,24.7l-0.3,0l0-0.9h0.2
		c0,0.1-0.1,0.4,0.1,0.4l0,0.1H13v0.2L12.9,24.7z M12.7,29.1h-0.2v-0.4h0.2V29.1z M12.1,17.2h-0.2V17h0.2V17.2z M11.8,18.2h-0.2V18
		h0.2V18.2z M11.8,26.8L11.8,26.8l-0.1-0.2l0.1,0L11.8,26.8z M11.5,22.2h-0.2V22h0.1L11.5,22.2L11.5,22.2L11.5,22.2z M11.1,20
		L11.1,20L11.1,20l-0.2,0.1v-0.2c0.2,0.1,0-0.1,0.2-0.1V20z M11.1,25.6h-0.2l0-0.3h0.2V25.6z M10.8,24.1h-0.2v-0.2h0.2V24.1z
		 M10.6,22.7L10.6,22.7l-0.1-0.2h0.1V22.7z M14.2,19.3h0.2v0.1h-0.2V19.3z M14.6,15.6l0.2,0v0.1l-0.1,0.1v0.1h-0.1L14.6,15.6z
		 M14.7,15.1l0.2,0l0,0.1L14.7,15.1L14.7,15.1z M14.8,16.5v-0.2h0.1v0.2L14.8,16.5z M15,18.8l0,0.1h0.1v0.3l-0.2,0L14.9,19l-0.1,0
		v-0.2H15z M15.1,18.7h0.2l0,0.1L15.1,18.7L15.1,18.7z M15.1,15l0.3,0v0.1l-0.1,0.1l0,0.1h-0.1L15.1,15L15.1,15L15.1,15z M15.5,18.5
		L15.5,18.5l0.1,0.2h-0.1V18.5z M16.3,15.1h0.2v0.3h-0.2V15.1z M17,15.6l0.2,0v0.2h-0.1L17,15.6L17,15.6L17,15.6z M17.9,18.9H18V19
		L17.9,18.9L17.9,18.9z M18.6,19.8l0.1,0V20h-0.1V19.8z M18.8,20.8h0.2l0,0.4h-0.1l0-0.1h-0.1V20.8z M19.2,21.5L19.2,21.5l0.1,0.1
		h-0.1V21.5z M19.4,16.8h0.2l0,0.1h0.1l0,0.2h0.1v0.1l0.3,0l0.1,0.1h0.1v0.1h-0.3l0-0.1h-0.1v-0.1l-0.3,0L19.5,17h-0.1L19.4,16.8z
		 M20.3,22.4L20.3,22.4l0.1,0.1h-0.1V22.4z M20.3,19c0.2,0,0-0.2,0.2-0.1l0,0.1h0.1l0.1,0.1h0.1v0.2h-0.2l0-0.1h-0.1L20.3,19
		L20.3,19L20.3,19z M19.7,22.5L19.7,22.5l-0.1-0.1l0.1,0V22.5z M21.2,21.7L21.2,21.7L21.2,21.7L21.2,21.7L21.2,21.7z M27.2,29.7
		l-0.2,0v-0.2l-0.4,0l0-0.2l0.1,0v-0.1h-0.1l0-0.1h-0.2l0,0.1c-0.2,0-0.1-0.3-0.1-0.4h-0.1l0-0.1h-0.1v0.2l0.1,0l0,0.3l-0.5,0v0.1
		l-0.1,0l0-0.1h-0.1l0-0.1l-0.1,0l0-0.1h-0.1l-0.1-0.1l-0.2,0l0-0.2l0.4,0v0.1h0.1l0,0.2l0.1,0v-0.1l0.1,0v-0.1l0.2-0.1v-0.1l-0.4,0
		v-0.1l-0.1,0l0-0.1l0.1-0.1l0-0.2l-0.8,0l0,0.1l-0.1,0.1v0.1l-0.2,0v0.2h0.1l0,0.1l-0.2,0l0,0.1l-0.2,0v-0.1h-0.1l0-0.2h-0.1l0-0.1
		l-0.2,0v-0.1h-0.1l0-0.1l-0.1,0l0-0.1h-0.1l0-0.1l-0.3,0l0-0.2l0.2,0v-0.2h-0.2l0,0.2h-0.1v0.1l-0.1,0.1l0-0.1h-0.1v0.1l-0.1,0v0.1
		l-0.1,0.1v0l-0.1,0V28l0.1,0l0,0.1l-0.1,0.1v0.1c-0.2,0.1-0.4,0-0.6,0l0-0.6h-0.2l0,1h-0.1l0,0.1l-0.1,0v0.1l-0.1,0l0,0.2L21,29
		v-0.1h-0.1l0-0.1h-0.1l0-0.3l-0.2,0l0-0.4h0.2v-0.3h-0.1l0-0.1h-0.1l-0.1-0.2h-0.2v0.1c-0.2,0.1-0.5,0-0.8,0v-0.1l-0.1,0v0.1
		l-0.1,0v0.3l0.2,0l0,0.4l-0.2,0V28h-0.2l0,0.2l-0.1,0l-0.1-0.1l-0.1,0l0-0.1h-0.1l0,0.4h-0.1l0,0.1l-0.1,0l0,0.3h-0.1
		c-0.2,0-0.1-0.2-0.1-0.3l-0.1,0l0-0.2l0.3,0v-0.4h-0.2l0,0.3h-0.1l0,0.1c-0.1,0.1-0.3,0-0.5,0V28h-0.1l-0.1-0.1l0.1,0l0-0.2h0.1v0
		l0.1,0l0,0.1h0.1l0,0.1L18,27.8V28h0.1l0,0.1h0.1l0-0.8H18v0.1l-0.1,0l0-0.2h-0.1l0-0.1h-0.1v0.1l-0.1,0.1v0.1h0.1v0.4l-0.2,0v-0.2
		h-0.1l0-0.1h-0.1l0-0.1l-0.7,0l0,0.2l-0.2,0v-0.3h-0.1l0,0.1l-0.1,0.1l0,0.4l-0.2,0v-0.1h-0.1l-0.1-0.1l0.2-0.1v-0.1l0.1,0v-0.1
		l-0.1,0l0-0.1h-0.1v0.1l-0.1,0.1l0,0.1l-0.1,0l-0.1-0.1h-0.2l0,0.1l-0.2,0v-0.1l-0.3,0v-0.2h-0.2l0,0.1l-0.2,0v-0.1l-0.1,0
		c-0.2,0.1-0.1-0.1-0.1-0.2l-0.1,0l0-0.1l-0.5,0l0-0.2h0.3l0,0l0.1-0.1l0-0.3H14l0-0.1l-0.1,0l0-0.1l-0.5,0v-0.1h-0.1l0-0.1h-0.1
		l0-0.2h-0.1l0-0.1H13C13,25.2,13,25,13,24.8h0.1l0-0.1l0.1,0v-0.4h-0.1l0-0.1H13l0-0.3h-0.1l0-0.1l-0.1,0v-0.2h0.1v-0.1l0.1,0
		l0-0.2l-0.2,0l0-0.2h0.1l0-0.2h-0.1v-0.3h0.1v0.1l0.1,0l0-0.1l0.2-0.1v-0.2h-0.1L13,22.1l-0.1,0l0-0.2h0.3l0-1h0.1l0-0.3h0.1
		c0.1,0.1,0,0.4,0.1,0.5h0.1l0-0.1l0.1-0.1l0-0.2h0.2l0-0.2h-0.1l0-0.1l0.1-0.1l0-0.1h-0.1l0-0.1l-0.2,0l0-0.2h0.2v-0.1l0.1,0v-0.1
		l0.2,0v-0.1l0.1-0.1l0,0.2l0.2,0l0-0.2l0.1,0l0,0.1h0.1l0,0.1h0.1v-0.1l0.1,0v-0.3h-0.1l0-0.2h0.1c0.2-0.1,0.1,0.1,0.1,0.2h0.7
		v-0.1l0.1-0.1l0-0.2h-0.1v-0.2h0.1l0-0.1c0-0.1,0.2,0,0.2-0.1l0-0.2H16l0.1,0.1h0.2l0-0.2h0.1c0.2-0.1,0.1,0.1,0.2,0.2h0.2l0-0.1
		l0.1-0.1l0,0.1l0.1,0l0.1,0.1l0.2,0l0,0.2l-0.3,0v-0.1h-0.1l0-0.1l-0.1,0v0.4h0.1l0,0.1h0.1l0,0.1l0.1,0l0,0.1h0.1l0,0.1h0.1v-0.1
		l0.1,0l0,0.1h0.1l0-0.1l0.1,0l0-0.3h0.1l0,0.1h0.2v0l0.1,0l0.1,0.1l0.1,0v0.4l-0.1,0l0,0.1h0.2v-0.1l0.1-0.1
		c0.2-0.1,0.1,0.1,0.2,0.2h0.1c0,0.2,0,0.4,0,0.6h-0.3v0.2h0.1c0.3-0.1,0.1,0.2,0.2,0.3l0.1,0l0,0.1h0.1l0,0.1l-0.1,0l0,0.1h0.1
		l0,0.1l0.2,0l0,0.2h-0.1v0.1h0.1l0.1,0.1h0.1l0,0.1c0,0.1-0.1,0-0.2,0.1V22l-0.1,0v0.1h0.1l0,0.1H19l0,0.1l-0.1,0l0,0.2l0.2,0
		l0-0.3l0.3,0l0,0.6h0.2v-0.1l0.1,0l0,0.1c0.2,0,0.1,0.3,0.1,0.4l0.8,0v0.1h0.1l0-0.1l0.2,0v-0.1c0-0.1,0.2,0,0.2-0.1v-0.2l-0.2,0
		V23c0-0.1,0.3,0,0.4-0.1l0-0.2h-0.1l0-0.1h-0.1l0-0.3l0.4,0l0-0.5h0.1v-0.1l0.1,0l0-0.1h-0.1l0-0.1h-0.1l0-0.1l-0.2,0v-0.2h-0.1
		l0-0.2h-0.1l0-0.3h0.1l0.1,0.1h0.1l0,0.1l0.1,0v-0.3h-0.1l0-0.1h-0.1c-0.1-0.1,0-0.4,0-0.6h0.1v-0.1h-0.1l0-0.1h-0.1l0-0.1l-0.1,0
		l0-0.1l-0.2,0l0-0.1l0.1,0l0-0.4h-0.1l0-0.1l-0.1,0l0-0.1h-0.1c-0.1-0.1,0-0.2,0-0.3l-0.2,0V18l-0.1,0v-0.4l0.1,0l0-0.2
		c-0.2,0-0.1-0.3-0.1-0.4l-0.6,0v-0.1h-0.1l0-0.2l-0.1,0v-0.3h0.2v-0.2h-0.1c-0.2,0-0.1-0.2-0.1-0.3h-0.4l0,0.2l-0.4,0v-0.1h-0.3V16
		l-0.4,0l0-0.1H18l0-0.1c0.1-0.1,0.3,0,0.4,0v-0.2l-0.2,0l0-0.2h0.1l0-0.1h-0.1l0-0.1h-0.1v0.1L18,15.3l0,0.4h-0.1l0-0.1l-0.1,0
		v-0.2h0.1v-0.1h-0.1l0-0.1h-0.1c0,0.1,0,0.2,0,0.3h-0.1l0,0.1l-0.1,0.1c-0.1-0.1,0-0.3-0.1-0.5h-0.2l0,0.3c-0.2,0-0.4,0-0.7,0
		l0-0.4l0.1,0l0-0.2l-0.1,0c-0.2,0.1-0.1-0.1-0.1-0.2l-0.2,0l0,0.2h-0.2l0,0.3l-0.4,0V15l-0.1,0L15.5,15l0.2,0l0-0.1l-0.2,0v-0.2
		h-0.4l0,0.2H15c-0.2,0.1-0.1-0.1-0.1-0.2l-0.7,0l0,0.7l-0.5,0v-0.2h-0.1l0-0.1h-0.1l0,0.1l-0.2,0v-0.1l-0.1,0V15l-0.1,0v0l-0.1,0
		v0.1l-0.1,0.1c0,0.2,0,0.4,0,0.6l-0.1,0l0-0.1l-0.1,0l0-0.1h-0.2v0.2h0.1V16l-0.1,0v0.1h0.1l0,0.1h0.1l0-0.1l0.1,0l0,0.1h0.1l0-0.3
		h0.1l0-0.1l0.1,0l0-0.2l0.2,0l0,0.3l-0.1,0V16L13,16l0,0.5h-0.1v0.1l-0.1,0l-0.1-0.1h-0.1l0-0.1l-0.3,0l0,0.2l-0.2,0v-0.4h-0.3v0.1
		l-0.1,0l0,0.5h0.1l0,0.1l-0.1,0.1l0,0.1l-0.1,0l0,0.1l-0.1,0l0,0.1h0.1l0.2,0.1h0.1v0.2h-0.2v0.1l-0.1,0l-0.1-0.3h-0.1l0,0.3
		l-0.1,0v0.1l-0.2,0.1l0,0.2h-0.3v0.6h0.2v-0.1l0.1-0.1v-0.1h-0.1v-0.2l0.1,0l0-0.2l0.3,0v0.1l-0.1,0v0.1l-0.1,0v0.2h0.1l0.1,0.1
		l0.1,0l0-0.3h0.1c0.1,0.1,0.1,0.3,0,0.5h-0.1v0.1l-0.1,0l0,0.2h-0.1v0.1l-0.1,0l0,0.1l-0.6,0v0.2h0.1l0.1,0.1h0.1l0,0.1l-0.1,0
		l0,0.1l-0.1,0l0,0.1l-0.1,0V20L10.3,20v0.1l-0.1,0v0.1h0.1l0.1,0.1h0.1v0.2h-0.1l0-0.1H10v0.1l0.1,0l0,0.1h0.1l0.1,0.1l-0.1,0v0.1
		c0,0.1-0.1,0-0.2,0.1V21l0.1,0l0,0.1h0.1l0.2,0.1h0.1v-0.1l0.1,0l0-0.2c0.1,0,0.2,0,0.3,0V21h0.1c0.1,0.2,0.1,0.4,0,0.6h-0.1l0,0.2
		h0.1V22l-0.1,0c-0.2,0-0.1-0.2-0.1-0.2l-0.1,0l0-0.2l0.1,0v-0.2h-0.2l0,0.2l-0.3,0v-0.2H9.9l0,0.1H10c0.2,0,0.1,0.2,0.1,0.2l0.2,0
		l0,0.2h-0.1V22l0.1,0l0,0.1l0.1,0l0,0.1l-0.1,0l0,0.5h-0.1l0,0.2h0.1c0.1,0.1,0.1,0.4,0,0.6l-0.2,0v0.4h0.2l0-0.1l0.1,0l0,0.2
		l0.1,0l0,0.1l-0.1,0l0,0.5l0.1,0l0,0.2h-0.3v0.2h0.1l0,0.4h-0.1l0,0.2l0.2,0v-0.1l0.1-0.1l0.1,0.1l0.1,0l0,0.1l-0.1,0v0.2h0.1
		l0,0.1h0.1l0,0.2h0.1l0-0.3H11l0.2,0.1h0.1c0,0.1,0,0.3,0,0.5l-0.1,0v0.1h0.1v0.2h-0.2V27l0.9,0l0,0.2l-0.1,0v0.1l-0.2,0v0.2h0.1
		l0,0.1h0.1v-0.1l0.1,0l0,0.1H12l0,0.2h0.1l0,0.1l0.2,0l0,0.3l-0.1,0l0,0.4l-0.2,0V29l0.3,0v0.1h0.1l0,0.1l0.7,0l0,0.1h0.1l0,0.1
		h0.1l0.1,0.2h0.5l0-0.1l0.2,0v0.9h0.1c0.2,0,0.1,0.1,0.1,0.2h0.2v-0.1l0.2-0.1v-0.1l0.1,0l0,0.1l0.4,0l0,0.1l0.1,0v0.2h-0.3V31h0.1
		l0,0.1h0.1V31c0.1-0.1,0.3,0,0.5,0v0.1H16l0-0.1l0.1,0v-0.1l-0.2,0l0-0.2l0.1,0l0.2,0.1h0.1c0.2,0,0.1,0.1,0.1,0.2h0.1l0,0.1h0.1
		c0.1,0.1,0,0.2,0,0.4l0.5,0l0-0.4h0.1V31l0.1,0c0.1,0.1,0.1,0.3,0.1,0.5h0.2l0-0.4h0.1V31l0.1,0l0,0.1l0.2,0V31l0.4,0v0.2h1.2
		l0-0.2l0.1,0c0.2-0.1,0.1,0.2,0.2,0.2l0.7,0v0.4l0.1,0c0.2-0.1,0.1,0.1,0.1,0.2l0.4,0v-1l-0.1,0l0-0.2h0.2v-0.1l0.1,0v-0.1h-0.1
		l0-0.1l0.1,0v-0.1l0.1-0.1l0,0.1h0.1l0,0.1l-0.1,0v0.1h0.1l0,0.1h0.1c0.1,0.3,0,0.6,0,1H22v-0.1l0.1,0l0-0.3h0.1
		c0.2-0.1,0.1,0.2,0.1,0.2h0.1l0,0.1h0.1l0,0.1h0.2v-0.1l0.1,0v0l0.1,0v-0.2h-0.2v0.1l-0.1,0l0-0.1h-0.1l-0.1-0.1l0.1-0.1l0-0.1
		l0.1,0v-0.2l-0.2,0l0,0.1l-0.3,0v-0.1h-0.1c-0.1-0.1-0.1-0.3,0-0.5h0.1c0.2-0.1,0.1,0.1,0.1,0.2h0.1l0,0.1l0.4,0l0,0.1h0.1
		c0.1,0,0.2,0,0.1,0.1h0.1l0,0.1h0.1l0,0.1l0.1,0l0.1,0.1h0.3v-0.1l0.1-0.1l0.2,0.1h0.2v-0.1l0.1-0.1l0-0.1c0.1-0.1,0.3,0,0.4,0
		l0-0.2h0.1l0-0.1c0.2,0,0.1,0.3,0.1,0.4l0.4,0V31l0.1,0l0,0.1l0.2,0l0-0.2h0.1l0-0.1l0.1-0.1l0,0.1l0.1,0l0,0.1h0.1l0,0
		c0.1-0.1,0.3,0,0.5-0.1l0-0.2H27l0-0.2h0.2l0-0.2h0.2l0-0.2h-0.1C27.1,30,27.3,29.8,27.2,29.7"/>
	
		<rect x="32.8" y="14.5" transform="matrix(0.9998 -1.919646e-02 1.919646e-02 0.9998 -0.2751 0.6348)" class="st1" width="0.3" height="0.2"/>
	<path class="st1" d="M13.9,14.7c-0.1,0,0,0.2-0.2,0.1V15l0.2,0L13.9,14.7z"/>
	<path class="st1" d="M171,28.1L171,28.1l-0.1-0.1h-0.1l0-0.1h0.2V28.1z M170,27.8h-0.2l0-0.2h0.2L170,27.8z M169.7,28.2L169.7,28.2
		l-0.1,0.1l-0.1,0l0-0.1h-0.1l0-0.3l0.3,0V28.2z M169,27.6l-0.3,0l0,0.1h-0.1l0-0.1l-0.1,0l0-0.1l0.2-0.1v0l0.1,0l0.1-0.2h0.1
		L169,27.6z M165,29.8h-0.2v-0.2c0.2,0.1,0-0.2,0.2-0.1V29.8z M163.4,28.2L163.4,28.2L163.4,28.2L163.4,28.2L163.4,28.2z
		 M163.2,30.3l0.2,0v0.4h-0.1l0-0.1l-0.1,0V30.3z M163.1,27.2l-0.1,0v0.1h-0.1l-0.2-0.1h-0.1v0.6l0.3,0l0,0.1h0.1v0.2l-0.1,0v0.1
		h-0.1l0-0.2h-0.1l-0.1-0.1l-0.1,0.1v0h-0.1l0-0.1h-0.1l0-0.1h-0.1l-0.1-0.1h-0.1v-0.3l0.1-0.1l-0.1-0.1h-0.1v-0.2l0.1,0V27h0
		l0.1,0.1h0.1l0-0.2h0.2l0,0.1h0.1l0,0.1h0.1V27.2z M163.1,30.5l-0.2,0l0-0.1h0v-0.1c0.2,0.1,0-0.2,0.1-0.1l0,0.1h0.1V30.5z
		 M162.6,30.3h-0.2v-0.4h0.2L162.6,30.3z M161.7,30.3h-0.2v-0.2h0.2L161.7,30.3z M160,27.2l-0.1,0v0.1h-0.1l0-0.1h-0.1v-0.1
		c0.1,0.1,0-0.2,0.2-0.1l0,0.1l0.1,0V27.2z M159.5,27.4l-0.1,0l0,0.1h-0.2l-0.2-0.1l-0.1,0v-0.1c0.3,0.1,0.1-0.2,0.4-0.1L159.5,27.4
		L159.5,27.4L159.5,27.4z M157.4,29.3l-0.2,0V29l0.1,0l0,0.1h0.1L157.4,29.3z M157.2,27.3L157.2,27.3L157.2,27.3L157.2,27.3
		L157.2,27.3z M156.4,27.9h-0.3l0-0.2h0.3V27.9z M156,26l-0.2,0v-0.1L156,26L156,26z M155,17.7h-0.1l0-0.2l0,0v-0.1h0l0.1,0.1h0.1
		V17.7z M154.9,18l-0.2,0v-0.1L154.9,18L154.9,18z M154.7,18.4l-0.1,0.1v0.1h-0.1v-0.3h0.1L154.7,18.4L154.7,18.4L154.7,18.4z
		 M154.6,18.7L154.6,18.7L154.6,18.7L154.6,18.7L154.6,18.7z M154.5,27L154.5,27L154.5,27l-0.2,0.1v-0.2L154.5,27L154.5,27z
		 M153.9,26.2h-0.1v-0.3h0.1L153.9,26.2z M153.7,18.7l-0.1,0.1l0,0.1h-0.1l0-0.2L153.7,18.7L153.7,18.7z M153.5,25.3l-0.2,0l0-0.1
		h-0.1v-0.2c0.2,0,0-0.2,0.2-0.1l0,0.1h0.1V25.3z M153,23.3L153,23.3c-0.1-0.2,0-0.4-0.1-0.6h-0.1v-0.3l0.2,0V23.3z M155.5,20.1h0.2
		v0.1h-0.2V20.1z M162.6,19.4v0.4l-0.2,0l0-0.4L162.6,19.4z M156.1,19.7h0.3l0,0.1l0.1,0v-0.1l0.2,0v-0.1l0.2-0.1l-0.1-0.1l-0.1,0
		v-0.3h0.2v0.2l0.2,0v0.2l0.3,0l0-0.2l0.2-0.1l-0.2-0.1l-0.1,0l0-0.1h-0.1l0-0.1l-0.1,0v-0.2h0.2l0,0.2l0.1-0.1V19l0.1,0l0-0.1h-0.1
		v-0.2h0.3l0,0.1h0.1l0-0.3h0.2v0.2l0.2,0l0-0.2h0.2l0.1,0.1l0.1-0.1l0-0.1l0.1,0l0-0.1l-0.1,0l0-0.1l-0.3,0l0,0.1h-0.1l-0.1-0.1
		h-0.1v-0.3l0.1,0v-0.1l0.1,0l0-0.1h0.5l0,0.2c-0.1,0-0.2-0.1-0.2,0.1l0,0.1h0.1v0.1l0.5,0l0-0.2l0.2,0v-0.1c0.1,0,0.3,0,0.4,0
		l0-0.1l0.1-0.1v-0.1l0.1-0.1h0.3v0.2l-0.1,0l0,0.1h0.1v0.1l0.6,0l0-0.2h0.2l0,0.2l0.3,0v0.2l0.7,0l0-0.2l0.6,0l0,0.2l0.1,0l0-0.1
		h0.7V18l-0.1,0l0,0.1h-1l0,0.2l-0.2,0v0.7h-0.4l0-0.1l-0.1,0v0.2l-0.1,0v0.1h-0.1l0-0.1l-0.1,0v0.1h-0.1l-0.1-0.1h-0.1l0,0.5l0.3,0
		l0,0.1l0.1,0l0,0.1h0.1l0,0.2l0.4,0v0.2l-0.3,0v0.1l0.2,0l0,0.2l0.1,0l0-0.1l0.2,0l0.1,0.2h0.1v0.1l-0.1,0v0.1h-0.2l0-0.1h-0.1
		l-0.1-0.1h-0.1l0-0.1h-0.1l0-0.1l-0.1,0l0-0.1h-0.1l0-0.1h-0.1l0-0.1h-0.1v-0.1l-0.1,0l-0.1-0.1h-0.1l0-0.1h-0.1l0-0.1h-0.1l0-0.1
		l-1,0l0,0.2l0.1,0l0-0.1h0.3l0,0.2l-0.1,0l0,0.1h-0.2l0-0.1l-0.1,0l0-0.1l-0.1,0.1v0.1l-0.1,0v0.1h-0.6l0-0.1l-0.1,0v-0.1l-1,0
		l0-0.4l-0.4,0l0,0.7l-0.5,0l-0.2-0.1l-0.1,0l0,0.1h-0.3l-0.1-0.1l-0.1,0v0.1h-0.2l0-0.2l-0.1,0v0.1h-0.1L156.1,19.7L156.1,19.7
		L156.1,19.7z M159.7,15.1L159.7,15.1L159.7,15.1L159.7,15.1L159.7,15.1z M160.3,15.2h0.2v0.4h-0.2V15.2z M160.7,15.5h0.7l0-0.2
		l-0.2,0V15l0.6,0v0.2l-0.1,0.1l0.1,0.1l0.1,0c0,0.1,0,0.2,0.1,0.1h0.1l0,0.3l-0.1,0v0l-0.3,0l-0.1-0.1l-0.1,0l0,0.2l-0.1,0l0,0.1
		h-0.2l0-0.2H161l0-0.1h-0.1c0-0.1,0-0.2-0.2-0.1h-0.1V15.5z M163.4,17.3h0.1l0,0.2h-0.1V17.3z M163.9,18.5L163.9,18.5l0.1-0.2h-0.1
		l0-0.1h0.2l0.1,0.4h0.1v0.1l-0.1,0l0,0.1l-0.2,0.1v0.1h-0.3v-0.1l0.1,0v-0.1L163.9,18.5L163.9,18.5z M163.9,16.4h0.3v0.2h-0.3V16.4
		z M164.2,20.8h-0.4l-0.1-0.1h-0.1l0-0.1h0.1l0-0.2h0.1l0,0.1l0.1,0v0.1l0.2,0V20.8z M163.8,21.3l-0.7,0v-0.2l0.7,0L163.8,21.3z
		 M161.9,21h-0.2v-0.2h0.2V21z M161.2,21.8H161v-0.2h0.2V21.8z M160.3,20.3L160.3,20.3l-0.1-0.2h0.1L160.3,20.3z M160.3,22.2l-0.1,0
		v0.1h-0.1l0-0.1H160l0-0.1h0.3L160.3,22.2z M158.3,22.4l-0.2,0.1l0,0.1H158l-0.1-0.1h-0.1v-0.1L158.3,22.4L158.3,22.4z M157.6,22.4
		l-0.1,0v-0.1L157.6,22.4L157.6,22.4z M164.2,19.8h0.3l0,0.2l-0.2,0l0-0.1h-0.1V19.8z M164.6,19.4h0.2v0.2h-0.2V19.4z M164.8,19.7
		l0.2,0v0.2h-0.1L164.8,19.7L164.8,19.7L164.8,19.7z M164.8,18.8l0.2,0l0,0.1L164.8,18.8L164.8,18.8z M165.1,19.5
		c0.2,0.1,0.2-0.1,0.3-0.1v0.2l-0.1,0l0,0.1h-0.2V19.5z M173.1,28.6l0-0.3H173l0-0.1h-0.1l0,0.1l-0.1,0.1v0.1h0.1v0.2h-0.1v0.1
		l-0.1,0l0-0.2h-0.1l0-0.1l-0.7,0v0.1l-0.1,0l0-0.2h-0.1l0-0.1l-0.2,0v-0.1h-0.1c0-0.1,0-0.3,0-0.5h0.3l0-0.1l0.1,0v-0.1l0.4,0v0.1
		l0,0l0,0.1l-0.1,0v0.2l0.4,0l0,0.2l0.4,0v-0.2l-0.2,0l0-0.1l-0.1,0l0-0.1l0.1,0v-0.4l-0.9,0v-0.1l-0.2,0l0-0.2h-0.1l0-0.1l0,0
		c0,0.2,0,0.4-0.1,0.6l-0.2,0v-0.1l-0.2,0l0,0.1l-0.1,0l0-0.2h-0.1l0-0.1l-0.1,0l0,0.1l-0.2,0l0-0.1l-0.1,0v0.1l-0.1,0l0,0.3l-0.4,0
		v-0.1l-0.1,0l0-0.2h-0.1l0-0.1l-0.2,0v-0.1h-0.5v0.1l-0.1,0l0,0.1l-0.1,0l0,0.4h-0.1l0,0.2l-0.1,0c-0.2,0.1-0.1-0.1-0.1-0.2l-0.2,0
		V27l-0.1,0v0.1l-0.1,0l0,0.2l-0.1,0l-0.1-0.1h-0.2l0,0.1l-0.1,0l0,0.2h0.1l0,0.3l-0.2,0v0.2h0.1l0.2,0.1l-0.1,0l0,0.1l-0.2,0.1v0.1
		l0.1,0l0,0.1h0.1c0,0.1,0,0.3,0,0.4h-0.1V29l-0.1,0c-0.2,0.1-0.1-0.1-0.1-0.2l-0.2,0l0-0.9l-0.1,0l0-0.1l0.3-0.1v-0.4l-0.2,0V27
		h-0.1l0,0.1l-0.2,0l0-0.1h-0.1l0-0.2h-0.1l0,0.1c-0.1,0.1-0.3,0.1-0.5,0.1v-0.2l-0.2,0l0,0.2h-0.7l0,0.3h-0.1v0.1l-0.1,0l0-0.1
		h-0.4l0,0.3l0.1,0l0,0.1l-0.2,0l0-0.2h-0.2l0,0.2l-0.2,0l0-0.7l-0.3,0v-0.1l-0.1,0l-0.1-0.1l-0.9,0l0-0.1h0l-0.1-0.1h-0.5l0,0.2
		l-0.8,0v-0.1h-0.1l0-0.1l-1.1,0v-0.2h-0.2l0,0.2h-0.3v0.1l-0.1,0v0.1l-0.1,0.1c-0.2,0.1-0.1-0.1-0.1-0.2h-0.5l0,0.5h-0.1l-0.1-0.1
		h-0.1l0-0.2l-0.1,0l-0.1-0.1l-0.5,0l0-0.2h0.4v-0.3h-0.1l0-0.1l-0.1,0l0,0.1l-0.3,0l0-0.1h-0.1l0-0.1l-0.1,0l-0.1-0.1h-0.1
		l-0.1-0.1h-0.1l-0.1-0.1h-0.1c-0.1-0.2-0.5,0-0.7-0.1v-0.1l0.1-0.1v-0.2h-0.1l0-0.1h-0.1l0-0.1h-0.1l0-0.1h-0.1l0-0.1h-0.1v-0.3
		h0.1v-0.4h-0.1v-0.2h-0.1l0-0.1l-0.1,0l0-0.2l0.2,0v-0.4h0.3v-0.1l0.2,0l0-0.4l0.1,0l0.2,0.1h0.1l0-0.1l0.3,0v-0.1
		c0.1-0.1,0.2,0,0.3,0v-0.1L157,22c0.2,0,0.1,0.3,0.1,0.5h0.1c0.2-0.1,0.1,0.2,0.2,0.2h0.1l0-0.3l0.2,0l0,0.2h-0.1v0.2h0.1
		c0.2,0,0.1,0.2,0.1,0.2h0.4V23l0.1-0.1v-0.1l0.1,0v-0.1l-0.1,0l0-0.1l-0.1,0l0-0.2h0.1l0-0.2h0.2v-0.1l0.3-0.1l0-0.1l0.1,0l0-0.1
		l0.1-0.1l0,0.2l0.2,0l0,0.5h-0.2l0,0.4h0.2l0-0.2h0.1v-0.1l0.1-0.1l0-0.2h0.1l0,0.1h1.1l0-0.1l0.1-0.1v-0.1l0.1,0v-0.1l0.1,0v-0.1
		l0.3-0.1l0-0.4h0.1c0.3,0,0.1,0.2,0.1,0.3h0.1v-0.1l0.1,0l0-0.2c0.2,0,0.5,0,0.7,0V22h0.7l0-0.2l0.5,0V22h0.2l0-0.2h0.1l0,0.1
		l0.1,0l0.1,0.2h0.1c0-0.2,0-0.4,0-0.6l0.1,0c0.3,0,0.1,0.3,0.1,0.4h0.2v-0.6h-0.2v0.1l-0.1,0l0-0.1h-0.1l0-0.1l0.2,0l0-0.3h0.1
		l0.1,0.1h0.2V21l0.1-0.1l0,0.1l0.3,0l0,0l0.1-0.1v-0.1l0.1,0l0-0.2h0.1l0,0.1l0.2,0l0-0.3l0.1,0l0,0.1h0.1l0.1,0.1l-0.1,0l0,0.2
		l0.3,0l0-0.8h-0.1l0-0.2h0v-0.1l-0.1,0v-0.3h0.3v-0.1l-0.3,0l0-0.1l-0.2,0l0,0.1l-0.1,0v-0.2h0.2l0-0.1l0.1-0.1l0,0.1h0.4v-0.2
		l-0.2,0v-0.2h0.1l0-0.1h-0.1l0-0.1l-0.2,0v0.1c-0.1,0.1-0.3,0.1-0.4,0l0-0.2l0,0l0-0.1h-0.1l0-0.1l0.1,0l0.1,0.1l0.2,0v-0.1l0.1,0
		l0.2,0.1h0.1v-0.1h-0.1l0-0.1l-0.2,0l0-0.1h-0.1l0-0.2l-0.2,0l0-0.8h-0.1c-0.2,0.1-0.1-0.1-0.1-0.2l-0.1,0l0-0.1h-0.1l0-0.1l-0.1,0
		l0-0.1l-0.1,0l-0.1-0.1h-0.2l0,0.2l0.2,0l0,0.5l-0.1,0l-0.1-0.1H165v0.1l-0.1,0.1l0-0.1h-0.1c0-0.2,0-0.4,0-0.5l-0.2,0v-0.7l-0.1,0
		l-0.1-0.1l-0.1,0l0-0.1H164l0,0.1l-0.1,0v0.2h0.1l0,0.1l0.2,0l0,0.3h-0.1l0,0.1l-0.1,0.1l0-0.1h-0.4l0,0.3h-0.1l0-0.1h-0.1l0-0.2
		h-0.1c-0.2,0.1-0.1-0.2-0.1-0.2l-0.2,0l0-0.2h0.1l0-0.5l-0.4,0l0-0.2H162l0,0.1l-0.1,0.1l0-0.2h-0.1l-0.1-0.1h-0.1l0,0.2l-0.4,0
		v-0.1h-0.1l0-0.1l-0.1,0l-0.1-0.2h-0.1v0.1l-0.1,0l0-0.1h-0.1l0,0.2h-0.1l0,0.1c-0.1,0.1-0.4,0-0.6,0v-0.1H160l0,0.2h-0.2v0.1
		l-0.1,0.1V15l-0.1,0l0,0.1l-0.1,0l0-0.1l-0.1,0l0-0.2h-0.2c0,0.1,0,0.3,0,0.3l-0.1,0l0-0.2h-0.1l0-0.1h-0.1v0.1l-0.1,0.1l0,0.2
		h-0.1l0-0.1h-0.2l0,0.2h-0.9l0,0.4l-0.2,0v-0.1l-0.1,0v0.1l-0.1,0l-0.1,0.2l-0.1,0l-0.1-0.1l-0.1,0l0-0.2h-0.1v0.1
		c-0.1,0.1-0.3,0-0.4,0l0,0.3h-0.4l0,0.2l-0.3,0v0.1l-0.1,0.1v0.1l-0.1,0l0,0.3l-0.1,0v0.1l-0.1,0.1l0,0.2h0.3V17l0.1-0.1v-0.1
		l0.1,0l0-0.1l0.1,0v-0.1l0.1,0l0-0.4l0.4,0l0,0.2H156l0,0.2l0.2,0l0,0.2H156V17h0.1l0,0.1l0.1,0l0,0.1l-0.1,0v0.1l-0.1,0l0-0.1
		h-0.2v0.1l-0.1,0l-0.1-0.1h-0.1l0-0.1h-0.1l0,0.1l-0.1,0v0.1l-0.1,0l0-0.1h-0.3l0,0.1l-0.1,0v0.1l-0.1,0.1v0.1l-0.1,0v0.1l-0.3,0.1
		l0,0.8h-0.1l0,0.1l-0.1,0.1l0-0.1l-0.2,0v0.1l-0.1,0.1l-0.1-0.1l-0.4,0v0.1l-0.1,0.1v0.3h0.1l0,0.2h-0.1v0.1h0.1c0,0.1,0,0.3,0,0.5
		h-0.1v0.1l-0.1,0v0.1l0.1,0l0,0.1l-0.1,0.1V20c-0.1,0.1-0.3,0-0.4,0v0.2h0.1l0,0.1l-0.3,0l0,0.2h0.1c0.1,0,0.2,0,0.1,0.1h0.1l0,0.1
		l-0.1,0v0.2h0.1c0.2,0,0.1,0.2,0.1,0.3h0.1l0,0.1h0.1l0.1,0.1l-0.1,0.1v0.1l-0.1,0v0.1c-0.1,0.1-0.3,0-0.4,0l0,0.7l-0.1,0l0,0.4
		h0.1l0-0.1l0.2,0l0,0.2h-0.1l0,0l-0.2,0v0.1l-0.1,0v0.7h0.1l0.1,0.3h0.1l0-0.2h0.1l0-0.6h0.1l0.1,0.1h0.1l0.1,0.1h0.1l0.1,0.1
		l-0.1,0v0.1l-0.2,0.1l0,0l-0.1,0l0,0.5h-0.1l0,0.2l0.3,0l0,0.2h-0.4v0.8l0.8,0l0,0.1l0.2,0l0,0.2h-0.1v0.2l0.1,0l0,0.1h0.1l0.1,0.1
		c0.1,0,0.3,0,0.3,0l0,0.7l-0.1,0c-0.2,0.1-0.1-0.1-0.1-0.2l-0.3,0l0-0.1h-0.1l0-0.1l0.1,0l0-0.2h-0.2v0.1l-0.1,0l0,0.2l0.1,0l0,0.1
		h0.1l0.1,0.1h0.1l0,0.1h0.1l0,0.1h0.1l0,0.1h0.1l0,0.1h0.1c0.2-0.1,0.1,0.1,0.1,0.2h0.1c0.2-0.1,0.1,0.1,0.2,0.2l0.5,0l0,0.1h0.1
		l0,0.1l0.1,0c0.1,0.1,0,0.4,0,0.5l0.5,0v0.1h0.1l0,0.1l0.1,0l0,0.1h0.1l0,0.1l-0.1,0v0.2h0.4l0-0.2h0.2v-0.2l-0.1,0
		c-0.2,0-0.1-0.2-0.1-0.2l-0.4,0v-0.4h-0.1v0.2l-0.1,0v0.1l-0.1,0.1l0-0.2l-0.1,0l0-0.1l-0.1,0l0-0.3l0.3,0V28l0.1,0v0.1h0.3v-0.1
		l0.1-0.1l0.1,0.1h0.1l0,0.1l-0.1,0l0,0.1l-0.1,0.1v0.1l0.3,0l0,0.1l0.1,0c0,0.2,0.5,0,0.7,0.1l0,0.2h-0.2l0,0.1l-0.1,0v0.1l-0.1,0
		v0.1l-0.1,0.1l0,0.1l-0.2,0l0,0.1h0.1l0,0.1l0.1,0c0.2-0.1,0.1,0.1,0.1,0.2h0.1l0-0.2l0.1,0v-0.1l0.1,0l0.1,0.2h0.1l0,0.1h0.1
		l0-0.1l0.1-0.1c0.3,0,0.1,0.2,0.2,0.3h0.1l0-0.1l0.1-0.1v-0.2h-0.1l0-0.1l0.1,0v-0.1c0.1-0.1,0.2,0,0.4,0v0.1l0.2,0v-0.1l0.1,0
		v-0.1h-0.1v-0.2l0.4,0v0.2l0.3,0v0.3l0.1,0l0,0.1l-0.1,0.1l0,0.1l-0.1,0l-0.1-0.1l-0.1,0l0-0.1h-0.1v0.2h-0.2v0.2h0.7l0-0.5l0.1,0
		c0.2-0.1,0.1,0.1,0.2,0.2h0.2l0-0.2h0.1l0,0.1h0.1l0,0.1l0.1,0v0.2h-0.5l0,0.4h0.2v-0.1l0.1-0.1l0,0.1h0.1l0,0.2h0.1l0-0.1l0.1,0
		c0.2-0.1,0.1,0.1,0.2,0.2h0.4v-0.1l0.1-0.1v-0.1l0.1,0v-0.1l0.3,0l0-0.1l0.1-0.1l0-0.1h-0.1l0-0.1h-0.1l0,0.1l-0.8,0l0-0.2h0.1
		v-0.2l-0.2,0l0-0.2h0.1c0.1,0,0.1,0.1,0.1,0.1l0.1,0v-0.1l0.1-0.1l0,0.1l0.1,0l0,0.1l0.3,0v0.2l0.5,0v0.2h-0.1v0.2h0.1l0.1,0.1h0.1
		l0,0.1h0.1l0,0.1h0.1l0,0.1h0.1l0.1,0.1l0.3,0l0-0.1l0.1-0.1l0-0.1l0.3,0v0.2h0.5l0-0.1l0.1-0.1l0-0.1l0.3,0l0-0.5l-0.1,0l0-0.2
		l-0.2,0l0-0.1h-0.1l0-0.1l0.1-0.1l0-0.2l0.1,0c0.1,0,0.2,0,0.2,0.1h0.1c0.2-0.1,0.1,0.1,0.1,0.2h0.1l0.1,0.1h0.5l0-0.2h0.1
		c0.2-0.1,0.1,0.1,0.1,0.2h0.1l0,0.1h0.1l0,0.1l0.7,0l0-0.1l0.1-0.1l0-0.1h-0.1l0-0.3h-0.1l0,0.2h-0.1l0,0.1l-0.2,0l0-0.2h0.1v-0.2
		l-0.1,0l0-0.1l0.2,0v-0.1l0.1,0l0.1,0.1h0.1l0,0.1l0.1,0l0,0.1l0.1,0l0,0.3l0.1,0l0-0.7l0.1,0l0,0.1l0.1,0c0.1,0.1,0.1,0.4,0,0.6
		l-0.1,0v0.1h0.1l0.1,0.1h0.2v-0.1l0.1-0.1l0.1,0.2h0.1l0,0.1h0.1l0-0.1l0.1-0.1c0.3-0.1,0.1,0.2,0.1,0.3h0.5v-0.1l0.1,0l0-0.1
		l-0.1,0l0-0.1h-0.1l0,0.1l-0.2,0l0-0.1l-0.1,0l0-0.1l0.1,0l0-0.1l0.1-0.1l0,0.1h0.4l0-0.2l0.4,0l0-0.2h0.2l0-0.2l0.1,0l0.2,0.1h0.1
		l0-0.2h0.1l0-0.1l0.1,0v0l0.1-0.1l0-0.2h0.3V29l0.1,0v-0.1l-0.2,0l0.1-0.2h0.1l0,0.1l0.1,0l0-0.1l0.2,0l0,0.2h-0.1V29h0.1l0,0.1
		l0.3,0l0,0.1h0.1l0.1,0.2h0.1l0,0.1l0.1,0v-0.1l0.1,0l0,0.1h0.1l0,0.1h0.1l0,0.1h0.1l0,0.2h0.1l0-0.2h0.1l0-0.1
		c0.1-0.1,0.4-0.1,0.6,0v0.3l0.1,0v-0.1l0.1-0.1v-0.3h-0.1l0-0.2h0.2v-0.1l0.1,0l0-0.1L172,29l0-0.4h0.1c0.2,0,0.1,0.3,0.1,0.4
		l0.4,0v0.2h0.3l0-0.1l0.1,0v-0.1H173c-0.1-0.1,0-0.3,0-0.5H173.1z"/>
	<rect x="16.9" y="15.1" class="st1" width="0.1" height="0.1"/>
	<polygon class="st1" points="78.4,15.5 78.2,15.5 78.2,15.4 78.1,15.4 78.1,15.6 78.4,15.6 	"/>
	
		<rect x="99.2" y="15.6" transform="matrix(0.9985 -5.450941e-02 5.450941e-02 0.9985 -0.708 5.4334)" class="st1" width="0.1" height="0.2"/>
	
		<rect x="109.1" y="16" transform="matrix(0.9996 -2.841080e-02 2.841080e-02 0.9996 -0.4135 3.1074)" class="st1" width="0.2" height="0.2"/>
	<rect x="57.4" y="16.7" class="st1" width="0.2" height="0.4"/>
	<polygon class="st1" points="67.2,17.6 67.6,17.6 67.6,17.4 67.4,17.4 67.4,17.3 67.3,17.3 67.3,17.2 67.2,17.2 67.1,17.5 
		67.1,17.5 67.1,17.5 67.1,17.5 	"/>
	<polygon class="st1" points="66.4,17.8 66.5,17.8 66.5,17.7 66.6,17.6 66.6,17.5 66.5,17.5 66.5,17.5 66.3,17.5 66.3,17.6 
		66.4,17.6 	"/>
	<polygon class="st1" points="83.4,17.4 83.3,17.4 83.3,17.6 83.2,17.6 83.2,17.8 83.5,17.8 83.5,17.5 83.5,17.5 	"/>
	<polygon class="st1" points="139.6,18.3 139.6,18.2 139.5,18.2 139.5,18.3 	"/>
	<polygon class="st1" points="16.3,19.2 16.5,19.2 16.5,18.8 16.3,18.8 	"/>
	<rect x="159.3" y="19.6" class="st1" width="0.4" height="0.2"/>
	<polygon class="st1" points="166.7,19.7 166.7,19.6 166.6,19.6 166.6,19.7 	"/>
	<polygon class="st1" points="97.8,21.4 97.9,21.3 97.9,21.2 97.7,21.2 97.7,21.4 97.8,21.4 	"/>
	<polygon class="st1" points="152.6,21.7 152.7,21.7 152.7,21.7 152.8,21.6 152.8,21.5 152.7,21.5 152.7,21.4 152.5,21.4 
		152.5,21.6 152.5,21.6 	"/>
	<polygon class="st1" points="105.9,22.2 105.9,22.2 105.9,22.4 106.2,22.4 106.2,22.2 106.1,22.2 106.1,22.1 106.2,22.1 106.2,22 
		106.3,21.9 106.3,22.2 106.5,22.2 106.5,21.7 106,21.7 	"/>
	<polygon class="st1" points="165,21.9 165.1,21.9 165.1,21.8 165.2,21.8 165.2,21.6 165,21.6 	"/>
	<path class="st1" d="M38.6,22.6L38.6,22.6l-0.1-0.1c-0.1,0,0,0.2-0.2,0.1l0,0.2l0.3,0V22.6z"/>
	<polygon class="st1" points="97.8,22.3 97.7,22.3 97.7,22.4 97.8,22.4 	"/>
	<rect x="161.2" y="22.3" class="st1" width="0.9" height="0.2"/>
	<path class="st1" d="M57,22.9l-0.2,0l0,0.2l0.1,0c0.2-0.1,0.1,0.1,0.1,0.2l0.1,0l0,0.1l0.1,0l0-0.3h-0.1l0-0.1H57L57,22.9z"/>
	<polygon class="st1" points="110.7,23 110.8,23 110.8,23 110.9,22.9 110.9,22.8 110.8,22.8 110.8,22.7 110.6,22.7 110.6,22.9 
		110.7,22.9 	"/>
	<polygon class="st1" points="75.2,23.3 75.3,23.3 75.3,23 75.1,23 75.1,23.2 75.2,23.2 	"/>
	<polygon class="st1" points="85.1,23.3 85.2,23.3 85.2,23.3 85.3,23.2 85.3,23 85.1,23 	"/>
	<path class="st1" d="M76,23.5c-0.2-0.1-0.1,0.2-0.3,0.1v0.1l0.1,0l0.1,0.2h0.5l0-0.2h0.1l0-0.1h-0.1l0-0.1h-0.2l0,0.2H76L76,23.5z"
		/>
	<path class="st1" d="M86.5,23.9h0.2v-0.2l-0.1,0l0-0.1c-0.2,0,0,0.2-0.2,0.1l0,0.1h0.1L86.5,23.9z"/>
	<polygon class="st1" points="132.2,24.3 132.3,24.3 132.3,24.2 132.2,24.2 132.2,24.1 131.9,24.1 131.8,24.2 131.8,24.3 
		131.7,24.3 131.7,24.4 131.6,24.4 131.6,24.6 131.6,24.6 131.7,24.7 132.1,24.8 132.1,24.7 132.2,24.6 132.2,24.7 132.3,24.7 
		132.3,24.8 132.2,24.9 132.2,24.9 132,25 132,25.1 132.4,25.1 132.4,25.2 132.5,25.2 132.5,25.1 132.6,25.1 132.6,24.5 132.2,24.5 
			"/>
	<path class="st1" d="M80,24.7h-0.2l0,0.6H80l0-0.2l0.2,0l0-0.2h-0.1C79.9,24.9,80.1,24.8,80,24.7"/>
	<rect x="127.4" y="24.6" class="st1" width="0.1" height="0.2"/>
	<polygon class="st1" points="54.2,25.4 54.3,25.5 54.5,25.5 54.5,25.3 54.3,25.3 	"/>
	<polygon class="st1" points="136.9,25.3 136.9,25.1 136.7,25.1 136.7,25.4 136.8,25.4 136.8,25.3 	"/>
	<rect x="132.7" y="25.3" class="st1" width="0.4" height="0.2"/>
	<polygon class="st1" points="83.4,25.9 82.7,25.9 82.7,26.1 83.3,26.1 	"/>
	<path class="st1" d="M84,26L84,26c-0.3-0.2-0.1,0.2-0.4,0l0,0.1l-0.1,0v0.2h0.2v-0.1l0.1-0.1l0-0.2H84z"/>
	<path class="st1" d="M15.4,27h0.2l0-0.4l-0.4,0v-0.2h-0.5l-0.1,0.1v0.1h0.1l0,0.1h0.1v-0.1l0.1-0.1l0.1,0.1l0.1,0l0,0.1l-0.1,0
		l0,0.2h0.2l0-0.2h0.1C15.4,26.7,15.3,26.9,15.4,27"/>
	
		<rect x="28.6" y="26.3" transform="matrix(0.9989 -4.763171e-02 4.763171e-02 0.9989 -1.2247 1.3956)" class="st1" width="0.1" height="0.1"/>
	<polygon class="st1" points="158.4,26 158.4,26.2 159,26.2 159,26.1 158.9,26.1 158.9,26 	"/>
	<polygon class="st1" points="167.1,26.8 167,26.8 167,27.1 167.1,27.1 	"/>
	<polygon class="st1" points="11.2,27.4 11.3,27.4 11.3,27.5 11.5,27.5 11.5,27.3 11.2,27.3 	"/>
	<rect x="18.5" y="27.4" class="st1" width="0.2" height="0.3"/>
	<polygon class="st1" points="19,27.7 19.2,27.7 19.2,27.4 19,27.4 	"/>
	<path class="st1" d="M21.4,27.6v-0.1h-0.1l-0.1-0.1c-0.1,0,0,0.2-0.2,0.1v0.3h0.1l0,0.1h0.1l0-0.3H21.4z"/>
	<rect x="150.6" y="27.1" class="st1" width="0.2" height="0.1"/>
	<rect x="25.9" y="27.6" class="st1" width="0.2" height="0.3"/>
	<polygon class="st1" points="74.6,27.5 74.4,27.5 74.4,27.8 74.6,27.8 	"/>
	<rect x="22" y="27.8" class="st1" width="0.2" height="0.2"/>
	<rect x="78.9" y="27.9" class="st1" width="0.2" height="0.2"/>
	<polygon class="st1" points="42,28.6 42.2,28.6 42.2,28.4 42,28.4 	"/>
	
		<rect x="21" y="28.7" transform="matrix(4.819602e-02 -0.9988 0.9988 4.819602e-02 -8.6358 48.3912)" class="st1" width="0.1" height="0.1"/>
	<path class="st1" d="M150.3,28.6l0,0.2l-0.1,0v-0.1l-0.4,0v0.4h0.2l0-0.2h0.1V29h0.1v0.1h0.1l0-0.1l0.1-0.1v-0.1l0.1,0l0-0.1l0.1,0
		l0-0.1l0.1,0v-0.2l-0.3,0C150.5,28.5,150.4,28.6,150.3,28.6"/>
	<path class="st1" d="M75.5,29.2c-0.1-0.1,0,0.2-0.2,0.1l0,0.2l0.2,0V29.2z"/>
	<polygon class="st1" points="169.2,29.3 169.2,29.4 169.3,29.4 169.3,29.5 169.5,29.5 169.5,29.4 169.6,29.4 169.6,29.5 
		169.8,29.5 169.8,29.2 169.3,29.2 	"/>
	<rect x="47.5" y="29.7" class="st1" width="0.2" height="0.3"/>
	<path class="st1" d="M87.4,29.8c-0.2-0.1,0,0.2-0.2,0.1l0,0.1l0.3,0v-0.1h-0.1L87.4,29.8z"/>
	<rect x="88" y="29.8" class="st1" width="0.4" height="0.2"/>
	<path class="st1" d="M169.6,29.8L169.6,29.8L169.6,29.8L169.6,29.8l0-0.2h-0.1l0,0.2h-0.1v0.1l-0.1,0.1l0-0.3l-0.2,0v0.7h0.1
		c0.2-0.1,0.1,0.1,0.1,0.2h0.3l0-0.2l0.4,0v-0.2l-0.4,0L169.6,29.8z"/>
	<polygon class="st1" points="170,29.6 169.8,29.6 169.8,29.8 170.2,29.8 170.1,29.7 170,29.7 	"/>
	<polygon class="st1" points="31.3,30.6 31.5,30.6 31.5,30.2 31.3,30.2 	"/>
	<polygon class="st1" points="163.5,30 163.6,30 163.6,29.9 163.5,29.9 	"/>
	<polygon class="st1" points="31.8,30.3 31.8,30.3 31.8,30.6 31.9,30.6 31.9,30.4 31.9,30.4 	"/>
	<polygon class="st1" points="69.2,30.4 69.2,30.4 69.1,30.3 68.8,30.3 68.8,30.4 68.9,30.4 68.9,30.5 69,30.5 69,30.6 69.1,30.6 
		69.1,30.8 69.2,30.8 69.2,30.7 69.3,30.6 69.3,30.6 69.3,30.6 	"/>
	<polygon class="st1" points="168.6,30.3 168.6,30.3 168.4,30.2 168.3,30.2 168.3,30.2 168.2,30.3 168.2,30.4 168.3,30.4 
		168.3,30.5 168.8,30.5 168.9,30.1 168.6,30.1 	"/>
	<path class="st1" d="M164.5,30.4L164.5,30.4l-0.1-0.1l-0.2,0v-0.1c-0.1,0-0.1,0.2-0.3,0.1v0.4l0.2,0v-0.1l0.3,0l0,0.1l0.1,0l0-0.1
		l0.1,0l0,0.2l0.1,0v0.1h0.1l0-0.3l0.2,0l0,0.3h-0.1v0.1l0.3,0l0-0.2h0.3l0-0.1l0.1,0l0-0.2L164.5,30.4L164.5,30.4z"/>
	<path class="st1" d="M170.4,30.2c-0.2-0.1,0,0.2-0.2,0.1v0.1h0.1l0,0.1h0.2l0-0.2l-0.1,0L170.4,30.2z"/>
	<polygon class="st1" points="14.8,30.9 14.9,30.9 14.9,30.8 14.8,30.8 	"/>
	<path class="st1" d="M49,30.9c-0.1,0,0,0.2-0.2,0.1l0,0.2h0.1l0,0.1h0.2L49,30.9l0,0.1L49,30.9z"/>
	<polygon class="st1" points="49.2,31.1 49.3,31.1 49.3,31.2 49.4,31.2 49.4,30.9 49.2,30.9 	"/>
	<path class="st1" d="M49.8,31.1v-0.2h-0.2l0,0.4h-0.2l0,0.2h0c0.2-0.1,0.1,0.1,0.2,0.2h0.2l0-0.2l0.2,0l0-0.4L49.8,31.1z"/>
	<path class="st1" d="M68.7,31.1L68.7,31.1l0.1,0.1L68.7,31.1l0.2,0V31C68.8,30.9,68.9,31.2,68.7,31.1"/>
	<polygon class="st1" points="85.6,31.2 85.6,31.3 86,31.3 86,31.1 85.8,31.1 	"/>
	
		<rect x="18.1" y="31.5" transform="matrix(1 -9.909589e-03 9.909589e-03 1 -0.3118 0.1834)" class="st1" width="0.6" height="0.2"/>
	<rect x="19.7" y="31.5" class="st1" width="0.2" height="0.2"/>
	<polygon class="st1" points="20,31.6 20.3,31.6 20.3,31.5 20,31.5 	"/>
	<polygon class="st1" points="115.4,31.4 115.7,31.4 115.7,31.2 115.4,31.2 	"/>
	<polygon class="st1" points="79.7,31.7 79.7,31.7 79.7,31.8 79.5,31.8 79.5,31.9 79.6,31.9 79.6,31.9 79.8,31.8 79.8,31.5 
		79.7,31.5 	"/>
	<polygon class="st1" points="80,31.7 80,31.7 80,31.5 80,31.5 	"/>
	<rect x="79.8" y="32" class="st1" width="0.1" height="0.1"/>
</g>
</svg>
