<svg xmlns="http://www.w3.org/2000/svg" width="1916.685" height="342.54" viewBox="0 0 1916.685 342.54"><g transform="translate(-3.315 -737.96)"><path d="M1652.327,1079.05,1755,993.277l39-9-7,37-23,45L1734.545,1080Z" fill="#fff"/><path d="M1920,989c-14.589-3.6-29.875-5.268-44.766-6.428-3.157-.168-6.312-.391-9.458-.381-4.128-.035-8.278.169-12.417-.179-42.3-3.561-84.67-6.481-127.11-6.363-43.686.122-87.349-1.053-131.1,1.328-37.194,2.025-74.5,3.221-111.676,5.565-59.752,3.768-119.4,9.175-179.014,14.829-102.007,9.673-203.888,20.579-305.887,30.347C912.339,1035.976,826,1042.645,739.5,1046.9c-58.281,2.864-116.689,2.916-175.049,3.806l-58.027-.157c-7.6-2.339-15.582.55-23.194-1.66-20.473-.871-41.029-.915-61.391-2.912-13-1.275-26.156-.817-38.9-2.712-15.857-2.358-31.8-2.479-47.652-4.08-11.74-1.186-23.8-1.448-35.447-2.639-22.424-2.292-44.936-3.67-67.332-6.208-2.608-.691-5.7-1.89-7.94-.868-45.229-5.986-85.508-29.707-130.3-37.255-1.7.035-3.313-1.5-5.083-.288-25.353-5.689-51.085-8.736-76.954-10.772-4.441-.35-8.982-1.216-8.9,6.165.3,28.816.1,57.638.252,86.456.011,2.08,1.382,4.153,2.12,6.229H1428.977c11.9-4.8,22.31-12.473,33.919-17.762,54.9-25.014,112.426-38.374,173.025-37.764,4.368.044,8.843.606,12.761-.583-30.5,11.666-58.476,29.149-86.362,46.776-3.284,2.076-7.6,4.01-6.628,9.333H1659.78c21.655-20.79,44.038-40.716,68.419-58.371,25.591-18.533,43.322-27.249,60.995-29.152-28.794,20.6-52.817,45.15-71.738,74.474-2.466,3.822-6.841,7.547-3.369,13.049H1920" fill="#73c953"/><path d="M1432,1080c14.875-13.736,33.384-21.261,51.682-28.7a410.833,410.833,0,0,1,115.308-28.031c19.844-1.947,39.416-.688,60.687-1.98-4.947,5.515-10.351,6.062-14.951,8.179-29.061,13.377-56.435,29.724-83.211,47.1-1.181.766-1.878,2.271-2.8,3.432Z" fill="#3da513"/><path d="M1868.035,986.153c-82.3-4.006-164.65-6.262-247.026-4.358-47.229,1.091-94.426,4.039-141.6,6.718-28.767,1.634-57.5,4.026-86.2,6.652-36.862,3.374-73.656,7.466-110.505,10.986-33.89,3.238-67.84,5.862-101.714,9.248-32.724,3.27-65.364,7.377-98.082,10.72-26.427,2.7-52.924,4.718-79.374,7.21-29.407,2.769-58.776,5.946-88.2,8.5-11.189.973-22.435,1.924-33.614,2.453-42.7,2.021-85.3,5.5-128,7.6-60.5,2.969-120.964,3.994-181.492,3.935a20.87,20.87,0,0,1-9.752-2.336c10.25-4.193,21.259-3.133,31.878-3.957,85.2-6.608,170.155-15.572,255.117-24.578,76.342-8.092,152.752-15.552,229.121-23.408,85.764-8.822,171.656-16.275,257.713-21.4,111.726-6.646,223.555-9.232,335.5-6.228,55.739,1.5,114.588,2.973,170.195,7.085,9.744.721,22,2,26,2A2.709,2.709,0,0,1,1868.035,986.153Z" fill="#3da513"/><path d="M1499.225,795.033c-4.4-4.3-10.2-6.234-15.454-9.113-3.437-1.885-9.078-2.264-8.841-7.4.254-5.508,6.127-4.807,9.7-5.7,34.248-8.574,68.581-16.815,102.88-25.187,13.092-3.2,26.161-6.485,38.982-9.667,2.246,1.5.986,2.863.337,4.032-14.913,26.87-30.04,53.624-44.7,80.627-4.613,8.494-9.774,9.472-18.372,5.528-7.421-3.4-13.628-11.082-23.344-8.288-23.249-12.514-23.467-14.043-1.414-28.2,21.792-13.987,43.614-27.943,61.208-38.6C1569.774,765.583,1535.317,782.226,1499.225,795.033Z" fill="#fee87b"/><path d="M1499.225,795.033c13.211-10.21,29.574-13.789,44.386-20.612,21.074-9.709,42.659-18.321,64.022-27.41,1.691-.72,3.285-1.91,6.616-.156-12.876,8.288-25.146,16.2-37.436,24.091-15.775,10.124-31.47,20.377-47.4,30.264-6.549,4.066-5.637,6.522.524,9.9,3.942,2.159,10.045,2.276,10.468,8.753-20.552,20.532-20.556,20.534-32.421-5.461C1505.046,807.952,1502.144,801.489,1499.225,795.033Z" fill="#febc16"/><path d="M1866.437,920.632c-17.456-3.146-26.75-12.877-24.656-25.815,1.639-10.135,9.485-17.94,19.32-19.03,10.515-1.166,18.4,3.012,22.965,12.411,4.844,9.979,2.441,18.911-5.591,26.273-2.139,1.961-5.05,3.091-7.607,4.6C1869.358,919.5,1868.621,922.1,1866.437,920.632Z" fill="#fe4444"/><path d="M89.772,942.7c-5.038-3.221-10.039-6.42-11.52-12.852-2.175-9.444,2.576-18.312,11.6-21.39a17.855,17.855,0,0,1,21.968,10.511,17.481,17.481,0,0,1-9.614,22.287c-2.684,1.167-5.746,1.474-8.635,2.175C92.068,944.4,90.636,945.009,89.772,942.7Z" fill="#24e15c"/><path d="M1858.435,950.851c-2.77,1.1-5.529,3.1-8.314,3.134-7.4.1-12.372-4.068-13.024-11.323-.655-7.277,3.327-12.271,10.911-13.088,7.458-.8,12.386,2.672,13.556,10.25.39,2.527-.243,5.21-.409,7.821A3.09,3.09,0,0,1,1858.435,950.851Z" fill="#27e25e"/><path d="M1875.485,936.255c.267-2.918-.142-6.113.935-8.7,2.528-6.064,7.727-8.2,13.8-6.082,5.511,1.921,8.473,6.495,7.117,12.349-1.416,6.117-5.791,9.6-12.311,8.923-2.444-.253-4.727-2.048-7.083-3.14A2.965,2.965,0,0,1,1875.485,936.255Z" fill="#28e25e"/><path d="M1875.485,936.255q1.228,1.676,2.46,3.352c-2.775,1.98-4.938,4.027-4.853,8.03.268,12.567.141,25.143.167,37.715-1.389,2.525-3.006,3.585-5.222.8q.018-1.228.038-2.456c.118-3.291-.171-6.659.432-9.862,1.886-10.025-.976-17.8-10.07-22.984l2.719-3.2c2.112,1.2,3.759,4.367,6.366,3.229,2.191-.956,1.108-3.972.966-6.025-.558-8.082-1.348-16.147-2.051-24.218q2.217-.781,4.433-1.56C1872.919,924.665,1870.192,931.525,1875.485,936.255Z" fill="#d49d23"/><path d="M97.561,964.015c-1.984-7.542.954-12.485,8.533-13.7,5.544-.89,9.334,2.655,10.423,7.84,1.261,6.011-2.217,9.762-7.744,11.652-3.491,1.193-6.364-1.5-9.628-1.868C97.425,967.106,97.464,965.572,97.561,964.015Z" fill="#fe4c4b"/><path d="M97.561,964.015q.788,1.963,1.58,3.925c-11.588,6.681-6.031,17.663-6.858,27.047-1.844,2.532-3.423.392-5.084-.285-.737-11.989,3.52-24.366-2.835-35.916a9.457,9.457,0,0,1,2.557-8.841q1.427-3.62,2.852-7.24,1.9.36,3.8.727c-.553,6.548-1.587,13.1-1.531,19.64C92.109,971.047,95.414,965.272,97.561,964.015Z" fill="#dbac40"/><path d="M86.921,949.945c1.25,3.547.151,6.423-2.554,8.842-5.48,3-10.968,3.806-14.429-2.441-2.368-4.275-1.322-8.791,3.258-11.556C79.85,940.774,83.2,945.956,86.921,949.945Z" fill="#28e15e"/><path d="M1448.624,794.774c6.808-3.365,13.885-5.918,22.228-4.821l-21.221,7.427Z" fill="#fed264"/><path d="M1462.182,804.407l17.446-9.484,1.458,2.548C1475.608,801.222,1469.843,804.475,1462.182,804.407Z" fill="#fed05d"/><path d="M1513.214,846.1l-13.145,11.752-2.005-2.039C1502.178,851.613,1506.156,847.278,1513.214,846.1Z" fill="#fece55"/><path d="M1552.352,834.325c-1.175,5.129-4.105,8.709-10.178,12.014C1544.551,840.024,1547.8,836.633,1552.352,834.325Z" fill="#fed56c"/><path d="M504.447,1053.324c-7.745-.372-15.695,2.1-23.194-1.66C489.035,1051.516,496.867,1050.676,504.447,1053.324Z" fill="#fee01b"/><path d="M1684,1080.5a.5.5,0,0,1-.393-.81c.029-.036,2.888-3.653,7.7-9.291a.5.5,0,1,1,.759.651c-4.8,5.621-7.65,9.224-7.678,9.26A.5.5,0,0,1,1684,1080.5Zm15.611-18.322a.5.5,0,0,1-.372-.834c2.7-3.011,5.438-5.992,8.137-8.862a.5.5,0,0,1,.728.686c-2.693,2.863-5.425,5.838-8.121,8.844A.5.5,0,0,1,1699.611,1062.178Zm16.475-17.5a.5.5,0,0,1-.356-.852c2.886-2.91,5.777-5.742,8.593-8.417a.5.5,0,0,1,.69.725c-2.81,2.669-5.694,5.493-8.572,8.4A.5.5,0,0,1,1716.086,1044.682Zm17.432-16.532a.492.492,0,0,1-.374-.169.5.5,0,0,1,.043-.7c3.107-2.751,6.194-5.371,9.175-7.787a.5.5,0,0,1,.629.778c-2.97,2.406-6.045,5.016-9.142,7.757A.494.494,0,0,1,1733.518,1028.15Zm18.686-15.085a.5.5,0,0,1-.293-.905c3.416-2.467,6.784-4.722,10.011-6.7a.5.5,0,0,1,.523.852c-3.206,1.966-6.552,4.207-9.948,6.659A.5.5,0,0,1,1752.2,1013.065Z" fill="#febb15"/></g></svg>