<svg xmlns="http://www.w3.org/2000/svg" width="16" height="16" viewBox="0 0 16 16"><defs><style>.a{fill:#6c6c6c;}</style></defs><path class="a" d="M11.52,0H.64A.64.64,0,0,0,0,.64V11.52a.64.64,0,0,0,.64.64H11.52a.64.64,0,0,0,.64-.64V.64A.64.64,0,0,0,11.52,0Zm-.64,10.88H1.28V1.28h9.6Z"/><g transform="translate(13.12 13.12)"><path class="a" d="M421.44,419.84v1.6h-1.6v1.28h2.24a.64.64,0,0,0,.64-.64v-2.24Z" transform="translate(-419.84 -419.84)"/></g><g transform="translate(8.198 14.72)"><rect class="a" width="3.443" height="1.28"/></g><g transform="translate(3.84 13.12)"><path class="a" d="M124.16,421.44v-1.6h-1.28v2.24a.64.64,0,0,0,.64.64h2.24v-1.28Z" transform="translate(-122.88 -419.84)"/></g><g transform="translate(13.12 3.84)"><path class="a" d="M422.08,122.88h-2.24v1.28h1.6v1.6h1.28v-2.24A.64.64,0,0,0,422.08,122.88Z" transform="translate(-419.84 -122.88)"/></g><g transform="translate(14.72 8.198)"><rect class="a" width="1.28" height="3.443"/></g></svg>