<svg xmlns="http://www.w3.org/2000/svg" width="38.203" height="36" viewBox="0 0 38.203 36"><defs><style>.a{fill:#fdc333;}</style></defs><g transform="translate(0 -0.5)"><path class="a" d="M166.669,10.757c0-4.265-4.167-8.068-7.835-10.257C155.167,2.69,151,6.494,151,10.757c0,4.683,5.017,8.431,6.715,9.566v2.745h2.238V20.324C161.653,19.189,166.669,15.44,166.669,10.757Zm-13.431,0c0-3.464,4.067-6.572,5.6-7.619a20.2,20.2,0,0,1,2.579,2.093c1.376,1.328,3.016,3.364,3.016,5.526,0,2.8-2.65,5.361-4.477,6.8V13.46l3.03-3.03L161.4,8.847l-1.447,1.447V6.28h-2.238v4.014l-1.447-1.447-1.583,1.583,3.03,3.03v4.095c-2.063-1.625-4.477-4.169-4.477-6.8Zm0,0" transform="translate(-139.733)"/><path class="a" d="M288.789,62.969a5.6,5.6,0,0,0-5.6,5.6v7.284l-.176.247a5,5,0,0,0-6.763,1.168L272,82.934V94.308h11.192V91.26l6.715-11.192v-17.1Zm-1.119,16.479L280.954,90.64v1.429h-6.715V83.681l3.806-5.074a2.762,2.762,0,0,1,3.67-.688L277.8,83.392l1.822,1.3,5.8-8.127v-8a3.364,3.364,0,0,1,2.238-3.166Zm0,0" transform="translate(-251.704 -57.808)"/><path class="a" d="M13.654,77.263A5,5,0,0,0,6.892,76.1l-.176-.247V68.565a5.6,5.6,0,0,0-5.6-5.6H0v17.1L6.715,91.26v3.048H17.908V82.934Zm2.015,14.806H8.954V90.64L2.238,79.447V65.4a3.363,3.363,0,0,1,2.238,3.166v8l5.8,8.126,1.822-1.3L8.194,77.919a2.762,2.762,0,0,1,3.67.688l3.806,5.074Zm0,0" transform="translate(0 -57.808)"/></g></svg>