<svg xmlns="http://www.w3.org/2000/svg" width="36" height="36" viewBox="0 0 36 36"><defs><style>.a{fill:#fdc333;}</style></defs><path class="a" d="M18,0A18,18,0,1,0,36,18,18,18,0,0,0,18,0ZM33.84,18a15.768,15.768,0,0,1-3.91,10.4L7.6,6.07A15.827,15.827,0,0,1,33.84,18ZM2.16,18A15.768,15.768,0,0,1,6.07,7.6L28.4,29.93A15.827,15.827,0,0,1,2.16,18Z"/><circle class="a" cx="1.419" cy="1.419" r="1.419" transform="translate(17.5 11.359)"/><circle class="a" cx="0.847" cy="0.847" r="0.847" transform="translate(17.737 8.757)"/><circle class="a" cx="1.754" cy="1.754" r="1.754" transform="translate(14.622 5.88)"/><path class="a" d="M45.04,55.4l-4.406-7.52v-4.5c.36-.057.36-.283.36-.567v-.237c0-.327-.161-.575-.487-.575H37.9a.514.514,0,0,0-.511.575v.237c0,.284,0,.511.36.567v4.5L33.36,55.4c-.557.963-.135,1.717.978,1.717h9.736C45.186,57.12,45.6,56.366,45.04,55.4Z" transform="translate(-21.194 -26.88)"/></svg>