<svg xmlns="http://www.w3.org/2000/svg" width="25.745" height="24" viewBox="0 0 25.745 24"><g transform="translate(-5.899 -14.8)"><path d="M17.641,24a2.553,2.553,0,0,1-2.553-2.553V15.9a2.551,2.551,0,0,1,2.553-2.553h5.554A2.551,2.551,0,0,1,25.745,15.9v5.551A2.549,2.549,0,0,1,23.194,24Zm0-2.238h5.554a.307.307,0,0,0,.313-.315V15.9a.305.305,0,0,0-.312-.313H17.641a.3.3,0,0,0-.312.313v5.551A.307.307,0,0,0,17.641,21.762ZM2.553,24A2.553,2.553,0,0,1,0,21.447V15.9a2.551,2.551,0,0,1,2.553-2.553h5.6A2.552,2.552,0,0,1,10.7,15.9v5.551A2.589,2.589,0,0,1,8.106,24Zm0-2.238H8.106a.308.308,0,0,0,.313-.315V15.9a.306.306,0,0,0-.312-.313H2.553a.3.3,0,0,0-.313.313v5.551A.307.307,0,0,0,2.553,21.762ZM17.6,10.862a2.549,2.549,0,0,1-2.553-2.55V2.758A2.553,2.553,0,0,1,17.6.205h5.6A2.515,2.515,0,0,1,25.7,2.758V8.312a2.55,2.55,0,0,1-2.553,2.55Zm-.315-8.1V8.312a.308.308,0,0,0,.315.313h5.6a.307.307,0,0,0,.313-.313h-.046V2.758a.3.3,0,0,0-.312-.313H17.6A.307.307,0,0,0,17.282,2.758Zm-14.729,7.9A2.553,2.553,0,0,1,0,8.1V2.553A2.551,2.551,0,0,1,2.553,0h5.6a2.51,2.51,0,0,1,2.506,2.553V8.1a2.549,2.549,0,0,1-2.55,2.553Zm-.313-8.1V8.1a.3.3,0,0,0,.313.313h5.6A.3.3,0,0,0,8.462,8.1H8.419V2.553a.306.306,0,0,0-.312-.313H2.553A.3.3,0,0,0,2.239,2.553Z" transform="translate(5.899 14.8)"/></g></svg>