<svg xmlns="http://www.w3.org/2000/svg" width="38.941" height="36" viewBox="0 0 38.941 36"><defs><style>.a{fill:#fdc333;}</style></defs><g transform="translate(0 -1.775)"><g transform="translate(0 1.775)"><path class="a" d="M38.863,16.974a.819.819,0,0,0-.742-.471H35.7A17.987,17.987,0,1,0,33.59,28.78a1.637,1.637,0,0,0-2.833-1.64A14.742,14.742,0,1,1,32.348,16.5H29.942a.818.818,0,0,0-.63,1.342L33.4,22.755a.818.818,0,0,0,1.257,0l4.091-4.909A.818.818,0,0,0,38.863,16.974Z" transform="translate(0 -1.775)"/><path class="a" d="M21.133,6.713A1.636,1.636,0,0,0,19.5,8.349v9.929a2.861,2.861,0,0,0,1.637,5.209,2.828,2.828,0,0,0,1.208-.277L28.034,26.5a1.619,1.619,0,0,0,.817.22,1.636,1.636,0,0,0,.819-3.053l-5.7-3.29a2.85,2.85,0,0,0-1.2-2.093V8.349A1.64,1.64,0,0,0,21.133,6.713Zm0,15.136a1.227,1.227,0,1,1,1.227-1.226A1.228,1.228,0,0,1,21.133,21.849Z" transform="translate(-3.133 -2.622)"/></g></g></svg>