<svg xmlns="http://www.w3.org/2000/svg" width="26.328" height="24" viewBox="0 0 26.328 24"><g transform="translate(-5.9 -9.8)"><path d="M11.333,9.8H7.6a1.7,1.7,0,0,0-1.7,1.7v3.7a1.7,1.7,0,0,0,1.7,1.7h3.7A1.7,1.7,0,0,0,13,15.2V11.5A1.675,1.675,0,0,0,11.333,9.8Zm.209,5.4a.2.2,0,0,1-.209.209H7.6a.2.2,0,0,1-.209-.209V11.5a.2.2,0,0,1,.209-.209h3.7a.2.2,0,0,1,.209.209v3.7ZM7.6,25.352h3.7a1.7,1.7,0,0,0,1.7-1.7v-3.7a1.7,1.7,0,0,0-1.7-1.7H7.6a1.7,1.7,0,0,0-1.7,1.7v3.7A1.7,1.7,0,0,0,7.6,25.352Zm-.209-5.4A.2.2,0,0,1,7.6,19.74h3.7a.2.2,0,0,1,.209.209v3.7a.2.2,0,0,1-.209.209H7.6a.2.2,0,0,1-.209-.209ZM13.034,32.1V28.4a1.7,1.7,0,0,0-1.7-1.7H7.6a1.7,1.7,0,0,0-1.7,1.7v3.7a1.7,1.7,0,0,0,1.7,1.7h3.7A1.727,1.727,0,0,0,13.034,32.1Zm-5.642,0V28.4a.2.2,0,0,1,.209-.209h3.7a.2.2,0,0,1,.209.209v3.7a.2.2,0,0,1-.209.209H7.6A.2.2,0,0,1,7.393,32.1ZM32.228,13.352a.739.739,0,0,1-.746.746H15.84a.746.746,0,1,1,0-1.493H31.452A.746.746,0,0,1,32.228,13.352Zm0,8.448a.739.739,0,0,1-.746.746H15.84a.746.746,0,1,1,0-1.493H31.452A.746.746,0,0,1,32.228,21.8Zm-.746,9.194H15.84a.746.746,0,1,1,0-1.493H31.452a.739.739,0,0,1,.746.746A.714.714,0,0,1,31.482,30.994Z" transform="translate(0 0)"/></g></svg>