<?xml version="1.0" encoding="utf-8"?>
<!-- Generator: Adobe Illustrator 23.1.0, SVG Export Plug-In . SVG Version: 6.00 Build 0)  -->
<svg version="1.1" id="Layer_1" xmlns="http://www.w3.org/2000/svg" xmlns:xlink="http://www.w3.org/1999/xlink" x="0px" y="0px"
	 viewBox="0 0 540 650" style="enable-background:new 0 0 540 650;" xml:space="preserve">
<style type="text/css">
	.st0{fill:#E9EEF1;}
	.st1{fill:none;stroke:#DBDBDB;stroke-miterlimit:10;}
	.st2{fill:none;stroke:#DBDBDB;stroke-width:10;stroke-miterlimit:10;}
	.st3{fill:#BABEC1;}
	.st4{fill:#848484;}
	.st5{font-family:'NexaBlack';}
	.st6{font-size:37.6382px;}
</style>
<rect x="1" y="-1.2" class="st0" width="539" height="650.2"/>
<rect x="137.2" y="159.2" class="st1" width="279.2" height="328.3"/>
<path class="st2" d="M417,184.5H249c-28.4,0-54.7,18.7-74.7,18.7H137"/>
<path class="st3" d="M417,184.5H249c-28.4,0-54.7,18.7-74.7,18.7H137V166c0-5.2,4.2-9.5,9.5-9.5h261c5.2,0,9.5,4.2,9.5,9.5V184.5z"
	/>
<path class="st2" d="M137,465.5h168c28.4,0,54.7-18.7,74.7-18.7H417"/>
<path class="st3" d="M137,465.5h168c28.4,0,54.7-18.7,74.7-18.7H417v35.3c0,6.3-5.1,11.4-11.4,11.4H148.4c-6.3,0-11.4-5.1-11.4-11.4
	V465.5z"/>
<rect x="323.7" y="165.8" class="st4" width="74.7" height="18.7"/>
<image style="overflow:visible;" width="1500" height="1500" xlink:href="E26528ED.jpg"  transform="matrix(1 0 0 1 1288.203 -443.5)">
</image>
<g>
	<text transform="matrix(1 0 0 1 165.2813 291.9832)"><tspan x="0" y="0" class="st3 st5 st6">IMAGE </tspan><tspan x="0" y="45.2" class="st3 st5 st6">NOT</tspan><tspan x="0" y="90.3" class="st3 st5 st6">AVAILABLE</tspan></text>
</g>
</svg>
