<svg xmlns="http://www.w3.org/2000/svg" width="119.843" height="41.575" viewBox="0 0 119.843 41.575"><defs><style>.a{fill:#ffb5b5;}.b{fill:#555e65;}</style></defs><g transform="translate(0 0)"><path class="a" d="M115.827,60.941H18.7c-8.709,0-15.9-6.381-15.9-14.5V35.8c0-8.122,7.194-14.5,15.9-14.5h97.124l-2.651,5.221a33.351,33.351,0,0,0,1.325,32.1Z" transform="translate(1.933 -20.333)"/><path class="b" d="M120.143,62.375H17.907C8.252,62.375.3,55.413.3,46.9V36.27C.3,27.761,8.252,20.8,17.907,20.8H119.954l-3.408,6.768a31.884,31.884,0,0,0,1.325,31.326ZM17.907,22.54c-8.33,0-15.146,5.994-15.146,13.536V46.712c0,7.348,6.816,13.536,15.146,13.536h98.26l-.379-.773a33.753,33.753,0,0,1-1.515-33.066l2.083-4.061H17.907Z" transform="translate(-0.3 -20.8)"/><rect class="b" width="97.439" height="1.934" transform="translate(16.85 7.735)"/><rect class="b" width="95.545" height="1.934" transform="translate(16.85 23.204)"/><rect class="b" width="96.556" height="1.934" transform="translate(16.85 30.939)"/><rect class="b" width="95.356" height="1.934" transform="translate(16.85 15.47)"/></g></svg>