<svg xmlns="http://www.w3.org/2000/svg" width="145.209" height="50.091" viewBox="0 0 145.209 50.091"><g transform="translate(-34.605 -40.412)"><g transform="translate(34.605 40.412)"><rect width="144.62" height="39.722" transform="translate(0 0.651) rotate(-0.258)" fill="#0d0d0d"/><g transform="translate(5.179 4.808)"><path d="M56.6,52.553c-1.648,1.448-6.14.088-8,1.332,2.831,2.159,10.995,1.986,13.849-.063-.193-1.184-1.929-.8-2.606-1.506,1.811-.353,4.6,1.765,1.526,2.8a18.85,18.85,0,0,1-3.883,1.323c-4.025.487-10.415.027-10.613-2.12s4-2.376,4.753-2.4C53.27,51.872,55.2,51.429,56.6,52.553Z" transform="translate(-46.865 -51.795)" fill="#ffdc00" fill-rule="evenodd"/><path d="M75.545,52.743c0-.212.261-.163.433-.216C75.964,52.739,75.709,52.7,75.545,52.743Z" transform="translate(-63.43 -52.218)" fill="#fff" fill-rule="evenodd"/><path d="M221.143,65.154c.01,4.369-.132,9.043-.37,12.547,2.376-1.448,4.16-3.475,6.249-5.218a1.99,1.99,0,0,0-1.523-.433c.8-.934,3.265-.209,4.766-.446a42.726,42.726,0,0,0-5.612,4.133c-.36.283-1.909.982-1.94,1.309-.06.656,2.332,2.117,2.821,2.579,2.044,1.91,3.316,4.544,5.867,5.169-1.225.509-3.383.088-4.971.235.02-.547.723-.428,1.294-.431-1.749-2.382-4.365-3.86-6.733-5.6-.318.73-.166,3.471-.189,5.19.2.668,1.511.206,1.946.643-1.442.511-3.812.09-5.618.238.119-.673,1.253-.333,1.729-.659.093-6.243-.194-12.108-.3-18.165-.3-.565-1.832.12-2.167-.422C217.594,65.219,219.479,65.3,221.143,65.154Z" transform="translate(-144.776 -59.511)" fill="#fff" fill-rule="evenodd"/><path d="M326.353,64.835a13.735,13.735,0,0,1,.231,3.462c-1.255-.992-.817-2.95-2.392-3.235-2.47-.438-3.511,3.232-3.432,6.29,1.236.067,5.057.285,7.785.174a8.745,8.745,0,0,0,.64-3.241,6.479,6.479,0,0,1,2.149-1.087c-.074,1.43-.332,2.682-.416,4.109,1.449.5,3.823.055,5.626.184-.992.955-3.7.219-5.4.463-1.065,4.825-1.314,14.967,5.449,11.229-1.547,1.82-5.555,2.131-7.129.671-2.629-2.416-.685-8.026-.7-11.674-1.8-.037-5.286.063-7.78.035-.757,3.213-.286,7.624-.391,11.466.433.81,2.291.15,3.033.638-1.873.512-4.681.094-6.921.244.215-.653,1.3-.431,1.947-.661-.292-3.684-.277-7.688-.491-11.458-.662-.666-1.685.374-2.375-.206-.159-1.093,1.723-1.034,2.371-.665C318.537,67.125,321.013,63.657,326.353,64.835Z" transform="translate(-202.182 -59.192)" fill="#fff" fill-rule="evenodd"/><path d="M56.42,80.749c-.489,1.739-.047,4.4-.182,6.49.455.64,2.2-.052,2.386.853l-6.275.028c.244-.54.949-.631,1.723-.659-.167-5.4.236-11.382-.285-16.432.083-.961-1.881.156-1.737-.855,5.043-.28,11.524-1.118,12.989,2.536C67.015,77.637,62.1,81.394,56.42,80.749Zm.6-10.387a.6.6,0,0,0-.425.655c-.381,3.174-.121,6.194-.391,9.087C63.744,82.59,65.215,69.012,57.022,70.362Z" transform="translate(-49.855 -62.246)" fill="#fff" fill-rule="evenodd"/><path d="M94.489,93.288c.174.613,1.561.018,1.51.857l-3.452.016q-.008-1.839-.016-3.673c-1.454,4.223-9.079,5.726-9.091.041a5.306,5.306,0,0,1,8.849-3.72c.843-5.688-4.762-6.546-7.355-2.781.364-2.285,3.515-3.679,7.115-3.49C95.7,82.332,94.295,88.364,94.489,93.288Zm-7.137.032c4.917,1.627,7.007-8.941.833-7.139C85.8,86.878,85.033,92.558,87.352,93.32Z" transform="translate(-67.99 -68.386)" fill="#fff" fill-rule="evenodd"/><path d="M120.73,80.115c1.086,1.547-.213,4.365.246,6.7.578-2.647,5.574-9.611,8.84-5.878,3.9,4.461-1.778,17.893-8.815,11.51.041,1.472-.141,3.811-.189,5.837.576.5,1.837.319,2.6.629-1.66.516-4.256.091-6.274.251.279-.514,1.163-.425,1.725-.66.1-5.882-.19-11.4-.29-17.085-.226-.488-1.359-.074-1.95-.206C117.477,80.334,119.521,80.639,120.73,80.115Zm4.175,13.394c4.109-.353,5.11-12.73.59-11.682C121.75,82.7,118.224,94.086,124.906,93.509Z" transform="translate(-87.155 -68.006)" fill="#fff" fill-rule="evenodd"/><path d="M168.231,86.461c-2.4.567-5.1.447-8.43.471-.968,5.616,4.673,7.071,8.453,4.726a8.518,8.518,0,0,1-4.1,2.176c-11.871,1.808-6.5-17.681,1.676-13.416C167.459,81.267,168.5,83.65,168.231,86.461Zm-3.922-5.6c-3.547-.968-4.366,2.529-4.51,5.641,2.217-.024,4.552.062,6.053-.676A7.745,7.745,0,0,0,164.309,80.858Z" transform="translate(-110.62 -67.973)" fill="#fff" fill-rule="evenodd"/><path d="M193.136,80.132c.139,2.721-.133,5.035-.181,7.573,1.285-3.185,2-8.058,6.457-7.383.455.772.125,2.338.231,3.46-1.024-.28-.739-1.863-1.745-2.157-4.024,1.387-4.505,6.3-4.92,11.269.4.685,1.984.176,2.6.64-1.659.512-4.251.092-6.268.241.05-.809,1.442-.289,1.728-.872-.427-2.79-.179-7.476-.268-11.246.061-1-2.051.2-1.95-.862C190.377,80.7,191.629,80.291,193.136,80.132Z" transform="translate(-128.849 -68.161)" fill="#fff" fill-rule="evenodd"/><path d="M258.214,79.842c1.154,1.893-.038,5.114.253,7.571,1.294-3.172,1.947-8.108,6.445-7.383.463.834.124,2.488.235,3.675-1.04-.32-.654-2.083-1.732-2.373-4.01,1.408-4.6,6.211-4.925,11.27.462.612,1.874.281,2.586.64-1.724.512-4.392.093-6.478.242.115-.673,1.251-.333,1.73-.659-.157-3.821.244-8.21-.273-11.676-.115-.686-1.949.373-1.738-.646A29.087,29.087,0,0,0,258.214,79.842Z" transform="translate(-166.673 -67.994)" fill="#fff" fill-rule="evenodd"/><path d="M293.141,92.466c.417.443,1.318.409,1.95.643-.869.508-2.664.087-3.9.23-.005-1.29-.011-2.6-.017-3.895-.8,3.846-8.894,6.415-9.084.472a5.293,5.293,0,0,1,8.843-3.93c1.029-6.073-5.394-6.024-7.573-2.78.978-2.625,4.763-4.246,8.206-3.061C294.181,82.586,292.964,87.866,293.141,92.466ZM286,92.5c4.723,1.5,7.123-8.572,1.046-7.14C284.858,85.874,283.254,91.631,286,92.5Z" transform="translate(-182.725 -67.941)" fill="#fff" fill-rule="evenodd"/></g></g><g transform="translate(34.961 83.857)"><path d="M37.285,145.461c-.148,0-.3,0-.467.007s-.327.009-.49.019-.32.02-.472.032-.287.027-.407.045a1.034,1.034,0,0,0,.041-.275,1.186,1.186,0,0,0-.044-.267c.378.011.747.018,1.107.025s.73.01,1.108.008.746-.008,1.106-.018.73-.021,1.108-.035a1.146,1.146,0,0,0-.042.275.98.98,0,0,0,.044.267c-.121-.017-.257-.03-.408-.041s-.309-.02-.472-.027-.327-.013-.49-.015-.319,0-.468,0c-.014.59-.02,1.181-.017,1.777l.006,1.476q0,.567.026,1.116c.016.366.033.728.053,1.081-.132-.01-.272-.016-.42-.015s-.29.008-.421.019c.016-.354.03-.716.042-1.082s.018-.738.016-1.116l-.006-1.476C37.317,146.641,37.306,146.05,37.285,145.461Z" transform="translate(-35.447 -144.265)" fill="#0d0d0d"/><path d="M52.509,146.053c-.016-.363-.033-.733-.052-1.111.074.012.146.021.215.029a1.679,1.679,0,0,0,.206.012,1.784,1.784,0,0,0,.206-.014c.069-.009.14-.019.215-.031q-.023.568-.043,1.112t-.016,1.112l.007,1.476q0,.567.026,1.116c.016.366.034.728.053,1.081-.132-.01-.272-.016-.421-.015s-.289.008-.42.019c.016-.354.03-.716.042-1.082s.018-.738.016-1.116l0-.772c-.309,0-.608-.007-.9-.009s-.588,0-.9,0-.608,0-.9.009-.588.011-.9.017l0,.772q0,.567.027,1.116c.016.366.033.727.052,1.081-.132-.01-.272-.016-.421-.015s-.289.008-.42.019c.015-.354.029-.716.042-1.082s.019-.738.017-1.116l-.007-1.476q0-.567-.027-1.111t-.052-1.112c.074.012.146.021.215.03a1.78,1.78,0,0,0,.206.012,1.693,1.693,0,0,0,.206-.014c.068-.009.14-.019.214-.031-.016.379-.029.749-.041,1.112s-.019.734-.017,1.112v.3l.9.013c.289,0,.588.006.9,0s.608-.006.9-.013l.9-.021v-.3C52.535,146.787,52.525,146.417,52.509,146.053Z" transform="translate(-42.793 -144.228)" fill="#0d0d0d"/><path d="M64.026,146q-.025-.549-.052-1.1c.257.011.513.019.768.027s.51.011.768.01.512-.007.764-.017.506-.02.763-.033a1.3,1.3,0,0,0-.024.258,1.326,1.326,0,0,0,.027.257c-.183-.01-.351-.021-.5-.032l-.481-.032q-.253-.016-.554-.028c-.2-.008-.441-.011-.721-.01-.005.183-.011.358-.019.524s-.011.354-.011.567,0,.441.008.652.006.373.007.481c.251,0,.477-.005.678-.013s.383-.014.549-.024.318-.018.458-.027.274-.02.4-.032a1.376,1.376,0,0,0-.025.266,1.334,1.334,0,0,0,.027.257c-.149-.016-.322-.03-.52-.041s-.394-.016-.592-.018l-.558-.006c-.174,0-.313,0-.416,0,0,.051,0,.107,0,.168s0,.136,0,.227l0,.334,0,.515c0,.326,0,.6.008.807s.009.373.015.481l.6,0q.326,0,.639-.016c.209-.009.406-.022.592-.037a3.9,3.9,0,0,0,.485-.067.578.578,0,0,0-.021.134c0,.048,0,.092,0,.133a.758.758,0,0,0,.027.222c-.258-.009-.514-.014-.768-.014l-.777,0-.781,0q-.387,0-.781.021.023-.549.042-1.095c.012-.363.019-.734.017-1.111l-.007-1.477C64.051,146.74,64.042,146.367,64.026,146Z" transform="translate(-51.923 -144.2)" fill="#0d0d0d"/><path d="M79.834,145.956q-.023-.544-.052-1.111c.074.012.146.021.214.029a1.625,1.625,0,0,0,.412,0c.069-.009.141-.019.215-.031q-.023.568-.043,1.112c-.012.364-.018.734-.016,1.112q.005,1.081.017,1.875t.024,1.42q.61,0,1.167-.018a11.053,11.053,0,0,0,1.2-.1.947.947,0,0,0-.042.258.763.763,0,0,0,.044.231c-.264-.01-.527-.015-.79-.014l-.79,0-.794,0c-.255,0-.518.008-.793.02.015-.354.029-.715.041-1.081s.019-.738.017-1.116l-.007-1.476Q79.858,146.5,79.834,145.956Z" transform="translate(-61.053 -144.172)" fill="#0d0d0d"/><path d="M93.952,150.512a1.76,1.76,0,0,0-.228-.016H93.27a1.685,1.685,0,0,0-.227.018c-.041-.131-.1-.29-.166-.476s-.146-.379-.229-.582-.169-.408-.256-.617-.168-.407-.242-.6c-.184,0-.369-.008-.559-.01s-.377,0-.566,0-.352,0-.523.006-.347.009-.525.015q-.271.672-.492,1.277t-.33,1a2.761,2.761,0,0,0-.318-.016,2.91,2.91,0,0,0-.317.018q.688-1.5,1.343-2.993t1.317-3.027h.163q.207.5.451,1.076t.495,1.17q.251.591.5,1.173t.473,1.084q.221.5.4.9T93.952,150.512Zm-3.814-2.652c.148,0,.3,0,.463.006s.315.007.464.007.319,0,.48-.007.321-.008.48-.014l-.963-2.176Z" transform="translate(-66.1 -143.985)" fill="#0d0d0d"/><path d="M106.342,148.246q-1.123-1.193-2.243-2.372c0,.16-.01.375-.014.644s-.005.634,0,1.1c0,.12,0,.269.007.446s.006.363.01.558.009.392.016.592.014.387.02.558.013.321.02.45.012.216.018.261a2.653,2.653,0,0,0-.3-.016,2.805,2.805,0,0,0-.317.019c.011-.057.023-.163.037-.318s.026-.339.036-.553.023-.449.035-.7.024-.5.031-.756.013-.5.018-.738.007-.455.006-.643q0-.824-.01-1.416c-.005-.394-.014-.689-.026-.885h.137q.526.565,1.125,1.21t1.191,1.273q.589.628,1.121,1.188t.926.953l-.005-1.167q0-.9-.02-1.756t-.063-1.609a1.207,1.207,0,0,0,.292.042,1.145,1.145,0,0,0,.275-.044c-.011.126-.023.315-.036.566s-.026.521-.039.807-.025.566-.034.841-.015.5-.014.661q0,.214,0,.515c0,.195,0,.4.006.61s.008.424.011.639.008.414.011.6.005.347.006.485,0,.221,0,.283h-.12Q107.464,149.439,106.342,148.246Z" transform="translate(-74.783 -143.961)" fill="#0d0d0d"/><path d="M123.633,145.217a2.288,2.288,0,0,0-.43-.268,2.67,2.67,0,0,0-.525-.187,2.494,2.494,0,0,0-.614-.07,2.932,2.932,0,0,0-.991.167,2.106,2.106,0,0,0-.8.507,2.352,2.352,0,0,0-.528.86,3.937,3.937,0,0,0-.01,2.365,2.286,2.286,0,0,0,.506.851,2.242,2.242,0,0,0,.809.533,2.911,2.911,0,0,0,1.078.184c.12,0,.247-.007.378-.019s.258-.03.382-.054a2.775,2.775,0,0,0,.343-.087,1.25,1.25,0,0,0,.269-.122c.005-.172.009-.344.011-.515s0-.346,0-.524q0-.3-.015-.6c-.01-.2-.02-.392-.033-.575a2.032,2.032,0,0,0,.412.041c.063,0,.125,0,.189-.009a.871.871,0,0,0,.18-.035c-.011.132-.019.34-.024.622s0,.657,0,1.12c0,.115,0,.231.005.348s.005.234.005.348a4.6,4.6,0,0,1-.449.144,5.1,5.1,0,0,1-.575.123c-.2.032-.406.063-.609.088a4.373,4.373,0,0,1-.553.041,4.8,4.8,0,0,1-1.379-.179,2.7,2.7,0,0,1-1.045-.566,2.558,2.558,0,0,1-.665-.958,3.539,3.539,0,0,1-.237-1.33,3.327,3.327,0,0,1,.234-1.3,2.693,2.693,0,0,1,.674-.969,2.95,2.95,0,0,1,1.058-.605,4.361,4.361,0,0,1,1.376-.213,5.619,5.619,0,0,1,.777.045,4.069,4.069,0,0,1,.6.122,3.909,3.909,0,0,1,.46.161q.2.086.353.161a1.466,1.466,0,0,0-.122.31,1.909,1.909,0,0,0-.071.352h-.1A2.257,2.257,0,0,0,123.633,145.217Z" transform="translate(-83.543 -143.902)" fill="#0d0d0d"/><path d="M139.688,145.459a8.731,8.731,0,0,0-.047-.91c.062.012.123.021.18.03a1.181,1.181,0,0,0,.172.012.911.911,0,0,0,.257-.044q-.024.3-.049.717t-.038.893c-.011.318-.02.644-.03.979s-.017.659-.021.975a3.116,3.116,0,0,1-.172,1.03,2.143,2.143,0,0,1-.473.774,1.977,1.977,0,0,1-.757.485,3.034,3.034,0,0,1-1.033.167,2.559,2.559,0,0,1-1.873-.575,2.521,2.521,0,0,1-.592-1.842c0-.269,0-.508.018-.717s.019-.422.018-.64c0-.481-.009-.907-.023-1.279s-.025-.687-.038-.945c.069.012.143.021.224.029a2.122,2.122,0,0,0,.223.012,1.407,1.407,0,0,0,.185-.014c.06-.009.121-.019.184-.031-.011.126-.021.291-.032.494s-.02.433-.032.691-.017.535-.021.833-.007.607-.005.927q0,.292.012.605a4.081,4.081,0,0,0,.063.609,2.537,2.537,0,0,0,.169.566,1.39,1.39,0,0,0,.333.47,1.517,1.517,0,0,0,.543.316,2.426,2.426,0,0,0,.807.113,2.018,2.018,0,0,0,.792-.142,1.512,1.512,0,0,0,.527-.362,1.653,1.653,0,0,0,.319-.517,2.958,2.958,0,0,0,.165-.611,4.722,4.722,0,0,0,.057-.634q.007-.318.006-.584Q139.7,146.12,139.688,145.459Z" transform="translate(-93.053 -144.002)" fill="#0d0d0d"/><path d="M154.925,150.238a1.694,1.694,0,0,0-.228-.016h-.455a1.684,1.684,0,0,0-.227.018c-.041-.131-.1-.29-.166-.476s-.146-.38-.229-.583-.169-.408-.256-.616-.169-.408-.243-.6c-.183,0-.369-.008-.559-.01s-.377,0-.566,0-.351,0-.523.006-.346.009-.525.015q-.271.672-.491,1.278t-.33,1a2.974,2.974,0,0,0-.319-.016,2.921,2.921,0,0,0-.317.019q.688-1.5,1.343-2.993t1.317-3.028h.163l.451,1.076q.243.579.495,1.169t.5,1.173q.25.583.472,1.084t.4.9Q154.813,150.034,154.925,150.238Zm-3.814-2.652c.148,0,.3,0,.463.006s.315.007.464.006.319,0,.48-.007.321-.008.48-.015l-.962-2.176Z" transform="translate(-101.316 -143.826)" fill="#0d0d0d"/><path d="M167.885,145.018a2.254,2.254,0,0,0-.431-.268,2.669,2.669,0,0,0-.524-.187,2.543,2.543,0,0,0-.614-.07,2.943,2.943,0,0,0-.991.168,2.114,2.114,0,0,0-.8.506,2.349,2.349,0,0,0-.528.861,3.943,3.943,0,0,0-.011,2.365,2.294,2.294,0,0,0,.507.851,2.24,2.24,0,0,0,.809.533,2.911,2.911,0,0,0,1.078.184q.18,0,.378-.019c.131-.012.258-.03.381-.054a2.667,2.667,0,0,0,.343-.087,1.262,1.262,0,0,0,.27-.122c.005-.171.008-.344.01-.515s0-.346,0-.524c0-.2-.006-.4-.015-.6s-.02-.392-.033-.575a2.02,2.02,0,0,0,.412.041c.063,0,.126,0,.188-.009a.868.868,0,0,0,.181-.036c-.012.132-.019.34-.024.623s-.005.657,0,1.12c0,.115,0,.231.006.348s0,.233.005.347a4.519,4.519,0,0,1-.449.144,5.1,5.1,0,0,1-.575.123c-.2.032-.406.063-.609.088a4.292,4.292,0,0,1-.553.041,4.784,4.784,0,0,1-1.379-.178,2.69,2.69,0,0,1-1.045-.566,2.548,2.548,0,0,1-.665-.958,3.547,3.547,0,0,1-.237-1.33,3.323,3.323,0,0,1,.234-1.3,2.7,2.7,0,0,1,.674-.969,2.957,2.957,0,0,1,1.057-.605,4.372,4.372,0,0,1,1.377-.213,5.62,5.62,0,0,1,.777.045,4.175,4.175,0,0,1,.6.121,4.015,4.015,0,0,1,.46.161q.2.086.353.161a1.439,1.439,0,0,0-.124.31,2.02,2.02,0,0,0-.071.352h-.1A2.205,2.205,0,0,0,167.885,145.018Z" transform="translate(-109.102 -143.787)" fill="#0d0d0d"/><path d="M179.41,145.481q-.023-.549-.052-1.1.387.016.768.027t.768.01q.387,0,.763-.016c.252-.01.507-.02.764-.034a1.3,1.3,0,0,0-.025.258,1.328,1.328,0,0,0,.027.258q-.275-.015-.5-.032c-.152-.01-.312-.022-.482-.032s-.353-.02-.553-.028-.441-.011-.721-.01c-.005.183-.011.359-.019.524s-.011.355-.01.567,0,.441.007.652.005.372.006.481q.378,0,.678-.012c.2-.005.383-.014.549-.024s.319-.018.459-.027.273-.02.4-.032a1.381,1.381,0,0,0-.024.267,1.334,1.334,0,0,0,.026.257c-.149-.016-.321-.03-.518-.041s-.4-.016-.593-.019l-.558-.006c-.175,0-.313,0-.417,0,0,.051,0,.107,0,.167s0,.136,0,.227l0,.335,0,.515c0,.326,0,.595.008.807s.008.372.015.481l.6,0c.217,0,.43-.007.639-.016s.406-.022.593-.037a3.939,3.939,0,0,0,.484-.067.63.63,0,0,0-.02.133c0,.048,0,.093,0,.133a.8.8,0,0,0,.026.223c-.257-.01-.514-.015-.768-.014l-.776,0-.781,0c-.258,0-.517.008-.78.02q.023-.549.041-1.094c.013-.363.019-.734.017-1.111l-.007-1.477Q179.434,146.031,179.41,145.481Z" transform="translate(-118.565 -143.9)" fill="#0d0d0d"/><path d="M194.451,145.822a2.719,2.719,0,0,1,.656-.969,2.869,2.869,0,0,1,1.015-.6,4.2,4.2,0,0,1,2.6-.012,2.868,2.868,0,0,1,1.02.6,2.714,2.714,0,0,1,.665.963,3.69,3.69,0,0,1,.011,2.6,2.642,2.642,0,0,1-1.67,1.561,4.471,4.471,0,0,1-2.6.011,2.641,2.641,0,0,1-1.685-1.546,3.692,3.692,0,0,1-.012-2.6Zm5.171.046a2.331,2.331,0,0,0-.505-.856,2,2,0,0,0-.758-.5,2.766,2.766,0,0,0-1.871.008,2,2,0,0,0-.753.506,2.322,2.322,0,0,0-.5.861,4.3,4.3,0,0,0,.011,2.462,2.315,2.315,0,0,0,.506.856,2,2,0,0,0,.757.5,2.77,2.77,0,0,0,1.871-.008,2.007,2.007,0,0,0,.754-.506,2.32,2.32,0,0,0,.5-.86,4.3,4.3,0,0,0-.011-2.463Z" transform="translate(-127.149 -143.707)" fill="#0d0d0d"/><path d="M212.141,145.347c-.015-.363-.033-.733-.052-1.111.258.011.514.019.768.027s.512.011.768.01.517-.007.781-.017.549-.02.858-.034a1.338,1.338,0,0,0-.025.258,1.322,1.322,0,0,0,.027.257q-.231-.025-.558-.044c-.218-.014-.439-.025-.665-.032s-.444-.014-.653-.018-.382-.008-.519-.007c-.005.2-.008.393-.011.576s0,.366,0,.55c0,.2,0,.385.006.553s.005.345.006.528c.378,0,.751-.01,1.12-.023s.734-.038,1.095-.074a.964.964,0,0,0-.034.258.978.978,0,0,0,.036.257c-.144-.016-.3-.028-.485-.036s-.368-.015-.563-.019-.392-.007-.592-.006l-.576,0,0,.729q0,.567.027,1.116c.016.366.033.728.053,1.081-.132-.01-.273-.016-.421-.015s-.289.008-.42.019c.015-.354.03-.716.042-1.082s.019-.738.017-1.116l-.007-1.476C212.166,146.081,212.157,145.71,212.141,145.347Z" transform="translate(-137.47 -143.814)" fill="#0d0d0d"/><path d="M227.949,145.283q-.025-.545-.052-1.112c.137.012.276.021.416.029s.279.012.417.011c.069,0,.151,0,.249-.01s.2-.011.3-.014.2-.008.288-.014.169-.01.232-.011c.087,0,.192,0,.318.008a2.479,2.479,0,0,1,.4.049,2.242,2.242,0,0,1,.417.127,1.193,1.193,0,0,1,.374.247,1.22,1.22,0,0,1,.272.407,1.551,1.551,0,0,1,.107.6,1.578,1.578,0,0,1-.241.92,1.782,1.782,0,0,1-.6.552,2.369,2.369,0,0,1-.755.269,4.14,4.14,0,0,1-.707.072c-.132,0-.252,0-.362,0s-.219-.009-.334-.02l0,.471c0,.378.01.749.026,1.116s.033.728.052,1.081c-.132-.01-.272-.016-.42-.015s-.289.008-.421.019c.016-.354.03-.716.043-1.082s.018-.738.016-1.116l-.007-1.476Q227.973,145.828,227.949,145.283Zm1.342,1.818a2.584,2.584,0,0,0,.549-.063,1.449,1.449,0,0,0,.518-.221,1.2,1.2,0,0,0,.384-.439,1.788,1.788,0,0,0,.041-1.318.846.846,0,0,0-.289-.359,1.117,1.117,0,0,0-.452-.174,3.457,3.457,0,0,0-.6-.044l-.772,0,.012,2.549A2.633,2.633,0,0,0,229.292,147.1Z" transform="translate(-146.6 -143.781)" fill="#0d0d0d"/><path d="M239.245,145.232q-.025-.545-.053-1.111c.166.011.329.02.49.028s.324.012.49.011.329-.009.489-.024.324-.023.489-.024a3.328,3.328,0,0,1,.688.066,1.669,1.669,0,0,1,.571.225,1.149,1.149,0,0,1,.389.414,1.491,1.491,0,0,1-.037,1.353,1.725,1.725,0,0,1-.449.492,2.242,2.242,0,0,1-.569.3,2.786,2.786,0,0,1-.553.144q.1.129.285.359t.4.509q.225.278.467.581c.161.2.317.4.466.582s.29.355.423.509.239.271.319.35a2.029,2.029,0,0,0-.258-.016h-.507a1.822,1.822,0,0,0-.248.018c-.087-.119-.218-.3-.393-.538s-.37-.5-.582-.771-.431-.546-.653-.817-.424-.5-.608-.688h-.326l0,.626q0,.567.027,1.116c.016.366.033.728.052,1.081-.132-.01-.272-.016-.421-.015s-.289.008-.42.019c.016-.354.03-.716.043-1.082s.018-.738.016-1.116l-.007-1.476Q239.268,145.777,239.245,145.232Zm.994,1.63q.141.009.314.008a2.7,2.7,0,0,0,.552-.063,1.615,1.615,0,0,0,.527-.213,1.254,1.254,0,0,0,.4-.405,1.188,1.188,0,0,0,.155-.64,1.119,1.119,0,0,0-.127-.553,1,1,0,0,0-.324-.346,1.226,1.226,0,0,0-.429-.174,2.233,2.233,0,0,0-.455-.045c-.2,0-.366.006-.5.015s-.244.019-.335.032c-.009.314-.019.627-.03.936s-.014.618-.013.927l0,.489A1.624,1.624,0,0,0,240.239,146.862Z" transform="translate(-153.124 -143.751)" fill="#0d0d0d"/><path d="M250.892,145.568a2.732,2.732,0,0,1,.656-.969,2.876,2.876,0,0,1,1.015-.6,4.2,4.2,0,0,1,2.6-.012,2.871,2.871,0,0,1,1.02.6,2.721,2.721,0,0,1,.666.963,3.7,3.7,0,0,1,.011,2.6,2.646,2.646,0,0,1-1.671,1.561,4.471,4.471,0,0,1-2.6.011,2.646,2.646,0,0,1-1.686-1.546,3.7,3.7,0,0,1-.011-2.6Zm5.172.046a2.34,2.34,0,0,0-.507-.856,1.986,1.986,0,0,0-.757-.5,2.656,2.656,0,0,0-.94-.159,2.627,2.627,0,0,0-.93.167,1.993,1.993,0,0,0-.754.506,2.355,2.355,0,0,0-.5.86,4.3,4.3,0,0,0,.011,2.462,2.344,2.344,0,0,0,.507.856,1.988,1.988,0,0,0,.758.5,2.618,2.618,0,0,0,.932.159,2.646,2.646,0,0,0,.939-.167,1.991,1.991,0,0,0,.753-.507,2.338,2.338,0,0,0,.5-.86,4.3,4.3,0,0,0-.011-2.463Z" transform="translate(-159.748 -143.561)" fill="#0d0d0d"/><path d="M268.583,145.093q-.025-.545-.052-1.111c.258.011.514.019.768.027s.511.011.768.01.518-.007.781-.017.549-.02.858-.034a1.339,1.339,0,0,0-.025.258,1.293,1.293,0,0,0,.027.257q-.232-.025-.558-.044t-.665-.032q-.34-.011-.653-.018c-.21-.005-.381-.008-.519-.007-.005.2-.008.393-.011.576s0,.366,0,.549q0,.3.007.553c0,.169.006.345.007.528.377,0,.751-.01,1.119-.023s.734-.038,1.095-.074a.99.99,0,0,0,0,.515c-.143-.016-.305-.028-.485-.036s-.368-.015-.563-.019-.392-.007-.592-.006l-.575,0,0,.729q0,.567.027,1.116c.016.366.033.728.051,1.081-.132-.01-.272-.016-.42-.015s-.289.008-.42.019c.015-.354.029-.716.042-1.082s.019-.738.017-1.116l-.007-1.476Q268.607,145.637,268.583,145.093Z" transform="translate(-170.069 -143.667)" fill="#0d0d0d"/><path d="M278.743,145.034q-.023-.549-.052-1.1.385.016.768.027t.768.01q.386,0,.763-.016c.251-.01.506-.02.763-.034a1.337,1.337,0,0,0-.024.258,1.291,1.291,0,0,0,.026.258q-.275-.015-.5-.032c-.152-.01-.313-.022-.481-.032s-.354-.02-.554-.027-.441-.011-.721-.01c0,.183-.012.359-.019.524s-.011.355-.011.567,0,.441.007.652.007.372.007.481c.251,0,.478-.005.678-.012s.383-.014.549-.024.319-.018.459-.027.273-.02.4-.032a1.353,1.353,0,0,0,0,.524c-.149-.016-.322-.03-.519-.041s-.395-.016-.592-.019l-.558-.006c-.174,0-.313,0-.416,0,0,.052,0,.107,0,.168s0,.136,0,.227l0,.335,0,.515c0,.326,0,.595.008.807s.01.372.016.481l.6,0q.326,0,.639-.016t.592-.037a3.986,3.986,0,0,0,.485-.067.6.6,0,0,0-.021.133c0,.048,0,.092,0,.133a.792.792,0,0,0,.027.223c-.258-.01-.514-.015-.768-.014l-.777,0-.781,0c-.257,0-.518.008-.78.02q.023-.549.041-1.094t.017-1.111l-.007-1.477Q278.767,145.584,278.743,145.034Z" transform="translate(-175.937 -143.641)" fill="#0d0d0d"/><path d="M288.441,148.84a1.391,1.391,0,0,0,.284.286,1.46,1.46,0,0,0,.392.209,1.442,1.442,0,0,0,.5.079,1.275,1.275,0,0,0,.511-.1,1.139,1.139,0,0,0,.628-.664,1.373,1.373,0,0,0,.084-.486.929.929,0,0,0-.2-.625,1.669,1.669,0,0,0-.5-.383,5.783,5.783,0,0,0-.649-.281,3.273,3.273,0,0,1-.649-.318,1.725,1.725,0,0,1-.5-.491,1.441,1.441,0,0,1-.2-.806,1.632,1.632,0,0,1,.126-.658,1.425,1.425,0,0,1,.371-.512,1.756,1.756,0,0,1,.587-.337,2.56,2.56,0,0,1,1.485-.028,1.783,1.783,0,0,1,.558.3,1.82,1.82,0,0,0-.127.31,4.092,4.092,0,0,0-.1.412h-.1a2.327,2.327,0,0,0-.117-.261,1.006,1.006,0,0,0-.2-.261,1.123,1.123,0,0,0-.3-.2.95.95,0,0,0-.413-.08,1.239,1.239,0,0,0-.441.079,1.046,1.046,0,0,0-.35.221.969.969,0,0,0-.231.34,1.113,1.113,0,0,0-.079.43.932.932,0,0,0,.2.634,1.7,1.7,0,0,0,.5.389,5.037,5.037,0,0,0,.65.281,3.579,3.579,0,0,1,.649.3,1.629,1.629,0,0,1,.5.461,1.271,1.271,0,0,1,.205.754,1.972,1.972,0,0,1-.138.748,1.762,1.762,0,0,1-.409.615,1.855,1.855,0,0,1-.659.406,2.6,2.6,0,0,1-.888.145,2.224,2.224,0,0,1-.863-.137,2.366,2.366,0,0,1-.555-.319,2.006,2.006,0,0,0,.106-.357q.029-.159.054-.408h.1A1.634,1.634,0,0,0,288.441,148.84Z" transform="translate(-181.309 -143.471)" fill="#0d0d0d"/><path d="M298.6,148.794a1.392,1.392,0,0,0,.284.286,1.434,1.434,0,0,0,.889.288,1.281,1.281,0,0,0,.511-.1,1.184,1.184,0,0,0,.385-.269,1.169,1.169,0,0,0,.242-.4,1.362,1.362,0,0,0,.083-.486.922.922,0,0,0-.2-.625,1.662,1.662,0,0,0-.5-.384,5.719,5.719,0,0,0-.65-.281,3.345,3.345,0,0,1-.649-.319,1.713,1.713,0,0,1-.5-.491,1.423,1.423,0,0,1-.205-.806,1.637,1.637,0,0,1,.126-.658,1.421,1.421,0,0,1,.371-.512,1.77,1.77,0,0,1,.586-.337,2.558,2.558,0,0,1,1.484-.028,1.8,1.8,0,0,1,.56.3,1.871,1.871,0,0,0-.127.31,4.224,4.224,0,0,0-.1.413h-.1a2.062,2.062,0,0,0-.117-.262.994.994,0,0,0-.2-.261,1.1,1.1,0,0,0-.3-.2.961.961,0,0,0-.412-.08,1.234,1.234,0,0,0-.442.08,1.046,1.046,0,0,0-.351.221.978.978,0,0,0-.229.339,1.107,1.107,0,0,0-.08.43.936.936,0,0,0,.2.634,1.714,1.714,0,0,0,.5.389,5.037,5.037,0,0,0,.649.28,3.576,3.576,0,0,1,.649.3,1.652,1.652,0,0,1,.5.461,1.274,1.274,0,0,1,.205.754,1.988,1.988,0,0,1-.139.748,1.759,1.759,0,0,1-.409.615,1.84,1.84,0,0,1-.659.407,2.605,2.605,0,0,1-.888.145,2.222,2.222,0,0,1-.863-.137,2.369,2.369,0,0,1-.556-.319,2.067,2.067,0,0,0,.106-.357q.03-.16.054-.408h.1A1.692,1.692,0,0,0,298.6,148.794Z" transform="translate(-187.177 -143.444)" fill="#0d0d0d"/><path d="M309.219,144.924c-.015-.363-.033-.733-.052-1.111.074.012.146.021.215.029a1.664,1.664,0,0,0,.206.012,1.758,1.758,0,0,0,.205-.014c.069-.009.14-.019.215-.031q-.024.568-.043,1.112t-.016,1.112l.006,1.476c0,.378.011.75.027,1.116s.033.728.053,1.081c-.132-.01-.273-.016-.421-.015s-.289.008-.421.019c.016-.354.03-.716.043-1.082s.018-.738.016-1.116l-.006-1.476C309.244,145.658,309.235,145.288,309.219,144.924Z" transform="translate(-193.539 -143.576)" fill="#0d0d0d"/><path d="M314.1,145.284a2.729,2.729,0,0,1,.656-.969,2.87,2.87,0,0,1,1.015-.605,3.926,3.926,0,0,1,1.295-.212,3.965,3.965,0,0,1,1.306.2,2.86,2.86,0,0,1,1.019.6,2.71,2.71,0,0,1,.665.963,3.692,3.692,0,0,1,.012,2.6,2.646,2.646,0,0,1-1.671,1.561,4.476,4.476,0,0,1-2.6.012,2.647,2.647,0,0,1-1.685-1.546,3.7,3.7,0,0,1-.012-2.6Zm5.171.046a2.321,2.321,0,0,0-.506-.856,2,2,0,0,0-.757-.5,2.648,2.648,0,0,0-.941-.158,2.618,2.618,0,0,0-.93.167,2.009,2.009,0,0,0-.753.507,2.331,2.331,0,0,0-.5.86,4.3,4.3,0,0,0,.011,2.463,2.325,2.325,0,0,0,.5.856,2.008,2.008,0,0,0,.758.5,2.629,2.629,0,0,0,.932.159,2.657,2.657,0,0,0,.94-.167,1.994,1.994,0,0,0,.753-.506,2.311,2.311,0,0,0,.5-.86,4.283,4.283,0,0,0-.011-2.462Z" transform="translate(-196.255 -143.396)" fill="#0d0d0d"/><path d="M334.59,147.218q-1.123-1.193-2.242-2.372c-.005.16-.011.375-.015.644s-.005.635,0,1.1c0,.12,0,.269.007.446s.007.363.011.558.009.392.016.592.013.386.019.558.012.322.019.451.012.215.018.262a2.548,2.548,0,0,0-.3-.016,2.916,2.916,0,0,0-.317.018c.011-.057.023-.163.037-.317s.026-.339.035-.553.023-.449.036-.7.024-.5.031-.756.013-.5.018-.738.007-.455.006-.643q0-.824-.011-1.417t-.026-.884h.138l1.125,1.21q.6.646,1.191,1.274t1.121,1.188q.53.56.926.952l-.005-1.167q0-.9-.021-1.756t-.063-1.609a1.187,1.187,0,0,0,.292.042,1.156,1.156,0,0,0,.274-.045c-.01.127-.022.315-.035.566s-.026.522-.039.807-.025.566-.035.841-.016.5-.015.661c0,.143,0,.315,0,.515s0,.4.008.61.007.425.011.64.008.414.011.6.005.348.006.485,0,.221,0,.283h-.12Q335.711,148.411,334.59,147.218Z" transform="translate(-206.612 -143.368)" fill="#0d0d0d"/><path d="M351.193,149.355a1.691,1.691,0,0,0-.228-.016h-.455a1.683,1.683,0,0,0-.227.018q-.06-.2-.165-.476t-.23-.582c-.085-.2-.169-.408-.256-.617s-.168-.407-.243-.6l-.559-.01c-.188,0-.377,0-.566,0s-.351,0-.523.006-.346.009-.524.015q-.272.672-.493,1.278t-.33,1a2.865,2.865,0,0,0-.318-.016,2.821,2.821,0,0,0-.317.019q.688-1.5,1.343-2.993t1.317-3.027h.163q.208.5.451,1.076t.495,1.169q.252.591.5,1.173t.472,1.084q.221.5.4.9T351.193,149.355Zm-3.814-2.652c.149,0,.3,0,.463.006s.315.007.464.007.32,0,.48-.007.321-.008.481-.015l-.963-2.176Z" transform="translate(-214.674 -143.316)" fill="#0d0d0d"/><path d="M360.784,144.692q-.023-.545-.052-1.111c.074.012.146.021.215.029a1.677,1.677,0,0,0,.206.012,1.762,1.762,0,0,0,.206-.014c.069-.009.14-.019.215-.031-.015.379-.03.749-.042,1.112s-.019.734-.017,1.112q.005,1.081.018,1.875t.024,1.421c.406,0,.795-.008,1.167-.019a10.914,10.914,0,0,0,1.2-.1.98.98,0,0,0-.041.258.782.782,0,0,0,.044.231c-.263-.01-.527-.014-.789-.014l-.79,0-.795,0q-.382,0-.794.021c.016-.354.03-.716.043-1.082s.018-.738.016-1.116l-.007-1.476Q360.809,145.237,360.784,144.692Z" transform="translate(-223.321 -143.442)" fill="#0d0d0d"/><path d="M370.484,148.471a1.411,1.411,0,0,0,.284.286,1.465,1.465,0,0,0,.392.208,1.437,1.437,0,0,0,.5.079,1.285,1.285,0,0,0,.511-.1,1.187,1.187,0,0,0,.385-.269,1.16,1.16,0,0,0,.242-.395,1.364,1.364,0,0,0,.084-.486.923.923,0,0,0-.2-.625,1.671,1.671,0,0,0-.5-.384,5.806,5.806,0,0,0-.65-.281,3.313,3.313,0,0,1-.648-.318,1.732,1.732,0,0,1-.5-.491,1.43,1.43,0,0,1-.205-.806,1.638,1.638,0,0,1,.125-.658,1.437,1.437,0,0,1,.372-.512,1.753,1.753,0,0,1,.586-.337,2.308,2.308,0,0,1,.772-.125,2.283,2.283,0,0,1,.713.1,1.784,1.784,0,0,1,.559.3,1.879,1.879,0,0,0-.128.31c-.033.109-.067.246-.1.412h-.1a2.165,2.165,0,0,0-.117-.261,1,1,0,0,0-.2-.261,1.106,1.106,0,0,0-.3-.2.956.956,0,0,0-.413-.079,1.241,1.241,0,0,0-.441.079,1.049,1.049,0,0,0-.351.221.97.97,0,0,0-.231.339,1.115,1.115,0,0,0-.079.43.936.936,0,0,0,.2.634,1.713,1.713,0,0,0,.5.389,5.037,5.037,0,0,0,.65.28,3.666,3.666,0,0,1,.649.3,1.655,1.655,0,0,1,.5.461,1.267,1.267,0,0,1,.205.754,2,2,0,0,1-.138.748,1.765,1.765,0,0,1-.41.615,1.845,1.845,0,0,1-.659.406,2.609,2.609,0,0,1-.887.145,2.224,2.224,0,0,1-.863-.137,2.366,2.366,0,0,1-.556-.32,1.929,1.929,0,0,0,.106-.357c.019-.106.038-.242.055-.408h.1A1.646,1.646,0,0,0,370.484,148.471Z" transform="translate(-228.694 -143.258)" fill="#0d0d0d"/></g></g></svg>