<svg xmlns="http://www.w3.org/2000/svg" width="30.656" height="36" viewBox="0 0 30.656 36"><defs><style>.a{fill:#fdc333;}</style></defs><g transform="translate(0 0.001)"><path class="a" d="M30.62,9.767V9.739c-.016-.346-.026-.712-.032-1.119a3.815,3.815,0,0,0-3.593-3.738A14.805,14.805,0,0,1,16.917.635L16.894.613a2.3,2.3,0,0,0-3.131,0L13.74.635A14.807,14.807,0,0,1,3.663,4.883,3.815,3.815,0,0,0,.07,8.62c-.006.4-.017.77-.032,1.118l0,.065c-.08,4.221-.18,9.474,1.577,14.241A18.129,18.129,0,0,0,5.962,30.82a22.751,22.751,0,0,0,8.511,5.034,2.636,2.636,0,0,0,.349.095,2.576,2.576,0,0,0,1.013,0,2.644,2.644,0,0,0,.35-.1,22.766,22.766,0,0,0,8.5-5.037,18.154,18.154,0,0,0,4.349-6.776C30.8,19.258,30.7,14,30.62,9.767ZM27.054,23.309c-1.853,5.025-5.637,8.476-11.566,10.55a.531.531,0,0,1-.067.018.474.474,0,0,1-.186,0,.526.526,0,0,1-.067-.018C9.233,31.789,5.447,28.34,3.6,23.315,1.976,18.92,2.067,14.1,2.148,9.844V9.821c.016-.366.027-.748.034-1.169a1.7,1.7,0,0,1,1.6-1.66,18.534,18.534,0,0,0,6.291-1.384A16.458,16.458,0,0,0,15.2,2.164a.2.2,0,0,1,.261,0,16.465,16.465,0,0,0,5.126,3.444,18.535,18.535,0,0,0,6.291,1.384,1.7,1.7,0,0,1,1.6,1.66c.006.423.017.806.034,1.169C28.589,14.079,28.679,18.905,27.054,23.309Zm0,0" transform="translate(0 0)"/><path class="a" d="M99.37,128.41a8.972,8.972,0,1,0,8.972,8.972A8.982,8.982,0,0,0,99.37,128.41Zm0,15.831a6.859,6.859,0,1,1,6.859-6.859A6.867,6.867,0,0,1,99.37,144.241Zm0,0" transform="translate(-84.042 -119.382)"/><path class="a" d="M160.774,212.3l-4.167,4.167-1.131-1.131a1.056,1.056,0,1,0-1.494,1.494l1.878,1.878a1.056,1.056,0,0,0,1.494,0l4.914-4.914a1.056,1.056,0,1,0-1.494-1.494Zm0,0" transform="translate(-142.867 -197.086)"/></g></svg>