<svg xmlns="http://www.w3.org/2000/svg" viewBox="0 0 96 96"><defs><style>.cls-1{fill:#f9f9f9;}.cls-2{fill:none;stroke:#707070;stroke-dasharray:10;}.cls-3{fill:#9a9ca0;}</style></defs><title>replace</title><g id="Layer_2" data-name="Layer 2"><g id="Layer_1-2" data-name="Layer 1"><g id="Rectangle_680" data-name="Rectangle 680"><rect class="cls-1" width="96" height="96" rx="8"/><rect class="cls-2" x="0.5" y="0.5" width="95" height="95" rx="7.5"/></g><path d="M28.48,76.16H26.59l-2.44-2.81H22.62v2.81H21V67.75h4a2.78,2.78,0,0,1,3,2.78,2.49,2.49,0,0,1-2.12,2.64l2.54,2.87Zm-5.86-6.92v2.68H25a1.34,1.34,0,1,0,0-2.68Z"/><path d="M35.39,76.16H29.11v-8.4h6.28V69.3H30.68v1.93h4.54V72.7H30.68v1.9h4.71Z"/><path d="M40.58,73.69H38.2v2.47H36.62v-8.4h4A3,3,0,1,1,40.58,73.69ZM38.2,72.24h2.38a1.49,1.49,0,1,0,0-3H38.2Z"/><path d="M46.31,67.76v6.93h4.32v1.47h-5.9v-8.4Z"/><path d="M57.71,74.57H53.32l-.72,1.59H50.89l3.76-8.4h1.73l3.77,8.4H58.42Zm-2.19-5L54,73.1h3.12Z"/><path d="M67.77,75.1a4.45,4.45,0,0,1-3.19,1.25A4.13,4.13,0,0,1,60.13,72a4.22,4.22,0,0,1,4.45-4.43,4.37,4.37,0,0,1,3.08,1.29l-1.06,1a2.86,2.86,0,0,0-2-.79A2.74,2.74,0,0,0,61.69,72a2.69,2.69,0,0,0,2.89,2.84A3.11,3.11,0,0,0,66.69,74Z"/><path d="M74.92,76.16H68.63v-8.4h6.29V69.3H70.2v1.93h4.55V72.7H70.2v1.9h4.72Z"/><rect class="cls-1" x="40" y="12.81" width="29" height="29" rx="4"/><path class="cls-3" d="M63,42.31v-1h2L65,42v.28Zm-2,0h-2v-1h2Zm-4,0h-2v-1h2Zm-4,0h-2v-1h2Zm-4,0h-2v-1h2Zm-4,0H44a4.69,4.69,0,0,1-1.35-.2l.3-1a3.34,3.34,0,0,0,1,.16h.8Zm22.42-.58-.49-.87A3.59,3.59,0,0,0,68,39.64l.85.52A4.6,4.6,0,0,1,67.22,41.73Zm-26.48-.82a4.43,4.43,0,0,1-1.09-2l1-.25a3.62,3.62,0,0,0,.85,1.53ZM69.49,38l-1-.05V36h1v1.84A1.48,1.48,0,0,1,69.49,38Zm-29-1.2h-1v-2h1ZM69.5,34h-1v-2h1Zm-29-1.18h-1v-2h1Zm29-2.86h-1v-2h1Zm-29-1.18h-1v-2h1Zm29-2.86h-1v-2h1Zm-29-1.18h-1v-2h1Zm29-2.86h-1v-2h1Zm-29-1.18h-1v-2h1Zm29-2.86h-1v-1a3.42,3.42,0,0,0-.12-.9l1-.26a4.58,4.58,0,0,1,.15,1.17Zm-29-1.15-1-.05a4.44,4.44,0,0,1,.66-2.15L41,15A3.52,3.52,0,0,0,40.5,16.64Zm27-2.25A3.41,3.41,0,0,0,66,13.47l.3-1a4.69,4.69,0,0,1,1.91,1.18Zm-25.23-.63-.49-.87A4.57,4.57,0,0,1,44,12.31v1A3.56,3.56,0,0,0,42.29,13.76Zm21.89-.45h-2v-1h2Zm-4,0h-2v-1h2Zm-4,0h-2v-1h2Zm-4,0H50v-1h2Zm-4,0H46v-1h2Z"/><rect class="cls-3" x="27" y="25.81" width="29" height="29" rx="4"/><line class="cls-3" x1="44.2" y1="37.8" x2="60.59" y2="21.41"/><rect class="cls-3" x="40.3" y="28.61" width="24.19" height="2" transform="translate(-5.59 45.72) rotate(-45)"/><path class="cls-1" d="M60.24,21.05l.71.71-16.4,16.4-.71-.71,16.4-16.4m0-1.41-.71.71L43.14,36.74l-.71.71.71.71.7.7.71.71.71-.71L61.65,22.47l.71-.71-.71-.71-.7-.7-.71-.71Z"/><polygon class="cls-3" points="60.98 25.13 60.27 25.1 60.4 21.6 56.9 21.73 56.88 21.02 61.14 20.86 60.98 25.13"/></g></g></svg>