<svg xmlns="http://www.w3.org/2000/svg" width="95.243" height="84.952" viewBox="0 0 95.243 84.952"><defs><style>.a{fill:#f3fffb;}.b{fill:#555e65;}.c{fill:#fff;}.d,.f,.g{fill:none;}.e{fill:#161616;opacity:0.1;}.f,.g{stroke:#707070;stroke-linecap:round;stroke-width:0.5px;}.f{opacity:0.31;}.g{opacity:0.4;}</style></defs><g transform="translate(0 0)"><path class="a" d="M125.693,91.926l-49.92,6.35L36.8,91.926V22.3l38.973,6.568,49.92-6.568Z" transform="translate(-31.326 -14.418)"/><path class="b" d="M76.268,100.084h0L36.2,93.3V21.7l40.068,6.787,51.015-6.568v71.6ZM38.608,91.545l37.878,6.35,48.826-6.35V24.327l-49.045,6.35h0l-37.659-6.35Z" transform="translate(-32.04 -15.132)"/><path class="c" d="M123.912,88.926,78.371,95.494,34.8,88.926V19.3l44.228,6.568L123.912,19.3Z" transform="translate(-33.705 -17.986)"/><path class="b" d="M78.966,97.084h0L34.3,90.515v-71.6l45.322,6.568L125.6,18.7V90.3Zm-42.476-8.32,42.476,6.35,44.447-6.35V21.327l-43.79,6.35H79.4l-42.914-6.35V88.764Z" transform="translate(-34.3 -18.7)"/><line class="d" y2="21.676" transform="translate(44.447 23.209)"/><line class="d" y2="4.16" transform="translate(44.447 51.453)"/><path class="e" d="M54.6,25.368V94.994l45.541-5.255,1.314-70.94Z" transform="translate(-10.153 -18.581)"/><g transform="translate(6.131 10.51)"><line class="f" x2="35.032" y2="4.379"/><line class="f" x2="35.032" y2="4.379" transform="translate(0 6.568)"/><line class="f" x2="35.032" y2="4.379" transform="translate(0 13.137)"/><line class="f" x2="35.032" y2="4.379" transform="translate(0 19.705)"/><line class="f" x2="35.032" y2="4.379" transform="translate(0 26.274)"/><line class="f" x2="35.032" y2="4.379" transform="translate(0 32.842)"/><line class="f" x2="35.032" y2="4.379" transform="translate(0 39.411)"/><line class="f" x2="35.032" y2="4.379" transform="translate(0 45.979)"/><line class="f" x2="35.032" y2="4.379" transform="translate(0 52.548)"/></g><g transform="translate(49.92 10.51)"><line class="g" x1="35.032" y2="4.379"/><line class="g" x1="35.032" y2="4.379" transform="translate(0 6.568)"/><line class="g" x1="35.032" y2="4.379" transform="translate(0 13.137)"/><line class="g" x1="35.032" y2="4.379" transform="translate(0 19.705)"/><line class="g" x1="35.032" y2="4.379" transform="translate(0 26.274)"/><line class="g" x1="35.032" y2="4.379" transform="translate(0 32.842)"/><line class="g" x1="35.032" y2="4.379" transform="translate(0 39.411)"/><line class="g" x1="35.032" y2="4.379" transform="translate(0 45.979)"/><line class="g" x1="35.032" y2="4.379" transform="translate(0 52.548)"/></g></g></svg>