<svg xmlns="http://www.w3.org/2000/svg" width="46.024" height="63" viewBox="0 0 46.024 63"><defs><style>.a{fill:#8c98f1;}.b{fill:#555e65;}.c{fill:#f3fffb;}.d{fill:#fff;}</style></defs><g transform="translate(-0.275 0)"><path class="a" d="M45.3,53H24c-.4,0-.6.3-.6.7v7.7a.669.669,0,0,1-.6.7H6.8a4.547,4.547,0,0,1-4.4-4.6h0V4.5A4.294,4.294,0,0,1,6.6,0H44a1.344,1.344,0,0,1,1.3,1.4Z"/><path class="b" d="M22.2,63H5.4A5.121,5.121,0,0,1,.3,57.9V4.9A4.93,4.93,0,0,1,5.3,0H44.4a1.9,1.9,0,0,1,1.9,1.9h0V54H23.6a.215.215,0,0,0-.2.2v7.7a1.136,1.136,0,0,1-.3.8A1.613,1.613,0,0,1,22.2,63ZM5.3,1A3.842,3.842,0,0,0,1.4,4.9v53a4.1,4.1,0,0,0,4,4.1H22.2a.215.215,0,0,0,.2-.2V54.1a1.216,1.216,0,0,1,1.2-1.2H45.4V1.9a.9.9,0,0,0-.9-.9H5.3Z"/><path class="c" d="M45.8,63H6.7a4.376,4.376,0,0,1-4.3-4.5h0A4.442,4.442,0,0,1,6.7,54H45.8l-.5.6A6.52,6.52,0,0,0,45.8,63Z"/><path class="b" d="M45.8,63H5.3a5,5,0,0,1,0-10H45.8a.472.472,0,0,1,.5.5.367.367,0,0,1-.1.3l-.5.6a5.828,5.828,0,0,0,.4,7.8c.1.1.2.4.1.5C46.2,62.9,46,63,45.8,63ZM5.3,54a4,4,0,0,0,0,8H44.7a6.912,6.912,0,0,1,0-8Z"/><path class="d" d="M45.4,41.5H36.8L30.1,49H2.3S1.8,18,2,18h8.8l6.6-7.5h28C45.5,10.5,45.3,41.5,45.4,41.5Z"/><path class="b" d="M.6,49.1v-.5C.1,17.6.3,17.4.4,17.2l.2-.1H9.7l6.9-7.5H46.3v.5c0,8.3-.2,30.1-.1,30.9h-.5v.5H37L30.1,49Zm.7-31c-.1,2.8.1,18.9.3,30h28l6.9-7.5h8.7c-.1-1.9-.1-8.1.1-30H17.1l-6.9,7.5H1.3Z"/><rect class="b" width="12.4" height="2.5" transform="translate(29.9 6.5)"/></g></svg>