<svg xmlns="http://www.w3.org/2000/svg" width="66.551" height="91.021" viewBox="0 0 66.551 91.021"><defs><style>.a{fill:#ffb5b5;}.b{fill:#555e65;}.c{fill:#f3fffb;}.d{fill:#fff;}</style></defs><g transform="translate(0 0)"><g transform="translate(0 0)"><path class="a" d="M101.828,81.858H71.046a1.068,1.068,0,0,0-.993.993V93.939a.954.954,0,0,1-.993.993H45.891a6.264,6.264,0,0,1-6.289-6.62h0V11.689A6.116,6.116,0,0,1,45.56,5.4H99.842a2.012,2.012,0,0,1,1.986,1.986Z" transform="translate(-36.767 -5.235)"/><path class="b" d="M69.444,96.321H45.282A7.346,7.346,0,0,1,38,89.039V12.416A7.064,7.064,0,0,1,45.116,5.3h56.433a2.9,2.9,0,0,1,2.813,2.813h0V83.247H71.43a.162.162,0,0,0-.165.165V94.5a1.993,1.993,0,0,1-1.82,1.82ZM45.116,6.789a5.58,5.58,0,0,0-5.627,5.627V88.874a5.9,5.9,0,0,0,5.792,5.958H69.444a.162.162,0,0,0,.165-.165V83.578a1.658,1.658,0,0,1,1.655-1.655h31.444V8.113a1.424,1.424,0,0,0-1.324-1.324H45.116Z" transform="translate(-37.812 -5.3)"/><path class="c" d="M102.422,65.408H45.989A6.429,6.429,0,0,1,39.7,58.954h0A6.429,6.429,0,0,1,45.989,52.5h56.6l-.827.827A9.3,9.3,0,0,0,102.422,65.408Z" transform="translate(-36.698 25.613)"/><path class="b" d="M103.6,66.063H45.182a7.282,7.282,0,0,1,0-14.563H103.6a.712.712,0,0,1,.662.662.608.608,0,0,1-.165.5l-.662.827a8.4,8.4,0,0,0,.662,11.254.728.728,0,0,1,.165.827C104.263,65.9,103.932,66.063,103.6,66.063ZM45.182,53.155a5.792,5.792,0,0,0,0,11.584h56.929a9.941,9.941,0,0,1,0-11.584Z" transform="translate(-37.877 24.958)"/><path class="d" d="M101.993,59.118H89.581l-9.6,10.923H39.768s-.662-44.683-.331-44.683H52.18l9.6-10.757h40.38C102.158,14.435,101.993,59.118,101.993,59.118Z" transform="translate(-36.931 0.791)"/><path class="b" d="M38.406,70.73v-.662c-.827-44.683-.5-45.014-.165-45.345l.165-.165H51.479L61.409,13.8h42.863v.662c0,12.081-.331,43.359-.165,44.683h-.662v.827H90.867L80.937,70.73ZM39.4,26.046c-.165,3.972.165,27.306.5,43.359h40.38L90.2,58.649h12.577c-.165-2.648-.165-11.75.165-43.359H62.071l-9.93,10.757Z" transform="translate(-37.886 0.267)"/><rect class="b" width="18.039" height="3.641" transform="translate(42.72 9.433)"/></g></g></svg>