<svg xmlns="http://www.w3.org/2000/svg" width="158.857" height="53.81" viewBox="0 0 158.857 53.81"><defs><style>.a{fill:#f2f3f7;}.b{opacity:0.05;}</style></defs><g transform="translate(-189.744 -180.383)"><path class="a" d="M221.553,181.085c2.518.7,4.874,1.926,7.412,2.551a32.969,32.969,0,0,0,9.421.465l77.858-3.636c4.24-.2,9.033-.193,12.011,2.833,1.391,1.413,2.2,3.341,3.7,4.642,4.74,4.123,14.862,1.2,16.474,7.118a5.622,5.622,0,0,1-1.7,5.455c-2.751,2.666-6.522,3.093-9.823,4.6a25.536,25.536,0,0,0-8.578,7,3.068,3.068,0,0,1-5.12-.655l-.076-.16a3.089,3.089,0,0,0-5.795.584l-.532,2.176a2.318,2.318,0,0,1-2.392,1.827c-1.978-.2-1.811-3.094-2.346-5.016-.952-3.422-5.335-4.454-8.875-4.162a44.155,44.155,0,0,1-7.031.469,3.823,3.823,0,0,0-3.54,1.888,4.379,4.379,0,0,1-4.22,2.026,6.072,6.072,0,0,1-2.818-1.37,3.832,3.832,0,0,0-4.425-.41,5.651,5.651,0,0,1-5.6.223c-3.039-1.875-4.619-5.545-7.661-7.415-2.5-1.534-5.588-1.625-8.519-1.672l-17.475-.277a2.471,2.471,0,0,0-2.463,1.89,14.657,14.657,0,0,1-.889,2.691,2.5,2.5,0,0,1-4.44.188l-.025-.044a2.5,2.5,0,0,0-4.568.535,6.19,6.19,0,0,1-1.388,2.738,2.938,2.938,0,0,1-3.026.9c-1.351-.454-1.7-1.814-2-3.036-.957-3.8-2.519-7.722-5.736-9.955s-8.451-1.851-10.246,1.629c-.906,1.758-.924,4.124-3.321,4.714a3.989,3.989,0,0,1-2.436-.243c-9.549-3.888-16.355-7.132-7.488-14.076C200.719,182.728,213.029,178.7,221.553,181.085Z"/><path class="b" d="M347.2,193a9.969,9.969,0,0,1-7.634,6.012c-4.613.557-10.232-1.908-13.406,1.486-1.374,1.468-2.547,4.049-4.463,3.438-1.4-.446-2.125-2.561-3.568-2.3-1.461.262-1.6,2.726-3.053,3.032-1.991.419-1.993-3.2-3.681-4.337-1.493-1-3.368.393-5.093.909-4.31,1.288-9.379-3.168-13.109-.654a17.577,17.577,0,0,0-2.695,2.947c-.91.978-2.329,1.75-3.551,1.21-1.165-.514-1.645-2-2.789-2.558-2.312-1.129-4.389,2.212-6.929,2.62-2.1.337-3.945-1.427-5.043-3.247s-1.926-3.934-3.68-5.135a10.4,10.4,0,0,0-4.955-1.344L247.516,193.5c-2.807-.275-5.923-.467-8.15,1.265-1.041.81-1.776,1.973-2.855,2.732s-2.792.945-3.56-.128c-.5-.7-.525-1.8-1.312-2.135-1.914-.818-1.815,4-4.249,3.739a2.1,2.1,0,0,1-1.72-1.581q-.389-1.394-.775-2.788a3.747,3.747,0,0,0-4.009-2.779,5.084,5.084,0,0,1-3.937-1.1c-1.1-.939-1.759-2.326-2.927-3.171-3.056-2.21-7.278.439-9.66,3.363s-4.847,6.579-8.615,6.74a7.793,7.793,0,0,1-4.094-1.136,12.145,12.145,0,0,1-1.448-.975c1.4,2.505,5.849,4.466,11.15,6.624a3.989,3.989,0,0,0,2.436.243c2.4-.59,2.415-2.956,3.321-4.714,1.795-3.48,7.029-3.862,10.246-1.629s4.779,6.158,5.736,9.955c.308,1.222.652,2.582,2,3.035a2.934,2.934,0,0,0,3.026-.9,6.188,6.188,0,0,0,1.388-2.739,2.5,2.5,0,0,1,4.568-.533l.025.044a2.5,2.5,0,0,0,4.439-.186,14.579,14.579,0,0,0,.89-2.693,2.466,2.466,0,0,1,2.459-1.89l17.479.277c2.931.047,6.022.138,8.519,1.672,3.042,1.87,4.622,5.54,7.661,7.415a5.652,5.652,0,0,0,5.586-.215,3.876,3.876,0,0,1,4.455.416,6.052,6.052,0,0,0,2.8,1.356,4.378,4.378,0,0,0,4.22-2.026,3.823,3.823,0,0,1,3.54-1.888,44.155,44.155,0,0,0,7.031-.469c4.141-.341,9.437,1.129,9.042,6.119a2.879,2.879,0,0,0,1.215,2.719,2.23,2.23,0,0,0,3.356-1.487l.532-2.176a3.089,3.089,0,0,1,5.795-.585l.076.161a3.069,3.069,0,0,0,5.121.654,25.541,25.541,0,0,1,8.577-7c3.389-1.542,7.274-1.951,10.042-4.814a5.562,5.562,0,0,0,1.574-4.849A4.442,4.442,0,0,0,347.2,193Z"/><path class="b" d="M274.277,193.389a1.025,1.025,0,1,1-1.024-1.024A1.024,1.024,0,0,1,274.277,193.389Z"/><path class="b" d="M286.359,195.268a.855.855,0,1,1-.855-.855A.855.855,0,0,1,286.359,195.268Z"/><path class="b" d="M304.092,193.389a1.025,1.025,0,1,1-1.025-1.024A1.024,1.024,0,0,1,304.092,193.389Z"/><path class="b" d="M315.092,194.388a.88.88,0,1,1-.88-.879A.88.88,0,0,1,315.092,194.388Z"/><path class="b" d="M326.563,191.792a.572.572,0,1,1-.573-.572A.574.574,0,0,1,326.563,191.792Z"/><path class="b" d="M234.227,190.459a.761.761,0,1,1-.761-.762A.761.761,0,0,1,234.227,190.459Z"/><path class="b" d="M220.285,186.873a.566.566,0,1,1-.566-.566A.566.566,0,0,1,220.285,186.873Z"/><path class="b" d="M198.149,191.588a1.129,1.129,0,1,1-1.129-1.129A1.128,1.128,0,0,1,198.149,191.588Z"/><path class="a" d="M326.871,218.934a.727.727,0,1,1-.726-.727A.726.726,0,0,1,326.871,218.934Z"/><path class="a" d="M312.716,221.4a1.193,1.193,0,1,1-1.194-1.194A1.195,1.195,0,0,1,312.716,221.4Z"/><path class="a" d="M280.642,217.05a1.156,1.156,0,1,1-1.157-1.157A1.157,1.157,0,0,1,280.642,217.05Z"/><path class="a" d="M240.187,214.8a1.1,1.1,0,1,1-1.1-1.1A1.1,1.1,0,0,1,240.187,214.8Z"/><path class="a" d="M226.642,217.05a1.157,1.157,0,1,1-1.157-1.157A1.157,1.157,0,0,1,226.642,217.05Z"/><path class="a" d="M209.089,210.4a1.047,1.047,0,1,1-1.047-1.047A1.047,1.047,0,0,1,209.089,210.4Z"/><circle class="a" cx="1.003" cy="1.003" r="1.003" transform="translate(209.089 221.507)"/><path class="a" d="M254.983,214.232a1.66,1.66,0,1,1-1.661-1.66A1.661,1.661,0,0,1,254.983,214.232Z"/><path class="a" d="M257.467,232.95a1.242,1.242,0,1,1-1.242-1.242A1.243,1.243,0,0,1,257.467,232.95Z"/></g></svg>