<svg xmlns="http://www.w3.org/2000/svg" xmlns:xlink="http://www.w3.org/1999/xlink" width="30" height="328.857" viewBox="0 0 30 328.857"><defs><style>.a{fill:#202020;}.b{fill:#363636;}.c{fill:url(#a);}.d{fill:url(#b);}.e{fill:url(#c);}.f{fill:url(#d);}.g{fill:url(#e);}.h{fill:url(#f);}.i{fill:url(#h);}.j{fill:url(#j);}.k{fill:url(#l);}.l{fill:url(#n);}.m{fill:url(#aq);}.n{fill:url(#cb);}.o{fill:url(#cn);}.p{fill:url(#cp);}</style><linearGradient id="a" x1="1" y1="0.5" x2="0" y2="0.5" gradientUnits="objectBoundingBox"><stop offset="0" stop-color="#666"/><stop offset="0.292" stop-color="#f1f1f1"/><stop offset="0.379" stop-color="#f1f1f1"/><stop offset="0.428" stop-color="#dfdfdf"/><stop offset="0.733" stop-color="#777"/><stop offset="0.869" stop-color="#4e4e4e"/><stop offset="0.932" stop-color="#454545"/><stop offset="1" stop-color="#363636"/></linearGradient><linearGradient id="b" x1="0.5" y1="1" x2="0.5" gradientUnits="objectBoundingBox"><stop offset="0" stop-color="#666"/><stop offset="0.6" stop-color="#fbfbfb"/><stop offset="0.713" stop-color="#f6f6f6"/><stop offset="0.829" stop-color="#eaeaea"/><stop offset="0.947" stop-color="#d5d5d5"/><stop offset="1" stop-color="#cacaca"/></linearGradient><linearGradient id="c" x1="1" y1="0.5" x2="0" y2="0.5" xlink:href="#a"/><linearGradient id="d" x1="0.5" y1="1" x2="0.5" y2="0" xlink:href="#b"/><linearGradient id="e" x1="1" y1="0.5" x2="0" y2="0.5" xlink:href="#a"/><linearGradient id="f" x1="0.5" y1="1" x2="0.5" y2="0" xlink:href="#b"/><linearGradient id="h" x1="0.5" y1="1" x2="0.5" y2="0" xlink:href="#b"/><linearGradient id="j" x1="0.5" y1="1" x2="0.5" y2="0" xlink:href="#b"/><linearGradient id="l" x1="0.5" y1="1" x2="0.5" y2="0" xlink:href="#b"/><linearGradient id="n" x1="0.5" y1="1" x2="0.5" y2="0" xlink:href="#b"/><linearGradient id="aq" x1="1" y1="0.5" x2="0" y2="0.5" xlink:href="#a"/><linearGradient id="cb" x1="0.5" y1="1" x2="0.5" y2="0" xlink:href="#b"/><linearGradient id="cn" x1="0.5" y1="1" x2="0.5" y2="0" xlink:href="#b"/><linearGradient id="cp" x1="0.5" y1="1" x2="0.5" y2="0" xlink:href="#b"/></defs><g transform="translate(0 0)"><g transform="translate(0)"><rect class="a" width="5.133" height="5.723" rx="2.23" transform="translate(0 323.134)"/><rect class="a" width="5.133" height="5.723" rx="2.23" transform="translate(0 309.085)"/><rect class="a" width="5.133" height="5.723" rx="2.23" transform="translate(0 295.035)"/><rect class="a" width="5.133" height="5.723" rx="2.23" transform="translate(0 280.986)"/><rect class="a" width="5.133" height="5.723" rx="2.23" transform="translate(0 266.937)"/><rect class="a" width="5.133" height="5.723" rx="2.23" transform="translate(0 252.888)"/><rect class="a" width="5.133" height="5.723" rx="2.23" transform="translate(0 238.838)"/><rect class="a" width="5.133" height="5.723" rx="2.23" transform="translate(0 224.789)"/><rect class="a" width="5.133" height="5.723" rx="2.23" transform="translate(0 210.74)"/><rect class="a" width="5.133" height="5.723" rx="2.23" transform="translate(0 196.69)"/><rect class="a" width="5.133" height="5.723" rx="2.23" transform="translate(0 182.641)"/><rect class="a" width="5.133" height="5.723" rx="2.23" transform="translate(0 168.592)"/><rect class="a" width="5.133" height="5.723" rx="2.23" transform="translate(0 154.542)"/><rect class="a" width="5.133" height="5.723" rx="2.23" transform="translate(0 140.493)"/><rect class="a" width="5.133" height="5.723" rx="2.23" transform="translate(0 126.444)"/><rect class="a" width="5.133" height="5.723" rx="2.23" transform="translate(0 112.394)"/><rect class="a" width="5.133" height="5.723" rx="2.23" transform="translate(0 98.345)"/><rect class="a" width="5.133" height="5.723" rx="2.23" transform="translate(0 84.296)"/><rect class="a" width="5.133" height="5.723" rx="2.23" transform="translate(0 70.247)"/><rect class="a" width="5.133" height="5.723" rx="2.23" transform="translate(0 56.197)"/><rect class="a" width="5.133" height="5.723" rx="2.23" transform="translate(0 42.148)"/><rect class="a" width="5.133" height="5.723" rx="2.23" transform="translate(0 28.099)"/><rect class="a" width="5.133" height="5.723" rx="2.23" transform="translate(0 14.049)"/><rect class="a" width="5.133" height="5.723" rx="2.23" transform="translate(0)"/></g><g transform="translate(24.867)"><rect class="b" width="5.133" height="5.723" rx="2.23" transform="translate(0 323.134)"/><rect class="b" width="5.133" height="5.723" rx="2.23" transform="translate(0 309.085)"/><rect class="b" width="5.133" height="5.723" rx="2.23" transform="translate(0 295.035)"/><rect class="b" width="5.133" height="5.723" rx="2.23" transform="translate(0 280.986)"/><rect class="b" width="5.133" height="5.723" rx="2.23" transform="translate(0 266.937)"/><rect class="b" width="5.133" height="5.723" rx="2.23" transform="translate(0 252.888)"/><rect class="b" width="5.133" height="5.723" rx="2.23" transform="translate(0 238.838)"/><rect class="b" width="5.133" height="5.723" rx="2.23" transform="translate(0 224.789)"/><rect class="b" width="5.133" height="5.723" rx="2.23" transform="translate(0 210.74)"/><rect class="b" width="5.133" height="5.723" rx="2.23" transform="translate(0 196.69)"/><rect class="b" width="5.133" height="5.723" rx="2.23" transform="translate(0 182.641)"/><rect class="b" width="5.133" height="5.723" rx="2.23" transform="translate(0 168.592)"/><rect class="b" width="5.133" height="5.723" rx="2.23" transform="translate(0 154.542)"/><rect class="b" width="5.133" height="5.723" rx="2.23" transform="translate(0 140.493)"/><rect class="b" width="5.133" height="5.723" rx="2.23" transform="translate(0 126.444)"/><rect class="b" width="5.133" height="5.723" rx="2.23" transform="translate(0 112.394)"/><rect class="b" width="5.133" height="5.723" rx="2.23" transform="translate(0 98.345)"/><rect class="b" width="5.133" height="5.723" rx="2.23" transform="translate(0 84.296)"/><rect class="b" width="5.133" height="5.723" rx="2.23" transform="translate(0 70.247)"/><rect class="b" width="5.133" height="5.723" rx="2.23" transform="translate(0 56.197)"/><rect class="b" width="5.133" height="5.723" rx="2.23" transform="translate(0 42.148)"/><rect class="b" width="5.133" height="5.723" rx="2.23" transform="translate(0 28.099)"/><rect class="b" width="5.133" height="5.723" rx="2.23" transform="translate(0 14.049)"/><rect class="b" width="5.133" height="5.723" rx="2.23"/></g><g transform="translate(1.922 0.392)"><g transform="translate(0)"><path class="c" d="M.816,0h24.2a.816.816,0,0,1,.816.816v0a.816.816,0,0,1-.816.816H.816A.816.816,0,0,1,0,.816v0A.816.816,0,0,1,.816,0Z"/><path class="d" d="M.816,0h24.2a.816.816,0,0,1,.816.816v0a.816.816,0,0,1-.816.816H.816A.816.816,0,0,1,0,.816v0A.816.816,0,0,1,.816,0Z"/></g><g transform="translate(0 3.264)"><path class="e" d="M729.012,134.582h23.715a.956.956,0,0,0,1.051-.816h0a.956.956,0,0,0-1.051-.816H729.012a.965.965,0,0,0-1.059.816h0A.965.965,0,0,0,729.012,134.582Z" transform="translate(-727.953 -132.95)"/><path class="f" d="M729.012,134.582h23.715a.956.956,0,0,0,1.051-.816h0a.956.956,0,0,0-1.051-.816H729.012a.965.965,0,0,0-1.059.816h0A.965.965,0,0,0,729.012,134.582Z" transform="translate(-727.953 -132.95)"/></g><g transform="translate(0 14.049)"><path class="g" d="M729.012,163.837h23.715a.956.956,0,0,0,1.051-.816h0a.956.956,0,0,0-1.051-.816H729.012a.965.965,0,0,0-1.059.816h0A.964.964,0,0,0,729.012,163.837Z" transform="translate(-727.953 -162.205)"/><path class="h" d="M729.012,163.837h23.715a.956.956,0,0,0,1.051-.816h0a.956.956,0,0,0-1.051-.816H729.012a.965.965,0,0,0-1.059.816h0A.964.964,0,0,0,729.012,163.837Z" transform="translate(-727.953 -162.205)"/></g><g transform="translate(0 17.313)"><path class="e" d="M729.012,172.691h23.715a.956.956,0,0,0,1.051-.816h0a.956.956,0,0,0-1.051-.816H729.012a.964.964,0,0,0-1.059.816h0A.964.964,0,0,0,729.012,172.691Z" transform="translate(-727.953 -171.059)"/><path class="i" d="M729.012,172.691h23.715a.956.956,0,0,0,1.051-.816h0a.956.956,0,0,0-1.051-.816H729.012a.964.964,0,0,0-1.059.816h0A.964.964,0,0,0,729.012,172.691Z" transform="translate(-727.953 -171.059)"/></g><g transform="translate(0 28.099)"><path class="e" d="M729.012,201.945h23.715a.956.956,0,0,0,1.051-.816h0a.956.956,0,0,0-1.051-.816H729.012a.964.964,0,0,0-1.059.816h0A.964.964,0,0,0,729.012,201.945Z" transform="translate(-727.953 -200.313)"/><path class="j" d="M729.012,201.945h23.715a.956.956,0,0,0,1.051-.816h0a.956.956,0,0,0-1.051-.816H729.012a.964.964,0,0,0-1.059.816h0A.964.964,0,0,0,729.012,201.945Z" transform="translate(-727.953 -200.313)"/></g><g transform="translate(0 31.363)"><path class="e" d="M729.012,210.8h23.715a.956.956,0,0,0,1.051-.816h0a.956.956,0,0,0-1.051-.816H729.012a.965.965,0,0,0-1.059.816h0A.965.965,0,0,0,729.012,210.8Z" transform="translate(-727.953 -209.166)"/><path class="k" d="M729.012,210.8h23.715a.956.956,0,0,0,1.051-.816h0a.956.956,0,0,0-1.051-.816H729.012a.965.965,0,0,0-1.059.816h0A.965.965,0,0,0,729.012,210.8Z" transform="translate(-727.953 -209.166)"/></g><g transform="translate(0 42.148)"><path class="e" d="M729.012,240.053h23.715a.956.956,0,0,0,1.051-.816h0a.956.956,0,0,0-1.051-.816H729.012a.964.964,0,0,0-1.059.816h0A.964.964,0,0,0,729.012,240.053Z" transform="translate(-727.953 -238.421)"/><path class="l" d="M729.012,240.053h23.715a.956.956,0,0,0,1.051-.816h0a.956.956,0,0,0-1.051-.816H729.012a.964.964,0,0,0-1.059.816h0A.964.964,0,0,0,729.012,240.053Z" transform="translate(-727.953 -238.421)"/></g><g transform="translate(0 45.412)"><path class="e" d="M729.012,248.907h23.715a.956.956,0,0,0,1.051-.816h0a.956.956,0,0,0-1.051-.816H729.012a.964.964,0,0,0-1.059.816h0A.964.964,0,0,0,729.012,248.907Z" transform="translate(-727.953 -247.275)"/><path class="j" d="M729.012,248.907h23.715a.956.956,0,0,0,1.051-.816h0a.956.956,0,0,0-1.051-.816H729.012a.964.964,0,0,0-1.059.816h0A.964.964,0,0,0,729.012,248.907Z" transform="translate(-727.953 -247.275)"/></g><g transform="translate(0 56.197)"><path class="e" d="M729.012,278.161h23.715a.956.956,0,0,0,1.051-.816h0a.956.956,0,0,0-1.051-.816H729.012a.965.965,0,0,0-1.059.816h0A.965.965,0,0,0,729.012,278.161Z" transform="translate(-727.953 -276.529)"/><path class="f" d="M729.012,278.161h23.715a.956.956,0,0,0,1.051-.816h0a.956.956,0,0,0-1.051-.816H729.012a.965.965,0,0,0-1.059.816h0A.965.965,0,0,0,729.012,278.161Z" transform="translate(-727.953 -276.529)"/></g><g transform="translate(0 59.462)"><path class="g" d="M729.012,287.014h23.715a.956.956,0,0,0,1.051-.816h0a.956.956,0,0,0-1.051-.816H729.012a.965.965,0,0,0-1.059.816h0A.964.964,0,0,0,729.012,287.014Z" transform="translate(-727.953 -285.382)"/><path class="l" d="M729.012,287.014h23.715a.956.956,0,0,0,1.051-.816h0a.956.956,0,0,0-1.051-.816H729.012a.965.965,0,0,0-1.059.816h0A.964.964,0,0,0,729.012,287.014Z" transform="translate(-727.953 -285.382)"/></g><g transform="translate(0 70.247)"><path class="e" d="M729.012,316.269h23.715a.956.956,0,0,0,1.051-.816h0a.956.956,0,0,0-1.051-.816H729.012a.964.964,0,0,0-1.059.816h0A.964.964,0,0,0,729.012,316.269Z" transform="translate(-727.953 -314.637)"/><path class="i" d="M729.012,316.269h23.715a.956.956,0,0,0,1.051-.816h0a.956.956,0,0,0-1.051-.816H729.012a.964.964,0,0,0-1.059.816h0A.964.964,0,0,0,729.012,316.269Z" transform="translate(-727.953 -314.637)"/></g><g transform="translate(0 73.511)"><path class="e" d="M729.012,325.122h23.715a.956.956,0,0,0,1.051-.816h0a.956.956,0,0,0-1.051-.816H729.012a.965.965,0,0,0-1.059.816h0A.965.965,0,0,0,729.012,325.122Z" transform="translate(-727.953 -323.49)"/><path class="k" d="M729.012,325.122h23.715a.956.956,0,0,0,1.051-.816h0a.956.956,0,0,0-1.051-.816H729.012a.965.965,0,0,0-1.059.816h0A.965.965,0,0,0,729.012,325.122Z" transform="translate(-727.953 -323.49)"/></g><g transform="translate(0 84.296)"><path class="e" d="M729.012,354.377h23.715a.956.956,0,0,0,1.051-.816h0a.956.956,0,0,0-1.051-.816H729.012a.964.964,0,0,0-1.059.816h0A.965.965,0,0,0,729.012,354.377Z" transform="translate(-727.953 -352.745)"/><path class="k" d="M729.012,354.377h23.715a.956.956,0,0,0,1.051-.816h0a.956.956,0,0,0-1.051-.816H729.012a.964.964,0,0,0-1.059.816h0A.965.965,0,0,0,729.012,354.377Z" transform="translate(-727.953 -352.745)"/></g><g transform="translate(0 87.561)"><path class="e" d="M729.012,363.23h23.715a.956.956,0,0,0,1.051-.816h0a.956.956,0,0,0-1.051-.816H729.012a.964.964,0,0,0-1.059.816h0A.964.964,0,0,0,729.012,363.23Z" transform="translate(-727.953 -361.598)"/><path class="i" d="M729.012,363.23h23.715a.956.956,0,0,0,1.051-.816h0a.956.956,0,0,0-1.051-.816H729.012a.964.964,0,0,0-1.059.816h0A.964.964,0,0,0,729.012,363.23Z" transform="translate(-727.953 -361.598)"/></g><g transform="translate(0 98.346)"><path class="e" d="M729.012,392.485h23.715a.956.956,0,0,0,1.051-.816h0a.956.956,0,0,0-1.051-.816H729.012a.964.964,0,0,0-1.059.816h0A.964.964,0,0,0,729.012,392.485Z" transform="translate(-727.953 -390.853)"/><path class="j" d="M729.012,392.485h23.715a.956.956,0,0,0,1.051-.816h0a.956.956,0,0,0-1.051-.816H729.012a.964.964,0,0,0-1.059.816h0A.964.964,0,0,0,729.012,392.485Z" transform="translate(-727.953 -390.853)"/></g><g transform="translate(0 101.61)"><path class="e" d="M729.012,401.338h23.715a.956.956,0,0,0,1.051-.816h0a.956.956,0,0,0-1.051-.816H729.012a.965.965,0,0,0-1.059.816h0A.965.965,0,0,0,729.012,401.338Z" transform="translate(-727.953 -399.706)"/><path class="k" d="M729.012,401.338h23.715a.956.956,0,0,0,1.051-.816h0a.956.956,0,0,0-1.051-.816H729.012a.965.965,0,0,0-1.059.816h0A.965.965,0,0,0,729.012,401.338Z" transform="translate(-727.953 -399.706)"/></g><g transform="translate(0 112.395)"><path class="g" d="M729.012,430.593h23.715a.956.956,0,0,0,1.051-.816h0a.956.956,0,0,0-1.051-.816H729.012a.965.965,0,0,0-1.059.816h0A.964.964,0,0,0,729.012,430.593Z" transform="translate(-727.953 -428.961)"/><path class="l" d="M729.012,430.593h23.715a.956.956,0,0,0,1.051-.816h0a.956.956,0,0,0-1.051-.816H729.012a.965.965,0,0,0-1.059.816h0A.964.964,0,0,0,729.012,430.593Z" transform="translate(-727.953 -428.961)"/></g><g transform="translate(0 115.659)"><path class="e" d="M729.012,439.446h23.715a.956.956,0,0,0,1.051-.816h0a.956.956,0,0,0-1.051-.816H729.012a.964.964,0,0,0-1.059.816h0A.964.964,0,0,0,729.012,439.446Z" transform="translate(-727.953 -437.815)"/><path class="j" d="M729.012,439.446h23.715a.956.956,0,0,0,1.051-.816h0a.956.956,0,0,0-1.051-.816H729.012a.964.964,0,0,0-1.059.816h0A.964.964,0,0,0,729.012,439.446Z" transform="translate(-727.953 -437.815)"/></g><g transform="translate(0 126.445)"><path class="e" d="M729.012,468.7h23.715a.956.956,0,0,0,1.051-.816h0a.956.956,0,0,0-1.051-.816H729.012a.965.965,0,0,0-1.059.816h0A.965.965,0,0,0,729.012,468.7Z" transform="translate(-727.953 -467.068)"/><path class="f" d="M729.012,468.7h23.715a.956.956,0,0,0,1.051-.816h0a.956.956,0,0,0-1.051-.816H729.012a.965.965,0,0,0-1.059.816h0A.965.965,0,0,0,729.012,468.7Z" transform="translate(-727.953 -467.068)"/></g><g transform="translate(0 129.709)"><path class="e" d="M729.012,477.554h23.715a.956.956,0,0,0,1.051-.816h0a.956.956,0,0,0-1.051-.816H729.012a.964.964,0,0,0-1.059.816h0A.964.964,0,0,0,729.012,477.554Z" transform="translate(-727.953 -475.922)"/><path class="l" d="M729.012,477.554h23.715a.956.956,0,0,0,1.051-.816h0a.956.956,0,0,0-1.051-.816H729.012a.964.964,0,0,0-1.059.816h0A.964.964,0,0,0,729.012,477.554Z" transform="translate(-727.953 -475.922)"/></g><g transform="translate(0 140.494)"><path class="e" d="M729.012,506.809h23.715a.956.956,0,0,0,1.051-.816h0a.956.956,0,0,0-1.051-.816H729.012a.964.964,0,0,0-1.059.816h0A.964.964,0,0,0,729.012,506.809Z" transform="translate(-727.953 -505.177)"/><path class="l" d="M729.012,506.809h23.715a.956.956,0,0,0,1.051-.816h0a.956.956,0,0,0-1.051-.816H729.012a.964.964,0,0,0-1.059.816h0A.964.964,0,0,0,729.012,506.809Z" transform="translate(-727.953 -505.177)"/></g><g transform="translate(0 143.758)"><path class="m" d="M729.012,515.662h23.715a.956.956,0,0,0,1.051-.816h0a.956.956,0,0,0-1.051-.816H729.012a.964.964,0,0,0-1.059.816h0A.965.965,0,0,0,729.012,515.662Z" transform="translate(-727.953 -514.031)"/><path class="j" d="M729.012,515.662h23.715a.956.956,0,0,0,1.051-.816h0a.956.956,0,0,0-1.051-.816H729.012a.964.964,0,0,0-1.059.816h0A.965.965,0,0,0,729.012,515.662Z" transform="translate(-727.953 -514.031)"/></g><g transform="translate(0 154.543)"><path class="e" d="M729.012,544.917h23.715a.956.956,0,0,0,1.051-.816h0a.956.956,0,0,0-1.051-.816H729.012a.965.965,0,0,0-1.059.816h0A.964.964,0,0,0,729.012,544.917Z" transform="translate(-727.953 -543.284)"/><path class="k" d="M729.012,544.917h23.715a.956.956,0,0,0,1.051-.816h0a.956.956,0,0,0-1.051-.816H729.012a.965.965,0,0,0-1.059.816h0A.964.964,0,0,0,729.012,544.917Z" transform="translate(-727.953 -543.284)"/></g><g transform="translate(0 157.808)"><path class="e" d="M729.012,553.77h23.715a.956.956,0,0,0,1.051-.816h0a.956.956,0,0,0-1.051-.816H729.012a.964.964,0,0,0-1.059.816h0A.964.964,0,0,0,729.012,553.77Z" transform="translate(-727.953 -552.138)"/><path class="l" d="M729.012,553.77h23.715a.956.956,0,0,0,1.051-.816h0a.956.956,0,0,0-1.051-.816H729.012a.964.964,0,0,0-1.059.816h0A.964.964,0,0,0,729.012,553.77Z" transform="translate(-727.953 -552.138)"/></g><g transform="translate(0 168.593)"><path class="e" d="M729.012,583.025h23.715a.956.956,0,0,0,1.051-.816h0a.956.956,0,0,0-1.051-.816H729.012a.964.964,0,0,0-1.059.816h0A.964.964,0,0,0,729.012,583.025Z" transform="translate(-727.953 -581.393)"/><path class="i" d="M729.012,583.025h23.715a.956.956,0,0,0,1.051-.816h0a.956.956,0,0,0-1.051-.816H729.012a.964.964,0,0,0-1.059.816h0A.964.964,0,0,0,729.012,583.025Z" transform="translate(-727.953 -581.393)"/></g><g transform="translate(0 171.857)"><path class="e" d="M729.012,591.878h23.715a.956.956,0,0,0,1.051-.816h0a.956.956,0,0,0-1.051-.816H729.012a.965.965,0,0,0-1.059.816h0A.965.965,0,0,0,729.012,591.878Z" transform="translate(-727.953 -590.246)"/><path class="k" d="M729.012,591.878h23.715a.956.956,0,0,0,1.051-.816h0a.956.956,0,0,0-1.051-.816H729.012a.965.965,0,0,0-1.059.816h0A.965.965,0,0,0,729.012,591.878Z" transform="translate(-727.953 -590.246)"/></g><g transform="translate(0 182.642)"><path class="g" d="M729.012,621.132h23.715a.956.956,0,0,0,1.051-.816h0a.956.956,0,0,0-1.051-.816H729.012a.965.965,0,0,0-1.059.816h0A.964.964,0,0,0,729.012,621.132Z" transform="translate(-727.953 -619.5)"/><path class="l" d="M729.012,621.132h23.715a.956.956,0,0,0,1.051-.816h0a.956.956,0,0,0-1.051-.816H729.012a.965.965,0,0,0-1.059.816h0A.964.964,0,0,0,729.012,621.132Z" transform="translate(-727.953 -619.5)"/></g><g transform="translate(0 185.906)"><path class="e" d="M729.012,629.986h23.715a.956.956,0,0,0,1.051-.816h0a.956.956,0,0,0-1.051-.816H729.012a.964.964,0,0,0-1.059.816h0A.964.964,0,0,0,729.012,629.986Z" transform="translate(-727.953 -628.354)"/><path class="j" d="M729.012,629.986h23.715a.956.956,0,0,0,1.051-.816h0a.956.956,0,0,0-1.051-.816H729.012a.964.964,0,0,0-1.059.816h0A.964.964,0,0,0,729.012,629.986Z" transform="translate(-727.953 -628.354)"/></g><g transform="translate(0 196.692)"><path class="e" d="M729.012,659.241h23.715a.956.956,0,0,0,1.051-.816h0a.956.956,0,0,0-1.051-.816H729.012a.964.964,0,0,0-1.059.816h0A.964.964,0,0,0,729.012,659.241Z" transform="translate(-727.953 -657.609)"/><path class="j" d="M729.012,659.241h23.715a.956.956,0,0,0,1.051-.816h0a.956.956,0,0,0-1.051-.816H729.012a.964.964,0,0,0-1.059.816h0A.964.964,0,0,0,729.012,659.241Z" transform="translate(-727.953 -657.609)"/></g><g transform="translate(0 199.956)"><path class="e" d="M729.012,668.094h23.715a.956.956,0,0,0,1.051-.816h0a.956.956,0,0,0-1.051-.816H729.012a.965.965,0,0,0-1.059.816h0A.965.965,0,0,0,729.012,668.094Z" transform="translate(-727.953 -666.462)"/><path class="k" d="M729.012,668.094h23.715a.956.956,0,0,0,1.051-.816h0a.956.956,0,0,0-1.051-.816H729.012a.965.965,0,0,0-1.059.816h0A.965.965,0,0,0,729.012,668.094Z" transform="translate(-727.953 -666.462)"/></g><g transform="translate(0 210.741)"><path class="e" d="M729.012,697.348h23.715a.956.956,0,0,0,1.051-.816h0a.956.956,0,0,0-1.051-.816H729.012a.964.964,0,0,0-1.059.816h0A.964.964,0,0,0,729.012,697.348Z" transform="translate(-727.953 -695.717)"/><path class="i" d="M729.012,697.348h23.715a.956.956,0,0,0,1.051-.816h0a.956.956,0,0,0-1.051-.816H729.012a.964.964,0,0,0-1.059.816h0A.964.964,0,0,0,729.012,697.348Z" transform="translate(-727.953 -695.717)"/></g><g transform="translate(0 214.005)"><path class="m" d="M729.012,706.2h23.715a.956.956,0,0,0,1.051-.816h0a.956.956,0,0,0-1.051-.816H729.012a.964.964,0,0,0-1.059.816h0A.965.965,0,0,0,729.012,706.2Z" transform="translate(-727.953 -704.57)"/><path class="j" d="M729.012,706.2h23.715a.956.956,0,0,0,1.051-.816h0a.956.956,0,0,0-1.051-.816H729.012a.964.964,0,0,0-1.059.816h0A.965.965,0,0,0,729.012,706.2Z" transform="translate(-727.953 -704.57)"/></g><g transform="translate(0 224.791)"><path class="e" d="M729.012,735.456h23.715a.956.956,0,0,0,1.051-.816h0a.956.956,0,0,0-1.051-.816H729.012a.965.965,0,0,0-1.059.816h0A.964.964,0,0,0,729.012,735.456Z" transform="translate(-727.953 -733.824)"/><path class="k" d="M729.012,735.456h23.715a.956.956,0,0,0,1.051-.816h0a.956.956,0,0,0-1.051-.816H729.012a.965.965,0,0,0-1.059.816h0A.964.964,0,0,0,729.012,735.456Z" transform="translate(-727.953 -733.824)"/></g><g transform="translate(0 228.055)"><path class="e" d="M729.012,744.31h23.715a.956.956,0,0,0,1.051-.816h0a.956.956,0,0,0-1.051-.816H729.012a.964.964,0,0,0-1.059.816h0A.964.964,0,0,0,729.012,744.31Z" transform="translate(-727.953 -742.678)"/><path class="l" d="M729.012,744.31h23.715a.956.956,0,0,0,1.051-.816h0a.956.956,0,0,0-1.051-.816H729.012a.964.964,0,0,0-1.059.816h0A.964.964,0,0,0,729.012,744.31Z" transform="translate(-727.953 -742.678)"/></g><g transform="translate(0 238.84)"><path class="e" d="M729.012,773.565h23.715a.956.956,0,0,0,1.051-.816h0a.956.956,0,0,0-1.051-.816H729.012a.964.964,0,0,0-1.059.816h0A.964.964,0,0,0,729.012,773.565Z" transform="translate(-727.953 -771.933)"/><path class="j" d="M729.012,773.565h23.715a.956.956,0,0,0,1.051-.816h0a.956.956,0,0,0-1.051-.816H729.012a.964.964,0,0,0-1.059.816h0A.964.964,0,0,0,729.012,773.565Z" transform="translate(-727.953 -771.933)"/></g><g transform="translate(0 242.104)"><path class="e" d="M729.012,782.418h23.715a.956.956,0,0,0,1.051-.816h0a.956.956,0,0,0-1.051-.816H729.012a.964.964,0,0,0-1.059.816h0A.965.965,0,0,0,729.012,782.418Z" transform="translate(-727.953 -780.785)"/><path class="k" d="M729.012,782.418h23.715a.956.956,0,0,0,1.051-.816h0a.956.956,0,0,0-1.051-.816H729.012a.964.964,0,0,0-1.059.816h0A.965.965,0,0,0,729.012,782.418Z" transform="translate(-727.953 -780.785)"/></g><g transform="translate(0 252.889)"><path class="e" d="M729.012,811.672h23.715a.956.956,0,0,0,1.051-.816h0a.956.956,0,0,0-1.051-.816H729.012a.965.965,0,0,0-1.059.816h0A.965.965,0,0,0,729.012,811.672Z" transform="translate(-727.953 -810.04)"/><path class="k" d="M729.012,811.672h23.715a.956.956,0,0,0,1.051-.816h0a.956.956,0,0,0-1.051-.816H729.012a.965.965,0,0,0-1.059.816h0A.965.965,0,0,0,729.012,811.672Z" transform="translate(-727.953 -810.04)"/></g><g transform="translate(0 256.154)"><path class="e" d="M729.012,820.526h23.715a.956.956,0,0,0,1.051-.816h0a.956.956,0,0,0-1.051-.816H729.012a.964.964,0,0,0-1.059.816h0A.964.964,0,0,0,729.012,820.526Z" transform="translate(-727.953 -818.894)"/><path class="i" d="M729.012,820.526h23.715a.956.956,0,0,0,1.051-.816h0a.956.956,0,0,0-1.051-.816H729.012a.964.964,0,0,0-1.059.816h0A.964.964,0,0,0,729.012,820.526Z" transform="translate(-727.953 -818.894)"/></g><g transform="translate(0 266.939)"><path class="m" d="M729.012,849.781h23.715a.956.956,0,0,0,1.051-.816h0a.956.956,0,0,0-1.051-.816H729.012a.964.964,0,0,0-1.059.816h0A.965.965,0,0,0,729.012,849.781Z" transform="translate(-727.953 -848.149)"/><path class="j" d="M729.012,849.781h23.715a.956.956,0,0,0,1.051-.816h0a.956.956,0,0,0-1.051-.816H729.012a.964.964,0,0,0-1.059.816h0A.965.965,0,0,0,729.012,849.781Z" transform="translate(-727.953 -848.149)"/></g><g transform="translate(0 270.203)"><path class="e" d="M729.012,858.634h23.715a.956.956,0,0,0,1.051-.816h0a.956.956,0,0,0-1.051-.816H729.012a.965.965,0,0,0-1.059.816h0A.964.964,0,0,0,729.012,858.634Z" transform="translate(-727.953 -857.001)"/><path class="n" d="M729.012,858.634h23.715a.956.956,0,0,0,1.051-.816h0a.956.956,0,0,0-1.051-.816H729.012a.965.965,0,0,0-1.059.816h0A.964.964,0,0,0,729.012,858.634Z" transform="translate(-727.953 -857.001)"/></g><g transform="translate(0 280.988)"><path class="g" d="M729.012,887.888h23.715a.956.956,0,0,0,1.051-.816h0a.956.956,0,0,0-1.051-.816H729.012a.964.964,0,0,0-1.059.816h0A.964.964,0,0,0,729.012,887.888Z" transform="translate(-727.953 -886.256)"/><path class="l" d="M729.012,887.888h23.715a.956.956,0,0,0,1.051-.816h0a.956.956,0,0,0-1.051-.816H729.012a.964.964,0,0,0-1.059.816h0A.964.964,0,0,0,729.012,887.888Z" transform="translate(-727.953 -886.256)"/></g><g transform="translate(0 284.252)"><path class="m" d="M729.012,896.742h23.715a.956.956,0,0,0,1.051-.816h0a.956.956,0,0,0-1.051-.816H729.012a.964.964,0,0,0-1.059.816h0A.964.964,0,0,0,729.012,896.742Z" transform="translate(-727.953 -895.11)"/><path class="j" d="M729.012,896.742h23.715a.956.956,0,0,0,1.051-.816h0a.956.956,0,0,0-1.051-.816H729.012a.964.964,0,0,0-1.059.816h0A.964.964,0,0,0,729.012,896.742Z" transform="translate(-727.953 -895.11)"/></g><g transform="translate(0 295.038)"><path class="e" d="M729.012,926h23.715a.956.956,0,0,0,1.051-.816h0a.956.956,0,0,0-1.051-.816H729.012a.965.965,0,0,0-1.059.816h0A.965.965,0,0,0,729.012,926Z" transform="translate(-727.953 -924.364)"/><path class="k" d="M729.012,926h23.715a.956.956,0,0,0,1.051-.816h0a.956.956,0,0,0-1.051-.816H729.012a.965.965,0,0,0-1.059.816h0A.965.965,0,0,0,729.012,926Z" transform="translate(-727.953 -924.364)"/></g><g transform="translate(0 298.302)"><path class="e" d="M729.012,934.849h23.715a.956.956,0,0,0,1.051-.816h0a.956.956,0,0,0-1.051-.816H729.012a.964.964,0,0,0-1.059.816h0A.964.964,0,0,0,729.012,934.849Z" transform="translate(-727.953 -933.218)"/><path class="l" d="M729.012,934.849h23.715a.956.956,0,0,0,1.051-.816h0a.956.956,0,0,0-1.051-.816H729.012a.964.964,0,0,0-1.059.816h0A.964.964,0,0,0,729.012,934.849Z" transform="translate(-727.953 -933.218)"/></g><g transform="translate(0 309.087)"><path class="e" d="M729.012,964.1h23.715a.956.956,0,0,0,1.051-.816h0a.956.956,0,0,0-1.051-.816H729.012a.964.964,0,0,0-1.059.816h0A.964.964,0,0,0,729.012,964.1Z" transform="translate(-727.953 -962.472)"/><path class="l" d="M729.012,964.1h23.715a.956.956,0,0,0,1.051-.816h0a.956.956,0,0,0-1.051-.816H729.012a.964.964,0,0,0-1.059.816h0A.964.964,0,0,0,729.012,964.1Z" transform="translate(-727.953 -962.472)"/></g><g transform="translate(0 312.351)"><path class="m" d="M729.012,972.958h23.715a.956.956,0,0,0,1.051-.816h0a.956.956,0,0,0-1.051-.816H729.012a.964.964,0,0,0-1.059.816h0A.964.964,0,0,0,729.012,972.958Z" transform="translate(-727.953 -971.326)"/><path class="o" d="M729.012,972.958h23.715a.956.956,0,0,0,1.051-.816h0a.956.956,0,0,0-1.051-.816H729.012a.964.964,0,0,0-1.059.816h0A.964.964,0,0,0,729.012,972.958Z" transform="translate(-727.953 -971.326)"/></g><g transform="translate(0 323.136)"><path class="c" d="M729.012,1002.212h23.715a.956.956,0,0,0,1.051-.816h0a.956.956,0,0,0-1.051-.816H729.012a.965.965,0,0,0-1.059.816h0A.965.965,0,0,0,729.012,1002.212Z" transform="translate(-727.953 -1000.58)"/><path class="p" d="M729.012,1002.212h23.715a.956.956,0,0,0,1.051-.816h0a.956.956,0,0,0-1.051-.816H729.012a.965.965,0,0,0-1.059.816h0A.965.965,0,0,0,729.012,1002.212Z" transform="translate(-727.953 -1000.58)"/></g><g transform="translate(0 326.401)"><rect class="c" width="25.83" height="1.632" rx="0.816"/><rect class="d" width="25.83" height="1.632" rx="0.816"/></g></g></g></svg>