<svg xmlns="http://www.w3.org/2000/svg" width="95.048" height="84.778" viewBox="0 0 95.048 84.778"><defs><style>.a{fill:#f3fffb;}.b{fill:#555e65;}.c{fill:#fff;}.d{fill:none;}.e{fill:#161616;opacity:0.1;}</style></defs><g transform="translate(0 0)"><path class="a" d="M125.511,91.783,75.693,98.119,36.8,91.783V22.3l38.893,6.555L125.511,22.3Z" transform="translate(-31.337 -14.434)"/><path class="b" d="M76.185,99.923h0L36.2,93.149V21.7l39.985,6.773,50.91-6.555V93.368ZM38.6,91.4l37.8,6.337L125.129,91.4V24.322L76.185,30.658h0L38.6,24.322Z" transform="translate(-32.048 -15.145)"/><path class="c" d="M123.729,88.783,78.281,95.338,34.8,88.783V19.3l44.137,6.555L123.729,19.3Z" transform="translate(-33.707 -17.989)"/><path class="b" d="M78.874,96.923h0L34.3,90.368V18.918l45.229,6.555L125.414,18.7V90.149Zm-42.389-8.3,42.389,6.337,44.355-6.337v-67.3l-43.7,6.336h-.219L36.485,21.322v67.3Z" transform="translate(-34.3 -18.7)"/><line class="d" y2="21.631" transform="translate(44.355 23.161)"/><line class="d" y2="4.151" transform="translate(44.355 51.347)"/><path class="e" d="M54.6,25.355V94.838l45.448-5.244L101.359,18.8Z" transform="translate(-10.245 -18.582)"/></g></svg>