<svg xmlns="http://www.w3.org/2000/svg" width="68" height="55.323" viewBox="0 0 68 55.323"><defs><style>.a{fill:#ff6733;}</style></defs><g transform="translate(0 -0.5)"><path class="a" d="M62.355,11.646h-.583a6.3,6.3,0,0,0-5.637-5.528A6.3,6.3,0,0,0,49.881.5H9.742A9.753,9.753,0,0,0,0,10.242V38.385A6.3,6.3,0,0,0,5.68,44.647a6.3,6.3,0,0,0,6.151,5.615,5.638,5.638,0,0,0,5.644,5.561h44.88A5.652,5.652,0,0,0,68,50.177V17.292a5.653,5.653,0,0,0-5.646-5.646Zm2.99,5.646V39.039l-5.777-4.364a4.434,4.434,0,0,0-5.313-.046l-7.308,5.325L33.009,25.584a4.452,4.452,0,0,0-6.15-.239L14.486,36.261V17.292a2.993,2.993,0,0,1,2.989-2.99h44.88a2.993,2.993,0,0,1,2.99,2.99Zm0,32.885a2.993,2.993,0,0,1-2.989,2.99H17.475a2.99,2.99,0,0,1-2.989-2.989V39.8L28.617,27.337a1.8,1.8,0,0,1,2.486.1l6.29,6.485h0L49.912,46.827a1.328,1.328,0,1,0,1.907-1.849l-3-3.1,7-5.1a1.792,1.792,0,0,1,2.147.018l7.378,5.574ZM8.3,43.973V12.614a3.827,3.827,0,0,1,.02-.4,3.875,3.875,0,0,1,3.85-3.475H28.417a1.328,1.328,0,1,0,0-2.656H12.171a6.534,6.534,0,0,0-6.527,6.527V41.963a3.641,3.641,0,0,1-2.988-3.578V10.242A7.094,7.094,0,0,1,9.742,3.156H49.881a3.64,3.64,0,0,1,3.565,2.931h-14.4a1.328,1.328,0,1,0,0,2.656H55.526a3.64,3.64,0,0,1,3.56,2.9H17.475a5.652,5.652,0,0,0-5.646,5.646V39.2h0v8.4A3.638,3.638,0,0,1,8.3,43.973Zm0,0"/><path class="a" d="M351.4,145.117a5.684,5.684,0,1,0,5.684,5.684A5.69,5.69,0,0,0,351.4,145.117Zm0,8.711a3.028,3.028,0,1,1,3.027-3.027A3.031,3.031,0,0,1,351.4,153.828Zm0,0" transform="translate(-299.803 -125.41)"/><path class="a" d="M244.063,44.409a1.362,1.362,0,0,0,.122.229,1.315,1.315,0,0,0,.165.2,1.391,1.391,0,0,0,.2.166,1.353,1.353,0,0,0,.23.122,1.331,1.331,0,0,0,.768.076,1.344,1.344,0,0,0,.477-.2,1.42,1.42,0,0,0,.2-.166,1.322,1.322,0,0,0,.166-.2,1.362,1.362,0,0,0,.122-.229,1.39,1.39,0,0,0,.076-.248,1.347,1.347,0,0,0,.025-.26,1.343,1.343,0,0,0-.223-.737,1.3,1.3,0,0,0-.166-.2,1.315,1.315,0,0,0-.2-.165,1.344,1.344,0,0,0-.477-.2,1.306,1.306,0,0,0-.519,0,1.323,1.323,0,0,0-.249.076,1.352,1.352,0,0,0-.23.122,1.3,1.3,0,0,0-.367.367,1.347,1.347,0,0,0-.224.737,1.348,1.348,0,0,0,.026.26A1.392,1.392,0,0,0,244.063,44.409Zm0,0" transform="translate(-211.559 -36.485)"/></g></svg>