<svg xmlns="http://www.w3.org/2000/svg" viewBox="0 0 96 96"><defs><style>.cls-1{fill:#f9f9f9;}.cls-2{fill:none;stroke:#707070;stroke-dasharray:10;}.cls-3{fill:#9a9ca0;}</style></defs><title>upload</title><g id="Layer_2" data-name="Layer 2"><g id="Layer_1-2" data-name="Layer 1"><g id="Rectangle_680" data-name="Rectangle 680"><rect class="cls-1" width="96" height="96" rx="8"/><rect class="cls-2" x="0.5" y="0.5" width="95" height="95" rx="7.5"/></g><g id="Group_95" data-name="Group 95"><g id="_25399" data-name=" 25399"><path id="Path_2248" data-name="Path 2248" class="cls-3" d="M73.2,38.73a10.94,10.94,0,0,0-6.14-3.9,7.35,7.35,0,0,0-6.18-11.32,7,7,0,0,0-4.77,1.78,14.73,14.73,0,0,0-13.63-9.14,14.18,14.18,0,0,0-10.4,4.31,14.15,14.15,0,0,0-4.32,10.4c0,.25,0,.67.06,1.24A12.86,12.86,0,0,0,20.4,43.75,12.91,12.91,0,0,0,33.28,56.63H64.56a11,11,0,0,0,8.64-17.9ZM56.93,38a.93.93,0,0,1-.65.27H49.84V48.35a.93.93,0,0,1-.92.92H43.4a.94.94,0,0,1-.92-.92V38.22H36a.88.88,0,0,1-.92-.85V37.3a1.07,1.07,0,0,1,.29-.69L45.5,26.52a1,1,0,0,1,1.32,0L56.94,36.64a.94.94,0,0,1,0,1.31Z"/></g></g><path d="M30.44,67.77v4.81a3.41,3.41,0,0,1-3.63,3.76,3.51,3.51,0,0,1-3.73-3.76V67.77h1.57v4.81a2.06,2.06,0,0,0,2.17,2.32c1.31,0,2.05-.88,2.05-2.32V67.77Z"/><path d="M36,73.69H33.58v2.47H32v-8.4h4A3,3,0,1,1,36,73.69Zm-2.37-1.45H36a1.49,1.49,0,1,0,0-3H33.58Z"/><path d="M41.69,67.76v6.93H46v1.47H40.1v-8.4Z"/><path d="M55.12,72a4.31,4.31,0,1,1-8.62,0,4.31,4.31,0,1,1,8.62,0Zm-7.06,0a2.75,2.75,0,1,0,5.5,0,2.76,2.76,0,1,0-5.5,0Z"/><path d="M62.25,74.57H57.86l-.72,1.59H55.43l3.76-8.4h1.73l3.77,8.4H63Zm-2.19-5L58.5,73.1h3.12Z"/><path d="M73.05,71.89a4,4,0,0,1-4.2,4.27H65.56v-8.4h3.29A4,4,0,0,1,73.05,71.89Zm-5.92,2.74h1.72a2.69,2.69,0,0,0,0-5.37H67.13Z"/></g></g></svg>