<svg xmlns="http://www.w3.org/2000/svg" width="64.583" height="84.204" viewBox="0 0 64.583 84.204"><defs><style>.a{fill:#8c98f1;}.b{fill:#555e65;}.c{fill:#f3fffb;}.d{fill:none;stroke:#555e65;stroke-miterlimit:10;}</style></defs><g transform="translate(0.5)"><path class="a" d="M61.995,70.866H33.567c-.539,0-.808.4-.808.943h0V82.048a.9.9,0,0,1-.808.943H10.395A5.891,5.891,0,0,1,4.6,76.929h0v-71A5.726,5.726,0,0,1,10.125,0H60.108a1.927,1.927,0,0,1,1.886,1.886h0Z" transform="translate(0.788 0)"/><path class="b" d="M31.836,84.2H9.336A6.756,6.756,0,0,1,2.6,77.467V6.6A6.5,6.5,0,0,1,9.067,0H61.341A2.558,2.558,0,0,1,63.9,2.56h0V72.078H33.587a.29.29,0,0,0-.269.269V82.587A1.529,1.529,0,0,1,31.836,84.2ZM9.067,1.347A5.148,5.148,0,0,0,3.947,6.6V77.467a5.522,5.522,0,0,0,5.389,5.524h22.5a.29.29,0,0,0,.269-.269V72.483a1.618,1.618,0,0,1,1.482-1.617h29.1V2.56a1.207,1.207,0,0,0-1.213-1.213H9.067Z" transform="translate(0.095 0)"/><path class="c" d="M62.668,65.625H10.394A5.815,5.815,0,0,1,4.6,59.563h0A6.073,6.073,0,0,1,10.394,53.5H62.668l-.539.808A8.615,8.615,0,0,0,62.668,65.625Z" transform="translate(0.788 18.578)"/><path class="b" d="M63.4,65.973H9.236A6.756,6.756,0,0,1,2.5,59.236,6.671,6.671,0,0,1,9.236,52.5H63.4c.269,0,.539.135.539.4.135.269.135.539-.135.674l-.539.943A7.823,7.823,0,0,0,63.8,64.895c.135.135.269.539.135.674C63.935,65.838,63.666,65.973,63.4,65.973ZM9.236,53.982a5.389,5.389,0,1,0,0,10.778H61.914a9.1,9.1,0,0,1,0-10.643H9.236Z" transform="translate(0.06 18.231)"/><path class="d" d="M4.642,55.184h0A4.053,4.053,0,0,1,.6,51.142,3.97,3.97,0,0,1,4.642,47.1a3.97,3.97,0,0,1,4.042,4.042" transform="translate(-0.6 16.356)"/><path class="d" d="M4.642,49.184h0A4.053,4.053,0,0,1,.6,45.142,3.97,3.97,0,0,1,4.642,41.1a3.97,3.97,0,0,1,4.042,4.042" transform="translate(-0.6 14.272)"/><path class="d" d="M4.642,43.284h0A4.053,4.053,0,0,1,.6,39.242,3.97,3.97,0,0,1,4.642,35.2a3.97,3.97,0,0,1,4.042,4.042" transform="translate(-0.6 12.224)"/><path class="d" d="M4.642,37.284h0a4.042,4.042,0,1,1,0-8.084,3.97,3.97,0,0,1,4.042,4.042" transform="translate(-0.6 10.14)"/><path class="d" d="M4.642,31.384h0A4.053,4.053,0,0,1,.6,27.342,3.97,3.97,0,0,1,4.642,23.3a3.97,3.97,0,0,1,4.042,4.042" transform="translate(-0.6 8.091)"/><path class="d" d="M4.642,25.384h0a4.042,4.042,0,1,1,0-8.084,3.97,3.97,0,0,1,4.042,4.042" transform="translate(-0.6 6.008)"/><path class="d" d="M4.642,19.484h0A4.053,4.053,0,0,1,.6,15.442,3.97,3.97,0,0,1,4.642,11.4a3.97,3.97,0,0,1,4.042,4.042" transform="translate(-0.6 3.959)"/><path class="d" d="M4.642,13.484h0a4.042,4.042,0,0,1,0-8.084A3.97,3.97,0,0,1,8.684,9.442" transform="translate(-0.6 1.875)"/></g></svg>